M48
;DRILL file {KiCad 4.0.7} date 06/03/18 23:49:24
;FORMAT={-:-/ absolute / metric / decimal}
FMAT,2
METRIC,TZ
T1C0.500
T2C0.762
T3C0.800
T4C0.900
T5C1.000
T6C1.020
T7C1.100
T8C1.200
T9C1.270
T10C3.200
%
G90
G05
M71
T1
X62.34Y-35.83
T2
X17.149Y-29.036
X17.149Y-31.576
X17.149Y-39.704
X17.149Y-42.244
X19.42Y-49.1
X19.42Y-54.18
X35.691Y-29.036
X35.691Y-31.576
X35.691Y-39.704
X35.691Y-42.244
X39.42Y-47.83
X39.42Y-50.37
X39.42Y-52.91
X39.42Y-55.45
T3
X73.87Y-33.03
X73.88Y-29.
X73.88Y-40.
X73.88Y-44.
X74.Y-51.5
X74.Y-55.43
X74.Y-62.5
X74.Y-66.5
X81.49Y-33.03
X81.5Y-29.
X81.5Y-40.
X81.5Y-44.
X81.62Y-51.5
X81.62Y-55.43
X81.62Y-62.5
X81.62Y-66.5
X87.Y-69.5
X94.62Y-69.5
T4
X5.15Y-9.67
X7.05Y-9.67
X8.95Y-9.67
X10.85Y-9.67
X17.15Y-7.87
X19.05Y-7.87
X20.95Y-7.87
X22.85Y-7.87
X29.06Y-14.5
X29.08Y-6.69
X30.96Y-14.5
X30.98Y-6.69
X32.86Y-14.5
X32.88Y-6.69
X34.76Y-14.5
X34.78Y-6.69
X41.15Y-6.07
X43.05Y-6.07
X44.95Y-6.07
X46.85Y-6.07
X53.15Y-6.06
X55.05Y-6.06
X56.95Y-6.06
X58.85Y-6.06
X65.14Y-6.67
X65.17Y-14.51
X67.04Y-6.67
X67.07Y-14.51
X68.94Y-6.67
X68.97Y-14.51
X70.84Y-6.67
X77.15Y-7.87
X79.05Y-7.87
X80.95Y-7.87
X82.85Y-7.87
X89.15Y-9.71
X91.05Y-9.71
X92.95Y-9.71
X94.85Y-9.71
T5
X41.77Y-28.03
X41.77Y-43.03
T6
X6.Y-44.5
X6.Y-47.5
X6.Y-50.5
X6.Y-53.5
X86.Y-35.5
X86.Y-38.5
X86.Y-41.5
X86.Y-57.5
X86.Y-60.5
X86.Y-63.5
X95.Y-35.5
X95.Y-38.5
X95.Y-41.5
X95.Y-57.5
X95.Y-60.5
X95.Y-63.5
T7
X54.72Y-29.48
X54.72Y-32.02
X54.72Y-34.56
X54.72Y-37.1
X54.72Y-39.64
X54.72Y-42.18
X54.72Y-44.72
X54.72Y-47.26
X54.72Y-49.8
X54.72Y-52.34
X54.72Y-54.88
X54.72Y-57.42
X54.72Y-59.96
X54.72Y-62.5
X57.26Y-62.5
X59.8Y-62.5
X62.34Y-44.72
X62.34Y-47.26
X62.34Y-49.8
X62.34Y-52.34
X62.34Y-54.88
X62.34Y-57.42
X62.34Y-59.96
X62.34Y-62.5
X64.88Y-44.72
X64.88Y-47.26
X64.88Y-49.8
X64.88Y-52.34
X64.88Y-54.88
X64.88Y-57.42
X64.88Y-59.96
X64.88Y-62.5
X67.42Y-32.02
X67.42Y-37.1
X67.42Y-39.64
X67.42Y-42.18
X67.42Y-62.5
X69.96Y-29.48
X69.96Y-32.02
X69.96Y-34.56
X69.96Y-37.1
X69.96Y-39.64
X69.96Y-42.18
X69.96Y-44.72
X69.96Y-47.26
X69.96Y-49.8
X69.96Y-52.34
X69.96Y-54.88
X69.96Y-57.42
X69.96Y-59.96
X69.96Y-62.5
T8
X24.34Y-61.64
X26.88Y-61.64
X29.42Y-61.64
X37.8Y-61.64
X40.34Y-61.64
X42.88Y-61.64
X45.42Y-61.64
X90.91Y-15.71
X93.45Y-15.71
X95.99Y-15.71
T9
X4.04Y-41.5
X4.04Y-56.5
X84.04Y-32.5
X84.04Y-44.5
X84.04Y-54.5
X84.04Y-66.5
X93.04Y-32.5
X93.04Y-44.5
X93.04Y-54.5
X93.04Y-66.5
T10
X5.Y-25.
X5.Y-75.5
X20.Y-14.5
X21.5Y-69.5
X34.Y-69.5
X48.Y-69.5
X80.Y-14.5
X94.5Y-25.
X95.Y-75.5
T0
M30
