G04 #@! TF.FileFunction,Copper,L1,Top,Signal*
%FSLAX46Y46*%
G04 Gerber Fmt 4.6, Leading zero omitted, Abs format (unit mm)*
G04 Created by KiCad (PCBNEW 4.0.7) date 06/03/18 23:49:29*
%MOMM*%
%LPD*%
G01*
G04 APERTURE LIST*
%ADD10C,0.100000*%
%ADD11C,1.524000*%
%ADD12R,2.000000X2.000000*%
%ADD13O,2.000000X2.000000*%
%ADD14C,1.600000*%
%ADD15R,1.600000X1.600000*%
%ADD16C,1.900000*%
%ADD17R,1.070000X1.800000*%
%ADD18O,1.070000X1.800000*%
%ADD19R,1.700000X2.000000*%
%ADD20C,1.530000*%
%ADD21R,2.000000X2.600000*%
%ADD22O,2.000000X2.600000*%
%ADD23O,1.600000X1.600000*%
%ADD24C,0.500000*%
%ADD25C,0.700000*%
%ADD26C,0.254000*%
G04 APERTURE END LIST*
D10*
D11*
X39420000Y-55450000D03*
X39420000Y-52910000D03*
X39420000Y-50370000D03*
X39420000Y-47830000D03*
X19420000Y-54180000D03*
X19420000Y-49100000D03*
D12*
X41770000Y-43030000D03*
D13*
X41770000Y-28030000D03*
D11*
X35691000Y-39704000D03*
X35691000Y-42244000D03*
X35691000Y-29036000D03*
X35691000Y-31576000D03*
X17149000Y-39704000D03*
X17149000Y-31576000D03*
X17149000Y-42244000D03*
X17149000Y-29036000D03*
D14*
X62340000Y-62500000D03*
X64880000Y-62500000D03*
X67420000Y-62500000D03*
X69960000Y-62500000D03*
X59800000Y-62500000D03*
X57260000Y-62500000D03*
X54720000Y-62500000D03*
X69960000Y-59960000D03*
X69960000Y-57420000D03*
X69960000Y-54880000D03*
X69960000Y-52340000D03*
X69960000Y-49800000D03*
X69960000Y-47260000D03*
X69960000Y-44720000D03*
X69960000Y-42180000D03*
X69960000Y-39640000D03*
X69960000Y-37100000D03*
X69960000Y-34560000D03*
X69960000Y-32020000D03*
X69960000Y-29480000D03*
X67420000Y-32020000D03*
X67420000Y-37100000D03*
X67420000Y-39640000D03*
X67420000Y-42180000D03*
X54720000Y-59960000D03*
X54720000Y-57420000D03*
X54720000Y-54880000D03*
X54720000Y-52340000D03*
X54720000Y-49800000D03*
X54720000Y-47260000D03*
X54720000Y-44720000D03*
X54720000Y-42180000D03*
X54720000Y-39640000D03*
X54720000Y-37100000D03*
X54720000Y-34560000D03*
X54720000Y-32020000D03*
D15*
X54720000Y-29480000D03*
D14*
X62340000Y-44720000D03*
X62340000Y-47260000D03*
X62340000Y-49800000D03*
X62340000Y-52340000D03*
X62340000Y-54880000D03*
X62340000Y-57420000D03*
X62340000Y-59960000D03*
X64880000Y-59960000D03*
X64880000Y-57420000D03*
X64880000Y-54880000D03*
X64880000Y-52340000D03*
X64880000Y-49800000D03*
X64880000Y-47260000D03*
X64880000Y-44720000D03*
D16*
X62340000Y-35830000D03*
D17*
X94850000Y-9710000D03*
D18*
X92950000Y-9710000D03*
X91050000Y-9710000D03*
X89150000Y-9710000D03*
D17*
X82850000Y-7870000D03*
D18*
X80950000Y-7870000D03*
X79050000Y-7870000D03*
X77150000Y-7870000D03*
D17*
X70840000Y-6670000D03*
D18*
X68940000Y-6670000D03*
X67040000Y-6670000D03*
X65140000Y-6670000D03*
D17*
X58850000Y-6060000D03*
D18*
X56950000Y-6060000D03*
X55050000Y-6060000D03*
X53150000Y-6060000D03*
D17*
X46850000Y-6070000D03*
D18*
X44950000Y-6070000D03*
X43050000Y-6070000D03*
X41150000Y-6070000D03*
D17*
X34780000Y-6690000D03*
D18*
X32880000Y-6690000D03*
X30980000Y-6690000D03*
X29080000Y-6690000D03*
D17*
X22850000Y-7870000D03*
D18*
X20950000Y-7870000D03*
X19050000Y-7870000D03*
X17150000Y-7870000D03*
D17*
X10850000Y-9670000D03*
D18*
X8950000Y-9670000D03*
X7050000Y-9670000D03*
X5150000Y-9670000D03*
D17*
X29060000Y-14500000D03*
D18*
X30960000Y-14500000D03*
X32860000Y-14500000D03*
X34760000Y-14500000D03*
D17*
X65170000Y-14510000D03*
D18*
X67070000Y-14510000D03*
X68970000Y-14510000D03*
D19*
X97250000Y-7410000D03*
X97250000Y-11410000D03*
D20*
X6000000Y-44500000D03*
X6000000Y-47500000D03*
X6000000Y-50500000D03*
X6000000Y-53500000D03*
X95000000Y-35500000D03*
X95000000Y-38500000D03*
X95000000Y-41500000D03*
X86000000Y-35500000D03*
X86000000Y-38500000D03*
X86000000Y-41500000D03*
X95000000Y-57500000D03*
X95000000Y-60500000D03*
X95000000Y-63500000D03*
X86000000Y-57500000D03*
X86000000Y-60500000D03*
X86000000Y-63500000D03*
D21*
X24340000Y-61640000D03*
D22*
X26880000Y-61640000D03*
X29420000Y-61640000D03*
D21*
X95989999Y-15710000D03*
D22*
X93449999Y-15710000D03*
X90909999Y-15710000D03*
D21*
X37800000Y-61640000D03*
D22*
X40340000Y-61640000D03*
X42880000Y-61640000D03*
X45420000Y-61640000D03*
D14*
X73880000Y-40000000D03*
D23*
X81500000Y-40000000D03*
D14*
X81500000Y-44000000D03*
D23*
X73880000Y-44000000D03*
D14*
X74000000Y-62500000D03*
D23*
X81620000Y-62500000D03*
D14*
X81620000Y-66500000D03*
D23*
X74000000Y-66500000D03*
D14*
X74000000Y-51500000D03*
D23*
X81620000Y-51500000D03*
D14*
X81620000Y-55430000D03*
D23*
X74000000Y-55430000D03*
D14*
X73880000Y-29000000D03*
D23*
X81500000Y-29000000D03*
D14*
X81490000Y-33030000D03*
D23*
X73870000Y-33030000D03*
D14*
X87000000Y-69500000D03*
D23*
X94620000Y-69500000D03*
D24*
X54720000Y-42180000D02*
X52887230Y-42180000D01*
X52887230Y-42180000D02*
X44697230Y-50370000D01*
X44697230Y-50370000D02*
X39420000Y-50370000D01*
X39420000Y-47830000D02*
X44638723Y-47830000D01*
X44638723Y-47830000D02*
X52828723Y-39640000D01*
X52828723Y-39640000D02*
X54720000Y-39640000D01*
X6000000Y-50500000D02*
X18020000Y-50500000D01*
X18020000Y-50500000D02*
X19420000Y-49100000D01*
X6000000Y-53500000D02*
X18740000Y-53500000D01*
X18740000Y-53500000D02*
X19420000Y-54180000D01*
D25*
X95000000Y-57500000D02*
X98070000Y-60570000D01*
X96569950Y-69500000D02*
X94620000Y-69500000D01*
X98070000Y-60570000D02*
X98070000Y-67999950D01*
X98070000Y-67999950D02*
X96569950Y-69500000D01*
X95000000Y-35500000D02*
X97500000Y-35500000D01*
X97500000Y-35500000D02*
X98145001Y-36145001D01*
X98145001Y-36145001D02*
X98145001Y-56576319D01*
X98145001Y-56576319D02*
X97221320Y-57500000D01*
X97221320Y-57500000D02*
X95000000Y-57500000D01*
X95000000Y-57500000D02*
X86000000Y-57500000D01*
X86000000Y-35500000D02*
X95000000Y-35500000D01*
X69960000Y-29480000D02*
X69960000Y-27540000D01*
X86000000Y-27500000D02*
X86000000Y-35500000D01*
X69960000Y-27540000D02*
X71500000Y-26000000D01*
X71500000Y-26000000D02*
X84500000Y-26000000D01*
X84500000Y-26000000D02*
X86000000Y-27500000D01*
X69960000Y-29480000D02*
X69960000Y-26751257D01*
X49300000Y-27900000D02*
X51506005Y-25693995D01*
X51506005Y-25693995D02*
X68902738Y-25693995D01*
X49300000Y-38270000D02*
X49300000Y-27900000D01*
X44540000Y-43030000D02*
X49300000Y-38270000D01*
X41770000Y-43030000D02*
X44540000Y-43030000D01*
X38214000Y-42244000D02*
X39000000Y-43030000D01*
X39000000Y-43030000D02*
X41770000Y-43030000D01*
X35691000Y-42244000D02*
X38214000Y-42244000D01*
X35691000Y-42244000D02*
X34613370Y-42244000D01*
X35691000Y-39704000D02*
X35691000Y-42244000D01*
X69960000Y-26751257D02*
X68902738Y-25693995D01*
X24340000Y-60167949D02*
X24340000Y-61640000D01*
X24340000Y-52517370D02*
X24340000Y-61640000D01*
X34613370Y-42244000D02*
X24340000Y-52517370D01*
X37800000Y-61640000D02*
X37800000Y-58976771D01*
X37800000Y-58976771D02*
X36606434Y-57783205D01*
X36606434Y-57783205D02*
X26724744Y-57783205D01*
X26724744Y-57783205D02*
X24340000Y-60167949D01*
X17133000Y-31560000D02*
X17149000Y-31576000D01*
X14256000Y-42244000D02*
X12000000Y-44500000D01*
X7081873Y-44500000D02*
X6000000Y-44500000D01*
X12000000Y-44500000D02*
X7081873Y-44500000D01*
X17149000Y-42244000D02*
X14256000Y-42244000D01*
X17149000Y-39704000D02*
X17149000Y-42244000D01*
D24*
X26880000Y-63223145D02*
X26880000Y-61640000D01*
X27940806Y-64283951D02*
X26880000Y-63223145D01*
X54720000Y-57420000D02*
X52940114Y-57420000D01*
X52940114Y-57420000D02*
X46076163Y-64283951D01*
X46076163Y-64283951D02*
X27940806Y-64283951D01*
X87000000Y-69500000D02*
X88402010Y-69500000D01*
X88402010Y-69500000D02*
X89859181Y-68042829D01*
X89859181Y-68042829D02*
X89859181Y-65640819D01*
X89859181Y-65640819D02*
X95000000Y-60500000D01*
X81620000Y-62500000D02*
X82751370Y-62500000D01*
X82751370Y-62500000D02*
X83536369Y-61715001D01*
X83536369Y-61715001D02*
X93784999Y-61715001D01*
X93784999Y-61715001D02*
X94235001Y-61264999D01*
X94235001Y-61264999D02*
X95000000Y-60500000D01*
X81620000Y-51500000D02*
X82870001Y-52750001D01*
X82870001Y-52750001D02*
X82870001Y-57370001D01*
X85235001Y-59735001D02*
X86000000Y-60500000D01*
X82870001Y-57370001D02*
X85235001Y-59735001D01*
X74000000Y-62500000D02*
X74000000Y-66500000D01*
X69960000Y-59960000D02*
X71460000Y-59960000D01*
X71460000Y-59960000D02*
X74000000Y-62500000D01*
X74000000Y-55430000D02*
X72038752Y-57391248D01*
X72038752Y-57391248D02*
X69988752Y-57391248D01*
X69988752Y-57391248D02*
X69960000Y-57420000D01*
X74000000Y-51500000D02*
X74000000Y-55430000D01*
X69960000Y-34560000D02*
X65699576Y-34560000D01*
X52318211Y-27296591D02*
X51420000Y-28194802D01*
X51420000Y-28194802D02*
X51420000Y-38563196D01*
X65699576Y-34560000D02*
X58436167Y-27296591D01*
X58436167Y-27296591D02*
X52318211Y-27296591D01*
X38278040Y-45864166D02*
X36404716Y-47737490D01*
X51420000Y-38563196D02*
X44119030Y-45864166D01*
X44119030Y-45864166D02*
X38278040Y-45864166D01*
X36404716Y-47737490D02*
X36404716Y-54335004D01*
X36404716Y-54335004D02*
X37519712Y-55450000D01*
X37519712Y-55450000D02*
X39420000Y-55450000D01*
X40340000Y-61640000D02*
X40340000Y-59633045D01*
X40340000Y-59633045D02*
X50173045Y-49800000D01*
X50173045Y-49800000D02*
X54720000Y-49800000D01*
X42880000Y-61640000D02*
X42880000Y-59383556D01*
X42880000Y-59383556D02*
X49923556Y-52340000D01*
X49923556Y-52340000D02*
X54720000Y-52340000D01*
X81500000Y-40000000D02*
X90747248Y-40000000D01*
X90747248Y-40000000D02*
X92247248Y-38500000D01*
X92247248Y-38500000D02*
X95000000Y-38500000D01*
X81500000Y-29000000D02*
X82923958Y-30423958D01*
X82923958Y-30423958D02*
X82923958Y-37523371D01*
X82923958Y-37523371D02*
X83900587Y-38500000D01*
X83900587Y-38500000D02*
X85235001Y-38500000D01*
X85235001Y-38500000D02*
X86000000Y-38500000D01*
X72451977Y-52388023D02*
X70759999Y-54080001D01*
X73880000Y-44000000D02*
X72451977Y-45428023D01*
X70759999Y-54080001D02*
X69960000Y-54880000D01*
X72451977Y-45428023D02*
X72451977Y-52388023D01*
X73880000Y-40000000D02*
X73880000Y-44000000D01*
X70759999Y-51540001D02*
X69960000Y-52340000D01*
X71751966Y-50548034D02*
X70759999Y-51540001D01*
X71751966Y-35148034D02*
X71751966Y-50548034D01*
X73870000Y-33030000D02*
X71751966Y-35148034D01*
X73880000Y-29000000D02*
X73880000Y-33020000D01*
X73880000Y-33020000D02*
X73870000Y-33030000D01*
D25*
X97250000Y-7410000D02*
X95638818Y-7410000D01*
X95638818Y-7410000D02*
X94850000Y-8198818D01*
X94850000Y-8198818D02*
X94850000Y-9710000D01*
X82850000Y-7870000D02*
X88628050Y-7870000D01*
X88628050Y-7870000D02*
X89150000Y-8391950D01*
X89150000Y-8391950D02*
X89150000Y-9710000D01*
X70840000Y-6670000D02*
X75950000Y-6670000D01*
X75950000Y-6670000D02*
X77150000Y-7870000D01*
X58850000Y-6060000D02*
X64530000Y-6060000D01*
X64530000Y-6060000D02*
X65140000Y-6670000D01*
X53150000Y-6060000D02*
X46860000Y-6060000D01*
D24*
X46860000Y-6060000D02*
X46850000Y-6070000D01*
D25*
X41150000Y-6070000D02*
X35400000Y-6070000D01*
X35400000Y-6070000D02*
X34780000Y-6690000D01*
X29080000Y-6690000D02*
X24030000Y-6690000D01*
X24030000Y-6690000D02*
X22850000Y-7870000D01*
X17150000Y-7870000D02*
X12285000Y-7870000D01*
X12285000Y-7870000D02*
X10850000Y-9305000D01*
X10850000Y-9305000D02*
X10850000Y-9670000D01*
X5150000Y-9670000D02*
X5150000Y-11070000D01*
X5150000Y-11070000D02*
X5301135Y-11221135D01*
X5301135Y-11221135D02*
X28013870Y-11221135D01*
X28013870Y-11221135D02*
X29060000Y-12267265D01*
X29060000Y-12267265D02*
X29060000Y-14500000D01*
D24*
X34760000Y-14500000D02*
X65160000Y-14500000D01*
X65160000Y-14500000D02*
X65170000Y-14510000D01*
D25*
X95949999Y-11410000D02*
X97250000Y-11410000D01*
X93449999Y-13910000D02*
X95949999Y-11410000D01*
X93449999Y-15710000D02*
X93449999Y-13910000D01*
X92950000Y-9710000D02*
X92950000Y-6800000D01*
X80950000Y-5440000D02*
X80950000Y-7870000D01*
X92950000Y-6800000D02*
X90660538Y-4510538D01*
X90660538Y-4510538D02*
X81879462Y-4510538D01*
X81879462Y-4510538D02*
X80950000Y-5440000D01*
X80950000Y-7870000D02*
X80950000Y-5519596D01*
X80950000Y-5519596D02*
X80057470Y-4627066D01*
X80057470Y-4627066D02*
X69482934Y-4627066D01*
X68940000Y-5170000D02*
X68940000Y-6670000D01*
X69482934Y-4627066D02*
X68940000Y-5170000D01*
X68940000Y-6670000D02*
X68940000Y-5270000D01*
X68940000Y-5270000D02*
X67225211Y-3555211D01*
X67225211Y-3555211D02*
X58070415Y-3555211D01*
X58070415Y-3555211D02*
X56950000Y-4675626D01*
X56950000Y-4675626D02*
X56950000Y-6060000D01*
X56950000Y-6060000D02*
X56950000Y-4660000D01*
X56950000Y-4660000D02*
X55768509Y-3478509D01*
X55768509Y-3478509D02*
X46027231Y-3478509D01*
X46027231Y-3478509D02*
X44950000Y-4555740D01*
X44950000Y-4555740D02*
X44950000Y-5705000D01*
X44950000Y-5705000D02*
X44950000Y-4366191D01*
X32880000Y-5290000D02*
X32880000Y-6690000D01*
X44950000Y-4366191D02*
X44006178Y-3422369D01*
X44006178Y-3422369D02*
X34770615Y-3422369D01*
X34770615Y-3422369D02*
X32902984Y-5290000D01*
X32902984Y-5290000D02*
X32880000Y-5290000D01*
X20950000Y-7870000D02*
X20950000Y-5640000D01*
X20950000Y-5640000D02*
X21949105Y-4640895D01*
X21949105Y-4640895D02*
X32278151Y-4640895D01*
X32278151Y-4640895D02*
X32880000Y-5242744D01*
X32880000Y-5242744D02*
X32880000Y-6690000D01*
X20950000Y-7870000D02*
X20950000Y-5630159D01*
X20950000Y-5630159D02*
X19920433Y-4600592D01*
X19920433Y-4600592D02*
X10593805Y-4600592D01*
X10593805Y-4600592D02*
X8950000Y-6244397D01*
X8950000Y-6244397D02*
X8950000Y-9670000D01*
X44950000Y-5705000D02*
X44950000Y-6070000D01*
D26*
G36*
X33598616Y-20171008D02*
X33828992Y-20401384D01*
X34153416Y-20618157D01*
X34454417Y-20742836D01*
X34837100Y-20818956D01*
X34919341Y-20818956D01*
X35000000Y-20835000D01*
X65000000Y-20835000D01*
X65080648Y-20818958D01*
X65162901Y-20818958D01*
X65545585Y-20742837D01*
X65696085Y-20680497D01*
X65846586Y-20618158D01*
X66171008Y-20401385D01*
X66252852Y-20319541D01*
X66401384Y-20171010D01*
X66430790Y-20127000D01*
X74069211Y-20127000D01*
X74098616Y-20171008D01*
X74328992Y-20401384D01*
X74653416Y-20618157D01*
X74954417Y-20742836D01*
X75337100Y-20818956D01*
X75419341Y-20818956D01*
X75500000Y-20835000D01*
X99165000Y-20835000D01*
X99165000Y-79665000D01*
X835000Y-79665000D01*
X835000Y-75942619D01*
X2764613Y-75942619D01*
X3104155Y-76764372D01*
X3732321Y-77393636D01*
X4553481Y-77734611D01*
X5442619Y-77735387D01*
X6264372Y-77395845D01*
X6893636Y-76767679D01*
X7234611Y-75946519D01*
X7234614Y-75942619D01*
X92764613Y-75942619D01*
X93104155Y-76764372D01*
X93732321Y-77393636D01*
X94553481Y-77734611D01*
X95442619Y-77735387D01*
X96264372Y-77395845D01*
X96893636Y-76767679D01*
X97234611Y-75946519D01*
X97235387Y-75057381D01*
X96895845Y-74235628D01*
X96267679Y-73606364D01*
X95446519Y-73265389D01*
X94557381Y-73264613D01*
X93735628Y-73604155D01*
X93106364Y-74232321D01*
X92765389Y-75053481D01*
X92764613Y-75942619D01*
X7234614Y-75942619D01*
X7235387Y-75057381D01*
X6895845Y-74235628D01*
X6267679Y-73606364D01*
X5446519Y-73265389D01*
X4557381Y-73264613D01*
X3735628Y-73604155D01*
X3106364Y-74232321D01*
X2765389Y-75053481D01*
X2764613Y-75942619D01*
X835000Y-75942619D01*
X835000Y-69942619D01*
X19264613Y-69942619D01*
X19604155Y-70764372D01*
X20232321Y-71393636D01*
X21053481Y-71734611D01*
X21942619Y-71735387D01*
X22764372Y-71395845D01*
X23393636Y-70767679D01*
X23734611Y-69946519D01*
X23734614Y-69942619D01*
X31764613Y-69942619D01*
X32104155Y-70764372D01*
X32732321Y-71393636D01*
X33553481Y-71734611D01*
X34442619Y-71735387D01*
X35264372Y-71395845D01*
X35893636Y-70767679D01*
X36234611Y-69946519D01*
X36234614Y-69942619D01*
X45764613Y-69942619D01*
X46104155Y-70764372D01*
X46732321Y-71393636D01*
X47553481Y-71734611D01*
X48442619Y-71735387D01*
X49264372Y-71395845D01*
X49893636Y-70767679D01*
X50234611Y-69946519D01*
X50235387Y-69057381D01*
X49895845Y-68235628D01*
X49267679Y-67606364D01*
X48446519Y-67265389D01*
X47557381Y-67264613D01*
X46735628Y-67604155D01*
X46106364Y-68232321D01*
X45765389Y-69053481D01*
X45764613Y-69942619D01*
X36234614Y-69942619D01*
X36235387Y-69057381D01*
X35895845Y-68235628D01*
X35267679Y-67606364D01*
X34446519Y-67265389D01*
X33557381Y-67264613D01*
X32735628Y-67604155D01*
X32106364Y-68232321D01*
X31765389Y-69053481D01*
X31764613Y-69942619D01*
X23734614Y-69942619D01*
X23735387Y-69057381D01*
X23395845Y-68235628D01*
X22767679Y-67606364D01*
X21946519Y-67265389D01*
X21057381Y-67264613D01*
X20235628Y-67604155D01*
X19606364Y-68232321D01*
X19265389Y-69053481D01*
X19264613Y-69942619D01*
X835000Y-69942619D01*
X835000Y-60340000D01*
X22692560Y-60340000D01*
X22692560Y-62940000D01*
X22736838Y-63175317D01*
X22875910Y-63391441D01*
X23088110Y-63536431D01*
X23340000Y-63587440D01*
X25340000Y-63587440D01*
X25575317Y-63543162D01*
X25791441Y-63404090D01*
X25896951Y-63249671D01*
X26016114Y-63329293D01*
X26030992Y-63404090D01*
X26062367Y-63561820D01*
X26126740Y-63658161D01*
X26254210Y-63848935D01*
X27315014Y-64909738D01*
X27315016Y-64909741D01*
X27472592Y-65015029D01*
X27602131Y-65101584D01*
X27940806Y-65168952D01*
X27940811Y-65168951D01*
X46076158Y-65168951D01*
X46076163Y-65168952D01*
X46389274Y-65106669D01*
X46414838Y-65101584D01*
X46701953Y-64909741D01*
X46701954Y-64909740D01*
X53306693Y-58305000D01*
X53575829Y-58305000D01*
X53906077Y-58635824D01*
X54036215Y-58689862D01*
X53908200Y-58742757D01*
X53504176Y-59146077D01*
X53285250Y-59673309D01*
X53284752Y-60244187D01*
X53502757Y-60771800D01*
X53906077Y-61175824D01*
X54036215Y-61229862D01*
X53908200Y-61282757D01*
X53504176Y-61686077D01*
X53285250Y-62213309D01*
X53284752Y-62784187D01*
X53502757Y-63311800D01*
X53906077Y-63715824D01*
X54433309Y-63934750D01*
X55004187Y-63935248D01*
X55531800Y-63717243D01*
X55935824Y-63313923D01*
X55989862Y-63183785D01*
X56042757Y-63311800D01*
X56446077Y-63715824D01*
X56973309Y-63934750D01*
X57544187Y-63935248D01*
X58071800Y-63717243D01*
X58475824Y-63313923D01*
X58529862Y-63183785D01*
X58582757Y-63311800D01*
X58986077Y-63715824D01*
X59513309Y-63934750D01*
X60084187Y-63935248D01*
X60611800Y-63717243D01*
X61015824Y-63313923D01*
X61069862Y-63183785D01*
X61122757Y-63311800D01*
X61526077Y-63715824D01*
X62053309Y-63934750D01*
X62624187Y-63935248D01*
X63151800Y-63717243D01*
X63555824Y-63313923D01*
X63609862Y-63183785D01*
X63662757Y-63311800D01*
X64066077Y-63715824D01*
X64593309Y-63934750D01*
X65164187Y-63935248D01*
X65691800Y-63717243D01*
X66095824Y-63313923D01*
X66149862Y-63183785D01*
X66202757Y-63311800D01*
X66606077Y-63715824D01*
X67133309Y-63934750D01*
X67704187Y-63935248D01*
X68231800Y-63717243D01*
X68635824Y-63313923D01*
X68689862Y-63183785D01*
X68742757Y-63311800D01*
X69146077Y-63715824D01*
X69673309Y-63934750D01*
X70244187Y-63935248D01*
X70771800Y-63717243D01*
X71175824Y-63313923D01*
X71394750Y-62786691D01*
X71395248Y-62215813D01*
X71177243Y-61688200D01*
X70773923Y-61284176D01*
X70643785Y-61230138D01*
X70771800Y-61177243D01*
X71099017Y-60850597D01*
X72565160Y-62316739D01*
X72564752Y-62784187D01*
X72782757Y-63311800D01*
X73115000Y-63644623D01*
X73115000Y-65379856D01*
X72957189Y-65485302D01*
X72646120Y-65950849D01*
X72536887Y-66500000D01*
X72646120Y-67049151D01*
X72957189Y-67514698D01*
X73422736Y-67825767D01*
X73971887Y-67935000D01*
X74028113Y-67935000D01*
X74577264Y-67825767D01*
X74965390Y-67566429D01*
X80868940Y-67566429D01*
X80950463Y-67800930D01*
X81499273Y-67958123D01*
X82066462Y-67893331D01*
X82289537Y-67800930D01*
X82371060Y-67566429D01*
X81620000Y-66815370D01*
X80868940Y-67566429D01*
X74965390Y-67566429D01*
X75042811Y-67514698D01*
X75353880Y-67049151D01*
X75463113Y-66500000D01*
X75439099Y-66379273D01*
X80161877Y-66379273D01*
X80226669Y-66946462D01*
X80319070Y-67169537D01*
X80553571Y-67251060D01*
X81304630Y-66500000D01*
X81935370Y-66500000D01*
X82686429Y-67251060D01*
X82920930Y-67169537D01*
X82929763Y-67138700D01*
X82962718Y-67218458D01*
X83319663Y-67576026D01*
X83786273Y-67769779D01*
X84291510Y-67770220D01*
X84758458Y-67577282D01*
X85116026Y-67220337D01*
X85309779Y-66753727D01*
X85310220Y-66248490D01*
X85117282Y-65781542D01*
X84760337Y-65423974D01*
X84293727Y-65230221D01*
X83788490Y-65229780D01*
X83321542Y-65422718D01*
X82963974Y-65779663D01*
X82931892Y-65856926D01*
X82920930Y-65830463D01*
X82686429Y-65748940D01*
X81935370Y-66500000D01*
X81304630Y-66500000D01*
X80553571Y-65748940D01*
X80319070Y-65830463D01*
X80161877Y-66379273D01*
X75439099Y-66379273D01*
X75353880Y-65950849D01*
X75042811Y-65485302D01*
X74965391Y-65433571D01*
X80868940Y-65433571D01*
X81620000Y-66184630D01*
X82371060Y-65433571D01*
X82289537Y-65199070D01*
X81740727Y-65041877D01*
X81173538Y-65106669D01*
X80950463Y-65199070D01*
X80868940Y-65433571D01*
X74965391Y-65433571D01*
X74885000Y-65379856D01*
X74885000Y-64540808D01*
X85274561Y-64540808D01*
X85351692Y-64771710D01*
X85887704Y-64923004D01*
X86440812Y-64857658D01*
X86648308Y-64771710D01*
X86725439Y-64540808D01*
X86000000Y-63815370D01*
X85274561Y-64540808D01*
X74885000Y-64540808D01*
X74885000Y-63644171D01*
X75215824Y-63313923D01*
X75434750Y-62786691D01*
X75435248Y-62215813D01*
X75217243Y-61688200D01*
X74813923Y-61284176D01*
X74286691Y-61065250D01*
X73816419Y-61064840D01*
X72085790Y-59334210D01*
X71971625Y-59257928D01*
X71798675Y-59142367D01*
X71742484Y-59131190D01*
X71460000Y-59074999D01*
X71459995Y-59075000D01*
X71104171Y-59075000D01*
X70773923Y-58744176D01*
X70643785Y-58690138D01*
X70771800Y-58637243D01*
X71133425Y-58276248D01*
X72038747Y-58276248D01*
X72038752Y-58276249D01*
X72321236Y-58220058D01*
X72377427Y-58208881D01*
X72664542Y-58017038D01*
X73842347Y-56839233D01*
X73971887Y-56865000D01*
X74028113Y-56865000D01*
X74577264Y-56755767D01*
X75042811Y-56444698D01*
X75353880Y-55979151D01*
X75463113Y-55430000D01*
X75439099Y-55309273D01*
X80161877Y-55309273D01*
X80226669Y-55876462D01*
X80319070Y-56099537D01*
X80553571Y-56181060D01*
X81304630Y-55430000D01*
X80553571Y-54678940D01*
X80319070Y-54760463D01*
X80161877Y-55309273D01*
X75439099Y-55309273D01*
X75353880Y-54880849D01*
X75042811Y-54415302D01*
X74885000Y-54309856D01*
X74885000Y-52644171D01*
X75215824Y-52313923D01*
X75434750Y-51786691D01*
X75435248Y-51215813D01*
X75217243Y-50688200D01*
X74813923Y-50284176D01*
X74286691Y-50065250D01*
X73715813Y-50064752D01*
X73336977Y-50221284D01*
X73336977Y-45794603D01*
X73722347Y-45409233D01*
X73851887Y-45435000D01*
X73908113Y-45435000D01*
X74457264Y-45325767D01*
X74845390Y-45066429D01*
X80748940Y-45066429D01*
X80830463Y-45300930D01*
X81379273Y-45458123D01*
X81946462Y-45393331D01*
X82169537Y-45300930D01*
X82251060Y-45066429D01*
X81500000Y-44315370D01*
X80748940Y-45066429D01*
X74845390Y-45066429D01*
X74922811Y-45014698D01*
X75233880Y-44549151D01*
X75343113Y-44000000D01*
X75319099Y-43879273D01*
X80041877Y-43879273D01*
X80106669Y-44446462D01*
X80199070Y-44669537D01*
X80433571Y-44751060D01*
X81184630Y-44000000D01*
X81815370Y-44000000D01*
X82566429Y-44751060D01*
X82769842Y-44680345D01*
X82769780Y-44751510D01*
X82962718Y-45218458D01*
X83319663Y-45576026D01*
X83786273Y-45769779D01*
X84291510Y-45770220D01*
X84758458Y-45577282D01*
X85116026Y-45220337D01*
X85309779Y-44753727D01*
X85309780Y-44751510D01*
X91769780Y-44751510D01*
X91962718Y-45218458D01*
X92319663Y-45576026D01*
X92786273Y-45769779D01*
X93291510Y-45770220D01*
X93758458Y-45577282D01*
X94116026Y-45220337D01*
X94309779Y-44753727D01*
X94310220Y-44248490D01*
X94117282Y-43781542D01*
X93760337Y-43423974D01*
X93293727Y-43230221D01*
X92788490Y-43229780D01*
X92321542Y-43422718D01*
X91963974Y-43779663D01*
X91770221Y-44246273D01*
X91769780Y-44751510D01*
X85309780Y-44751510D01*
X85310220Y-44248490D01*
X85117282Y-43781542D01*
X84760337Y-43423974D01*
X84293727Y-43230221D01*
X83788490Y-43229780D01*
X83321542Y-43422718D01*
X82963974Y-43779663D01*
X82928830Y-43864299D01*
X82893331Y-43553538D01*
X82800930Y-43330463D01*
X82566429Y-43248940D01*
X81815370Y-44000000D01*
X81184630Y-44000000D01*
X80433571Y-43248940D01*
X80199070Y-43330463D01*
X80041877Y-43879273D01*
X75319099Y-43879273D01*
X75233880Y-43450849D01*
X74922811Y-42985302D01*
X74845391Y-42933571D01*
X80748940Y-42933571D01*
X81500000Y-43684630D01*
X82251060Y-42933571D01*
X82169537Y-42699070D01*
X81620727Y-42541877D01*
X81053538Y-42606669D01*
X80830463Y-42699070D01*
X80748940Y-42933571D01*
X74845391Y-42933571D01*
X74765000Y-42879856D01*
X74765000Y-42540808D01*
X85274561Y-42540808D01*
X85351692Y-42771710D01*
X85887704Y-42923004D01*
X86440812Y-42857658D01*
X86648308Y-42771710D01*
X86725439Y-42540808D01*
X94274561Y-42540808D01*
X94351692Y-42771710D01*
X94887704Y-42923004D01*
X95440812Y-42857658D01*
X95648308Y-42771710D01*
X95725439Y-42540808D01*
X95000000Y-41815370D01*
X94274561Y-42540808D01*
X86725439Y-42540808D01*
X86000000Y-41815370D01*
X85274561Y-42540808D01*
X74765000Y-42540808D01*
X74765000Y-41144171D01*
X75095824Y-40813923D01*
X75314750Y-40286691D01*
X75315248Y-39715813D01*
X75097243Y-39188200D01*
X74693923Y-38784176D01*
X74166691Y-38565250D01*
X73595813Y-38564752D01*
X73068200Y-38782757D01*
X72664176Y-39186077D01*
X72636966Y-39251606D01*
X72636966Y-35514614D01*
X73712347Y-34439233D01*
X73841887Y-34465000D01*
X73898113Y-34465000D01*
X74447264Y-34355767D01*
X74912811Y-34044698D01*
X75223880Y-33579151D01*
X75333113Y-33030000D01*
X75309099Y-32909273D01*
X80031877Y-32909273D01*
X80096669Y-33476462D01*
X80189070Y-33699537D01*
X80423571Y-33781060D01*
X81174630Y-33030000D01*
X80423571Y-32278940D01*
X80189070Y-32360463D01*
X80031877Y-32909273D01*
X75309099Y-32909273D01*
X75223880Y-32480849D01*
X74912811Y-32015302D01*
X74765000Y-31916538D01*
X74765000Y-30144171D01*
X75095824Y-29813923D01*
X75314750Y-29286691D01*
X75315248Y-28715813D01*
X75097243Y-28188200D01*
X74693923Y-27784176D01*
X74166691Y-27565250D01*
X73595813Y-27564752D01*
X73068200Y-27782757D01*
X72664176Y-28186077D01*
X72445250Y-28713309D01*
X72444752Y-29284187D01*
X72662757Y-29811800D01*
X72995000Y-30144623D01*
X72995000Y-31903174D01*
X72827189Y-32015302D01*
X72516120Y-32480849D01*
X72406887Y-33030000D01*
X72441983Y-33206438D01*
X71388628Y-34259792D01*
X71177243Y-33748200D01*
X70773923Y-33344176D01*
X70643785Y-33290138D01*
X70771800Y-33237243D01*
X71175824Y-32833923D01*
X71394750Y-32306691D01*
X71395248Y-31735813D01*
X71177243Y-31208200D01*
X70773923Y-30804176D01*
X70643785Y-30750138D01*
X70771800Y-30697243D01*
X71175824Y-30293923D01*
X71394750Y-29766691D01*
X71395248Y-29195813D01*
X71177243Y-28668200D01*
X70945000Y-28435552D01*
X70945000Y-27948000D01*
X71908000Y-26985000D01*
X84092000Y-26985000D01*
X85015000Y-27908000D01*
X85015000Y-31679081D01*
X84760337Y-31423974D01*
X84293727Y-31230221D01*
X83808958Y-31229798D01*
X83808958Y-30423963D01*
X83808959Y-30423958D01*
X83741591Y-30085284D01*
X83741591Y-30085283D01*
X83549748Y-29798168D01*
X83549745Y-29798166D01*
X82928017Y-29176438D01*
X82963113Y-29000000D01*
X82853880Y-28450849D01*
X82542811Y-27985302D01*
X82077264Y-27674233D01*
X81528113Y-27565000D01*
X81471887Y-27565000D01*
X80922736Y-27674233D01*
X80457189Y-27985302D01*
X80146120Y-28450849D01*
X80036887Y-29000000D01*
X80146120Y-29549151D01*
X80457189Y-30014698D01*
X80922736Y-30325767D01*
X81471887Y-30435000D01*
X81528113Y-30435000D01*
X81657653Y-30409233D01*
X82038958Y-30790537D01*
X82038958Y-31694533D01*
X81610727Y-31571877D01*
X81043538Y-31636669D01*
X80820463Y-31729070D01*
X80738940Y-31963571D01*
X81490000Y-32714630D01*
X81504142Y-32700488D01*
X81819512Y-33015858D01*
X81805370Y-33030000D01*
X81819512Y-33044142D01*
X81504142Y-33359512D01*
X81490000Y-33345370D01*
X80738940Y-34096429D01*
X80820463Y-34330930D01*
X81369273Y-34488123D01*
X81936462Y-34423331D01*
X82038958Y-34380876D01*
X82038958Y-37523366D01*
X82038957Y-37523371D01*
X82070584Y-37682367D01*
X82106325Y-37862046D01*
X82140988Y-37913923D01*
X82298168Y-38149161D01*
X83264008Y-39115000D01*
X82629473Y-39115000D01*
X82542811Y-38985302D01*
X82077264Y-38674233D01*
X81528113Y-38565000D01*
X81471887Y-38565000D01*
X80922736Y-38674233D01*
X80457189Y-38985302D01*
X80146120Y-39450849D01*
X80036887Y-40000000D01*
X80146120Y-40549151D01*
X80457189Y-41014698D01*
X80922736Y-41325767D01*
X81471887Y-41435000D01*
X81528113Y-41435000D01*
X82077264Y-41325767D01*
X82542811Y-41014698D01*
X82629473Y-40885000D01*
X84718889Y-40885000D01*
X84576996Y-41387704D01*
X84642342Y-41940812D01*
X84728290Y-42148308D01*
X84959192Y-42225439D01*
X85684630Y-41500000D01*
X85670488Y-41485858D01*
X85985858Y-41170488D01*
X86000000Y-41184630D01*
X86014142Y-41170488D01*
X86329512Y-41485858D01*
X86315370Y-41500000D01*
X87040808Y-42225439D01*
X87271710Y-42148308D01*
X87423004Y-41612296D01*
X87396470Y-41387704D01*
X93576996Y-41387704D01*
X93642342Y-41940812D01*
X93728290Y-42148308D01*
X93959192Y-42225439D01*
X94684630Y-41500000D01*
X95315370Y-41500000D01*
X96040808Y-42225439D01*
X96271710Y-42148308D01*
X96423004Y-41612296D01*
X96357658Y-41059188D01*
X96271710Y-40851692D01*
X96040808Y-40774561D01*
X95315370Y-41500000D01*
X94684630Y-41500000D01*
X93959192Y-40774561D01*
X93728290Y-40851692D01*
X93576996Y-41387704D01*
X87396470Y-41387704D01*
X87357658Y-41059188D01*
X87285507Y-40885000D01*
X90747243Y-40885000D01*
X90747248Y-40885001D01*
X91029732Y-40828810D01*
X91085923Y-40817633D01*
X91373038Y-40625790D01*
X91539635Y-40459192D01*
X94274561Y-40459192D01*
X95000000Y-41184630D01*
X95725439Y-40459192D01*
X95648308Y-40228290D01*
X95112296Y-40076996D01*
X94559188Y-40142342D01*
X94351692Y-40228290D01*
X94274561Y-40459192D01*
X91539635Y-40459192D01*
X92613827Y-39385000D01*
X93905283Y-39385000D01*
X94205928Y-39686170D01*
X94720301Y-39899757D01*
X95277256Y-39900243D01*
X95792000Y-39687555D01*
X96186170Y-39294072D01*
X96399757Y-38779699D01*
X96400243Y-38222744D01*
X96187555Y-37708000D01*
X95794072Y-37313830D01*
X95279699Y-37100243D01*
X94722744Y-37099757D01*
X94208000Y-37312445D01*
X93904917Y-37615000D01*
X92247248Y-37615000D01*
X91908573Y-37682367D01*
X91621458Y-37874210D01*
X91621456Y-37874213D01*
X90380668Y-39115000D01*
X87260527Y-39115000D01*
X87399757Y-38779699D01*
X87400243Y-38222744D01*
X87187555Y-37708000D01*
X86794072Y-37313830D01*
X86279699Y-37100243D01*
X85722744Y-37099757D01*
X85208000Y-37312445D01*
X84904917Y-37615000D01*
X84267166Y-37615000D01*
X83808958Y-37156791D01*
X83808958Y-33769799D01*
X84291510Y-33770220D01*
X84758458Y-33577282D01*
X85015000Y-33321187D01*
X85015000Y-34505109D01*
X84813830Y-34705928D01*
X84600243Y-35220301D01*
X84599757Y-35777256D01*
X84812445Y-36292000D01*
X85205928Y-36686170D01*
X85720301Y-36899757D01*
X86277256Y-36900243D01*
X86792000Y-36687555D01*
X86994909Y-36485000D01*
X94005109Y-36485000D01*
X94205928Y-36686170D01*
X94720301Y-36899757D01*
X95277256Y-36900243D01*
X95792000Y-36687555D01*
X95994909Y-36485000D01*
X97092000Y-36485000D01*
X97160001Y-36553001D01*
X97160001Y-56168319D01*
X96813320Y-56515000D01*
X95994891Y-56515000D01*
X95794072Y-56313830D01*
X95279699Y-56100243D01*
X94722744Y-56099757D01*
X94208000Y-56312445D01*
X94005091Y-56515000D01*
X86994891Y-56515000D01*
X86794072Y-56313830D01*
X86279699Y-56100243D01*
X85722744Y-56099757D01*
X85208000Y-56312445D01*
X84813830Y-56705928D01*
X84600243Y-57220301D01*
X84599757Y-57777256D01*
X84649695Y-57898116D01*
X83755001Y-57003421D01*
X83755001Y-55756794D01*
X83786273Y-55769779D01*
X84291510Y-55770220D01*
X84758458Y-55577282D01*
X85116026Y-55220337D01*
X85309779Y-54753727D01*
X85309780Y-54751510D01*
X91769780Y-54751510D01*
X91962718Y-55218458D01*
X92319663Y-55576026D01*
X92786273Y-55769779D01*
X93291510Y-55770220D01*
X93758458Y-55577282D01*
X94116026Y-55220337D01*
X94309779Y-54753727D01*
X94310220Y-54248490D01*
X94117282Y-53781542D01*
X93760337Y-53423974D01*
X93293727Y-53230221D01*
X92788490Y-53229780D01*
X92321542Y-53422718D01*
X91963974Y-53779663D01*
X91770221Y-54246273D01*
X91769780Y-54751510D01*
X85309780Y-54751510D01*
X85310220Y-54248490D01*
X85117282Y-53781542D01*
X84760337Y-53423974D01*
X84293727Y-53230221D01*
X83788490Y-53229780D01*
X83755001Y-53243617D01*
X83755001Y-52750001D01*
X83687634Y-52411326D01*
X83495791Y-52124211D01*
X83495788Y-52124209D01*
X83048017Y-51676438D01*
X83083113Y-51500000D01*
X82973880Y-50950849D01*
X82662811Y-50485302D01*
X82197264Y-50174233D01*
X81648113Y-50065000D01*
X81591887Y-50065000D01*
X81042736Y-50174233D01*
X80577189Y-50485302D01*
X80266120Y-50950849D01*
X80156887Y-51500000D01*
X80266120Y-52049151D01*
X80577189Y-52514698D01*
X81042736Y-52825767D01*
X81591887Y-52935000D01*
X81648113Y-52935000D01*
X81777653Y-52909233D01*
X81985001Y-53116580D01*
X81985001Y-54041843D01*
X81740727Y-53971877D01*
X81173538Y-54036669D01*
X80950463Y-54129070D01*
X80868940Y-54363571D01*
X81620000Y-55114630D01*
X81634142Y-55100488D01*
X81949512Y-55415858D01*
X81935370Y-55430000D01*
X81949512Y-55444142D01*
X81634142Y-55759512D01*
X81620000Y-55745370D01*
X80868940Y-56496429D01*
X80950463Y-56730930D01*
X81499273Y-56888123D01*
X81985001Y-56832637D01*
X81985001Y-57369996D01*
X81985000Y-57370001D01*
X82025982Y-57576026D01*
X82052368Y-57708676D01*
X82164800Y-57876943D01*
X82244211Y-57995791D01*
X84600128Y-60351707D01*
X84599757Y-60777256D01*
X84621551Y-60830001D01*
X83536374Y-60830001D01*
X83536369Y-60830000D01*
X83197694Y-60897368D01*
X82910579Y-61089211D01*
X82910577Y-61089214D01*
X82573898Y-61425892D01*
X82197264Y-61174233D01*
X81648113Y-61065000D01*
X81591887Y-61065000D01*
X81042736Y-61174233D01*
X80577189Y-61485302D01*
X80266120Y-61950849D01*
X80156887Y-62500000D01*
X80266120Y-63049151D01*
X80577189Y-63514698D01*
X81042736Y-63825767D01*
X81591887Y-63935000D01*
X81648113Y-63935000D01*
X82197264Y-63825767D01*
X82662811Y-63514698D01*
X82749473Y-63385000D01*
X82751365Y-63385000D01*
X82751370Y-63385001D01*
X83033854Y-63328810D01*
X83090045Y-63317633D01*
X83377160Y-63125790D01*
X83377161Y-63125789D01*
X83902948Y-62600001D01*
X84884829Y-62600001D01*
X84834729Y-62650101D01*
X84959190Y-62774562D01*
X84728290Y-62851692D01*
X84576996Y-63387704D01*
X84642342Y-63940812D01*
X84728290Y-64148308D01*
X84959192Y-64225439D01*
X85684630Y-63500000D01*
X85670488Y-63485858D01*
X85985858Y-63170488D01*
X86000000Y-63184630D01*
X86014142Y-63170488D01*
X86329512Y-63485858D01*
X86315370Y-63500000D01*
X87040808Y-64225439D01*
X87271710Y-64148308D01*
X87423004Y-63612296D01*
X87357658Y-63059188D01*
X87271710Y-62851692D01*
X87040810Y-62774562D01*
X87165271Y-62650101D01*
X87115171Y-62600001D01*
X91648419Y-62600001D01*
X89233391Y-65015029D01*
X89041548Y-65302144D01*
X89041548Y-65302145D01*
X88974180Y-65640819D01*
X88974181Y-65640824D01*
X88974181Y-67676250D01*
X88089848Y-68560582D01*
X87813923Y-68284176D01*
X87286691Y-68065250D01*
X86715813Y-68064752D01*
X86188200Y-68282757D01*
X85784176Y-68686077D01*
X85565250Y-69213309D01*
X85564752Y-69784187D01*
X85782757Y-70311800D01*
X86186077Y-70715824D01*
X86713309Y-70934750D01*
X87284187Y-70935248D01*
X87811800Y-70717243D01*
X88144623Y-70385000D01*
X88402005Y-70385000D01*
X88402010Y-70385001D01*
X88684494Y-70328810D01*
X88740685Y-70317633D01*
X89027800Y-70125790D01*
X90484968Y-68668621D01*
X90484971Y-68668619D01*
X90676814Y-68381504D01*
X90705831Y-68235628D01*
X90744182Y-68042829D01*
X90744181Y-68042824D01*
X90744181Y-66751510D01*
X91769780Y-66751510D01*
X91962718Y-67218458D01*
X92319663Y-67576026D01*
X92786273Y-67769779D01*
X93291510Y-67770220D01*
X93758458Y-67577282D01*
X94116026Y-67220337D01*
X94309779Y-66753727D01*
X94310220Y-66248490D01*
X94117282Y-65781542D01*
X93760337Y-65423974D01*
X93293727Y-65230221D01*
X92788490Y-65229780D01*
X92321542Y-65422718D01*
X91963974Y-65779663D01*
X91770221Y-66246273D01*
X91769780Y-66751510D01*
X90744181Y-66751510D01*
X90744181Y-66007399D01*
X92210772Y-64540808D01*
X94274561Y-64540808D01*
X94351692Y-64771710D01*
X94887704Y-64923004D01*
X95440812Y-64857658D01*
X95648308Y-64771710D01*
X95725439Y-64540808D01*
X95000000Y-63815370D01*
X94274561Y-64540808D01*
X92210772Y-64540808D01*
X93660808Y-63090772D01*
X93576996Y-63387704D01*
X93642342Y-63940812D01*
X93728290Y-64148308D01*
X93959192Y-64225439D01*
X94684630Y-63500000D01*
X95315370Y-63500000D01*
X96040808Y-64225439D01*
X96271710Y-64148308D01*
X96423004Y-63612296D01*
X96357658Y-63059188D01*
X96271710Y-62851692D01*
X96040808Y-62774561D01*
X95315370Y-63500000D01*
X94684630Y-63500000D01*
X94670488Y-63485858D01*
X94985858Y-63170488D01*
X95000000Y-63184630D01*
X95725439Y-62459192D01*
X95648308Y-62228290D01*
X95112296Y-62076996D01*
X94615943Y-62135637D01*
X94851707Y-61899872D01*
X95277256Y-61900243D01*
X95792000Y-61687555D01*
X96186170Y-61294072D01*
X96399757Y-60779699D01*
X96400182Y-60293182D01*
X97085000Y-60978000D01*
X97085000Y-67591950D01*
X96161950Y-68515000D01*
X95682655Y-68515000D01*
X95662811Y-68485302D01*
X95197264Y-68174233D01*
X94648113Y-68065000D01*
X94591887Y-68065000D01*
X94042736Y-68174233D01*
X93577189Y-68485302D01*
X93266120Y-68950849D01*
X93156887Y-69500000D01*
X93266120Y-70049151D01*
X93577189Y-70514698D01*
X94042736Y-70825767D01*
X94591887Y-70935000D01*
X94648113Y-70935000D01*
X95197264Y-70825767D01*
X95662811Y-70514698D01*
X95682655Y-70485000D01*
X96569950Y-70485000D01*
X96946893Y-70410021D01*
X97266450Y-70196500D01*
X98766500Y-68696450D01*
X98980021Y-68376893D01*
X99055000Y-67999950D01*
X99055000Y-60570000D01*
X98980021Y-60193057D01*
X98766500Y-59873500D01*
X97352005Y-58459005D01*
X97598263Y-58410021D01*
X97917820Y-58196500D01*
X98841501Y-57272819D01*
X99055022Y-56953262D01*
X99130001Y-56576319D01*
X99130001Y-36145001D01*
X99055022Y-35768058D01*
X98841501Y-35448501D01*
X98196500Y-34803500D01*
X97876943Y-34589979D01*
X97500000Y-34515000D01*
X95994891Y-34515000D01*
X95794072Y-34313830D01*
X95279699Y-34100243D01*
X94722744Y-34099757D01*
X94208000Y-34312445D01*
X94005091Y-34515000D01*
X86994891Y-34515000D01*
X86985000Y-34505091D01*
X86985000Y-32751510D01*
X91769780Y-32751510D01*
X91962718Y-33218458D01*
X92319663Y-33576026D01*
X92786273Y-33769779D01*
X93291510Y-33770220D01*
X93758458Y-33577282D01*
X94116026Y-33220337D01*
X94309779Y-32753727D01*
X94310220Y-32248490D01*
X94117282Y-31781542D01*
X93760337Y-31423974D01*
X93293727Y-31230221D01*
X92788490Y-31229780D01*
X92321542Y-31422718D01*
X91963974Y-31779663D01*
X91770221Y-32246273D01*
X91769780Y-32751510D01*
X86985000Y-32751510D01*
X86985000Y-27500000D01*
X86910021Y-27123057D01*
X86696500Y-26803500D01*
X85335619Y-25442619D01*
X92264613Y-25442619D01*
X92604155Y-26264372D01*
X93232321Y-26893636D01*
X94053481Y-27234611D01*
X94942619Y-27235387D01*
X95764372Y-26895845D01*
X96393636Y-26267679D01*
X96734611Y-25446519D01*
X96735387Y-24557381D01*
X96395845Y-23735628D01*
X95767679Y-23106364D01*
X94946519Y-22765389D01*
X94057381Y-22764613D01*
X93235628Y-23104155D01*
X92606364Y-23732321D01*
X92265389Y-24553481D01*
X92264613Y-25442619D01*
X85335619Y-25442619D01*
X85196500Y-25303500D01*
X84876943Y-25089979D01*
X84500000Y-25015000D01*
X71500000Y-25015000D01*
X71123057Y-25089979D01*
X70803500Y-25303500D01*
X70354372Y-25752629D01*
X69599238Y-24997495D01*
X69279681Y-24783974D01*
X68902738Y-24708995D01*
X51506005Y-24708995D01*
X51129062Y-24783974D01*
X50809505Y-24997495D01*
X48603500Y-27203500D01*
X48389979Y-27523057D01*
X48315000Y-27900000D01*
X48315000Y-37862000D01*
X44132000Y-42045000D01*
X43417440Y-42045000D01*
X43417440Y-42030000D01*
X43373162Y-41794683D01*
X43234090Y-41578559D01*
X43021890Y-41433569D01*
X42770000Y-41382560D01*
X40770000Y-41382560D01*
X40534683Y-41426838D01*
X40318559Y-41565910D01*
X40173569Y-41778110D01*
X40122560Y-42030000D01*
X40122560Y-42045000D01*
X39408000Y-42045000D01*
X38910500Y-41547500D01*
X38590943Y-41333979D01*
X38214000Y-41259000D01*
X36681653Y-41259000D01*
X36676000Y-41253338D01*
X36676000Y-40694653D01*
X36874629Y-40496370D01*
X37087757Y-39983100D01*
X37088242Y-39427339D01*
X36876010Y-38913697D01*
X36483370Y-38520371D01*
X35970100Y-38307243D01*
X35414339Y-38306758D01*
X34900697Y-38518990D01*
X34507371Y-38911630D01*
X34294243Y-39424900D01*
X34293758Y-39980661D01*
X34505990Y-40494303D01*
X34706000Y-40694662D01*
X34706000Y-41253347D01*
X34700338Y-41259000D01*
X34613370Y-41259000D01*
X34236427Y-41333979D01*
X33916870Y-41547500D01*
X23643500Y-51820870D01*
X23429979Y-52140427D01*
X23355000Y-52517370D01*
X23355000Y-59692560D01*
X23340000Y-59692560D01*
X23104683Y-59736838D01*
X22888559Y-59875910D01*
X22743569Y-60088110D01*
X22692560Y-60340000D01*
X835000Y-60340000D01*
X835000Y-56751510D01*
X2769780Y-56751510D01*
X2962718Y-57218458D01*
X3319663Y-57576026D01*
X3786273Y-57769779D01*
X4291510Y-57770220D01*
X4758458Y-57577282D01*
X5116026Y-57220337D01*
X5309779Y-56753727D01*
X5310220Y-56248490D01*
X5117282Y-55781542D01*
X4760337Y-55423974D01*
X4293727Y-55230221D01*
X3788490Y-55229780D01*
X3321542Y-55422718D01*
X2963974Y-55779663D01*
X2770221Y-56246273D01*
X2769780Y-56751510D01*
X835000Y-56751510D01*
X835000Y-53777256D01*
X4599757Y-53777256D01*
X4812445Y-54292000D01*
X5205928Y-54686170D01*
X5720301Y-54899757D01*
X6277256Y-54900243D01*
X6792000Y-54687555D01*
X7095083Y-54385000D01*
X18022821Y-54385000D01*
X18022758Y-54456661D01*
X18234990Y-54970303D01*
X18627630Y-55363629D01*
X19140900Y-55576757D01*
X19696661Y-55577242D01*
X20210303Y-55365010D01*
X20603629Y-54972370D01*
X20816757Y-54459100D01*
X20817242Y-53903339D01*
X20605010Y-53389697D01*
X20212370Y-52996371D01*
X19699100Y-52783243D01*
X19229034Y-52782833D01*
X19078675Y-52682367D01*
X19022484Y-52671190D01*
X18740000Y-52614999D01*
X18739995Y-52615000D01*
X7094717Y-52615000D01*
X6794072Y-52313830D01*
X6279699Y-52100243D01*
X5722744Y-52099757D01*
X5208000Y-52312445D01*
X4813830Y-52705928D01*
X4600243Y-53220301D01*
X4599757Y-53777256D01*
X835000Y-53777256D01*
X835000Y-50777256D01*
X4599757Y-50777256D01*
X4812445Y-51292000D01*
X5205928Y-51686170D01*
X5720301Y-51899757D01*
X6277256Y-51900243D01*
X6792000Y-51687555D01*
X7095083Y-51385000D01*
X18019995Y-51385000D01*
X18020000Y-51385001D01*
X18302484Y-51328810D01*
X18358675Y-51317633D01*
X18645790Y-51125790D01*
X19274706Y-50496874D01*
X19696661Y-50497242D01*
X20210303Y-50285010D01*
X20603629Y-49892370D01*
X20816757Y-49379100D01*
X20817242Y-48823339D01*
X20605010Y-48309697D01*
X20212370Y-47916371D01*
X19699100Y-47703243D01*
X19143339Y-47702758D01*
X18629697Y-47914990D01*
X18236371Y-48307630D01*
X18023243Y-48820900D01*
X18022872Y-49245548D01*
X17653420Y-49615000D01*
X7094717Y-49615000D01*
X6794072Y-49313830D01*
X6279699Y-49100243D01*
X5722744Y-49099757D01*
X5208000Y-49312445D01*
X4813830Y-49705928D01*
X4600243Y-50220301D01*
X4599757Y-50777256D01*
X835000Y-50777256D01*
X835000Y-48540808D01*
X5274561Y-48540808D01*
X5351692Y-48771710D01*
X5887704Y-48923004D01*
X6440812Y-48857658D01*
X6648308Y-48771710D01*
X6725439Y-48540808D01*
X6000000Y-47815370D01*
X5274561Y-48540808D01*
X835000Y-48540808D01*
X835000Y-47387704D01*
X4576996Y-47387704D01*
X4642342Y-47940812D01*
X4728290Y-48148308D01*
X4959192Y-48225439D01*
X5684630Y-47500000D01*
X6315370Y-47500000D01*
X7040808Y-48225439D01*
X7271710Y-48148308D01*
X7423004Y-47612296D01*
X7357658Y-47059188D01*
X7271710Y-46851692D01*
X7040808Y-46774561D01*
X6315370Y-47500000D01*
X5684630Y-47500000D01*
X4959192Y-46774561D01*
X4728290Y-46851692D01*
X4576996Y-47387704D01*
X835000Y-47387704D01*
X835000Y-46459192D01*
X5274561Y-46459192D01*
X6000000Y-47184630D01*
X6725439Y-46459192D01*
X6648308Y-46228290D01*
X6112296Y-46076996D01*
X5559188Y-46142342D01*
X5351692Y-46228290D01*
X5274561Y-46459192D01*
X835000Y-46459192D01*
X835000Y-44777256D01*
X4599757Y-44777256D01*
X4812445Y-45292000D01*
X5205928Y-45686170D01*
X5720301Y-45899757D01*
X6277256Y-45900243D01*
X6792000Y-45687555D01*
X6994909Y-45485000D01*
X12000000Y-45485000D01*
X12376943Y-45410021D01*
X12696500Y-45196500D01*
X14664000Y-43229000D01*
X16158347Y-43229000D01*
X16356630Y-43427629D01*
X16869900Y-43640757D01*
X17425661Y-43641242D01*
X17939303Y-43429010D01*
X18332629Y-43036370D01*
X18545757Y-42523100D01*
X18546242Y-41967339D01*
X18334010Y-41453697D01*
X18134000Y-41253338D01*
X18134000Y-40694653D01*
X18332629Y-40496370D01*
X18545757Y-39983100D01*
X18546242Y-39427339D01*
X18334010Y-38913697D01*
X17941370Y-38520371D01*
X17428100Y-38307243D01*
X16872339Y-38306758D01*
X16358697Y-38518990D01*
X15965371Y-38911630D01*
X15752243Y-39424900D01*
X15751758Y-39980661D01*
X15963990Y-40494303D01*
X16164000Y-40694662D01*
X16164000Y-41253347D01*
X16158338Y-41259000D01*
X14256000Y-41259000D01*
X13879057Y-41333979D01*
X13559500Y-41547500D01*
X11592000Y-43515000D01*
X6994891Y-43515000D01*
X6794072Y-43313830D01*
X6279699Y-43100243D01*
X5722744Y-43099757D01*
X5208000Y-43312445D01*
X4813830Y-43705928D01*
X4600243Y-44220301D01*
X4599757Y-44777256D01*
X835000Y-44777256D01*
X835000Y-41751510D01*
X2769780Y-41751510D01*
X2962718Y-42218458D01*
X3319663Y-42576026D01*
X3786273Y-42769779D01*
X4291510Y-42770220D01*
X4758458Y-42577282D01*
X5116026Y-42220337D01*
X5309779Y-41753727D01*
X5310220Y-41248490D01*
X5117282Y-40781542D01*
X4760337Y-40423974D01*
X4293727Y-40230221D01*
X3788490Y-40229780D01*
X3321542Y-40422718D01*
X2963974Y-40779663D01*
X2770221Y-41246273D01*
X2769780Y-41751510D01*
X835000Y-41751510D01*
X835000Y-32614611D01*
X16425758Y-32614611D01*
X16502512Y-32845204D01*
X17037427Y-32995992D01*
X17589327Y-32930598D01*
X17795488Y-32845204D01*
X17872242Y-32614611D01*
X34967758Y-32614611D01*
X35044512Y-32845204D01*
X35579427Y-32995992D01*
X36131327Y-32930598D01*
X36337488Y-32845204D01*
X36414242Y-32614611D01*
X35691000Y-31891370D01*
X34967758Y-32614611D01*
X17872242Y-32614611D01*
X17149000Y-31891370D01*
X16425758Y-32614611D01*
X835000Y-32614611D01*
X835000Y-31464427D01*
X15729008Y-31464427D01*
X15794402Y-32016327D01*
X15879796Y-32222488D01*
X16110389Y-32299242D01*
X16833630Y-31576000D01*
X17464370Y-31576000D01*
X18187611Y-32299242D01*
X18418204Y-32222488D01*
X18568992Y-31687573D01*
X18542552Y-31464427D01*
X34271008Y-31464427D01*
X34336402Y-32016327D01*
X34421796Y-32222488D01*
X34652389Y-32299242D01*
X35375630Y-31576000D01*
X36006370Y-31576000D01*
X36729611Y-32299242D01*
X36960204Y-32222488D01*
X37110992Y-31687573D01*
X37045598Y-31135673D01*
X36960204Y-30929512D01*
X36729611Y-30852758D01*
X36006370Y-31576000D01*
X35375630Y-31576000D01*
X34652389Y-30852758D01*
X34421796Y-30929512D01*
X34271008Y-31464427D01*
X18542552Y-31464427D01*
X18503598Y-31135673D01*
X18418204Y-30929512D01*
X18187611Y-30852758D01*
X17464370Y-31576000D01*
X16833630Y-31576000D01*
X16110389Y-30852758D01*
X15879796Y-30929512D01*
X15729008Y-31464427D01*
X835000Y-31464427D01*
X835000Y-30074611D01*
X16425758Y-30074611D01*
X16502512Y-30305204D01*
X16504799Y-30305849D01*
X16502512Y-30306796D01*
X16425758Y-30537389D01*
X17149000Y-31260630D01*
X17872242Y-30537389D01*
X17795488Y-30306796D01*
X17793201Y-30306151D01*
X17795488Y-30305204D01*
X17872242Y-30074611D01*
X34967758Y-30074611D01*
X35044512Y-30305204D01*
X35046799Y-30305849D01*
X35044512Y-30306796D01*
X34967758Y-30537389D01*
X35691000Y-31260630D01*
X36414242Y-30537389D01*
X36337488Y-30306796D01*
X36335201Y-30306151D01*
X36337488Y-30305204D01*
X36414242Y-30074611D01*
X35691000Y-29351370D01*
X34967758Y-30074611D01*
X17872242Y-30074611D01*
X17149000Y-29351370D01*
X16425758Y-30074611D01*
X835000Y-30074611D01*
X835000Y-28924427D01*
X15729008Y-28924427D01*
X15794402Y-29476327D01*
X15879796Y-29682488D01*
X16110389Y-29759242D01*
X16833630Y-29036000D01*
X17464370Y-29036000D01*
X18187611Y-29759242D01*
X18418204Y-29682488D01*
X18568992Y-29147573D01*
X18542552Y-28924427D01*
X34271008Y-28924427D01*
X34336402Y-29476327D01*
X34421796Y-29682488D01*
X34652389Y-29759242D01*
X35375630Y-29036000D01*
X36006370Y-29036000D01*
X36729611Y-29759242D01*
X36960204Y-29682488D01*
X37110992Y-29147573D01*
X37045598Y-28595673D01*
X37007476Y-28503637D01*
X40205091Y-28503637D01*
X40505466Y-29066448D01*
X40998354Y-29471469D01*
X41296365Y-29594895D01*
X41547000Y-29489310D01*
X41547000Y-28253000D01*
X41993000Y-28253000D01*
X41993000Y-29489310D01*
X42243635Y-29594895D01*
X42541646Y-29471469D01*
X43034534Y-29066448D01*
X43334909Y-28503637D01*
X43230986Y-28253000D01*
X41993000Y-28253000D01*
X41547000Y-28253000D01*
X40309014Y-28253000D01*
X40205091Y-28503637D01*
X37007476Y-28503637D01*
X36960204Y-28389512D01*
X36729611Y-28312758D01*
X36006370Y-29036000D01*
X35375630Y-29036000D01*
X34652389Y-28312758D01*
X34421796Y-28389512D01*
X34271008Y-28924427D01*
X18542552Y-28924427D01*
X18503598Y-28595673D01*
X18418204Y-28389512D01*
X18187611Y-28312758D01*
X17464370Y-29036000D01*
X16833630Y-29036000D01*
X16110389Y-28312758D01*
X15879796Y-28389512D01*
X15729008Y-28924427D01*
X835000Y-28924427D01*
X835000Y-27997389D01*
X16425758Y-27997389D01*
X17149000Y-28720630D01*
X17872242Y-27997389D01*
X34967758Y-27997389D01*
X35691000Y-28720630D01*
X36414242Y-27997389D01*
X36337488Y-27766796D01*
X35802573Y-27616008D01*
X35250673Y-27681402D01*
X35044512Y-27766796D01*
X34967758Y-27997389D01*
X17872242Y-27997389D01*
X17795488Y-27766796D01*
X17260573Y-27616008D01*
X16708673Y-27681402D01*
X16502512Y-27766796D01*
X16425758Y-27997389D01*
X835000Y-27997389D01*
X835000Y-27556363D01*
X40205091Y-27556363D01*
X40309014Y-27807000D01*
X41547000Y-27807000D01*
X41547000Y-26570690D01*
X41993000Y-26570690D01*
X41993000Y-27807000D01*
X43230986Y-27807000D01*
X43334909Y-27556363D01*
X43034534Y-26993552D01*
X42541646Y-26588531D01*
X42243635Y-26465105D01*
X41993000Y-26570690D01*
X41547000Y-26570690D01*
X41296365Y-26465105D01*
X40998354Y-26588531D01*
X40505466Y-26993552D01*
X40205091Y-27556363D01*
X835000Y-27556363D01*
X835000Y-25442619D01*
X2764613Y-25442619D01*
X3104155Y-26264372D01*
X3732321Y-26893636D01*
X4553481Y-27234611D01*
X5442619Y-27235387D01*
X6264372Y-26895845D01*
X6893636Y-26267679D01*
X7234611Y-25446519D01*
X7235387Y-24557381D01*
X6895845Y-23735628D01*
X6267679Y-23106364D01*
X5446519Y-22765389D01*
X4557381Y-22764613D01*
X3735628Y-23104155D01*
X3106364Y-23732321D01*
X2765389Y-24553481D01*
X2764613Y-25442619D01*
X835000Y-25442619D01*
X835000Y-20835000D01*
X24500000Y-20835000D01*
X24580659Y-20818956D01*
X24662900Y-20818956D01*
X25045583Y-20742836D01*
X25346584Y-20618157D01*
X25671008Y-20401384D01*
X25901384Y-20171008D01*
X25930789Y-20127000D01*
X33569211Y-20127000D01*
X33598616Y-20171008D01*
X33598616Y-20171008D01*
G37*
X33598616Y-20171008D02*
X33828992Y-20401384D01*
X34153416Y-20618157D01*
X34454417Y-20742836D01*
X34837100Y-20818956D01*
X34919341Y-20818956D01*
X35000000Y-20835000D01*
X65000000Y-20835000D01*
X65080648Y-20818958D01*
X65162901Y-20818958D01*
X65545585Y-20742837D01*
X65696085Y-20680497D01*
X65846586Y-20618158D01*
X66171008Y-20401385D01*
X66252852Y-20319541D01*
X66401384Y-20171010D01*
X66430790Y-20127000D01*
X74069211Y-20127000D01*
X74098616Y-20171008D01*
X74328992Y-20401384D01*
X74653416Y-20618157D01*
X74954417Y-20742836D01*
X75337100Y-20818956D01*
X75419341Y-20818956D01*
X75500000Y-20835000D01*
X99165000Y-20835000D01*
X99165000Y-79665000D01*
X835000Y-79665000D01*
X835000Y-75942619D01*
X2764613Y-75942619D01*
X3104155Y-76764372D01*
X3732321Y-77393636D01*
X4553481Y-77734611D01*
X5442619Y-77735387D01*
X6264372Y-77395845D01*
X6893636Y-76767679D01*
X7234611Y-75946519D01*
X7234614Y-75942619D01*
X92764613Y-75942619D01*
X93104155Y-76764372D01*
X93732321Y-77393636D01*
X94553481Y-77734611D01*
X95442619Y-77735387D01*
X96264372Y-77395845D01*
X96893636Y-76767679D01*
X97234611Y-75946519D01*
X97235387Y-75057381D01*
X96895845Y-74235628D01*
X96267679Y-73606364D01*
X95446519Y-73265389D01*
X94557381Y-73264613D01*
X93735628Y-73604155D01*
X93106364Y-74232321D01*
X92765389Y-75053481D01*
X92764613Y-75942619D01*
X7234614Y-75942619D01*
X7235387Y-75057381D01*
X6895845Y-74235628D01*
X6267679Y-73606364D01*
X5446519Y-73265389D01*
X4557381Y-73264613D01*
X3735628Y-73604155D01*
X3106364Y-74232321D01*
X2765389Y-75053481D01*
X2764613Y-75942619D01*
X835000Y-75942619D01*
X835000Y-69942619D01*
X19264613Y-69942619D01*
X19604155Y-70764372D01*
X20232321Y-71393636D01*
X21053481Y-71734611D01*
X21942619Y-71735387D01*
X22764372Y-71395845D01*
X23393636Y-70767679D01*
X23734611Y-69946519D01*
X23734614Y-69942619D01*
X31764613Y-69942619D01*
X32104155Y-70764372D01*
X32732321Y-71393636D01*
X33553481Y-71734611D01*
X34442619Y-71735387D01*
X35264372Y-71395845D01*
X35893636Y-70767679D01*
X36234611Y-69946519D01*
X36234614Y-69942619D01*
X45764613Y-69942619D01*
X46104155Y-70764372D01*
X46732321Y-71393636D01*
X47553481Y-71734611D01*
X48442619Y-71735387D01*
X49264372Y-71395845D01*
X49893636Y-70767679D01*
X50234611Y-69946519D01*
X50235387Y-69057381D01*
X49895845Y-68235628D01*
X49267679Y-67606364D01*
X48446519Y-67265389D01*
X47557381Y-67264613D01*
X46735628Y-67604155D01*
X46106364Y-68232321D01*
X45765389Y-69053481D01*
X45764613Y-69942619D01*
X36234614Y-69942619D01*
X36235387Y-69057381D01*
X35895845Y-68235628D01*
X35267679Y-67606364D01*
X34446519Y-67265389D01*
X33557381Y-67264613D01*
X32735628Y-67604155D01*
X32106364Y-68232321D01*
X31765389Y-69053481D01*
X31764613Y-69942619D01*
X23734614Y-69942619D01*
X23735387Y-69057381D01*
X23395845Y-68235628D01*
X22767679Y-67606364D01*
X21946519Y-67265389D01*
X21057381Y-67264613D01*
X20235628Y-67604155D01*
X19606364Y-68232321D01*
X19265389Y-69053481D01*
X19264613Y-69942619D01*
X835000Y-69942619D01*
X835000Y-60340000D01*
X22692560Y-60340000D01*
X22692560Y-62940000D01*
X22736838Y-63175317D01*
X22875910Y-63391441D01*
X23088110Y-63536431D01*
X23340000Y-63587440D01*
X25340000Y-63587440D01*
X25575317Y-63543162D01*
X25791441Y-63404090D01*
X25896951Y-63249671D01*
X26016114Y-63329293D01*
X26030992Y-63404090D01*
X26062367Y-63561820D01*
X26126740Y-63658161D01*
X26254210Y-63848935D01*
X27315014Y-64909738D01*
X27315016Y-64909741D01*
X27472592Y-65015029D01*
X27602131Y-65101584D01*
X27940806Y-65168952D01*
X27940811Y-65168951D01*
X46076158Y-65168951D01*
X46076163Y-65168952D01*
X46389274Y-65106669D01*
X46414838Y-65101584D01*
X46701953Y-64909741D01*
X46701954Y-64909740D01*
X53306693Y-58305000D01*
X53575829Y-58305000D01*
X53906077Y-58635824D01*
X54036215Y-58689862D01*
X53908200Y-58742757D01*
X53504176Y-59146077D01*
X53285250Y-59673309D01*
X53284752Y-60244187D01*
X53502757Y-60771800D01*
X53906077Y-61175824D01*
X54036215Y-61229862D01*
X53908200Y-61282757D01*
X53504176Y-61686077D01*
X53285250Y-62213309D01*
X53284752Y-62784187D01*
X53502757Y-63311800D01*
X53906077Y-63715824D01*
X54433309Y-63934750D01*
X55004187Y-63935248D01*
X55531800Y-63717243D01*
X55935824Y-63313923D01*
X55989862Y-63183785D01*
X56042757Y-63311800D01*
X56446077Y-63715824D01*
X56973309Y-63934750D01*
X57544187Y-63935248D01*
X58071800Y-63717243D01*
X58475824Y-63313923D01*
X58529862Y-63183785D01*
X58582757Y-63311800D01*
X58986077Y-63715824D01*
X59513309Y-63934750D01*
X60084187Y-63935248D01*
X60611800Y-63717243D01*
X61015824Y-63313923D01*
X61069862Y-63183785D01*
X61122757Y-63311800D01*
X61526077Y-63715824D01*
X62053309Y-63934750D01*
X62624187Y-63935248D01*
X63151800Y-63717243D01*
X63555824Y-63313923D01*
X63609862Y-63183785D01*
X63662757Y-63311800D01*
X64066077Y-63715824D01*
X64593309Y-63934750D01*
X65164187Y-63935248D01*
X65691800Y-63717243D01*
X66095824Y-63313923D01*
X66149862Y-63183785D01*
X66202757Y-63311800D01*
X66606077Y-63715824D01*
X67133309Y-63934750D01*
X67704187Y-63935248D01*
X68231800Y-63717243D01*
X68635824Y-63313923D01*
X68689862Y-63183785D01*
X68742757Y-63311800D01*
X69146077Y-63715824D01*
X69673309Y-63934750D01*
X70244187Y-63935248D01*
X70771800Y-63717243D01*
X71175824Y-63313923D01*
X71394750Y-62786691D01*
X71395248Y-62215813D01*
X71177243Y-61688200D01*
X70773923Y-61284176D01*
X70643785Y-61230138D01*
X70771800Y-61177243D01*
X71099017Y-60850597D01*
X72565160Y-62316739D01*
X72564752Y-62784187D01*
X72782757Y-63311800D01*
X73115000Y-63644623D01*
X73115000Y-65379856D01*
X72957189Y-65485302D01*
X72646120Y-65950849D01*
X72536887Y-66500000D01*
X72646120Y-67049151D01*
X72957189Y-67514698D01*
X73422736Y-67825767D01*
X73971887Y-67935000D01*
X74028113Y-67935000D01*
X74577264Y-67825767D01*
X74965390Y-67566429D01*
X80868940Y-67566429D01*
X80950463Y-67800930D01*
X81499273Y-67958123D01*
X82066462Y-67893331D01*
X82289537Y-67800930D01*
X82371060Y-67566429D01*
X81620000Y-66815370D01*
X80868940Y-67566429D01*
X74965390Y-67566429D01*
X75042811Y-67514698D01*
X75353880Y-67049151D01*
X75463113Y-66500000D01*
X75439099Y-66379273D01*
X80161877Y-66379273D01*
X80226669Y-66946462D01*
X80319070Y-67169537D01*
X80553571Y-67251060D01*
X81304630Y-66500000D01*
X81935370Y-66500000D01*
X82686429Y-67251060D01*
X82920930Y-67169537D01*
X82929763Y-67138700D01*
X82962718Y-67218458D01*
X83319663Y-67576026D01*
X83786273Y-67769779D01*
X84291510Y-67770220D01*
X84758458Y-67577282D01*
X85116026Y-67220337D01*
X85309779Y-66753727D01*
X85310220Y-66248490D01*
X85117282Y-65781542D01*
X84760337Y-65423974D01*
X84293727Y-65230221D01*
X83788490Y-65229780D01*
X83321542Y-65422718D01*
X82963974Y-65779663D01*
X82931892Y-65856926D01*
X82920930Y-65830463D01*
X82686429Y-65748940D01*
X81935370Y-66500000D01*
X81304630Y-66500000D01*
X80553571Y-65748940D01*
X80319070Y-65830463D01*
X80161877Y-66379273D01*
X75439099Y-66379273D01*
X75353880Y-65950849D01*
X75042811Y-65485302D01*
X74965391Y-65433571D01*
X80868940Y-65433571D01*
X81620000Y-66184630D01*
X82371060Y-65433571D01*
X82289537Y-65199070D01*
X81740727Y-65041877D01*
X81173538Y-65106669D01*
X80950463Y-65199070D01*
X80868940Y-65433571D01*
X74965391Y-65433571D01*
X74885000Y-65379856D01*
X74885000Y-64540808D01*
X85274561Y-64540808D01*
X85351692Y-64771710D01*
X85887704Y-64923004D01*
X86440812Y-64857658D01*
X86648308Y-64771710D01*
X86725439Y-64540808D01*
X86000000Y-63815370D01*
X85274561Y-64540808D01*
X74885000Y-64540808D01*
X74885000Y-63644171D01*
X75215824Y-63313923D01*
X75434750Y-62786691D01*
X75435248Y-62215813D01*
X75217243Y-61688200D01*
X74813923Y-61284176D01*
X74286691Y-61065250D01*
X73816419Y-61064840D01*
X72085790Y-59334210D01*
X71971625Y-59257928D01*
X71798675Y-59142367D01*
X71742484Y-59131190D01*
X71460000Y-59074999D01*
X71459995Y-59075000D01*
X71104171Y-59075000D01*
X70773923Y-58744176D01*
X70643785Y-58690138D01*
X70771800Y-58637243D01*
X71133425Y-58276248D01*
X72038747Y-58276248D01*
X72038752Y-58276249D01*
X72321236Y-58220058D01*
X72377427Y-58208881D01*
X72664542Y-58017038D01*
X73842347Y-56839233D01*
X73971887Y-56865000D01*
X74028113Y-56865000D01*
X74577264Y-56755767D01*
X75042811Y-56444698D01*
X75353880Y-55979151D01*
X75463113Y-55430000D01*
X75439099Y-55309273D01*
X80161877Y-55309273D01*
X80226669Y-55876462D01*
X80319070Y-56099537D01*
X80553571Y-56181060D01*
X81304630Y-55430000D01*
X80553571Y-54678940D01*
X80319070Y-54760463D01*
X80161877Y-55309273D01*
X75439099Y-55309273D01*
X75353880Y-54880849D01*
X75042811Y-54415302D01*
X74885000Y-54309856D01*
X74885000Y-52644171D01*
X75215824Y-52313923D01*
X75434750Y-51786691D01*
X75435248Y-51215813D01*
X75217243Y-50688200D01*
X74813923Y-50284176D01*
X74286691Y-50065250D01*
X73715813Y-50064752D01*
X73336977Y-50221284D01*
X73336977Y-45794603D01*
X73722347Y-45409233D01*
X73851887Y-45435000D01*
X73908113Y-45435000D01*
X74457264Y-45325767D01*
X74845390Y-45066429D01*
X80748940Y-45066429D01*
X80830463Y-45300930D01*
X81379273Y-45458123D01*
X81946462Y-45393331D01*
X82169537Y-45300930D01*
X82251060Y-45066429D01*
X81500000Y-44315370D01*
X80748940Y-45066429D01*
X74845390Y-45066429D01*
X74922811Y-45014698D01*
X75233880Y-44549151D01*
X75343113Y-44000000D01*
X75319099Y-43879273D01*
X80041877Y-43879273D01*
X80106669Y-44446462D01*
X80199070Y-44669537D01*
X80433571Y-44751060D01*
X81184630Y-44000000D01*
X81815370Y-44000000D01*
X82566429Y-44751060D01*
X82769842Y-44680345D01*
X82769780Y-44751510D01*
X82962718Y-45218458D01*
X83319663Y-45576026D01*
X83786273Y-45769779D01*
X84291510Y-45770220D01*
X84758458Y-45577282D01*
X85116026Y-45220337D01*
X85309779Y-44753727D01*
X85309780Y-44751510D01*
X91769780Y-44751510D01*
X91962718Y-45218458D01*
X92319663Y-45576026D01*
X92786273Y-45769779D01*
X93291510Y-45770220D01*
X93758458Y-45577282D01*
X94116026Y-45220337D01*
X94309779Y-44753727D01*
X94310220Y-44248490D01*
X94117282Y-43781542D01*
X93760337Y-43423974D01*
X93293727Y-43230221D01*
X92788490Y-43229780D01*
X92321542Y-43422718D01*
X91963974Y-43779663D01*
X91770221Y-44246273D01*
X91769780Y-44751510D01*
X85309780Y-44751510D01*
X85310220Y-44248490D01*
X85117282Y-43781542D01*
X84760337Y-43423974D01*
X84293727Y-43230221D01*
X83788490Y-43229780D01*
X83321542Y-43422718D01*
X82963974Y-43779663D01*
X82928830Y-43864299D01*
X82893331Y-43553538D01*
X82800930Y-43330463D01*
X82566429Y-43248940D01*
X81815370Y-44000000D01*
X81184630Y-44000000D01*
X80433571Y-43248940D01*
X80199070Y-43330463D01*
X80041877Y-43879273D01*
X75319099Y-43879273D01*
X75233880Y-43450849D01*
X74922811Y-42985302D01*
X74845391Y-42933571D01*
X80748940Y-42933571D01*
X81500000Y-43684630D01*
X82251060Y-42933571D01*
X82169537Y-42699070D01*
X81620727Y-42541877D01*
X81053538Y-42606669D01*
X80830463Y-42699070D01*
X80748940Y-42933571D01*
X74845391Y-42933571D01*
X74765000Y-42879856D01*
X74765000Y-42540808D01*
X85274561Y-42540808D01*
X85351692Y-42771710D01*
X85887704Y-42923004D01*
X86440812Y-42857658D01*
X86648308Y-42771710D01*
X86725439Y-42540808D01*
X94274561Y-42540808D01*
X94351692Y-42771710D01*
X94887704Y-42923004D01*
X95440812Y-42857658D01*
X95648308Y-42771710D01*
X95725439Y-42540808D01*
X95000000Y-41815370D01*
X94274561Y-42540808D01*
X86725439Y-42540808D01*
X86000000Y-41815370D01*
X85274561Y-42540808D01*
X74765000Y-42540808D01*
X74765000Y-41144171D01*
X75095824Y-40813923D01*
X75314750Y-40286691D01*
X75315248Y-39715813D01*
X75097243Y-39188200D01*
X74693923Y-38784176D01*
X74166691Y-38565250D01*
X73595813Y-38564752D01*
X73068200Y-38782757D01*
X72664176Y-39186077D01*
X72636966Y-39251606D01*
X72636966Y-35514614D01*
X73712347Y-34439233D01*
X73841887Y-34465000D01*
X73898113Y-34465000D01*
X74447264Y-34355767D01*
X74912811Y-34044698D01*
X75223880Y-33579151D01*
X75333113Y-33030000D01*
X75309099Y-32909273D01*
X80031877Y-32909273D01*
X80096669Y-33476462D01*
X80189070Y-33699537D01*
X80423571Y-33781060D01*
X81174630Y-33030000D01*
X80423571Y-32278940D01*
X80189070Y-32360463D01*
X80031877Y-32909273D01*
X75309099Y-32909273D01*
X75223880Y-32480849D01*
X74912811Y-32015302D01*
X74765000Y-31916538D01*
X74765000Y-30144171D01*
X75095824Y-29813923D01*
X75314750Y-29286691D01*
X75315248Y-28715813D01*
X75097243Y-28188200D01*
X74693923Y-27784176D01*
X74166691Y-27565250D01*
X73595813Y-27564752D01*
X73068200Y-27782757D01*
X72664176Y-28186077D01*
X72445250Y-28713309D01*
X72444752Y-29284187D01*
X72662757Y-29811800D01*
X72995000Y-30144623D01*
X72995000Y-31903174D01*
X72827189Y-32015302D01*
X72516120Y-32480849D01*
X72406887Y-33030000D01*
X72441983Y-33206438D01*
X71388628Y-34259792D01*
X71177243Y-33748200D01*
X70773923Y-33344176D01*
X70643785Y-33290138D01*
X70771800Y-33237243D01*
X71175824Y-32833923D01*
X71394750Y-32306691D01*
X71395248Y-31735813D01*
X71177243Y-31208200D01*
X70773923Y-30804176D01*
X70643785Y-30750138D01*
X70771800Y-30697243D01*
X71175824Y-30293923D01*
X71394750Y-29766691D01*
X71395248Y-29195813D01*
X71177243Y-28668200D01*
X70945000Y-28435552D01*
X70945000Y-27948000D01*
X71908000Y-26985000D01*
X84092000Y-26985000D01*
X85015000Y-27908000D01*
X85015000Y-31679081D01*
X84760337Y-31423974D01*
X84293727Y-31230221D01*
X83808958Y-31229798D01*
X83808958Y-30423963D01*
X83808959Y-30423958D01*
X83741591Y-30085284D01*
X83741591Y-30085283D01*
X83549748Y-29798168D01*
X83549745Y-29798166D01*
X82928017Y-29176438D01*
X82963113Y-29000000D01*
X82853880Y-28450849D01*
X82542811Y-27985302D01*
X82077264Y-27674233D01*
X81528113Y-27565000D01*
X81471887Y-27565000D01*
X80922736Y-27674233D01*
X80457189Y-27985302D01*
X80146120Y-28450849D01*
X80036887Y-29000000D01*
X80146120Y-29549151D01*
X80457189Y-30014698D01*
X80922736Y-30325767D01*
X81471887Y-30435000D01*
X81528113Y-30435000D01*
X81657653Y-30409233D01*
X82038958Y-30790537D01*
X82038958Y-31694533D01*
X81610727Y-31571877D01*
X81043538Y-31636669D01*
X80820463Y-31729070D01*
X80738940Y-31963571D01*
X81490000Y-32714630D01*
X81504142Y-32700488D01*
X81819512Y-33015858D01*
X81805370Y-33030000D01*
X81819512Y-33044142D01*
X81504142Y-33359512D01*
X81490000Y-33345370D01*
X80738940Y-34096429D01*
X80820463Y-34330930D01*
X81369273Y-34488123D01*
X81936462Y-34423331D01*
X82038958Y-34380876D01*
X82038958Y-37523366D01*
X82038957Y-37523371D01*
X82070584Y-37682367D01*
X82106325Y-37862046D01*
X82140988Y-37913923D01*
X82298168Y-38149161D01*
X83264008Y-39115000D01*
X82629473Y-39115000D01*
X82542811Y-38985302D01*
X82077264Y-38674233D01*
X81528113Y-38565000D01*
X81471887Y-38565000D01*
X80922736Y-38674233D01*
X80457189Y-38985302D01*
X80146120Y-39450849D01*
X80036887Y-40000000D01*
X80146120Y-40549151D01*
X80457189Y-41014698D01*
X80922736Y-41325767D01*
X81471887Y-41435000D01*
X81528113Y-41435000D01*
X82077264Y-41325767D01*
X82542811Y-41014698D01*
X82629473Y-40885000D01*
X84718889Y-40885000D01*
X84576996Y-41387704D01*
X84642342Y-41940812D01*
X84728290Y-42148308D01*
X84959192Y-42225439D01*
X85684630Y-41500000D01*
X85670488Y-41485858D01*
X85985858Y-41170488D01*
X86000000Y-41184630D01*
X86014142Y-41170488D01*
X86329512Y-41485858D01*
X86315370Y-41500000D01*
X87040808Y-42225439D01*
X87271710Y-42148308D01*
X87423004Y-41612296D01*
X87396470Y-41387704D01*
X93576996Y-41387704D01*
X93642342Y-41940812D01*
X93728290Y-42148308D01*
X93959192Y-42225439D01*
X94684630Y-41500000D01*
X95315370Y-41500000D01*
X96040808Y-42225439D01*
X96271710Y-42148308D01*
X96423004Y-41612296D01*
X96357658Y-41059188D01*
X96271710Y-40851692D01*
X96040808Y-40774561D01*
X95315370Y-41500000D01*
X94684630Y-41500000D01*
X93959192Y-40774561D01*
X93728290Y-40851692D01*
X93576996Y-41387704D01*
X87396470Y-41387704D01*
X87357658Y-41059188D01*
X87285507Y-40885000D01*
X90747243Y-40885000D01*
X90747248Y-40885001D01*
X91029732Y-40828810D01*
X91085923Y-40817633D01*
X91373038Y-40625790D01*
X91539635Y-40459192D01*
X94274561Y-40459192D01*
X95000000Y-41184630D01*
X95725439Y-40459192D01*
X95648308Y-40228290D01*
X95112296Y-40076996D01*
X94559188Y-40142342D01*
X94351692Y-40228290D01*
X94274561Y-40459192D01*
X91539635Y-40459192D01*
X92613827Y-39385000D01*
X93905283Y-39385000D01*
X94205928Y-39686170D01*
X94720301Y-39899757D01*
X95277256Y-39900243D01*
X95792000Y-39687555D01*
X96186170Y-39294072D01*
X96399757Y-38779699D01*
X96400243Y-38222744D01*
X96187555Y-37708000D01*
X95794072Y-37313830D01*
X95279699Y-37100243D01*
X94722744Y-37099757D01*
X94208000Y-37312445D01*
X93904917Y-37615000D01*
X92247248Y-37615000D01*
X91908573Y-37682367D01*
X91621458Y-37874210D01*
X91621456Y-37874213D01*
X90380668Y-39115000D01*
X87260527Y-39115000D01*
X87399757Y-38779699D01*
X87400243Y-38222744D01*
X87187555Y-37708000D01*
X86794072Y-37313830D01*
X86279699Y-37100243D01*
X85722744Y-37099757D01*
X85208000Y-37312445D01*
X84904917Y-37615000D01*
X84267166Y-37615000D01*
X83808958Y-37156791D01*
X83808958Y-33769799D01*
X84291510Y-33770220D01*
X84758458Y-33577282D01*
X85015000Y-33321187D01*
X85015000Y-34505109D01*
X84813830Y-34705928D01*
X84600243Y-35220301D01*
X84599757Y-35777256D01*
X84812445Y-36292000D01*
X85205928Y-36686170D01*
X85720301Y-36899757D01*
X86277256Y-36900243D01*
X86792000Y-36687555D01*
X86994909Y-36485000D01*
X94005109Y-36485000D01*
X94205928Y-36686170D01*
X94720301Y-36899757D01*
X95277256Y-36900243D01*
X95792000Y-36687555D01*
X95994909Y-36485000D01*
X97092000Y-36485000D01*
X97160001Y-36553001D01*
X97160001Y-56168319D01*
X96813320Y-56515000D01*
X95994891Y-56515000D01*
X95794072Y-56313830D01*
X95279699Y-56100243D01*
X94722744Y-56099757D01*
X94208000Y-56312445D01*
X94005091Y-56515000D01*
X86994891Y-56515000D01*
X86794072Y-56313830D01*
X86279699Y-56100243D01*
X85722744Y-56099757D01*
X85208000Y-56312445D01*
X84813830Y-56705928D01*
X84600243Y-57220301D01*
X84599757Y-57777256D01*
X84649695Y-57898116D01*
X83755001Y-57003421D01*
X83755001Y-55756794D01*
X83786273Y-55769779D01*
X84291510Y-55770220D01*
X84758458Y-55577282D01*
X85116026Y-55220337D01*
X85309779Y-54753727D01*
X85309780Y-54751510D01*
X91769780Y-54751510D01*
X91962718Y-55218458D01*
X92319663Y-55576026D01*
X92786273Y-55769779D01*
X93291510Y-55770220D01*
X93758458Y-55577282D01*
X94116026Y-55220337D01*
X94309779Y-54753727D01*
X94310220Y-54248490D01*
X94117282Y-53781542D01*
X93760337Y-53423974D01*
X93293727Y-53230221D01*
X92788490Y-53229780D01*
X92321542Y-53422718D01*
X91963974Y-53779663D01*
X91770221Y-54246273D01*
X91769780Y-54751510D01*
X85309780Y-54751510D01*
X85310220Y-54248490D01*
X85117282Y-53781542D01*
X84760337Y-53423974D01*
X84293727Y-53230221D01*
X83788490Y-53229780D01*
X83755001Y-53243617D01*
X83755001Y-52750001D01*
X83687634Y-52411326D01*
X83495791Y-52124211D01*
X83495788Y-52124209D01*
X83048017Y-51676438D01*
X83083113Y-51500000D01*
X82973880Y-50950849D01*
X82662811Y-50485302D01*
X82197264Y-50174233D01*
X81648113Y-50065000D01*
X81591887Y-50065000D01*
X81042736Y-50174233D01*
X80577189Y-50485302D01*
X80266120Y-50950849D01*
X80156887Y-51500000D01*
X80266120Y-52049151D01*
X80577189Y-52514698D01*
X81042736Y-52825767D01*
X81591887Y-52935000D01*
X81648113Y-52935000D01*
X81777653Y-52909233D01*
X81985001Y-53116580D01*
X81985001Y-54041843D01*
X81740727Y-53971877D01*
X81173538Y-54036669D01*
X80950463Y-54129070D01*
X80868940Y-54363571D01*
X81620000Y-55114630D01*
X81634142Y-55100488D01*
X81949512Y-55415858D01*
X81935370Y-55430000D01*
X81949512Y-55444142D01*
X81634142Y-55759512D01*
X81620000Y-55745370D01*
X80868940Y-56496429D01*
X80950463Y-56730930D01*
X81499273Y-56888123D01*
X81985001Y-56832637D01*
X81985001Y-57369996D01*
X81985000Y-57370001D01*
X82025982Y-57576026D01*
X82052368Y-57708676D01*
X82164800Y-57876943D01*
X82244211Y-57995791D01*
X84600128Y-60351707D01*
X84599757Y-60777256D01*
X84621551Y-60830001D01*
X83536374Y-60830001D01*
X83536369Y-60830000D01*
X83197694Y-60897368D01*
X82910579Y-61089211D01*
X82910577Y-61089214D01*
X82573898Y-61425892D01*
X82197264Y-61174233D01*
X81648113Y-61065000D01*
X81591887Y-61065000D01*
X81042736Y-61174233D01*
X80577189Y-61485302D01*
X80266120Y-61950849D01*
X80156887Y-62500000D01*
X80266120Y-63049151D01*
X80577189Y-63514698D01*
X81042736Y-63825767D01*
X81591887Y-63935000D01*
X81648113Y-63935000D01*
X82197264Y-63825767D01*
X82662811Y-63514698D01*
X82749473Y-63385000D01*
X82751365Y-63385000D01*
X82751370Y-63385001D01*
X83033854Y-63328810D01*
X83090045Y-63317633D01*
X83377160Y-63125790D01*
X83377161Y-63125789D01*
X83902948Y-62600001D01*
X84884829Y-62600001D01*
X84834729Y-62650101D01*
X84959190Y-62774562D01*
X84728290Y-62851692D01*
X84576996Y-63387704D01*
X84642342Y-63940812D01*
X84728290Y-64148308D01*
X84959192Y-64225439D01*
X85684630Y-63500000D01*
X85670488Y-63485858D01*
X85985858Y-63170488D01*
X86000000Y-63184630D01*
X86014142Y-63170488D01*
X86329512Y-63485858D01*
X86315370Y-63500000D01*
X87040808Y-64225439D01*
X87271710Y-64148308D01*
X87423004Y-63612296D01*
X87357658Y-63059188D01*
X87271710Y-62851692D01*
X87040810Y-62774562D01*
X87165271Y-62650101D01*
X87115171Y-62600001D01*
X91648419Y-62600001D01*
X89233391Y-65015029D01*
X89041548Y-65302144D01*
X89041548Y-65302145D01*
X88974180Y-65640819D01*
X88974181Y-65640824D01*
X88974181Y-67676250D01*
X88089848Y-68560582D01*
X87813923Y-68284176D01*
X87286691Y-68065250D01*
X86715813Y-68064752D01*
X86188200Y-68282757D01*
X85784176Y-68686077D01*
X85565250Y-69213309D01*
X85564752Y-69784187D01*
X85782757Y-70311800D01*
X86186077Y-70715824D01*
X86713309Y-70934750D01*
X87284187Y-70935248D01*
X87811800Y-70717243D01*
X88144623Y-70385000D01*
X88402005Y-70385000D01*
X88402010Y-70385001D01*
X88684494Y-70328810D01*
X88740685Y-70317633D01*
X89027800Y-70125790D01*
X90484968Y-68668621D01*
X90484971Y-68668619D01*
X90676814Y-68381504D01*
X90705831Y-68235628D01*
X90744182Y-68042829D01*
X90744181Y-68042824D01*
X90744181Y-66751510D01*
X91769780Y-66751510D01*
X91962718Y-67218458D01*
X92319663Y-67576026D01*
X92786273Y-67769779D01*
X93291510Y-67770220D01*
X93758458Y-67577282D01*
X94116026Y-67220337D01*
X94309779Y-66753727D01*
X94310220Y-66248490D01*
X94117282Y-65781542D01*
X93760337Y-65423974D01*
X93293727Y-65230221D01*
X92788490Y-65229780D01*
X92321542Y-65422718D01*
X91963974Y-65779663D01*
X91770221Y-66246273D01*
X91769780Y-66751510D01*
X90744181Y-66751510D01*
X90744181Y-66007399D01*
X92210772Y-64540808D01*
X94274561Y-64540808D01*
X94351692Y-64771710D01*
X94887704Y-64923004D01*
X95440812Y-64857658D01*
X95648308Y-64771710D01*
X95725439Y-64540808D01*
X95000000Y-63815370D01*
X94274561Y-64540808D01*
X92210772Y-64540808D01*
X93660808Y-63090772D01*
X93576996Y-63387704D01*
X93642342Y-63940812D01*
X93728290Y-64148308D01*
X93959192Y-64225439D01*
X94684630Y-63500000D01*
X95315370Y-63500000D01*
X96040808Y-64225439D01*
X96271710Y-64148308D01*
X96423004Y-63612296D01*
X96357658Y-63059188D01*
X96271710Y-62851692D01*
X96040808Y-62774561D01*
X95315370Y-63500000D01*
X94684630Y-63500000D01*
X94670488Y-63485858D01*
X94985858Y-63170488D01*
X95000000Y-63184630D01*
X95725439Y-62459192D01*
X95648308Y-62228290D01*
X95112296Y-62076996D01*
X94615943Y-62135637D01*
X94851707Y-61899872D01*
X95277256Y-61900243D01*
X95792000Y-61687555D01*
X96186170Y-61294072D01*
X96399757Y-60779699D01*
X96400182Y-60293182D01*
X97085000Y-60978000D01*
X97085000Y-67591950D01*
X96161950Y-68515000D01*
X95682655Y-68515000D01*
X95662811Y-68485302D01*
X95197264Y-68174233D01*
X94648113Y-68065000D01*
X94591887Y-68065000D01*
X94042736Y-68174233D01*
X93577189Y-68485302D01*
X93266120Y-68950849D01*
X93156887Y-69500000D01*
X93266120Y-70049151D01*
X93577189Y-70514698D01*
X94042736Y-70825767D01*
X94591887Y-70935000D01*
X94648113Y-70935000D01*
X95197264Y-70825767D01*
X95662811Y-70514698D01*
X95682655Y-70485000D01*
X96569950Y-70485000D01*
X96946893Y-70410021D01*
X97266450Y-70196500D01*
X98766500Y-68696450D01*
X98980021Y-68376893D01*
X99055000Y-67999950D01*
X99055000Y-60570000D01*
X98980021Y-60193057D01*
X98766500Y-59873500D01*
X97352005Y-58459005D01*
X97598263Y-58410021D01*
X97917820Y-58196500D01*
X98841501Y-57272819D01*
X99055022Y-56953262D01*
X99130001Y-56576319D01*
X99130001Y-36145001D01*
X99055022Y-35768058D01*
X98841501Y-35448501D01*
X98196500Y-34803500D01*
X97876943Y-34589979D01*
X97500000Y-34515000D01*
X95994891Y-34515000D01*
X95794072Y-34313830D01*
X95279699Y-34100243D01*
X94722744Y-34099757D01*
X94208000Y-34312445D01*
X94005091Y-34515000D01*
X86994891Y-34515000D01*
X86985000Y-34505091D01*
X86985000Y-32751510D01*
X91769780Y-32751510D01*
X91962718Y-33218458D01*
X92319663Y-33576026D01*
X92786273Y-33769779D01*
X93291510Y-33770220D01*
X93758458Y-33577282D01*
X94116026Y-33220337D01*
X94309779Y-32753727D01*
X94310220Y-32248490D01*
X94117282Y-31781542D01*
X93760337Y-31423974D01*
X93293727Y-31230221D01*
X92788490Y-31229780D01*
X92321542Y-31422718D01*
X91963974Y-31779663D01*
X91770221Y-32246273D01*
X91769780Y-32751510D01*
X86985000Y-32751510D01*
X86985000Y-27500000D01*
X86910021Y-27123057D01*
X86696500Y-26803500D01*
X85335619Y-25442619D01*
X92264613Y-25442619D01*
X92604155Y-26264372D01*
X93232321Y-26893636D01*
X94053481Y-27234611D01*
X94942619Y-27235387D01*
X95764372Y-26895845D01*
X96393636Y-26267679D01*
X96734611Y-25446519D01*
X96735387Y-24557381D01*
X96395845Y-23735628D01*
X95767679Y-23106364D01*
X94946519Y-22765389D01*
X94057381Y-22764613D01*
X93235628Y-23104155D01*
X92606364Y-23732321D01*
X92265389Y-24553481D01*
X92264613Y-25442619D01*
X85335619Y-25442619D01*
X85196500Y-25303500D01*
X84876943Y-25089979D01*
X84500000Y-25015000D01*
X71500000Y-25015000D01*
X71123057Y-25089979D01*
X70803500Y-25303500D01*
X70354372Y-25752629D01*
X69599238Y-24997495D01*
X69279681Y-24783974D01*
X68902738Y-24708995D01*
X51506005Y-24708995D01*
X51129062Y-24783974D01*
X50809505Y-24997495D01*
X48603500Y-27203500D01*
X48389979Y-27523057D01*
X48315000Y-27900000D01*
X48315000Y-37862000D01*
X44132000Y-42045000D01*
X43417440Y-42045000D01*
X43417440Y-42030000D01*
X43373162Y-41794683D01*
X43234090Y-41578559D01*
X43021890Y-41433569D01*
X42770000Y-41382560D01*
X40770000Y-41382560D01*
X40534683Y-41426838D01*
X40318559Y-41565910D01*
X40173569Y-41778110D01*
X40122560Y-42030000D01*
X40122560Y-42045000D01*
X39408000Y-42045000D01*
X38910500Y-41547500D01*
X38590943Y-41333979D01*
X38214000Y-41259000D01*
X36681653Y-41259000D01*
X36676000Y-41253338D01*
X36676000Y-40694653D01*
X36874629Y-40496370D01*
X37087757Y-39983100D01*
X37088242Y-39427339D01*
X36876010Y-38913697D01*
X36483370Y-38520371D01*
X35970100Y-38307243D01*
X35414339Y-38306758D01*
X34900697Y-38518990D01*
X34507371Y-38911630D01*
X34294243Y-39424900D01*
X34293758Y-39980661D01*
X34505990Y-40494303D01*
X34706000Y-40694662D01*
X34706000Y-41253347D01*
X34700338Y-41259000D01*
X34613370Y-41259000D01*
X34236427Y-41333979D01*
X33916870Y-41547500D01*
X23643500Y-51820870D01*
X23429979Y-52140427D01*
X23355000Y-52517370D01*
X23355000Y-59692560D01*
X23340000Y-59692560D01*
X23104683Y-59736838D01*
X22888559Y-59875910D01*
X22743569Y-60088110D01*
X22692560Y-60340000D01*
X835000Y-60340000D01*
X835000Y-56751510D01*
X2769780Y-56751510D01*
X2962718Y-57218458D01*
X3319663Y-57576026D01*
X3786273Y-57769779D01*
X4291510Y-57770220D01*
X4758458Y-57577282D01*
X5116026Y-57220337D01*
X5309779Y-56753727D01*
X5310220Y-56248490D01*
X5117282Y-55781542D01*
X4760337Y-55423974D01*
X4293727Y-55230221D01*
X3788490Y-55229780D01*
X3321542Y-55422718D01*
X2963974Y-55779663D01*
X2770221Y-56246273D01*
X2769780Y-56751510D01*
X835000Y-56751510D01*
X835000Y-53777256D01*
X4599757Y-53777256D01*
X4812445Y-54292000D01*
X5205928Y-54686170D01*
X5720301Y-54899757D01*
X6277256Y-54900243D01*
X6792000Y-54687555D01*
X7095083Y-54385000D01*
X18022821Y-54385000D01*
X18022758Y-54456661D01*
X18234990Y-54970303D01*
X18627630Y-55363629D01*
X19140900Y-55576757D01*
X19696661Y-55577242D01*
X20210303Y-55365010D01*
X20603629Y-54972370D01*
X20816757Y-54459100D01*
X20817242Y-53903339D01*
X20605010Y-53389697D01*
X20212370Y-52996371D01*
X19699100Y-52783243D01*
X19229034Y-52782833D01*
X19078675Y-52682367D01*
X19022484Y-52671190D01*
X18740000Y-52614999D01*
X18739995Y-52615000D01*
X7094717Y-52615000D01*
X6794072Y-52313830D01*
X6279699Y-52100243D01*
X5722744Y-52099757D01*
X5208000Y-52312445D01*
X4813830Y-52705928D01*
X4600243Y-53220301D01*
X4599757Y-53777256D01*
X835000Y-53777256D01*
X835000Y-50777256D01*
X4599757Y-50777256D01*
X4812445Y-51292000D01*
X5205928Y-51686170D01*
X5720301Y-51899757D01*
X6277256Y-51900243D01*
X6792000Y-51687555D01*
X7095083Y-51385000D01*
X18019995Y-51385000D01*
X18020000Y-51385001D01*
X18302484Y-51328810D01*
X18358675Y-51317633D01*
X18645790Y-51125790D01*
X19274706Y-50496874D01*
X19696661Y-50497242D01*
X20210303Y-50285010D01*
X20603629Y-49892370D01*
X20816757Y-49379100D01*
X20817242Y-48823339D01*
X20605010Y-48309697D01*
X20212370Y-47916371D01*
X19699100Y-47703243D01*
X19143339Y-47702758D01*
X18629697Y-47914990D01*
X18236371Y-48307630D01*
X18023243Y-48820900D01*
X18022872Y-49245548D01*
X17653420Y-49615000D01*
X7094717Y-49615000D01*
X6794072Y-49313830D01*
X6279699Y-49100243D01*
X5722744Y-49099757D01*
X5208000Y-49312445D01*
X4813830Y-49705928D01*
X4600243Y-50220301D01*
X4599757Y-50777256D01*
X835000Y-50777256D01*
X835000Y-48540808D01*
X5274561Y-48540808D01*
X5351692Y-48771710D01*
X5887704Y-48923004D01*
X6440812Y-48857658D01*
X6648308Y-48771710D01*
X6725439Y-48540808D01*
X6000000Y-47815370D01*
X5274561Y-48540808D01*
X835000Y-48540808D01*
X835000Y-47387704D01*
X4576996Y-47387704D01*
X4642342Y-47940812D01*
X4728290Y-48148308D01*
X4959192Y-48225439D01*
X5684630Y-47500000D01*
X6315370Y-47500000D01*
X7040808Y-48225439D01*
X7271710Y-48148308D01*
X7423004Y-47612296D01*
X7357658Y-47059188D01*
X7271710Y-46851692D01*
X7040808Y-46774561D01*
X6315370Y-47500000D01*
X5684630Y-47500000D01*
X4959192Y-46774561D01*
X4728290Y-46851692D01*
X4576996Y-47387704D01*
X835000Y-47387704D01*
X835000Y-46459192D01*
X5274561Y-46459192D01*
X6000000Y-47184630D01*
X6725439Y-46459192D01*
X6648308Y-46228290D01*
X6112296Y-46076996D01*
X5559188Y-46142342D01*
X5351692Y-46228290D01*
X5274561Y-46459192D01*
X835000Y-46459192D01*
X835000Y-44777256D01*
X4599757Y-44777256D01*
X4812445Y-45292000D01*
X5205928Y-45686170D01*
X5720301Y-45899757D01*
X6277256Y-45900243D01*
X6792000Y-45687555D01*
X6994909Y-45485000D01*
X12000000Y-45485000D01*
X12376943Y-45410021D01*
X12696500Y-45196500D01*
X14664000Y-43229000D01*
X16158347Y-43229000D01*
X16356630Y-43427629D01*
X16869900Y-43640757D01*
X17425661Y-43641242D01*
X17939303Y-43429010D01*
X18332629Y-43036370D01*
X18545757Y-42523100D01*
X18546242Y-41967339D01*
X18334010Y-41453697D01*
X18134000Y-41253338D01*
X18134000Y-40694653D01*
X18332629Y-40496370D01*
X18545757Y-39983100D01*
X18546242Y-39427339D01*
X18334010Y-38913697D01*
X17941370Y-38520371D01*
X17428100Y-38307243D01*
X16872339Y-38306758D01*
X16358697Y-38518990D01*
X15965371Y-38911630D01*
X15752243Y-39424900D01*
X15751758Y-39980661D01*
X15963990Y-40494303D01*
X16164000Y-40694662D01*
X16164000Y-41253347D01*
X16158338Y-41259000D01*
X14256000Y-41259000D01*
X13879057Y-41333979D01*
X13559500Y-41547500D01*
X11592000Y-43515000D01*
X6994891Y-43515000D01*
X6794072Y-43313830D01*
X6279699Y-43100243D01*
X5722744Y-43099757D01*
X5208000Y-43312445D01*
X4813830Y-43705928D01*
X4600243Y-44220301D01*
X4599757Y-44777256D01*
X835000Y-44777256D01*
X835000Y-41751510D01*
X2769780Y-41751510D01*
X2962718Y-42218458D01*
X3319663Y-42576026D01*
X3786273Y-42769779D01*
X4291510Y-42770220D01*
X4758458Y-42577282D01*
X5116026Y-42220337D01*
X5309779Y-41753727D01*
X5310220Y-41248490D01*
X5117282Y-40781542D01*
X4760337Y-40423974D01*
X4293727Y-40230221D01*
X3788490Y-40229780D01*
X3321542Y-40422718D01*
X2963974Y-40779663D01*
X2770221Y-41246273D01*
X2769780Y-41751510D01*
X835000Y-41751510D01*
X835000Y-32614611D01*
X16425758Y-32614611D01*
X16502512Y-32845204D01*
X17037427Y-32995992D01*
X17589327Y-32930598D01*
X17795488Y-32845204D01*
X17872242Y-32614611D01*
X34967758Y-32614611D01*
X35044512Y-32845204D01*
X35579427Y-32995992D01*
X36131327Y-32930598D01*
X36337488Y-32845204D01*
X36414242Y-32614611D01*
X35691000Y-31891370D01*
X34967758Y-32614611D01*
X17872242Y-32614611D01*
X17149000Y-31891370D01*
X16425758Y-32614611D01*
X835000Y-32614611D01*
X835000Y-31464427D01*
X15729008Y-31464427D01*
X15794402Y-32016327D01*
X15879796Y-32222488D01*
X16110389Y-32299242D01*
X16833630Y-31576000D01*
X17464370Y-31576000D01*
X18187611Y-32299242D01*
X18418204Y-32222488D01*
X18568992Y-31687573D01*
X18542552Y-31464427D01*
X34271008Y-31464427D01*
X34336402Y-32016327D01*
X34421796Y-32222488D01*
X34652389Y-32299242D01*
X35375630Y-31576000D01*
X36006370Y-31576000D01*
X36729611Y-32299242D01*
X36960204Y-32222488D01*
X37110992Y-31687573D01*
X37045598Y-31135673D01*
X36960204Y-30929512D01*
X36729611Y-30852758D01*
X36006370Y-31576000D01*
X35375630Y-31576000D01*
X34652389Y-30852758D01*
X34421796Y-30929512D01*
X34271008Y-31464427D01*
X18542552Y-31464427D01*
X18503598Y-31135673D01*
X18418204Y-30929512D01*
X18187611Y-30852758D01*
X17464370Y-31576000D01*
X16833630Y-31576000D01*
X16110389Y-30852758D01*
X15879796Y-30929512D01*
X15729008Y-31464427D01*
X835000Y-31464427D01*
X835000Y-30074611D01*
X16425758Y-30074611D01*
X16502512Y-30305204D01*
X16504799Y-30305849D01*
X16502512Y-30306796D01*
X16425758Y-30537389D01*
X17149000Y-31260630D01*
X17872242Y-30537389D01*
X17795488Y-30306796D01*
X17793201Y-30306151D01*
X17795488Y-30305204D01*
X17872242Y-30074611D01*
X34967758Y-30074611D01*
X35044512Y-30305204D01*
X35046799Y-30305849D01*
X35044512Y-30306796D01*
X34967758Y-30537389D01*
X35691000Y-31260630D01*
X36414242Y-30537389D01*
X36337488Y-30306796D01*
X36335201Y-30306151D01*
X36337488Y-30305204D01*
X36414242Y-30074611D01*
X35691000Y-29351370D01*
X34967758Y-30074611D01*
X17872242Y-30074611D01*
X17149000Y-29351370D01*
X16425758Y-30074611D01*
X835000Y-30074611D01*
X835000Y-28924427D01*
X15729008Y-28924427D01*
X15794402Y-29476327D01*
X15879796Y-29682488D01*
X16110389Y-29759242D01*
X16833630Y-29036000D01*
X17464370Y-29036000D01*
X18187611Y-29759242D01*
X18418204Y-29682488D01*
X18568992Y-29147573D01*
X18542552Y-28924427D01*
X34271008Y-28924427D01*
X34336402Y-29476327D01*
X34421796Y-29682488D01*
X34652389Y-29759242D01*
X35375630Y-29036000D01*
X36006370Y-29036000D01*
X36729611Y-29759242D01*
X36960204Y-29682488D01*
X37110992Y-29147573D01*
X37045598Y-28595673D01*
X37007476Y-28503637D01*
X40205091Y-28503637D01*
X40505466Y-29066448D01*
X40998354Y-29471469D01*
X41296365Y-29594895D01*
X41547000Y-29489310D01*
X41547000Y-28253000D01*
X41993000Y-28253000D01*
X41993000Y-29489310D01*
X42243635Y-29594895D01*
X42541646Y-29471469D01*
X43034534Y-29066448D01*
X43334909Y-28503637D01*
X43230986Y-28253000D01*
X41993000Y-28253000D01*
X41547000Y-28253000D01*
X40309014Y-28253000D01*
X40205091Y-28503637D01*
X37007476Y-28503637D01*
X36960204Y-28389512D01*
X36729611Y-28312758D01*
X36006370Y-29036000D01*
X35375630Y-29036000D01*
X34652389Y-28312758D01*
X34421796Y-28389512D01*
X34271008Y-28924427D01*
X18542552Y-28924427D01*
X18503598Y-28595673D01*
X18418204Y-28389512D01*
X18187611Y-28312758D01*
X17464370Y-29036000D01*
X16833630Y-29036000D01*
X16110389Y-28312758D01*
X15879796Y-28389512D01*
X15729008Y-28924427D01*
X835000Y-28924427D01*
X835000Y-27997389D01*
X16425758Y-27997389D01*
X17149000Y-28720630D01*
X17872242Y-27997389D01*
X34967758Y-27997389D01*
X35691000Y-28720630D01*
X36414242Y-27997389D01*
X36337488Y-27766796D01*
X35802573Y-27616008D01*
X35250673Y-27681402D01*
X35044512Y-27766796D01*
X34967758Y-27997389D01*
X17872242Y-27997389D01*
X17795488Y-27766796D01*
X17260573Y-27616008D01*
X16708673Y-27681402D01*
X16502512Y-27766796D01*
X16425758Y-27997389D01*
X835000Y-27997389D01*
X835000Y-27556363D01*
X40205091Y-27556363D01*
X40309014Y-27807000D01*
X41547000Y-27807000D01*
X41547000Y-26570690D01*
X41993000Y-26570690D01*
X41993000Y-27807000D01*
X43230986Y-27807000D01*
X43334909Y-27556363D01*
X43034534Y-26993552D01*
X42541646Y-26588531D01*
X42243635Y-26465105D01*
X41993000Y-26570690D01*
X41547000Y-26570690D01*
X41296365Y-26465105D01*
X40998354Y-26588531D01*
X40505466Y-26993552D01*
X40205091Y-27556363D01*
X835000Y-27556363D01*
X835000Y-25442619D01*
X2764613Y-25442619D01*
X3104155Y-26264372D01*
X3732321Y-26893636D01*
X4553481Y-27234611D01*
X5442619Y-27235387D01*
X6264372Y-26895845D01*
X6893636Y-26267679D01*
X7234611Y-25446519D01*
X7235387Y-24557381D01*
X6895845Y-23735628D01*
X6267679Y-23106364D01*
X5446519Y-22765389D01*
X4557381Y-22764613D01*
X3735628Y-23104155D01*
X3106364Y-23732321D01*
X2765389Y-24553481D01*
X2764613Y-25442619D01*
X835000Y-25442619D01*
X835000Y-20835000D01*
X24500000Y-20835000D01*
X24580659Y-20818956D01*
X24662900Y-20818956D01*
X25045583Y-20742836D01*
X25346584Y-20618157D01*
X25671008Y-20401384D01*
X25901384Y-20171008D01*
X25930789Y-20127000D01*
X33569211Y-20127000D01*
X33598616Y-20171008D01*
G36*
X36815000Y-59384771D02*
X36815000Y-59692560D01*
X36800000Y-59692560D01*
X36564683Y-59736838D01*
X36348559Y-59875910D01*
X36203569Y-60088110D01*
X36152560Y-60340000D01*
X36152560Y-62940000D01*
X36196838Y-63175317D01*
X36335910Y-63391441D01*
X36346901Y-63398951D01*
X30100441Y-63398951D01*
X30446401Y-63221720D01*
X30858764Y-62731368D01*
X31052088Y-62120538D01*
X30901487Y-61863000D01*
X29643000Y-61863000D01*
X29643000Y-61883000D01*
X29197000Y-61883000D01*
X29197000Y-61863000D01*
X29177000Y-61863000D01*
X29177000Y-61417000D01*
X29197000Y-61417000D01*
X29197000Y-59880690D01*
X29643000Y-59880690D01*
X29643000Y-61417000D01*
X30901487Y-61417000D01*
X31052088Y-61159462D01*
X30858764Y-60548632D01*
X30446401Y-60058280D01*
X29893635Y-59775105D01*
X29643000Y-59880690D01*
X29197000Y-59880690D01*
X28946365Y-59775105D01*
X28393599Y-60058280D01*
X28161745Y-60333983D01*
X28036120Y-60145971D01*
X27505687Y-59791548D01*
X26880000Y-59667091D01*
X26254313Y-59791548D01*
X25895808Y-60031093D01*
X25885647Y-60015302D01*
X27132744Y-58768205D01*
X36198434Y-58768205D01*
X36815000Y-59384771D01*
X36815000Y-59384771D01*
G37*
X36815000Y-59384771D02*
X36815000Y-59692560D01*
X36800000Y-59692560D01*
X36564683Y-59736838D01*
X36348559Y-59875910D01*
X36203569Y-60088110D01*
X36152560Y-60340000D01*
X36152560Y-62940000D01*
X36196838Y-63175317D01*
X36335910Y-63391441D01*
X36346901Y-63398951D01*
X30100441Y-63398951D01*
X30446401Y-63221720D01*
X30858764Y-62731368D01*
X31052088Y-62120538D01*
X30901487Y-61863000D01*
X29643000Y-61863000D01*
X29643000Y-61883000D01*
X29197000Y-61883000D01*
X29197000Y-61863000D01*
X29177000Y-61863000D01*
X29177000Y-61417000D01*
X29197000Y-61417000D01*
X29197000Y-59880690D01*
X29643000Y-59880690D01*
X29643000Y-61417000D01*
X30901487Y-61417000D01*
X31052088Y-61159462D01*
X30858764Y-60548632D01*
X30446401Y-60058280D01*
X29893635Y-59775105D01*
X29643000Y-59880690D01*
X29197000Y-59880690D01*
X28946365Y-59775105D01*
X28393599Y-60058280D01*
X28161745Y-60333983D01*
X28036120Y-60145971D01*
X27505687Y-59791548D01*
X26880000Y-59667091D01*
X26254313Y-59791548D01*
X25895808Y-60031093D01*
X25885647Y-60015302D01*
X27132744Y-58768205D01*
X36198434Y-58768205D01*
X36815000Y-59384771D01*
G36*
X53906077Y-53555824D02*
X54036215Y-53609862D01*
X53908200Y-53662757D01*
X53504176Y-54066077D01*
X53285250Y-54593309D01*
X53284752Y-55164187D01*
X53502757Y-55691800D01*
X53906077Y-56095824D01*
X54036215Y-56149862D01*
X53908200Y-56202757D01*
X53575377Y-56535000D01*
X52940119Y-56535000D01*
X52940114Y-56534999D01*
X52601440Y-56602366D01*
X52592709Y-56608200D01*
X52314324Y-56794210D01*
X52314322Y-56794213D01*
X47028438Y-62080096D01*
X46901487Y-61863000D01*
X45643000Y-61863000D01*
X45643000Y-61883000D01*
X45197000Y-61883000D01*
X45197000Y-61863000D01*
X45177000Y-61863000D01*
X45177000Y-61417000D01*
X45197000Y-61417000D01*
X45197000Y-59880690D01*
X45643000Y-59880690D01*
X45643000Y-61417000D01*
X46901487Y-61417000D01*
X47052088Y-61159462D01*
X46858764Y-60548632D01*
X46446401Y-60058280D01*
X45893635Y-59775105D01*
X45643000Y-59880690D01*
X45197000Y-59880690D01*
X44946365Y-59775105D01*
X44393599Y-60058280D01*
X44161745Y-60333983D01*
X44036120Y-60145971D01*
X43765000Y-59964815D01*
X43765000Y-59750136D01*
X50290135Y-53225000D01*
X53575829Y-53225000D01*
X53906077Y-53555824D01*
X53906077Y-53555824D01*
G37*
X53906077Y-53555824D02*
X54036215Y-53609862D01*
X53908200Y-53662757D01*
X53504176Y-54066077D01*
X53285250Y-54593309D01*
X53284752Y-55164187D01*
X53502757Y-55691800D01*
X53906077Y-56095824D01*
X54036215Y-56149862D01*
X53908200Y-56202757D01*
X53575377Y-56535000D01*
X52940119Y-56535000D01*
X52940114Y-56534999D01*
X52601440Y-56602366D01*
X52592709Y-56608200D01*
X52314324Y-56794210D01*
X52314322Y-56794213D01*
X47028438Y-62080096D01*
X46901487Y-61863000D01*
X45643000Y-61863000D01*
X45643000Y-61883000D01*
X45197000Y-61883000D01*
X45197000Y-61863000D01*
X45177000Y-61863000D01*
X45177000Y-61417000D01*
X45197000Y-61417000D01*
X45197000Y-59880690D01*
X45643000Y-59880690D01*
X45643000Y-61417000D01*
X46901487Y-61417000D01*
X47052088Y-61159462D01*
X46858764Y-60548632D01*
X46446401Y-60058280D01*
X45893635Y-59775105D01*
X45643000Y-59880690D01*
X45197000Y-59880690D01*
X44946365Y-59775105D01*
X44393599Y-60058280D01*
X44161745Y-60333983D01*
X44036120Y-60145971D01*
X43765000Y-59964815D01*
X43765000Y-59750136D01*
X50290135Y-53225000D01*
X53575829Y-53225000D01*
X53906077Y-53555824D01*
G36*
X53381673Y-28320302D02*
X53285000Y-28553691D01*
X53285000Y-29098250D01*
X53443750Y-29257000D01*
X54497000Y-29257000D01*
X54497000Y-29237000D01*
X54943000Y-29237000D01*
X54943000Y-29257000D01*
X55996250Y-29257000D01*
X56155000Y-29098250D01*
X56155000Y-28553691D01*
X56058327Y-28320302D01*
X55919617Y-28181591D01*
X58069587Y-28181591D01*
X65073784Y-35185787D01*
X65073786Y-35185790D01*
X65265630Y-35313975D01*
X65360902Y-35377634D01*
X65699576Y-35445001D01*
X65699581Y-35445000D01*
X68815829Y-35445000D01*
X69146077Y-35775824D01*
X69276215Y-35829862D01*
X69148200Y-35882757D01*
X68744176Y-36286077D01*
X68690138Y-36416215D01*
X68637243Y-36288200D01*
X68233923Y-35884176D01*
X67706691Y-35665250D01*
X67135813Y-35664752D01*
X66608200Y-35882757D01*
X66204176Y-36286077D01*
X65985250Y-36813309D01*
X65984752Y-37384187D01*
X66202757Y-37911800D01*
X66606077Y-38315824D01*
X66736215Y-38369862D01*
X66608200Y-38422757D01*
X66204176Y-38826077D01*
X65985250Y-39353309D01*
X65984752Y-39924187D01*
X66202757Y-40451800D01*
X66606077Y-40855824D01*
X66736215Y-40909862D01*
X66608200Y-40962757D01*
X66204176Y-41366077D01*
X65985250Y-41893309D01*
X65984752Y-42464187D01*
X66202757Y-42991800D01*
X66606077Y-43395824D01*
X67133309Y-43614750D01*
X67704187Y-43615248D01*
X68231800Y-43397243D01*
X68635824Y-42993923D01*
X68689862Y-42863785D01*
X68742757Y-42991800D01*
X69146077Y-43395824D01*
X69276215Y-43449862D01*
X69148200Y-43502757D01*
X68744176Y-43906077D01*
X68525250Y-44433309D01*
X68524752Y-45004187D01*
X68742757Y-45531800D01*
X69146077Y-45935824D01*
X69276215Y-45989862D01*
X69148200Y-46042757D01*
X68744176Y-46446077D01*
X68525250Y-46973309D01*
X68524752Y-47544187D01*
X68742757Y-48071800D01*
X69146077Y-48475824D01*
X69276215Y-48529862D01*
X69148200Y-48582757D01*
X68744176Y-48986077D01*
X68525250Y-49513309D01*
X68524752Y-50084187D01*
X68742757Y-50611800D01*
X69146077Y-51015824D01*
X69276215Y-51069862D01*
X69148200Y-51122757D01*
X68744176Y-51526077D01*
X68525250Y-52053309D01*
X68524752Y-52624187D01*
X68742757Y-53151800D01*
X69146077Y-53555824D01*
X69276215Y-53609862D01*
X69148200Y-53662757D01*
X68744176Y-54066077D01*
X68525250Y-54593309D01*
X68524752Y-55164187D01*
X68742757Y-55691800D01*
X69146077Y-56095824D01*
X69276215Y-56149862D01*
X69148200Y-56202757D01*
X68744176Y-56606077D01*
X68525250Y-57133309D01*
X68524752Y-57704187D01*
X68742757Y-58231800D01*
X69146077Y-58635824D01*
X69276215Y-58689862D01*
X69148200Y-58742757D01*
X68744176Y-59146077D01*
X68525250Y-59673309D01*
X68524752Y-60244187D01*
X68742757Y-60771800D01*
X69146077Y-61175824D01*
X69276215Y-61229862D01*
X69148200Y-61282757D01*
X68744176Y-61686077D01*
X68690138Y-61816215D01*
X68637243Y-61688200D01*
X68233923Y-61284176D01*
X67706691Y-61065250D01*
X67135813Y-61064752D01*
X66608200Y-61282757D01*
X66204176Y-61686077D01*
X66150138Y-61816215D01*
X66097243Y-61688200D01*
X65693923Y-61284176D01*
X65563785Y-61230138D01*
X65691800Y-61177243D01*
X66095824Y-60773923D01*
X66314750Y-60246691D01*
X66315248Y-59675813D01*
X66097243Y-59148200D01*
X65693923Y-58744176D01*
X65563785Y-58690138D01*
X65691800Y-58637243D01*
X66095824Y-58233923D01*
X66314750Y-57706691D01*
X66315248Y-57135813D01*
X66097243Y-56608200D01*
X65693923Y-56204176D01*
X65563785Y-56150138D01*
X65691800Y-56097243D01*
X66095824Y-55693923D01*
X66314750Y-55166691D01*
X66315248Y-54595813D01*
X66097243Y-54068200D01*
X65693923Y-53664176D01*
X65563785Y-53610138D01*
X65691800Y-53557243D01*
X66095824Y-53153923D01*
X66314750Y-52626691D01*
X66315248Y-52055813D01*
X66097243Y-51528200D01*
X65693923Y-51124176D01*
X65563785Y-51070138D01*
X65691800Y-51017243D01*
X66095824Y-50613923D01*
X66314750Y-50086691D01*
X66315248Y-49515813D01*
X66097243Y-48988200D01*
X65693923Y-48584176D01*
X65563785Y-48530138D01*
X65691800Y-48477243D01*
X66095824Y-48073923D01*
X66314750Y-47546691D01*
X66315248Y-46975813D01*
X66097243Y-46448200D01*
X65693923Y-46044176D01*
X65563785Y-45990138D01*
X65691800Y-45937243D01*
X66095824Y-45533923D01*
X66314750Y-45006691D01*
X66315248Y-44435813D01*
X66097243Y-43908200D01*
X65693923Y-43504176D01*
X65166691Y-43285250D01*
X64595813Y-43284752D01*
X64068200Y-43502757D01*
X63664176Y-43906077D01*
X63610138Y-44036215D01*
X63557243Y-43908200D01*
X63153923Y-43504176D01*
X62626691Y-43285250D01*
X62055813Y-43284752D01*
X61528200Y-43502757D01*
X61124176Y-43906077D01*
X60905250Y-44433309D01*
X60904752Y-45004187D01*
X61122757Y-45531800D01*
X61526077Y-45935824D01*
X61656215Y-45989862D01*
X61528200Y-46042757D01*
X61124176Y-46446077D01*
X60905250Y-46973309D01*
X60904752Y-47544187D01*
X61122757Y-48071800D01*
X61526077Y-48475824D01*
X61656215Y-48529862D01*
X61528200Y-48582757D01*
X61124176Y-48986077D01*
X60905250Y-49513309D01*
X60904752Y-50084187D01*
X61122757Y-50611800D01*
X61526077Y-51015824D01*
X61656215Y-51069862D01*
X61528200Y-51122757D01*
X61124176Y-51526077D01*
X60905250Y-52053309D01*
X60904752Y-52624187D01*
X61122757Y-53151800D01*
X61526077Y-53555824D01*
X61656215Y-53609862D01*
X61528200Y-53662757D01*
X61124176Y-54066077D01*
X60905250Y-54593309D01*
X60904752Y-55164187D01*
X61122757Y-55691800D01*
X61526077Y-56095824D01*
X61656215Y-56149862D01*
X61528200Y-56202757D01*
X61124176Y-56606077D01*
X60905250Y-57133309D01*
X60904752Y-57704187D01*
X61122757Y-58231800D01*
X61526077Y-58635824D01*
X61656215Y-58689862D01*
X61528200Y-58742757D01*
X61124176Y-59146077D01*
X60905250Y-59673309D01*
X60904752Y-60244187D01*
X61122757Y-60771800D01*
X61526077Y-61175824D01*
X61656215Y-61229862D01*
X61528200Y-61282757D01*
X61124176Y-61686077D01*
X61070138Y-61816215D01*
X61017243Y-61688200D01*
X60613923Y-61284176D01*
X60086691Y-61065250D01*
X59515813Y-61064752D01*
X58988200Y-61282757D01*
X58584176Y-61686077D01*
X58530138Y-61816215D01*
X58477243Y-61688200D01*
X58073923Y-61284176D01*
X57546691Y-61065250D01*
X56975813Y-61064752D01*
X56448200Y-61282757D01*
X56044176Y-61686077D01*
X55990138Y-61816215D01*
X55937243Y-61688200D01*
X55533923Y-61284176D01*
X55403785Y-61230138D01*
X55531800Y-61177243D01*
X55935824Y-60773923D01*
X56154750Y-60246691D01*
X56155248Y-59675813D01*
X55937243Y-59148200D01*
X55533923Y-58744176D01*
X55403785Y-58690138D01*
X55531800Y-58637243D01*
X55935824Y-58233923D01*
X56154750Y-57706691D01*
X56155248Y-57135813D01*
X55937243Y-56608200D01*
X55533923Y-56204176D01*
X55403785Y-56150138D01*
X55531800Y-56097243D01*
X55935824Y-55693923D01*
X56154750Y-55166691D01*
X56155248Y-54595813D01*
X55937243Y-54068200D01*
X55533923Y-53664176D01*
X55403785Y-53610138D01*
X55531800Y-53557243D01*
X55935824Y-53153923D01*
X56154750Y-52626691D01*
X56155248Y-52055813D01*
X55937243Y-51528200D01*
X55533923Y-51124176D01*
X55403785Y-51070138D01*
X55531800Y-51017243D01*
X55935824Y-50613923D01*
X56154750Y-50086691D01*
X56155248Y-49515813D01*
X55937243Y-48988200D01*
X55533923Y-48584176D01*
X55403785Y-48530138D01*
X55531800Y-48477243D01*
X55935824Y-48073923D01*
X56154750Y-47546691D01*
X56155248Y-46975813D01*
X55937243Y-46448200D01*
X55533923Y-46044176D01*
X55403785Y-45990138D01*
X55531800Y-45937243D01*
X55935824Y-45533923D01*
X56154750Y-45006691D01*
X56155248Y-44435813D01*
X55937243Y-43908200D01*
X55533923Y-43504176D01*
X55403785Y-43450138D01*
X55531800Y-43397243D01*
X55935824Y-42993923D01*
X56154750Y-42466691D01*
X56155248Y-41895813D01*
X55937243Y-41368200D01*
X55533923Y-40964176D01*
X55403785Y-40910138D01*
X55531800Y-40857243D01*
X55935824Y-40453923D01*
X56154750Y-39926691D01*
X56155248Y-39355813D01*
X55937243Y-38828200D01*
X55533923Y-38424176D01*
X55403785Y-38370138D01*
X55531800Y-38317243D01*
X55935824Y-37913923D01*
X56154750Y-37386691D01*
X56155248Y-36815813D01*
X55937243Y-36288200D01*
X55793188Y-36143893D01*
X60754725Y-36143893D01*
X60995519Y-36726657D01*
X61440997Y-37172914D01*
X62023341Y-37414724D01*
X62653893Y-37415275D01*
X63236657Y-37174481D01*
X63682914Y-36729003D01*
X63924724Y-36146659D01*
X63925275Y-35516107D01*
X63684481Y-34933343D01*
X63239003Y-34487086D01*
X62656659Y-34245276D01*
X62026107Y-34244725D01*
X61443343Y-34485519D01*
X60997086Y-34930997D01*
X60755276Y-35513341D01*
X60754725Y-36143893D01*
X55793188Y-36143893D01*
X55533923Y-35884176D01*
X55403785Y-35830138D01*
X55531800Y-35777243D01*
X55935824Y-35373923D01*
X56154750Y-34846691D01*
X56155248Y-34275813D01*
X55937243Y-33748200D01*
X55533923Y-33344176D01*
X55403785Y-33290138D01*
X55531800Y-33237243D01*
X55935824Y-32833923D01*
X56154750Y-32306691D01*
X56155248Y-31735813D01*
X55937243Y-31208200D01*
X55644554Y-30915000D01*
X55646310Y-30915000D01*
X55879699Y-30818327D01*
X56058327Y-30639698D01*
X56155000Y-30406309D01*
X56155000Y-29861750D01*
X55996250Y-29703000D01*
X54943000Y-29703000D01*
X54943000Y-29723000D01*
X54497000Y-29723000D01*
X54497000Y-29703000D01*
X53443750Y-29703000D01*
X53285000Y-29861750D01*
X53285000Y-30406309D01*
X53381673Y-30639698D01*
X53560301Y-30818327D01*
X53793690Y-30915000D01*
X53795761Y-30915000D01*
X53504176Y-31206077D01*
X53285250Y-31733309D01*
X53284752Y-32304187D01*
X53502757Y-32831800D01*
X53906077Y-33235824D01*
X54036215Y-33289862D01*
X53908200Y-33342757D01*
X53504176Y-33746077D01*
X53285250Y-34273309D01*
X53284752Y-34844187D01*
X53502757Y-35371800D01*
X53906077Y-35775824D01*
X54036215Y-35829862D01*
X53908200Y-35882757D01*
X53504176Y-36286077D01*
X53285250Y-36813309D01*
X53284752Y-37384187D01*
X53502757Y-37911800D01*
X53906077Y-38315824D01*
X54036215Y-38369862D01*
X53908200Y-38422757D01*
X53575377Y-38755000D01*
X52828728Y-38755000D01*
X52828723Y-38754999D01*
X52490048Y-38822367D01*
X52202933Y-39014210D01*
X52202931Y-39014213D01*
X52081294Y-39135850D01*
X52237633Y-38901871D01*
X52252287Y-38828200D01*
X52305001Y-38563196D01*
X52305000Y-38563191D01*
X52305000Y-28561382D01*
X52684790Y-28181591D01*
X53520383Y-28181591D01*
X53381673Y-28320302D01*
X53381673Y-28320302D01*
G37*
X53381673Y-28320302D02*
X53285000Y-28553691D01*
X53285000Y-29098250D01*
X53443750Y-29257000D01*
X54497000Y-29257000D01*
X54497000Y-29237000D01*
X54943000Y-29237000D01*
X54943000Y-29257000D01*
X55996250Y-29257000D01*
X56155000Y-29098250D01*
X56155000Y-28553691D01*
X56058327Y-28320302D01*
X55919617Y-28181591D01*
X58069587Y-28181591D01*
X65073784Y-35185787D01*
X65073786Y-35185790D01*
X65265630Y-35313975D01*
X65360902Y-35377634D01*
X65699576Y-35445001D01*
X65699581Y-35445000D01*
X68815829Y-35445000D01*
X69146077Y-35775824D01*
X69276215Y-35829862D01*
X69148200Y-35882757D01*
X68744176Y-36286077D01*
X68690138Y-36416215D01*
X68637243Y-36288200D01*
X68233923Y-35884176D01*
X67706691Y-35665250D01*
X67135813Y-35664752D01*
X66608200Y-35882757D01*
X66204176Y-36286077D01*
X65985250Y-36813309D01*
X65984752Y-37384187D01*
X66202757Y-37911800D01*
X66606077Y-38315824D01*
X66736215Y-38369862D01*
X66608200Y-38422757D01*
X66204176Y-38826077D01*
X65985250Y-39353309D01*
X65984752Y-39924187D01*
X66202757Y-40451800D01*
X66606077Y-40855824D01*
X66736215Y-40909862D01*
X66608200Y-40962757D01*
X66204176Y-41366077D01*
X65985250Y-41893309D01*
X65984752Y-42464187D01*
X66202757Y-42991800D01*
X66606077Y-43395824D01*
X67133309Y-43614750D01*
X67704187Y-43615248D01*
X68231800Y-43397243D01*
X68635824Y-42993923D01*
X68689862Y-42863785D01*
X68742757Y-42991800D01*
X69146077Y-43395824D01*
X69276215Y-43449862D01*
X69148200Y-43502757D01*
X68744176Y-43906077D01*
X68525250Y-44433309D01*
X68524752Y-45004187D01*
X68742757Y-45531800D01*
X69146077Y-45935824D01*
X69276215Y-45989862D01*
X69148200Y-46042757D01*
X68744176Y-46446077D01*
X68525250Y-46973309D01*
X68524752Y-47544187D01*
X68742757Y-48071800D01*
X69146077Y-48475824D01*
X69276215Y-48529862D01*
X69148200Y-48582757D01*
X68744176Y-48986077D01*
X68525250Y-49513309D01*
X68524752Y-50084187D01*
X68742757Y-50611800D01*
X69146077Y-51015824D01*
X69276215Y-51069862D01*
X69148200Y-51122757D01*
X68744176Y-51526077D01*
X68525250Y-52053309D01*
X68524752Y-52624187D01*
X68742757Y-53151800D01*
X69146077Y-53555824D01*
X69276215Y-53609862D01*
X69148200Y-53662757D01*
X68744176Y-54066077D01*
X68525250Y-54593309D01*
X68524752Y-55164187D01*
X68742757Y-55691800D01*
X69146077Y-56095824D01*
X69276215Y-56149862D01*
X69148200Y-56202757D01*
X68744176Y-56606077D01*
X68525250Y-57133309D01*
X68524752Y-57704187D01*
X68742757Y-58231800D01*
X69146077Y-58635824D01*
X69276215Y-58689862D01*
X69148200Y-58742757D01*
X68744176Y-59146077D01*
X68525250Y-59673309D01*
X68524752Y-60244187D01*
X68742757Y-60771800D01*
X69146077Y-61175824D01*
X69276215Y-61229862D01*
X69148200Y-61282757D01*
X68744176Y-61686077D01*
X68690138Y-61816215D01*
X68637243Y-61688200D01*
X68233923Y-61284176D01*
X67706691Y-61065250D01*
X67135813Y-61064752D01*
X66608200Y-61282757D01*
X66204176Y-61686077D01*
X66150138Y-61816215D01*
X66097243Y-61688200D01*
X65693923Y-61284176D01*
X65563785Y-61230138D01*
X65691800Y-61177243D01*
X66095824Y-60773923D01*
X66314750Y-60246691D01*
X66315248Y-59675813D01*
X66097243Y-59148200D01*
X65693923Y-58744176D01*
X65563785Y-58690138D01*
X65691800Y-58637243D01*
X66095824Y-58233923D01*
X66314750Y-57706691D01*
X66315248Y-57135813D01*
X66097243Y-56608200D01*
X65693923Y-56204176D01*
X65563785Y-56150138D01*
X65691800Y-56097243D01*
X66095824Y-55693923D01*
X66314750Y-55166691D01*
X66315248Y-54595813D01*
X66097243Y-54068200D01*
X65693923Y-53664176D01*
X65563785Y-53610138D01*
X65691800Y-53557243D01*
X66095824Y-53153923D01*
X66314750Y-52626691D01*
X66315248Y-52055813D01*
X66097243Y-51528200D01*
X65693923Y-51124176D01*
X65563785Y-51070138D01*
X65691800Y-51017243D01*
X66095824Y-50613923D01*
X66314750Y-50086691D01*
X66315248Y-49515813D01*
X66097243Y-48988200D01*
X65693923Y-48584176D01*
X65563785Y-48530138D01*
X65691800Y-48477243D01*
X66095824Y-48073923D01*
X66314750Y-47546691D01*
X66315248Y-46975813D01*
X66097243Y-46448200D01*
X65693923Y-46044176D01*
X65563785Y-45990138D01*
X65691800Y-45937243D01*
X66095824Y-45533923D01*
X66314750Y-45006691D01*
X66315248Y-44435813D01*
X66097243Y-43908200D01*
X65693923Y-43504176D01*
X65166691Y-43285250D01*
X64595813Y-43284752D01*
X64068200Y-43502757D01*
X63664176Y-43906077D01*
X63610138Y-44036215D01*
X63557243Y-43908200D01*
X63153923Y-43504176D01*
X62626691Y-43285250D01*
X62055813Y-43284752D01*
X61528200Y-43502757D01*
X61124176Y-43906077D01*
X60905250Y-44433309D01*
X60904752Y-45004187D01*
X61122757Y-45531800D01*
X61526077Y-45935824D01*
X61656215Y-45989862D01*
X61528200Y-46042757D01*
X61124176Y-46446077D01*
X60905250Y-46973309D01*
X60904752Y-47544187D01*
X61122757Y-48071800D01*
X61526077Y-48475824D01*
X61656215Y-48529862D01*
X61528200Y-48582757D01*
X61124176Y-48986077D01*
X60905250Y-49513309D01*
X60904752Y-50084187D01*
X61122757Y-50611800D01*
X61526077Y-51015824D01*
X61656215Y-51069862D01*
X61528200Y-51122757D01*
X61124176Y-51526077D01*
X60905250Y-52053309D01*
X60904752Y-52624187D01*
X61122757Y-53151800D01*
X61526077Y-53555824D01*
X61656215Y-53609862D01*
X61528200Y-53662757D01*
X61124176Y-54066077D01*
X60905250Y-54593309D01*
X60904752Y-55164187D01*
X61122757Y-55691800D01*
X61526077Y-56095824D01*
X61656215Y-56149862D01*
X61528200Y-56202757D01*
X61124176Y-56606077D01*
X60905250Y-57133309D01*
X60904752Y-57704187D01*
X61122757Y-58231800D01*
X61526077Y-58635824D01*
X61656215Y-58689862D01*
X61528200Y-58742757D01*
X61124176Y-59146077D01*
X60905250Y-59673309D01*
X60904752Y-60244187D01*
X61122757Y-60771800D01*
X61526077Y-61175824D01*
X61656215Y-61229862D01*
X61528200Y-61282757D01*
X61124176Y-61686077D01*
X61070138Y-61816215D01*
X61017243Y-61688200D01*
X60613923Y-61284176D01*
X60086691Y-61065250D01*
X59515813Y-61064752D01*
X58988200Y-61282757D01*
X58584176Y-61686077D01*
X58530138Y-61816215D01*
X58477243Y-61688200D01*
X58073923Y-61284176D01*
X57546691Y-61065250D01*
X56975813Y-61064752D01*
X56448200Y-61282757D01*
X56044176Y-61686077D01*
X55990138Y-61816215D01*
X55937243Y-61688200D01*
X55533923Y-61284176D01*
X55403785Y-61230138D01*
X55531800Y-61177243D01*
X55935824Y-60773923D01*
X56154750Y-60246691D01*
X56155248Y-59675813D01*
X55937243Y-59148200D01*
X55533923Y-58744176D01*
X55403785Y-58690138D01*
X55531800Y-58637243D01*
X55935824Y-58233923D01*
X56154750Y-57706691D01*
X56155248Y-57135813D01*
X55937243Y-56608200D01*
X55533923Y-56204176D01*
X55403785Y-56150138D01*
X55531800Y-56097243D01*
X55935824Y-55693923D01*
X56154750Y-55166691D01*
X56155248Y-54595813D01*
X55937243Y-54068200D01*
X55533923Y-53664176D01*
X55403785Y-53610138D01*
X55531800Y-53557243D01*
X55935824Y-53153923D01*
X56154750Y-52626691D01*
X56155248Y-52055813D01*
X55937243Y-51528200D01*
X55533923Y-51124176D01*
X55403785Y-51070138D01*
X55531800Y-51017243D01*
X55935824Y-50613923D01*
X56154750Y-50086691D01*
X56155248Y-49515813D01*
X55937243Y-48988200D01*
X55533923Y-48584176D01*
X55403785Y-48530138D01*
X55531800Y-48477243D01*
X55935824Y-48073923D01*
X56154750Y-47546691D01*
X56155248Y-46975813D01*
X55937243Y-46448200D01*
X55533923Y-46044176D01*
X55403785Y-45990138D01*
X55531800Y-45937243D01*
X55935824Y-45533923D01*
X56154750Y-45006691D01*
X56155248Y-44435813D01*
X55937243Y-43908200D01*
X55533923Y-43504176D01*
X55403785Y-43450138D01*
X55531800Y-43397243D01*
X55935824Y-42993923D01*
X56154750Y-42466691D01*
X56155248Y-41895813D01*
X55937243Y-41368200D01*
X55533923Y-40964176D01*
X55403785Y-40910138D01*
X55531800Y-40857243D01*
X55935824Y-40453923D01*
X56154750Y-39926691D01*
X56155248Y-39355813D01*
X55937243Y-38828200D01*
X55533923Y-38424176D01*
X55403785Y-38370138D01*
X55531800Y-38317243D01*
X55935824Y-37913923D01*
X56154750Y-37386691D01*
X56155248Y-36815813D01*
X55937243Y-36288200D01*
X55793188Y-36143893D01*
X60754725Y-36143893D01*
X60995519Y-36726657D01*
X61440997Y-37172914D01*
X62023341Y-37414724D01*
X62653893Y-37415275D01*
X63236657Y-37174481D01*
X63682914Y-36729003D01*
X63924724Y-36146659D01*
X63925275Y-35516107D01*
X63684481Y-34933343D01*
X63239003Y-34487086D01*
X62656659Y-34245276D01*
X62026107Y-34244725D01*
X61443343Y-34485519D01*
X60997086Y-34930997D01*
X60755276Y-35513341D01*
X60754725Y-36143893D01*
X55793188Y-36143893D01*
X55533923Y-35884176D01*
X55403785Y-35830138D01*
X55531800Y-35777243D01*
X55935824Y-35373923D01*
X56154750Y-34846691D01*
X56155248Y-34275813D01*
X55937243Y-33748200D01*
X55533923Y-33344176D01*
X55403785Y-33290138D01*
X55531800Y-33237243D01*
X55935824Y-32833923D01*
X56154750Y-32306691D01*
X56155248Y-31735813D01*
X55937243Y-31208200D01*
X55644554Y-30915000D01*
X55646310Y-30915000D01*
X55879699Y-30818327D01*
X56058327Y-30639698D01*
X56155000Y-30406309D01*
X56155000Y-29861750D01*
X55996250Y-29703000D01*
X54943000Y-29703000D01*
X54943000Y-29723000D01*
X54497000Y-29723000D01*
X54497000Y-29703000D01*
X53443750Y-29703000D01*
X53285000Y-29861750D01*
X53285000Y-30406309D01*
X53381673Y-30639698D01*
X53560301Y-30818327D01*
X53793690Y-30915000D01*
X53795761Y-30915000D01*
X53504176Y-31206077D01*
X53285250Y-31733309D01*
X53284752Y-32304187D01*
X53502757Y-32831800D01*
X53906077Y-33235824D01*
X54036215Y-33289862D01*
X53908200Y-33342757D01*
X53504176Y-33746077D01*
X53285250Y-34273309D01*
X53284752Y-34844187D01*
X53502757Y-35371800D01*
X53906077Y-35775824D01*
X54036215Y-35829862D01*
X53908200Y-35882757D01*
X53504176Y-36286077D01*
X53285250Y-36813309D01*
X53284752Y-37384187D01*
X53502757Y-37911800D01*
X53906077Y-38315824D01*
X54036215Y-38369862D01*
X53908200Y-38422757D01*
X53575377Y-38755000D01*
X52828728Y-38755000D01*
X52828723Y-38754999D01*
X52490048Y-38822367D01*
X52202933Y-39014210D01*
X52202931Y-39014213D01*
X52081294Y-39135850D01*
X52237633Y-38901871D01*
X52252287Y-38828200D01*
X52305001Y-38563196D01*
X52305000Y-38563191D01*
X52305000Y-28561382D01*
X52684790Y-28181591D01*
X53520383Y-28181591D01*
X53381673Y-28320302D01*
G36*
X53906077Y-43395824D02*
X54036215Y-43449862D01*
X53908200Y-43502757D01*
X53504176Y-43906077D01*
X53285250Y-44433309D01*
X53284752Y-45004187D01*
X53502757Y-45531800D01*
X53906077Y-45935824D01*
X54036215Y-45989862D01*
X53908200Y-46042757D01*
X53504176Y-46446077D01*
X53285250Y-46973309D01*
X53284752Y-47544187D01*
X53502757Y-48071800D01*
X53906077Y-48475824D01*
X54036215Y-48529862D01*
X53908200Y-48582757D01*
X53575377Y-48915000D01*
X50173050Y-48915000D01*
X50173045Y-48914999D01*
X49834371Y-48982366D01*
X49825640Y-48988200D01*
X49547255Y-49174210D01*
X49547253Y-49174213D01*
X39714210Y-59007255D01*
X39522367Y-59294370D01*
X39522367Y-59294371D01*
X39454999Y-59633045D01*
X39455000Y-59633050D01*
X39455000Y-59964815D01*
X39355808Y-60031093D01*
X39264090Y-59888559D01*
X39051890Y-59743569D01*
X38800000Y-59692560D01*
X38785000Y-59692560D01*
X38785000Y-58976771D01*
X38710021Y-58599828D01*
X38496500Y-58280271D01*
X37302934Y-57086705D01*
X36983377Y-56873184D01*
X36606434Y-56798205D01*
X26724744Y-56798205D01*
X26347801Y-56873184D01*
X26028244Y-57086705D01*
X25325000Y-57789949D01*
X25325000Y-52925370D01*
X34860719Y-43389651D01*
X34898630Y-43427629D01*
X35411900Y-43640757D01*
X35967661Y-43641242D01*
X36481303Y-43429010D01*
X36681662Y-43229000D01*
X37806000Y-43229000D01*
X38303500Y-43726500D01*
X38623057Y-43940021D01*
X39000000Y-44015000D01*
X40122560Y-44015000D01*
X40122560Y-44030000D01*
X40166838Y-44265317D01*
X40305910Y-44481441D01*
X40518110Y-44626431D01*
X40770000Y-44677440D01*
X42770000Y-44677440D01*
X43005317Y-44633162D01*
X43221441Y-44494090D01*
X43366431Y-44281890D01*
X43417440Y-44030000D01*
X43417440Y-44015000D01*
X44540000Y-44015000D01*
X44760471Y-43971145D01*
X43752450Y-44979166D01*
X38278045Y-44979166D01*
X38278040Y-44979165D01*
X37939365Y-45046533D01*
X37652250Y-45238376D01*
X37652248Y-45238379D01*
X35778926Y-47111700D01*
X35587083Y-47398815D01*
X35587083Y-47398816D01*
X35519715Y-47737490D01*
X35519716Y-47737495D01*
X35519716Y-54334999D01*
X35519715Y-54335004D01*
X35535688Y-54415302D01*
X35587083Y-54673679D01*
X35725509Y-54880849D01*
X35778926Y-54960794D01*
X36893920Y-56075787D01*
X36893922Y-56075790D01*
X37181037Y-56267633D01*
X37519712Y-56335000D01*
X38329522Y-56335000D01*
X38627630Y-56633629D01*
X39140900Y-56846757D01*
X39696661Y-56847242D01*
X40210303Y-56635010D01*
X40603629Y-56242370D01*
X40816757Y-55729100D01*
X40817242Y-55173339D01*
X40605010Y-54659697D01*
X40212370Y-54266371D01*
X40034429Y-54192483D01*
X40066488Y-54179204D01*
X40143242Y-53948611D01*
X39420000Y-53225370D01*
X38696758Y-53948611D01*
X38773512Y-54179204D01*
X38811440Y-54189896D01*
X38629697Y-54264990D01*
X38329163Y-54565000D01*
X37886291Y-54565000D01*
X37289716Y-53968424D01*
X37289716Y-52798427D01*
X38000008Y-52798427D01*
X38065402Y-53350327D01*
X38150796Y-53556488D01*
X38381389Y-53633242D01*
X39104630Y-52910000D01*
X39735370Y-52910000D01*
X40458611Y-53633242D01*
X40689204Y-53556488D01*
X40839992Y-53021573D01*
X40774598Y-52469673D01*
X40689204Y-52263512D01*
X40458611Y-52186758D01*
X39735370Y-52910000D01*
X39104630Y-52910000D01*
X38381389Y-52186758D01*
X38150796Y-52263512D01*
X38000008Y-52798427D01*
X37289716Y-52798427D01*
X37289716Y-48104070D01*
X38151313Y-47242472D01*
X38023243Y-47550900D01*
X38022758Y-48106661D01*
X38234990Y-48620303D01*
X38627630Y-49013629D01*
X38835512Y-49099949D01*
X38629697Y-49184990D01*
X38236371Y-49577630D01*
X38023243Y-50090900D01*
X38022758Y-50646661D01*
X38234990Y-51160303D01*
X38627630Y-51553629D01*
X38805571Y-51627517D01*
X38773512Y-51640796D01*
X38696758Y-51871389D01*
X39420000Y-52594630D01*
X40143242Y-51871389D01*
X40066488Y-51640796D01*
X40028560Y-51630104D01*
X40210303Y-51555010D01*
X40510837Y-51255000D01*
X44697225Y-51255000D01*
X44697230Y-51255001D01*
X44979714Y-51198810D01*
X45035905Y-51187633D01*
X45323020Y-50995790D01*
X53253809Y-43065000D01*
X53575829Y-43065000D01*
X53906077Y-43395824D01*
X53906077Y-43395824D01*
G37*
X53906077Y-43395824D02*
X54036215Y-43449862D01*
X53908200Y-43502757D01*
X53504176Y-43906077D01*
X53285250Y-44433309D01*
X53284752Y-45004187D01*
X53502757Y-45531800D01*
X53906077Y-45935824D01*
X54036215Y-45989862D01*
X53908200Y-46042757D01*
X53504176Y-46446077D01*
X53285250Y-46973309D01*
X53284752Y-47544187D01*
X53502757Y-48071800D01*
X53906077Y-48475824D01*
X54036215Y-48529862D01*
X53908200Y-48582757D01*
X53575377Y-48915000D01*
X50173050Y-48915000D01*
X50173045Y-48914999D01*
X49834371Y-48982366D01*
X49825640Y-48988200D01*
X49547255Y-49174210D01*
X49547253Y-49174213D01*
X39714210Y-59007255D01*
X39522367Y-59294370D01*
X39522367Y-59294371D01*
X39454999Y-59633045D01*
X39455000Y-59633050D01*
X39455000Y-59964815D01*
X39355808Y-60031093D01*
X39264090Y-59888559D01*
X39051890Y-59743569D01*
X38800000Y-59692560D01*
X38785000Y-59692560D01*
X38785000Y-58976771D01*
X38710021Y-58599828D01*
X38496500Y-58280271D01*
X37302934Y-57086705D01*
X36983377Y-56873184D01*
X36606434Y-56798205D01*
X26724744Y-56798205D01*
X26347801Y-56873184D01*
X26028244Y-57086705D01*
X25325000Y-57789949D01*
X25325000Y-52925370D01*
X34860719Y-43389651D01*
X34898630Y-43427629D01*
X35411900Y-43640757D01*
X35967661Y-43641242D01*
X36481303Y-43429010D01*
X36681662Y-43229000D01*
X37806000Y-43229000D01*
X38303500Y-43726500D01*
X38623057Y-43940021D01*
X39000000Y-44015000D01*
X40122560Y-44015000D01*
X40122560Y-44030000D01*
X40166838Y-44265317D01*
X40305910Y-44481441D01*
X40518110Y-44626431D01*
X40770000Y-44677440D01*
X42770000Y-44677440D01*
X43005317Y-44633162D01*
X43221441Y-44494090D01*
X43366431Y-44281890D01*
X43417440Y-44030000D01*
X43417440Y-44015000D01*
X44540000Y-44015000D01*
X44760471Y-43971145D01*
X43752450Y-44979166D01*
X38278045Y-44979166D01*
X38278040Y-44979165D01*
X37939365Y-45046533D01*
X37652250Y-45238376D01*
X37652248Y-45238379D01*
X35778926Y-47111700D01*
X35587083Y-47398815D01*
X35587083Y-47398816D01*
X35519715Y-47737490D01*
X35519716Y-47737495D01*
X35519716Y-54334999D01*
X35519715Y-54335004D01*
X35535688Y-54415302D01*
X35587083Y-54673679D01*
X35725509Y-54880849D01*
X35778926Y-54960794D01*
X36893920Y-56075787D01*
X36893922Y-56075790D01*
X37181037Y-56267633D01*
X37519712Y-56335000D01*
X38329522Y-56335000D01*
X38627630Y-56633629D01*
X39140900Y-56846757D01*
X39696661Y-56847242D01*
X40210303Y-56635010D01*
X40603629Y-56242370D01*
X40816757Y-55729100D01*
X40817242Y-55173339D01*
X40605010Y-54659697D01*
X40212370Y-54266371D01*
X40034429Y-54192483D01*
X40066488Y-54179204D01*
X40143242Y-53948611D01*
X39420000Y-53225370D01*
X38696758Y-53948611D01*
X38773512Y-54179204D01*
X38811440Y-54189896D01*
X38629697Y-54264990D01*
X38329163Y-54565000D01*
X37886291Y-54565000D01*
X37289716Y-53968424D01*
X37289716Y-52798427D01*
X38000008Y-52798427D01*
X38065402Y-53350327D01*
X38150796Y-53556488D01*
X38381389Y-53633242D01*
X39104630Y-52910000D01*
X39735370Y-52910000D01*
X40458611Y-53633242D01*
X40689204Y-53556488D01*
X40839992Y-53021573D01*
X40774598Y-52469673D01*
X40689204Y-52263512D01*
X40458611Y-52186758D01*
X39735370Y-52910000D01*
X39104630Y-52910000D01*
X38381389Y-52186758D01*
X38150796Y-52263512D01*
X38000008Y-52798427D01*
X37289716Y-52798427D01*
X37289716Y-48104070D01*
X38151313Y-47242472D01*
X38023243Y-47550900D01*
X38022758Y-48106661D01*
X38234990Y-48620303D01*
X38627630Y-49013629D01*
X38835512Y-49099949D01*
X38629697Y-49184990D01*
X38236371Y-49577630D01*
X38023243Y-50090900D01*
X38022758Y-50646661D01*
X38234990Y-51160303D01*
X38627630Y-51553629D01*
X38805571Y-51627517D01*
X38773512Y-51640796D01*
X38696758Y-51871389D01*
X39420000Y-52594630D01*
X40143242Y-51871389D01*
X40066488Y-51640796D01*
X40028560Y-51630104D01*
X40210303Y-51555010D01*
X40510837Y-51255000D01*
X44697225Y-51255000D01*
X44697230Y-51255001D01*
X44979714Y-51198810D01*
X45035905Y-51187633D01*
X45323020Y-50995790D01*
X53253809Y-43065000D01*
X53575829Y-43065000D01*
X53906077Y-43395824D01*
M02*
