G04 #@! TF.FileFunction,Legend,Bot*
%FSLAX46Y46*%
G04 Gerber Fmt 4.6, Leading zero omitted, Abs format (unit mm)*
G04 Created by KiCad (PCBNEW 4.0.7) date 06/03/18 23:49:29*
%MOMM*%
%LPD*%
G01*
G04 APERTURE LIST*
%ADD10C,0.100000*%
%ADD11C,0.150000*%
%ADD12C,0.254000*%
%ADD13C,0.200000*%
G04 APERTURE END LIST*
D10*
D11*
X2952381Y-43880953D02*
X2952381Y-43309524D01*
X2952381Y-43595238D02*
X1952381Y-43595238D01*
X2095238Y-43500000D01*
X2190476Y-43404762D01*
X2238095Y-43309524D01*
X2047619Y-44261905D02*
X2000000Y-44309524D01*
X1952381Y-44404762D01*
X1952381Y-44642858D01*
X2000000Y-44738096D01*
X2047619Y-44785715D01*
X2142857Y-44833334D01*
X2238095Y-44833334D01*
X2380952Y-44785715D01*
X2952381Y-44214286D01*
X2952381Y-44833334D01*
X1952381Y-45119048D02*
X2952381Y-45452381D01*
X1952381Y-45785715D01*
X87008095Y-30736667D02*
X86531904Y-30736667D01*
X87103333Y-31022381D02*
X86770000Y-30022381D01*
X86436666Y-31022381D01*
X86103333Y-31022381D02*
X86103333Y-30022381D01*
X85531904Y-31022381D01*
X85531904Y-30022381D01*
X84627142Y-30355714D02*
X84627142Y-31022381D01*
X84865238Y-29974762D02*
X85103333Y-30689048D01*
X84484285Y-30689048D01*
X95738095Y-30666667D02*
X95261904Y-30666667D01*
X95833333Y-30952381D02*
X95500000Y-29952381D01*
X95166666Y-30952381D01*
X94833333Y-30952381D02*
X94833333Y-29952381D01*
X94261904Y-30952381D01*
X94261904Y-29952381D01*
X93880952Y-29952381D02*
X93261904Y-29952381D01*
X93595238Y-30333333D01*
X93452380Y-30333333D01*
X93357142Y-30380952D01*
X93309523Y-30428571D01*
X93261904Y-30523810D01*
X93261904Y-30761905D01*
X93309523Y-30857143D01*
X93357142Y-30904762D01*
X93452380Y-30952381D01*
X93738095Y-30952381D01*
X93833333Y-30904762D01*
X93880952Y-30857143D01*
X2536667Y-47705238D02*
X2536667Y-48181429D01*
X2822381Y-47610000D02*
X1822381Y-47943333D01*
X2822381Y-48276667D01*
X2822381Y-48752857D02*
X2774762Y-48657619D01*
X2679524Y-48610000D01*
X1822381Y-48610000D01*
X2822381Y-49133810D02*
X2155714Y-49133810D01*
X1822381Y-49133810D02*
X1870000Y-49086191D01*
X1917619Y-49133810D01*
X1870000Y-49181429D01*
X1822381Y-49133810D01*
X1917619Y-49133810D01*
X2822381Y-49610000D02*
X2155714Y-49610000D01*
X2250952Y-49610000D02*
X2203333Y-49657619D01*
X2155714Y-49752857D01*
X2155714Y-49895715D01*
X2203333Y-49990953D01*
X2298571Y-50038572D01*
X2822381Y-50038572D01*
X2298571Y-50038572D02*
X2203333Y-50086191D01*
X2155714Y-50181429D01*
X2155714Y-50324286D01*
X2203333Y-50419524D01*
X2298571Y-50467143D01*
X2822381Y-50467143D01*
X94476190Y-52428571D02*
X94333333Y-52476190D01*
X94285714Y-52523810D01*
X94238095Y-52619048D01*
X94238095Y-52761905D01*
X94285714Y-52857143D01*
X94333333Y-52904762D01*
X94428571Y-52952381D01*
X94809524Y-52952381D01*
X94809524Y-51952381D01*
X94476190Y-51952381D01*
X94380952Y-52000000D01*
X94333333Y-52047619D01*
X94285714Y-52142857D01*
X94285714Y-52238095D01*
X94333333Y-52333333D01*
X94380952Y-52380952D01*
X94476190Y-52428571D01*
X94809524Y-52428571D01*
X93952381Y-51952381D02*
X93619048Y-52952381D01*
X93285714Y-51952381D01*
X87214286Y-52952381D02*
X87214286Y-51952381D01*
X86833333Y-51952381D01*
X86738095Y-52000000D01*
X86690476Y-52047619D01*
X86642857Y-52142857D01*
X86642857Y-52285714D01*
X86690476Y-52380952D01*
X86738095Y-52428571D01*
X86833333Y-52476190D01*
X87214286Y-52476190D01*
X86071429Y-52952381D02*
X86166667Y-52904762D01*
X86214286Y-52857143D01*
X86261905Y-52761905D01*
X86261905Y-52476190D01*
X86214286Y-52380952D01*
X86166667Y-52333333D01*
X86071429Y-52285714D01*
X85928571Y-52285714D01*
X85833333Y-52333333D01*
X85785714Y-52380952D01*
X85738095Y-52476190D01*
X85738095Y-52761905D01*
X85785714Y-52857143D01*
X85833333Y-52904762D01*
X85928571Y-52952381D01*
X86071429Y-52952381D01*
X85309524Y-52952381D02*
X85309524Y-52285714D01*
X85309524Y-51952381D02*
X85357143Y-52000000D01*
X85309524Y-52047619D01*
X85261905Y-52000000D01*
X85309524Y-51952381D01*
X85309524Y-52047619D01*
X84690477Y-52952381D02*
X84785715Y-52904762D01*
X84833334Y-52809524D01*
X84833334Y-51952381D01*
D12*
X7900000Y-57075000D02*
X7900000Y-56800000D01*
X7900000Y-56800000D02*
X7900000Y-55070000D01*
X7900000Y-55070000D02*
X7900000Y-50400000D01*
X7900000Y-50400000D02*
X7900000Y-47600000D01*
X7900000Y-47600000D02*
X7900000Y-42930000D01*
X7900000Y-42930000D02*
X7900000Y-41200000D01*
X7900000Y-41200000D02*
X7900000Y-40925000D01*
X7900000Y-40925000D02*
X3530000Y-40925000D01*
X3530000Y-42000000D02*
X4100000Y-42000000D01*
X4100000Y-42000000D02*
X4100000Y-42930000D01*
X4100000Y-42930000D02*
X4100000Y-45000000D01*
X4100000Y-45000000D02*
X4100000Y-46000000D01*
X4100000Y-46000000D02*
X4100000Y-52000000D01*
X4100000Y-52000000D02*
X4100000Y-53000000D01*
X4100000Y-53000000D02*
X4100000Y-55070000D01*
X4100000Y-55070000D02*
X4100000Y-56000000D01*
X4100000Y-56000000D02*
X3530000Y-56000000D01*
X3530000Y-56000000D02*
X3530000Y-56800000D01*
X3530000Y-56800000D02*
X3530000Y-57075000D01*
X3530000Y-57075000D02*
X7900000Y-57075000D01*
X3530000Y-42000000D02*
X3530000Y-41200000D01*
X3530000Y-41200000D02*
X3530000Y-40925000D01*
X9100000Y-50400000D02*
X9100000Y-47600000D01*
X9100000Y-47600000D02*
X7900000Y-47600000D01*
X9100000Y-50400000D02*
X7900000Y-50400000D01*
X4100000Y-46000000D02*
X3500000Y-46000000D01*
X3500000Y-46000000D02*
X3500000Y-45000000D01*
X3500000Y-45000000D02*
X4100000Y-45000000D01*
X4100000Y-53000000D02*
X3500000Y-53000000D01*
X3500000Y-53000000D02*
X3500000Y-52000000D01*
X3500000Y-52000000D02*
X4100000Y-52000000D01*
D13*
X3530000Y-56800000D02*
X5000000Y-56800000D01*
X5000000Y-56800000D02*
X7000000Y-56800000D01*
X7000000Y-56800000D02*
X7900000Y-56800000D01*
X3530000Y-41200000D02*
X5000000Y-41200000D01*
X5000000Y-41200000D02*
X7000000Y-41200000D01*
X7000000Y-41200000D02*
X7900000Y-41200000D01*
X4100000Y-55070000D02*
X5000000Y-55070000D01*
X5000000Y-55070000D02*
X7000000Y-55070000D01*
X7000000Y-55070000D02*
X7900000Y-55070000D01*
X7900000Y-42930000D02*
X7000000Y-42930000D01*
X7000000Y-42930000D02*
X5000000Y-42930000D01*
X5000000Y-42930000D02*
X4100000Y-42930000D01*
X7000000Y-55070000D02*
X7000000Y-55700000D01*
X7000000Y-55700000D02*
X7000000Y-56800000D01*
X5000000Y-55070000D02*
X5000000Y-55700000D01*
X5000000Y-55700000D02*
X5000000Y-56800000D01*
X7000000Y-42930000D02*
X7000000Y-42300000D01*
X7000000Y-42300000D02*
X7000000Y-41200000D01*
X5000000Y-42930000D02*
X5000000Y-42300000D01*
X5000000Y-42300000D02*
X5000000Y-41200000D01*
X7000000Y-55700000D02*
X6500000Y-55700000D01*
X6500000Y-55700000D02*
X6500000Y-56000000D01*
X6500000Y-56000000D02*
X5500000Y-56000000D01*
X5500000Y-56000000D02*
X5500000Y-55700000D01*
X5500000Y-55700000D02*
X5000000Y-55700000D01*
X7000000Y-42300000D02*
X6500000Y-42300000D01*
X6500000Y-42300000D02*
X6500000Y-42000000D01*
X6500000Y-42000000D02*
X5500000Y-42000000D01*
X5500000Y-42000000D02*
X5500000Y-42300000D01*
X5500000Y-42300000D02*
X5000000Y-42300000D01*
D12*
X7270000Y-48770000D02*
X7270000Y-46230000D01*
X7270000Y-46230000D02*
X4730000Y-46230000D01*
X4730000Y-46230000D02*
X4730000Y-48262000D01*
X5238000Y-48770000D02*
X7270000Y-48770000D01*
X4730000Y-48262000D02*
X5238000Y-48770000D01*
X7270000Y-45770000D02*
X7270000Y-43230000D01*
X7270000Y-43230000D02*
X4730000Y-43230000D01*
X4730000Y-43230000D02*
X4730000Y-45262000D01*
X5238000Y-45770000D02*
X7270000Y-45770000D01*
X4730000Y-45262000D02*
X5238000Y-45770000D01*
X7270000Y-51770000D02*
X7270000Y-49230000D01*
X7270000Y-49230000D02*
X4730000Y-49230000D01*
X4730000Y-49230000D02*
X4730000Y-51262000D01*
X5238000Y-51770000D02*
X7270000Y-51770000D01*
X4730000Y-51262000D02*
X5238000Y-51770000D01*
X4730000Y-54770000D02*
X7270000Y-54770000D01*
X7270000Y-54770000D02*
X7270000Y-52230000D01*
X7270000Y-52230000D02*
X5238000Y-52230000D01*
X4730000Y-52738000D02*
X4730000Y-54770000D01*
X5238000Y-52230000D02*
X4730000Y-52738000D01*
X96900000Y-45075000D02*
X96900000Y-44800000D01*
X96900000Y-44800000D02*
X96900000Y-43070000D01*
X96900000Y-43070000D02*
X96900000Y-39900000D01*
X96900000Y-39900000D02*
X96900000Y-37100000D01*
X96900000Y-37100000D02*
X96900000Y-33930000D01*
X96900000Y-33930000D02*
X96900000Y-32200000D01*
X96900000Y-32200000D02*
X96900000Y-31925000D01*
X96900000Y-31925000D02*
X92530000Y-31925000D01*
X92530000Y-33000000D02*
X93100000Y-33000000D01*
X93100000Y-33000000D02*
X93100000Y-33930000D01*
X93100000Y-33930000D02*
X93100000Y-36000000D01*
X93100000Y-36000000D02*
X93100000Y-37000000D01*
X93100000Y-37000000D02*
X93100000Y-40000000D01*
X93100000Y-40000000D02*
X93100000Y-41000000D01*
X93100000Y-41000000D02*
X93100000Y-43070000D01*
X93100000Y-43070000D02*
X93100000Y-44000000D01*
X93100000Y-44000000D02*
X92530000Y-44000000D01*
X92530000Y-44000000D02*
X92530000Y-44800000D01*
X92530000Y-44800000D02*
X92530000Y-45075000D01*
X92530000Y-45075000D02*
X96900000Y-45075000D01*
X92530000Y-33000000D02*
X92530000Y-32200000D01*
X92530000Y-32200000D02*
X92530000Y-31925000D01*
X98100000Y-39900000D02*
X98100000Y-37100000D01*
X98100000Y-37100000D02*
X96900000Y-37100000D01*
X98100000Y-39900000D02*
X96900000Y-39900000D01*
X93100000Y-37000000D02*
X92500000Y-37000000D01*
X92500000Y-37000000D02*
X92500000Y-36000000D01*
X92500000Y-36000000D02*
X93100000Y-36000000D01*
X93100000Y-41000000D02*
X92500000Y-41000000D01*
X92500000Y-41000000D02*
X92500000Y-40000000D01*
X92500000Y-40000000D02*
X93100000Y-40000000D01*
D13*
X92530000Y-44800000D02*
X94000000Y-44800000D01*
X94000000Y-44800000D02*
X96000000Y-44800000D01*
X96000000Y-44800000D02*
X96900000Y-44800000D01*
X92530000Y-32200000D02*
X94000000Y-32200000D01*
X94000000Y-32200000D02*
X96000000Y-32200000D01*
X96000000Y-32200000D02*
X96900000Y-32200000D01*
X93100000Y-43070000D02*
X94000000Y-43070000D01*
X94000000Y-43070000D02*
X96000000Y-43070000D01*
X96000000Y-43070000D02*
X96900000Y-43070000D01*
X96900000Y-33930000D02*
X96000000Y-33930000D01*
X96000000Y-33930000D02*
X94000000Y-33930000D01*
X94000000Y-33930000D02*
X93100000Y-33930000D01*
X96000000Y-43070000D02*
X96000000Y-43700000D01*
X96000000Y-43700000D02*
X96000000Y-44800000D01*
X94000000Y-43070000D02*
X94000000Y-43700000D01*
X94000000Y-43700000D02*
X94000000Y-44800000D01*
X96000000Y-33930000D02*
X96000000Y-33300000D01*
X96000000Y-33300000D02*
X96000000Y-32200000D01*
X94000000Y-33930000D02*
X94000000Y-33300000D01*
X94000000Y-33300000D02*
X94000000Y-32200000D01*
X96000000Y-43700000D02*
X95500000Y-43700000D01*
X95500000Y-43700000D02*
X95500000Y-44000000D01*
X95500000Y-44000000D02*
X94500000Y-44000000D01*
X94500000Y-44000000D02*
X94500000Y-43700000D01*
X94500000Y-43700000D02*
X94000000Y-43700000D01*
X96000000Y-33300000D02*
X95500000Y-33300000D01*
X95500000Y-33300000D02*
X95500000Y-33000000D01*
X95500000Y-33000000D02*
X94500000Y-33000000D01*
X94500000Y-33000000D02*
X94500000Y-33300000D01*
X94500000Y-33300000D02*
X94000000Y-33300000D01*
D12*
X96270000Y-39770000D02*
X96270000Y-37230000D01*
X96270000Y-37230000D02*
X93730000Y-37230000D01*
X93730000Y-37230000D02*
X93730000Y-39262000D01*
X94238000Y-39770000D02*
X96270000Y-39770000D01*
X93730000Y-39262000D02*
X94238000Y-39770000D01*
X96270000Y-36770000D02*
X96270000Y-34230000D01*
X96270000Y-34230000D02*
X93730000Y-34230000D01*
X93730000Y-34230000D02*
X93730000Y-36262000D01*
X94238000Y-36770000D02*
X96270000Y-36770000D01*
X93730000Y-36262000D02*
X94238000Y-36770000D01*
X96270000Y-42770000D02*
X96270000Y-40230000D01*
X96270000Y-40230000D02*
X93730000Y-40230000D01*
X93730000Y-40230000D02*
X93730000Y-42262000D01*
X94238000Y-42770000D02*
X96270000Y-42770000D01*
X93730000Y-42262000D02*
X94238000Y-42770000D01*
X87900000Y-45075000D02*
X87900000Y-44800000D01*
X87900000Y-44800000D02*
X87900000Y-43070000D01*
X87900000Y-43070000D02*
X87900000Y-39900000D01*
X87900000Y-39900000D02*
X87900000Y-37100000D01*
X87900000Y-37100000D02*
X87900000Y-33930000D01*
X87900000Y-33930000D02*
X87900000Y-32200000D01*
X87900000Y-32200000D02*
X87900000Y-31925000D01*
X87900000Y-31925000D02*
X83530000Y-31925000D01*
X83530000Y-33000000D02*
X84100000Y-33000000D01*
X84100000Y-33000000D02*
X84100000Y-33930000D01*
X84100000Y-33930000D02*
X84100000Y-36000000D01*
X84100000Y-36000000D02*
X84100000Y-37000000D01*
X84100000Y-37000000D02*
X84100000Y-40000000D01*
X84100000Y-40000000D02*
X84100000Y-41000000D01*
X84100000Y-41000000D02*
X84100000Y-43070000D01*
X84100000Y-43070000D02*
X84100000Y-44000000D01*
X84100000Y-44000000D02*
X83530000Y-44000000D01*
X83530000Y-44000000D02*
X83530000Y-44800000D01*
X83530000Y-44800000D02*
X83530000Y-45075000D01*
X83530000Y-45075000D02*
X87900000Y-45075000D01*
X83530000Y-33000000D02*
X83530000Y-32200000D01*
X83530000Y-32200000D02*
X83530000Y-31925000D01*
X89100000Y-39900000D02*
X89100000Y-37100000D01*
X89100000Y-37100000D02*
X87900000Y-37100000D01*
X89100000Y-39900000D02*
X87900000Y-39900000D01*
X84100000Y-37000000D02*
X83500000Y-37000000D01*
X83500000Y-37000000D02*
X83500000Y-36000000D01*
X83500000Y-36000000D02*
X84100000Y-36000000D01*
X84100000Y-41000000D02*
X83500000Y-41000000D01*
X83500000Y-41000000D02*
X83500000Y-40000000D01*
X83500000Y-40000000D02*
X84100000Y-40000000D01*
D13*
X83530000Y-44800000D02*
X85000000Y-44800000D01*
X85000000Y-44800000D02*
X87000000Y-44800000D01*
X87000000Y-44800000D02*
X87900000Y-44800000D01*
X83530000Y-32200000D02*
X85000000Y-32200000D01*
X85000000Y-32200000D02*
X87000000Y-32200000D01*
X87000000Y-32200000D02*
X87900000Y-32200000D01*
X84100000Y-43070000D02*
X85000000Y-43070000D01*
X85000000Y-43070000D02*
X87000000Y-43070000D01*
X87000000Y-43070000D02*
X87900000Y-43070000D01*
X87900000Y-33930000D02*
X87000000Y-33930000D01*
X87000000Y-33930000D02*
X85000000Y-33930000D01*
X85000000Y-33930000D02*
X84100000Y-33930000D01*
X87000000Y-43070000D02*
X87000000Y-43700000D01*
X87000000Y-43700000D02*
X87000000Y-44800000D01*
X85000000Y-43070000D02*
X85000000Y-43700000D01*
X85000000Y-43700000D02*
X85000000Y-44800000D01*
X87000000Y-33930000D02*
X87000000Y-33300000D01*
X87000000Y-33300000D02*
X87000000Y-32200000D01*
X85000000Y-33930000D02*
X85000000Y-33300000D01*
X85000000Y-33300000D02*
X85000000Y-32200000D01*
X87000000Y-43700000D02*
X86500000Y-43700000D01*
X86500000Y-43700000D02*
X86500000Y-44000000D01*
X86500000Y-44000000D02*
X85500000Y-44000000D01*
X85500000Y-44000000D02*
X85500000Y-43700000D01*
X85500000Y-43700000D02*
X85000000Y-43700000D01*
X87000000Y-33300000D02*
X86500000Y-33300000D01*
X86500000Y-33300000D02*
X86500000Y-33000000D01*
X86500000Y-33000000D02*
X85500000Y-33000000D01*
X85500000Y-33000000D02*
X85500000Y-33300000D01*
X85500000Y-33300000D02*
X85000000Y-33300000D01*
D12*
X87270000Y-39770000D02*
X87270000Y-37230000D01*
X87270000Y-37230000D02*
X84730000Y-37230000D01*
X84730000Y-37230000D02*
X84730000Y-39262000D01*
X85238000Y-39770000D02*
X87270000Y-39770000D01*
X84730000Y-39262000D02*
X85238000Y-39770000D01*
X87270000Y-36770000D02*
X87270000Y-34230000D01*
X87270000Y-34230000D02*
X84730000Y-34230000D01*
X84730000Y-34230000D02*
X84730000Y-36262000D01*
X85238000Y-36770000D02*
X87270000Y-36770000D01*
X84730000Y-36262000D02*
X85238000Y-36770000D01*
X87270000Y-42770000D02*
X87270000Y-40230000D01*
X87270000Y-40230000D02*
X84730000Y-40230000D01*
X84730000Y-40230000D02*
X84730000Y-42262000D01*
X85238000Y-42770000D02*
X87270000Y-42770000D01*
X84730000Y-42262000D02*
X85238000Y-42770000D01*
X96900000Y-67075000D02*
X96900000Y-66800000D01*
X96900000Y-66800000D02*
X96900000Y-65070000D01*
X96900000Y-65070000D02*
X96900000Y-61900000D01*
X96900000Y-61900000D02*
X96900000Y-59100000D01*
X96900000Y-59100000D02*
X96900000Y-55930000D01*
X96900000Y-55930000D02*
X96900000Y-54200000D01*
X96900000Y-54200000D02*
X96900000Y-53925000D01*
X96900000Y-53925000D02*
X92530000Y-53925000D01*
X92530000Y-55000000D02*
X93100000Y-55000000D01*
X93100000Y-55000000D02*
X93100000Y-55930000D01*
X93100000Y-55930000D02*
X93100000Y-58000000D01*
X93100000Y-58000000D02*
X93100000Y-59000000D01*
X93100000Y-59000000D02*
X93100000Y-62000000D01*
X93100000Y-62000000D02*
X93100000Y-63000000D01*
X93100000Y-63000000D02*
X93100000Y-65070000D01*
X93100000Y-65070000D02*
X93100000Y-66000000D01*
X93100000Y-66000000D02*
X92530000Y-66000000D01*
X92530000Y-66000000D02*
X92530000Y-66800000D01*
X92530000Y-66800000D02*
X92530000Y-67075000D01*
X92530000Y-67075000D02*
X96900000Y-67075000D01*
X92530000Y-55000000D02*
X92530000Y-54200000D01*
X92530000Y-54200000D02*
X92530000Y-53925000D01*
X98100000Y-61900000D02*
X98100000Y-59100000D01*
X98100000Y-59100000D02*
X96900000Y-59100000D01*
X98100000Y-61900000D02*
X96900000Y-61900000D01*
X93100000Y-59000000D02*
X92500000Y-59000000D01*
X92500000Y-59000000D02*
X92500000Y-58000000D01*
X92500000Y-58000000D02*
X93100000Y-58000000D01*
X93100000Y-63000000D02*
X92500000Y-63000000D01*
X92500000Y-63000000D02*
X92500000Y-62000000D01*
X92500000Y-62000000D02*
X93100000Y-62000000D01*
D13*
X92530000Y-66800000D02*
X94000000Y-66800000D01*
X94000000Y-66800000D02*
X96000000Y-66800000D01*
X96000000Y-66800000D02*
X96900000Y-66800000D01*
X92530000Y-54200000D02*
X94000000Y-54200000D01*
X94000000Y-54200000D02*
X96000000Y-54200000D01*
X96000000Y-54200000D02*
X96900000Y-54200000D01*
X93100000Y-65070000D02*
X94000000Y-65070000D01*
X94000000Y-65070000D02*
X96000000Y-65070000D01*
X96000000Y-65070000D02*
X96900000Y-65070000D01*
X96900000Y-55930000D02*
X96000000Y-55930000D01*
X96000000Y-55930000D02*
X94000000Y-55930000D01*
X94000000Y-55930000D02*
X93100000Y-55930000D01*
X96000000Y-65070000D02*
X96000000Y-65700000D01*
X96000000Y-65700000D02*
X96000000Y-66800000D01*
X94000000Y-65070000D02*
X94000000Y-65700000D01*
X94000000Y-65700000D02*
X94000000Y-66800000D01*
X96000000Y-55930000D02*
X96000000Y-55300000D01*
X96000000Y-55300000D02*
X96000000Y-54200000D01*
X94000000Y-55930000D02*
X94000000Y-55300000D01*
X94000000Y-55300000D02*
X94000000Y-54200000D01*
X96000000Y-65700000D02*
X95500000Y-65700000D01*
X95500000Y-65700000D02*
X95500000Y-66000000D01*
X95500000Y-66000000D02*
X94500000Y-66000000D01*
X94500000Y-66000000D02*
X94500000Y-65700000D01*
X94500000Y-65700000D02*
X94000000Y-65700000D01*
X96000000Y-55300000D02*
X95500000Y-55300000D01*
X95500000Y-55300000D02*
X95500000Y-55000000D01*
X95500000Y-55000000D02*
X94500000Y-55000000D01*
X94500000Y-55000000D02*
X94500000Y-55300000D01*
X94500000Y-55300000D02*
X94000000Y-55300000D01*
D12*
X96270000Y-61770000D02*
X96270000Y-59230000D01*
X96270000Y-59230000D02*
X93730000Y-59230000D01*
X93730000Y-59230000D02*
X93730000Y-61262000D01*
X94238000Y-61770000D02*
X96270000Y-61770000D01*
X93730000Y-61262000D02*
X94238000Y-61770000D01*
X96270000Y-58770000D02*
X96270000Y-56230000D01*
X96270000Y-56230000D02*
X93730000Y-56230000D01*
X93730000Y-56230000D02*
X93730000Y-58262000D01*
X94238000Y-58770000D02*
X96270000Y-58770000D01*
X93730000Y-58262000D02*
X94238000Y-58770000D01*
X96270000Y-64770000D02*
X96270000Y-62230000D01*
X96270000Y-62230000D02*
X93730000Y-62230000D01*
X93730000Y-62230000D02*
X93730000Y-64262000D01*
X94238000Y-64770000D02*
X96270000Y-64770000D01*
X93730000Y-64262000D02*
X94238000Y-64770000D01*
X87900000Y-67075000D02*
X87900000Y-66800000D01*
X87900000Y-66800000D02*
X87900000Y-65070000D01*
X87900000Y-65070000D02*
X87900000Y-61900000D01*
X87900000Y-61900000D02*
X87900000Y-59100000D01*
X87900000Y-59100000D02*
X87900000Y-55930000D01*
X87900000Y-55930000D02*
X87900000Y-54200000D01*
X87900000Y-54200000D02*
X87900000Y-53925000D01*
X87900000Y-53925000D02*
X83530000Y-53925000D01*
X83530000Y-55000000D02*
X84100000Y-55000000D01*
X84100000Y-55000000D02*
X84100000Y-55930000D01*
X84100000Y-55930000D02*
X84100000Y-58000000D01*
X84100000Y-58000000D02*
X84100000Y-59000000D01*
X84100000Y-59000000D02*
X84100000Y-62000000D01*
X84100000Y-62000000D02*
X84100000Y-63000000D01*
X84100000Y-63000000D02*
X84100000Y-65070000D01*
X84100000Y-65070000D02*
X84100000Y-66000000D01*
X84100000Y-66000000D02*
X83530000Y-66000000D01*
X83530000Y-66000000D02*
X83530000Y-66800000D01*
X83530000Y-66800000D02*
X83530000Y-67075000D01*
X83530000Y-67075000D02*
X87900000Y-67075000D01*
X83530000Y-55000000D02*
X83530000Y-54200000D01*
X83530000Y-54200000D02*
X83530000Y-53925000D01*
X89100000Y-61900000D02*
X89100000Y-59100000D01*
X89100000Y-59100000D02*
X87900000Y-59100000D01*
X89100000Y-61900000D02*
X87900000Y-61900000D01*
X84100000Y-59000000D02*
X83500000Y-59000000D01*
X83500000Y-59000000D02*
X83500000Y-58000000D01*
X83500000Y-58000000D02*
X84100000Y-58000000D01*
X84100000Y-63000000D02*
X83500000Y-63000000D01*
X83500000Y-63000000D02*
X83500000Y-62000000D01*
X83500000Y-62000000D02*
X84100000Y-62000000D01*
D13*
X83530000Y-66800000D02*
X85000000Y-66800000D01*
X85000000Y-66800000D02*
X87000000Y-66800000D01*
X87000000Y-66800000D02*
X87900000Y-66800000D01*
X83530000Y-54200000D02*
X85000000Y-54200000D01*
X85000000Y-54200000D02*
X87000000Y-54200000D01*
X87000000Y-54200000D02*
X87900000Y-54200000D01*
X84100000Y-65070000D02*
X85000000Y-65070000D01*
X85000000Y-65070000D02*
X87000000Y-65070000D01*
X87000000Y-65070000D02*
X87900000Y-65070000D01*
X87900000Y-55930000D02*
X87000000Y-55930000D01*
X87000000Y-55930000D02*
X85000000Y-55930000D01*
X85000000Y-55930000D02*
X84100000Y-55930000D01*
X87000000Y-65070000D02*
X87000000Y-65700000D01*
X87000000Y-65700000D02*
X87000000Y-66800000D01*
X85000000Y-65070000D02*
X85000000Y-65700000D01*
X85000000Y-65700000D02*
X85000000Y-66800000D01*
X87000000Y-55930000D02*
X87000000Y-55300000D01*
X87000000Y-55300000D02*
X87000000Y-54200000D01*
X85000000Y-55930000D02*
X85000000Y-55300000D01*
X85000000Y-55300000D02*
X85000000Y-54200000D01*
X87000000Y-65700000D02*
X86500000Y-65700000D01*
X86500000Y-65700000D02*
X86500000Y-66000000D01*
X86500000Y-66000000D02*
X85500000Y-66000000D01*
X85500000Y-66000000D02*
X85500000Y-65700000D01*
X85500000Y-65700000D02*
X85000000Y-65700000D01*
X87000000Y-55300000D02*
X86500000Y-55300000D01*
X86500000Y-55300000D02*
X86500000Y-55000000D01*
X86500000Y-55000000D02*
X85500000Y-55000000D01*
X85500000Y-55000000D02*
X85500000Y-55300000D01*
X85500000Y-55300000D02*
X85000000Y-55300000D01*
D12*
X87270000Y-61770000D02*
X87270000Y-59230000D01*
X87270000Y-59230000D02*
X84730000Y-59230000D01*
X84730000Y-59230000D02*
X84730000Y-61262000D01*
X85238000Y-61770000D02*
X87270000Y-61770000D01*
X84730000Y-61262000D02*
X85238000Y-61770000D01*
X87270000Y-58770000D02*
X87270000Y-56230000D01*
X87270000Y-56230000D02*
X84730000Y-56230000D01*
X84730000Y-56230000D02*
X84730000Y-58262000D01*
X85238000Y-58770000D02*
X87270000Y-58770000D01*
X84730000Y-58262000D02*
X85238000Y-58770000D01*
X87270000Y-64770000D02*
X87270000Y-62230000D01*
X87270000Y-62230000D02*
X84730000Y-62230000D01*
X84730000Y-62230000D02*
X84730000Y-64262000D01*
X85238000Y-64770000D02*
X87270000Y-64770000D01*
X84730000Y-64262000D02*
X85238000Y-64770000D01*
M02*
