G04 #@! TF.FileFunction,Legend,Top*
%FSLAX46Y46*%
G04 Gerber Fmt 4.6, Leading zero omitted, Abs format (unit mm)*
G04 Created by KiCad (PCBNEW 4.0.7) date 06/03/18 23:49:29*
%MOMM*%
%LPD*%
G01*
G04 APERTURE LIST*
%ADD10C,0.100000*%
%ADD11C,0.150000*%
%ADD12C,0.120000*%
G04 APERTURE END LIST*
D10*
D11*
X23857143Y-64952381D02*
X23380952Y-64952381D01*
X23380952Y-63952381D01*
X24190476Y-64428571D02*
X24523810Y-64428571D01*
X24666667Y-64952381D02*
X24190476Y-64952381D01*
X24190476Y-63952381D01*
X24666667Y-63952381D01*
X25095238Y-64952381D02*
X25095238Y-63952381D01*
X25333333Y-63952381D01*
X25476191Y-64000000D01*
X25571429Y-64095238D01*
X25619048Y-64190476D01*
X25666667Y-64380952D01*
X25666667Y-64523810D01*
X25619048Y-64714286D01*
X25571429Y-64809524D01*
X25476191Y-64904762D01*
X25333333Y-64952381D01*
X25095238Y-64952381D01*
X36404762Y-64952381D02*
X36404762Y-63952381D01*
X36404762Y-64428571D02*
X36976191Y-64428571D01*
X36976191Y-64952381D02*
X36976191Y-63952381D01*
X37452381Y-64952381D02*
X37452381Y-63952381D01*
X37785715Y-64666667D01*
X38119048Y-63952381D01*
X38119048Y-64952381D01*
X38595238Y-64952381D02*
X38595238Y-63952381D01*
X42920000Y-56640000D02*
X42920000Y-46640000D01*
X15920000Y-46640000D02*
X42920000Y-46640000D01*
X15920000Y-46640000D02*
X15920000Y-56640000D01*
X42920000Y-56640000D02*
X15920000Y-56640000D01*
D12*
X41770000Y-39080000D02*
X41770000Y-37580000D01*
X41020000Y-38330000D02*
X42520000Y-38330000D01*
X38710000Y-40590000D02*
X44830000Y-40590000D01*
X38710000Y-30470000D02*
X44830000Y-30470000D01*
X38710000Y-40590000D02*
X38710000Y-39090000D01*
X38710000Y-39090000D02*
X39460000Y-38340000D01*
X39460000Y-38340000D02*
X38710000Y-37590000D01*
X38710000Y-37590000D02*
X38710000Y-30470000D01*
X44830000Y-40590000D02*
X44830000Y-39090000D01*
X44830000Y-39090000D02*
X44080000Y-38340000D01*
X44080000Y-38340000D02*
X44830000Y-37590000D01*
X44830000Y-37590000D02*
X44830000Y-30470000D01*
X41770000Y-41850000D02*
X41770000Y-40590000D01*
X41770000Y-29210000D02*
X41770000Y-30470000D01*
D11*
X15920000Y-44140000D02*
X15920000Y-27140000D01*
X36920000Y-44140000D02*
X15920000Y-44140000D01*
X36920000Y-27140000D02*
X36920000Y-44140000D01*
X15920000Y-27140000D02*
X36920000Y-27140000D01*
X58530000Y-28210000D02*
X58530000Y-26940000D01*
X58530000Y-26940000D02*
X66150000Y-26940000D01*
X66150000Y-26940000D02*
X66150000Y-28210000D01*
X57260000Y-39640000D02*
X57260000Y-43450000D01*
X57260000Y-43450000D02*
X59800000Y-43450000D01*
X59800000Y-43450000D02*
X59800000Y-39640000D01*
X59800000Y-39640000D02*
X57260000Y-39640000D01*
X58530000Y-33290000D02*
X66150000Y-33290000D01*
X66150000Y-33290000D02*
X66150000Y-28210000D01*
X58530000Y-33290000D02*
X58530000Y-28210000D01*
X57260000Y-34560000D02*
X57260000Y-37100000D01*
X57260000Y-37100000D02*
X59800000Y-37100000D01*
X59800000Y-37100000D02*
X59800000Y-34560000D01*
X59800000Y-34560000D02*
X57260000Y-34560000D01*
X64880000Y-61230000D02*
X59800000Y-61230000D01*
X59800000Y-61230000D02*
X59800000Y-58690000D01*
X59800000Y-58690000D02*
X64880000Y-58690000D01*
X64880000Y-58690000D02*
X64880000Y-61230000D01*
X57260000Y-54880000D02*
X67420000Y-54880000D01*
X67420000Y-45990000D02*
X57260000Y-45990000D01*
X67420000Y-54880000D02*
X67420000Y-45990000D01*
X57260000Y-54880000D02*
X57260000Y-45990000D01*
X71230000Y-28210000D02*
X71230000Y-63770000D01*
X71230000Y-63770000D02*
X53450000Y-63770000D01*
X53450000Y-63770000D02*
X53450000Y-28210000D01*
X53450000Y-28210000D02*
X71230000Y-28210000D01*
D12*
X96180000Y-10410000D02*
X96180000Y-8410000D01*
X98320000Y-8410000D02*
X98320000Y-10410000D01*
X30790000Y-63440000D02*
X31790000Y-62440000D01*
X21890000Y-58540000D02*
X21890000Y-63440000D01*
X21890000Y-63440000D02*
X30790000Y-63440000D01*
X31790000Y-62440000D02*
X31790000Y-58540000D01*
X31790000Y-58540000D02*
X21890000Y-58540000D01*
X89539999Y-13910000D02*
X88539999Y-14910000D01*
X98439999Y-18810000D02*
X98439999Y-13910000D01*
X98439999Y-13910000D02*
X89539999Y-13910000D01*
X88539999Y-14910000D02*
X88539999Y-18810000D01*
X88539999Y-18810000D02*
X98439999Y-18810000D01*
X46790000Y-63440000D02*
X47790000Y-62440000D01*
X35350000Y-58540000D02*
X35350000Y-63440000D01*
X35350000Y-63440000D02*
X46790000Y-63440000D01*
X47790000Y-62440000D02*
X47790000Y-58540000D01*
X47790000Y-58540000D02*
X35350000Y-58540000D01*
X74480000Y-39020000D02*
X74480000Y-38690000D01*
X74480000Y-38690000D02*
X80900000Y-38690000D01*
X80900000Y-38690000D02*
X80900000Y-39020000D01*
X74480000Y-40980000D02*
X74480000Y-41310000D01*
X74480000Y-41310000D02*
X80900000Y-41310000D01*
X80900000Y-41310000D02*
X80900000Y-40980000D01*
X80900000Y-44980000D02*
X80900000Y-45310000D01*
X80900000Y-45310000D02*
X74480000Y-45310000D01*
X74480000Y-45310000D02*
X74480000Y-44980000D01*
X80900000Y-43020000D02*
X80900000Y-42690000D01*
X80900000Y-42690000D02*
X74480000Y-42690000D01*
X74480000Y-42690000D02*
X74480000Y-43020000D01*
X74600000Y-61520000D02*
X74600000Y-61190000D01*
X74600000Y-61190000D02*
X81020000Y-61190000D01*
X81020000Y-61190000D02*
X81020000Y-61520000D01*
X74600000Y-63480000D02*
X74600000Y-63810000D01*
X74600000Y-63810000D02*
X81020000Y-63810000D01*
X81020000Y-63810000D02*
X81020000Y-63480000D01*
X81020000Y-67480000D02*
X81020000Y-67810000D01*
X81020000Y-67810000D02*
X74600000Y-67810000D01*
X74600000Y-67810000D02*
X74600000Y-67480000D01*
X81020000Y-65520000D02*
X81020000Y-65190000D01*
X81020000Y-65190000D02*
X74600000Y-65190000D01*
X74600000Y-65190000D02*
X74600000Y-65520000D01*
X74600000Y-50520000D02*
X74600000Y-50190000D01*
X74600000Y-50190000D02*
X81020000Y-50190000D01*
X81020000Y-50190000D02*
X81020000Y-50520000D01*
X74600000Y-52480000D02*
X74600000Y-52810000D01*
X74600000Y-52810000D02*
X81020000Y-52810000D01*
X81020000Y-52810000D02*
X81020000Y-52480000D01*
X81020000Y-56410000D02*
X81020000Y-56740000D01*
X81020000Y-56740000D02*
X74600000Y-56740000D01*
X74600000Y-56740000D02*
X74600000Y-56410000D01*
X81020000Y-54450000D02*
X81020000Y-54120000D01*
X81020000Y-54120000D02*
X74600000Y-54120000D01*
X74600000Y-54120000D02*
X74600000Y-54450000D01*
X74480000Y-28020000D02*
X74480000Y-27690000D01*
X74480000Y-27690000D02*
X80900000Y-27690000D01*
X80900000Y-27690000D02*
X80900000Y-28020000D01*
X74480000Y-29980000D02*
X74480000Y-30310000D01*
X74480000Y-30310000D02*
X80900000Y-30310000D01*
X80900000Y-30310000D02*
X80900000Y-29980000D01*
X80890000Y-34010000D02*
X80890000Y-34340000D01*
X80890000Y-34340000D02*
X74470000Y-34340000D01*
X74470000Y-34340000D02*
X74470000Y-34010000D01*
X80890000Y-32050000D02*
X80890000Y-31720000D01*
X80890000Y-31720000D02*
X74470000Y-31720000D01*
X74470000Y-31720000D02*
X74470000Y-32050000D01*
X87600000Y-68520000D02*
X87600000Y-68190000D01*
X87600000Y-68190000D02*
X94020000Y-68190000D01*
X94020000Y-68190000D02*
X94020000Y-68520000D01*
X87600000Y-70480000D02*
X87600000Y-70810000D01*
X87600000Y-70810000D02*
X94020000Y-70810000D01*
X94020000Y-70810000D02*
X94020000Y-70480000D01*
D11*
X21298572Y-49444762D02*
X21203334Y-49492381D01*
X21012857Y-49492381D01*
X20917619Y-49444762D01*
X20870000Y-49397143D01*
X20822381Y-49301905D01*
X20822381Y-49016190D01*
X20870000Y-48920952D01*
X20917619Y-48873333D01*
X21012857Y-48825714D01*
X21203334Y-48825714D01*
X21298572Y-48873333D01*
X22155715Y-49492381D02*
X22155715Y-48968571D01*
X22108096Y-48873333D01*
X22012858Y-48825714D01*
X21822381Y-48825714D01*
X21727143Y-48873333D01*
X22155715Y-49444762D02*
X22060477Y-49492381D01*
X21822381Y-49492381D01*
X21727143Y-49444762D01*
X21679524Y-49349524D01*
X21679524Y-49254286D01*
X21727143Y-49159048D01*
X21822381Y-49111429D01*
X22060477Y-49111429D01*
X22155715Y-49063810D01*
X22631905Y-48825714D02*
X22631905Y-49492381D01*
X22631905Y-48920952D02*
X22679524Y-48873333D01*
X22774762Y-48825714D01*
X22917620Y-48825714D01*
X23012858Y-48873333D01*
X23060477Y-48968571D01*
X23060477Y-49492381D01*
X24298572Y-49492381D02*
X24298572Y-48492381D01*
X24298572Y-48968571D02*
X24870001Y-48968571D01*
X24870001Y-49492381D02*
X24870001Y-48492381D01*
X21357619Y-54594762D02*
X21262381Y-54642381D01*
X21071904Y-54642381D01*
X20976666Y-54594762D01*
X20929047Y-54547143D01*
X20881428Y-54451905D01*
X20881428Y-54166190D01*
X20929047Y-54070952D01*
X20976666Y-54023333D01*
X21071904Y-53975714D01*
X21262381Y-53975714D01*
X21357619Y-54023333D01*
X22214762Y-54642381D02*
X22214762Y-54118571D01*
X22167143Y-54023333D01*
X22071905Y-53975714D01*
X21881428Y-53975714D01*
X21786190Y-54023333D01*
X22214762Y-54594762D02*
X22119524Y-54642381D01*
X21881428Y-54642381D01*
X21786190Y-54594762D01*
X21738571Y-54499524D01*
X21738571Y-54404286D01*
X21786190Y-54309048D01*
X21881428Y-54261429D01*
X22119524Y-54261429D01*
X22214762Y-54213810D01*
X22690952Y-53975714D02*
X22690952Y-54642381D01*
X22690952Y-54070952D02*
X22738571Y-54023333D01*
X22833809Y-53975714D01*
X22976667Y-53975714D01*
X23071905Y-54023333D01*
X23119524Y-54118571D01*
X23119524Y-54642381D01*
X24833810Y-54642381D02*
X24357619Y-54642381D01*
X24357619Y-53642381D01*
X34556191Y-48384762D02*
X34460953Y-48432381D01*
X34270476Y-48432381D01*
X34175238Y-48384762D01*
X34127619Y-48337143D01*
X34080000Y-48241905D01*
X34080000Y-47956190D01*
X34127619Y-47860952D01*
X34175238Y-47813333D01*
X34270476Y-47765714D01*
X34460953Y-47765714D01*
X34556191Y-47813333D01*
X35413334Y-48432381D02*
X35413334Y-47908571D01*
X35365715Y-47813333D01*
X35270477Y-47765714D01*
X35080000Y-47765714D01*
X34984762Y-47813333D01*
X35413334Y-48384762D02*
X35318096Y-48432381D01*
X35080000Y-48432381D01*
X34984762Y-48384762D01*
X34937143Y-48289524D01*
X34937143Y-48194286D01*
X34984762Y-48099048D01*
X35080000Y-48051429D01*
X35318096Y-48051429D01*
X35413334Y-48003810D01*
X35889524Y-47765714D02*
X35889524Y-48432381D01*
X35889524Y-47860952D02*
X35937143Y-47813333D01*
X36032381Y-47765714D01*
X36175239Y-47765714D01*
X36270477Y-47813333D01*
X36318096Y-47908571D01*
X36318096Y-48432381D01*
X36651429Y-47432381D02*
X37222858Y-47432381D01*
X36937143Y-48432381D02*
X36937143Y-47432381D01*
X37460953Y-47432381D02*
X38127620Y-48432381D01*
X38127620Y-47432381D02*
X37460953Y-48432381D01*
X34387143Y-51004762D02*
X34291905Y-51052381D01*
X34101428Y-51052381D01*
X34006190Y-51004762D01*
X33958571Y-50957143D01*
X33910952Y-50861905D01*
X33910952Y-50576190D01*
X33958571Y-50480952D01*
X34006190Y-50433333D01*
X34101428Y-50385714D01*
X34291905Y-50385714D01*
X34387143Y-50433333D01*
X35244286Y-51052381D02*
X35244286Y-50528571D01*
X35196667Y-50433333D01*
X35101429Y-50385714D01*
X34910952Y-50385714D01*
X34815714Y-50433333D01*
X35244286Y-51004762D02*
X35149048Y-51052381D01*
X34910952Y-51052381D01*
X34815714Y-51004762D01*
X34768095Y-50909524D01*
X34768095Y-50814286D01*
X34815714Y-50719048D01*
X34910952Y-50671429D01*
X35149048Y-50671429D01*
X35244286Y-50623810D01*
X35720476Y-50385714D02*
X35720476Y-51052381D01*
X35720476Y-50480952D02*
X35768095Y-50433333D01*
X35863333Y-50385714D01*
X36006191Y-50385714D01*
X36101429Y-50433333D01*
X36149048Y-50528571D01*
X36149048Y-51052381D01*
X37196667Y-51052381D02*
X36863333Y-50576190D01*
X36625238Y-51052381D02*
X36625238Y-50052381D01*
X37006191Y-50052381D01*
X37101429Y-50100000D01*
X37149048Y-50147619D01*
X37196667Y-50242857D01*
X37196667Y-50385714D01*
X37149048Y-50480952D01*
X37101429Y-50528571D01*
X37006191Y-50576190D01*
X36625238Y-50576190D01*
X37530000Y-50052381D02*
X38196667Y-51052381D01*
X38196667Y-50052381D02*
X37530000Y-51052381D01*
X36199524Y-52915714D02*
X36199524Y-53725238D01*
X36151905Y-53820476D01*
X36104286Y-53868095D01*
X36009047Y-53915714D01*
X35866190Y-53915714D01*
X35770952Y-53868095D01*
X36199524Y-53534762D02*
X36104286Y-53582381D01*
X35913809Y-53582381D01*
X35818571Y-53534762D01*
X35770952Y-53487143D01*
X35723333Y-53391905D01*
X35723333Y-53106190D01*
X35770952Y-53010952D01*
X35818571Y-52963333D01*
X35913809Y-52915714D01*
X36104286Y-52915714D01*
X36199524Y-52963333D01*
X36675714Y-52915714D02*
X36675714Y-53582381D01*
X36675714Y-53010952D02*
X36723333Y-52963333D01*
X36818571Y-52915714D01*
X36961429Y-52915714D01*
X37056667Y-52963333D01*
X37104286Y-53058571D01*
X37104286Y-53582381D01*
X38009048Y-53582381D02*
X38009048Y-52582381D01*
X38009048Y-53534762D02*
X37913810Y-53582381D01*
X37723333Y-53582381D01*
X37628095Y-53534762D01*
X37580476Y-53487143D01*
X37532857Y-53391905D01*
X37532857Y-53106190D01*
X37580476Y-53010952D01*
X37628095Y-52963333D01*
X37723333Y-52915714D01*
X37913810Y-52915714D01*
X38009048Y-52963333D01*
X35311429Y-54902381D02*
X35930477Y-54902381D01*
X35597143Y-55283333D01*
X35740001Y-55283333D01*
X35835239Y-55330952D01*
X35882858Y-55378571D01*
X35930477Y-55473810D01*
X35930477Y-55711905D01*
X35882858Y-55807143D01*
X35835239Y-55854762D01*
X35740001Y-55902381D01*
X35454286Y-55902381D01*
X35359048Y-55854762D01*
X35311429Y-55807143D01*
X36359048Y-55807143D02*
X36406667Y-55854762D01*
X36359048Y-55902381D01*
X36311429Y-55854762D01*
X36359048Y-55807143D01*
X36359048Y-55902381D01*
X36740000Y-54902381D02*
X37359048Y-54902381D01*
X37025714Y-55283333D01*
X37168572Y-55283333D01*
X37263810Y-55330952D01*
X37311429Y-55378571D01*
X37359048Y-55473810D01*
X37359048Y-55711905D01*
X37311429Y-55807143D01*
X37263810Y-55854762D01*
X37168572Y-55902381D01*
X36882857Y-55902381D01*
X36787619Y-55854762D01*
X36740000Y-55807143D01*
X37692381Y-55235714D02*
X37930476Y-55902381D01*
X38168572Y-55235714D01*
X46237143Y-34296666D02*
X46284762Y-34344285D01*
X46332381Y-34487142D01*
X46332381Y-34582380D01*
X46284762Y-34725238D01*
X46189524Y-34820476D01*
X46094286Y-34868095D01*
X45903810Y-34915714D01*
X45760952Y-34915714D01*
X45570476Y-34868095D01*
X45475238Y-34820476D01*
X45380000Y-34725238D01*
X45332381Y-34582380D01*
X45332381Y-34487142D01*
X45380000Y-34344285D01*
X45427619Y-34296666D01*
X46332381Y-33344285D02*
X46332381Y-33915714D01*
X46332381Y-33630000D02*
X45332381Y-33630000D01*
X45475238Y-33725238D01*
X45570476Y-33820476D01*
X45618095Y-33915714D01*
X30800952Y-30092381D02*
X30991429Y-30092381D01*
X31086667Y-30140000D01*
X31181905Y-30235238D01*
X31229524Y-30425714D01*
X31229524Y-30759048D01*
X31181905Y-30949524D01*
X31086667Y-31044762D01*
X30991429Y-31092381D01*
X30800952Y-31092381D01*
X30705714Y-31044762D01*
X30610476Y-30949524D01*
X30562857Y-30759048D01*
X30562857Y-30425714D01*
X30610476Y-30235238D01*
X30705714Y-30140000D01*
X30800952Y-30092381D01*
X31658095Y-30092381D02*
X31658095Y-30901905D01*
X31705714Y-30997143D01*
X31753333Y-31044762D01*
X31848571Y-31092381D01*
X32039048Y-31092381D01*
X32134286Y-31044762D01*
X32181905Y-30997143D01*
X32229524Y-30901905D01*
X32229524Y-30092381D01*
X32562857Y-30092381D02*
X33134286Y-30092381D01*
X32848571Y-31092381D02*
X32848571Y-30092381D01*
X33467619Y-30711429D02*
X34229524Y-30711429D01*
X30800952Y-40592381D02*
X30991429Y-40592381D01*
X31086667Y-40640000D01*
X31181905Y-40735238D01*
X31229524Y-40925714D01*
X31229524Y-41259048D01*
X31181905Y-41449524D01*
X31086667Y-41544762D01*
X30991429Y-41592381D01*
X30800952Y-41592381D01*
X30705714Y-41544762D01*
X30610476Y-41449524D01*
X30562857Y-41259048D01*
X30562857Y-40925714D01*
X30610476Y-40735238D01*
X30705714Y-40640000D01*
X30800952Y-40592381D01*
X31658095Y-40592381D02*
X31658095Y-41401905D01*
X31705714Y-41497143D01*
X31753333Y-41544762D01*
X31848571Y-41592381D01*
X32039048Y-41592381D01*
X32134286Y-41544762D01*
X32181905Y-41497143D01*
X32229524Y-41401905D01*
X32229524Y-40592381D01*
X32562857Y-40592381D02*
X33134286Y-40592381D01*
X32848571Y-41592381D02*
X32848571Y-40592381D01*
X33467619Y-41211429D02*
X34229524Y-41211429D01*
X33848572Y-41592381D02*
X33848572Y-40830476D01*
X18777143Y-41092381D02*
X18777143Y-40092381D01*
X19253333Y-41092381D02*
X19253333Y-40092381D01*
X19824762Y-41092381D01*
X19824762Y-40092381D01*
X20300952Y-40711429D02*
X21062857Y-40711429D01*
X20681905Y-41092381D02*
X20681905Y-40330476D01*
X18777143Y-31092381D02*
X18777143Y-30092381D01*
X19253333Y-31092381D02*
X19253333Y-30092381D01*
X19824762Y-31092381D01*
X19824762Y-30092381D01*
X20300952Y-30711429D02*
X21062857Y-30711429D01*
X91251905Y-8002381D02*
X91251905Y-7002381D01*
X91490000Y-7002381D01*
X91632858Y-7050000D01*
X91728096Y-7145238D01*
X91775715Y-7240476D01*
X91823334Y-7430952D01*
X91823334Y-7573810D01*
X91775715Y-7764286D01*
X91728096Y-7859524D01*
X91632858Y-7954762D01*
X91490000Y-8002381D01*
X91251905Y-8002381D01*
X92775715Y-8002381D02*
X92204286Y-8002381D01*
X92490000Y-8002381D02*
X92490000Y-7002381D01*
X92394762Y-7145238D01*
X92299524Y-7240476D01*
X92204286Y-7288095D01*
X79251905Y-6162381D02*
X79251905Y-5162381D01*
X79490000Y-5162381D01*
X79632858Y-5210000D01*
X79728096Y-5305238D01*
X79775715Y-5400476D01*
X79823334Y-5590952D01*
X79823334Y-5733810D01*
X79775715Y-5924286D01*
X79728096Y-6019524D01*
X79632858Y-6114762D01*
X79490000Y-6162381D01*
X79251905Y-6162381D01*
X80204286Y-5257619D02*
X80251905Y-5210000D01*
X80347143Y-5162381D01*
X80585239Y-5162381D01*
X80680477Y-5210000D01*
X80728096Y-5257619D01*
X80775715Y-5352857D01*
X80775715Y-5448095D01*
X80728096Y-5590952D01*
X80156667Y-6162381D01*
X80775715Y-6162381D01*
X67241905Y-4962381D02*
X67241905Y-3962381D01*
X67480000Y-3962381D01*
X67622858Y-4010000D01*
X67718096Y-4105238D01*
X67765715Y-4200476D01*
X67813334Y-4390952D01*
X67813334Y-4533810D01*
X67765715Y-4724286D01*
X67718096Y-4819524D01*
X67622858Y-4914762D01*
X67480000Y-4962381D01*
X67241905Y-4962381D01*
X68146667Y-3962381D02*
X68765715Y-3962381D01*
X68432381Y-4343333D01*
X68575239Y-4343333D01*
X68670477Y-4390952D01*
X68718096Y-4438571D01*
X68765715Y-4533810D01*
X68765715Y-4771905D01*
X68718096Y-4867143D01*
X68670477Y-4914762D01*
X68575239Y-4962381D01*
X68289524Y-4962381D01*
X68194286Y-4914762D01*
X68146667Y-4867143D01*
X55251905Y-4352381D02*
X55251905Y-3352381D01*
X55490000Y-3352381D01*
X55632858Y-3400000D01*
X55728096Y-3495238D01*
X55775715Y-3590476D01*
X55823334Y-3780952D01*
X55823334Y-3923810D01*
X55775715Y-4114286D01*
X55728096Y-4209524D01*
X55632858Y-4304762D01*
X55490000Y-4352381D01*
X55251905Y-4352381D01*
X56680477Y-3685714D02*
X56680477Y-4352381D01*
X56442381Y-3304762D02*
X56204286Y-4019048D01*
X56823334Y-4019048D01*
X43251905Y-4362381D02*
X43251905Y-3362381D01*
X43490000Y-3362381D01*
X43632858Y-3410000D01*
X43728096Y-3505238D01*
X43775715Y-3600476D01*
X43823334Y-3790952D01*
X43823334Y-3933810D01*
X43775715Y-4124286D01*
X43728096Y-4219524D01*
X43632858Y-4314762D01*
X43490000Y-4362381D01*
X43251905Y-4362381D01*
X44728096Y-3362381D02*
X44251905Y-3362381D01*
X44204286Y-3838571D01*
X44251905Y-3790952D01*
X44347143Y-3743333D01*
X44585239Y-3743333D01*
X44680477Y-3790952D01*
X44728096Y-3838571D01*
X44775715Y-3933810D01*
X44775715Y-4171905D01*
X44728096Y-4267143D01*
X44680477Y-4314762D01*
X44585239Y-4362381D01*
X44347143Y-4362381D01*
X44251905Y-4314762D01*
X44204286Y-4267143D01*
X31181905Y-4982381D02*
X31181905Y-3982381D01*
X31420000Y-3982381D01*
X31562858Y-4030000D01*
X31658096Y-4125238D01*
X31705715Y-4220476D01*
X31753334Y-4410952D01*
X31753334Y-4553810D01*
X31705715Y-4744286D01*
X31658096Y-4839524D01*
X31562858Y-4934762D01*
X31420000Y-4982381D01*
X31181905Y-4982381D01*
X32610477Y-3982381D02*
X32420000Y-3982381D01*
X32324762Y-4030000D01*
X32277143Y-4077619D01*
X32181905Y-4220476D01*
X32134286Y-4410952D01*
X32134286Y-4791905D01*
X32181905Y-4887143D01*
X32229524Y-4934762D01*
X32324762Y-4982381D01*
X32515239Y-4982381D01*
X32610477Y-4934762D01*
X32658096Y-4887143D01*
X32705715Y-4791905D01*
X32705715Y-4553810D01*
X32658096Y-4458571D01*
X32610477Y-4410952D01*
X32515239Y-4363333D01*
X32324762Y-4363333D01*
X32229524Y-4410952D01*
X32181905Y-4458571D01*
X32134286Y-4553810D01*
X19251905Y-6162381D02*
X19251905Y-5162381D01*
X19490000Y-5162381D01*
X19632858Y-5210000D01*
X19728096Y-5305238D01*
X19775715Y-5400476D01*
X19823334Y-5590952D01*
X19823334Y-5733810D01*
X19775715Y-5924286D01*
X19728096Y-6019524D01*
X19632858Y-6114762D01*
X19490000Y-6162381D01*
X19251905Y-6162381D01*
X20156667Y-5162381D02*
X20823334Y-5162381D01*
X20394762Y-6162381D01*
X7251905Y-7952381D02*
X7251905Y-6952381D01*
X7490000Y-6952381D01*
X7632858Y-7000000D01*
X7728096Y-7095238D01*
X7775715Y-7190476D01*
X7823334Y-7380952D01*
X7823334Y-7523810D01*
X7775715Y-7714286D01*
X7728096Y-7809524D01*
X7632858Y-7904762D01*
X7490000Y-7952381D01*
X7251905Y-7952381D01*
X8394762Y-7380952D02*
X8299524Y-7333333D01*
X8251905Y-7285714D01*
X8204286Y-7190476D01*
X8204286Y-7142857D01*
X8251905Y-7047619D01*
X8299524Y-7000000D01*
X8394762Y-6952381D01*
X8585239Y-6952381D01*
X8680477Y-7000000D01*
X8728096Y-7047619D01*
X8775715Y-7142857D01*
X8775715Y-7190476D01*
X8728096Y-7285714D01*
X8680477Y-7333333D01*
X8585239Y-7380952D01*
X8394762Y-7380952D01*
X8299524Y-7428571D01*
X8251905Y-7476190D01*
X8204286Y-7571429D01*
X8204286Y-7761905D01*
X8251905Y-7857143D01*
X8299524Y-7904762D01*
X8394762Y-7952381D01*
X8585239Y-7952381D01*
X8680477Y-7904762D01*
X8728096Y-7857143D01*
X8775715Y-7761905D01*
X8775715Y-7571429D01*
X8728096Y-7476190D01*
X8680477Y-7428571D01*
X8585239Y-7380952D01*
X31181905Y-17112381D02*
X31181905Y-16112381D01*
X31420000Y-16112381D01*
X31562858Y-16160000D01*
X31658096Y-16255238D01*
X31705715Y-16350476D01*
X31753334Y-16540952D01*
X31753334Y-16683810D01*
X31705715Y-16874286D01*
X31658096Y-16969524D01*
X31562858Y-17064762D01*
X31420000Y-17112381D01*
X31181905Y-17112381D01*
X32229524Y-17112381D02*
X32420000Y-17112381D01*
X32515239Y-17064762D01*
X32562858Y-17017143D01*
X32658096Y-16874286D01*
X32705715Y-16683810D01*
X32705715Y-16302857D01*
X32658096Y-16207619D01*
X32610477Y-16160000D01*
X32515239Y-16112381D01*
X32324762Y-16112381D01*
X32229524Y-16160000D01*
X32181905Y-16207619D01*
X32134286Y-16302857D01*
X32134286Y-16540952D01*
X32181905Y-16636190D01*
X32229524Y-16683810D01*
X32324762Y-16731429D01*
X32515239Y-16731429D01*
X32610477Y-16683810D01*
X32658096Y-16636190D01*
X32705715Y-16540952D01*
X66815714Y-17122381D02*
X66815714Y-16122381D01*
X67053809Y-16122381D01*
X67196667Y-16170000D01*
X67291905Y-16265238D01*
X67339524Y-16360476D01*
X67387143Y-16550952D01*
X67387143Y-16693810D01*
X67339524Y-16884286D01*
X67291905Y-16979524D01*
X67196667Y-17074762D01*
X67053809Y-17122381D01*
X66815714Y-17122381D01*
X68339524Y-17122381D02*
X67768095Y-17122381D01*
X68053809Y-17122381D02*
X68053809Y-16122381D01*
X67958571Y-16265238D01*
X67863333Y-16360476D01*
X67768095Y-16408095D01*
X68958571Y-16122381D02*
X69053810Y-16122381D01*
X69149048Y-16170000D01*
X69196667Y-16217619D01*
X69244286Y-16312857D01*
X69291905Y-16503333D01*
X69291905Y-16741429D01*
X69244286Y-16931905D01*
X69196667Y-17027143D01*
X69149048Y-17074762D01*
X69053810Y-17122381D01*
X68958571Y-17122381D01*
X68863333Y-17074762D01*
X68815714Y-17027143D01*
X68768095Y-16931905D01*
X68720476Y-16741429D01*
X68720476Y-16503333D01*
X68768095Y-16312857D01*
X68815714Y-16217619D01*
X68863333Y-16170000D01*
X68958571Y-16122381D01*
X99552381Y-10052857D02*
X99076190Y-10386191D01*
X99552381Y-10624286D02*
X98552381Y-10624286D01*
X98552381Y-10243333D01*
X98600000Y-10148095D01*
X98647619Y-10100476D01*
X98742857Y-10052857D01*
X98885714Y-10052857D01*
X98980952Y-10100476D01*
X99028571Y-10148095D01*
X99076190Y-10243333D01*
X99076190Y-10624286D01*
X99552381Y-9100476D02*
X99552381Y-9671905D01*
X99552381Y-9386191D02*
X98552381Y-9386191D01*
X98695238Y-9481429D01*
X98790476Y-9576667D01*
X98838095Y-9671905D01*
X98552381Y-8481429D02*
X98552381Y-8386190D01*
X98600000Y-8290952D01*
X98647619Y-8243333D01*
X98742857Y-8195714D01*
X98933333Y-8148095D01*
X99171429Y-8148095D01*
X99361905Y-8195714D01*
X99457143Y-8243333D01*
X99504762Y-8290952D01*
X99552381Y-8386190D01*
X99552381Y-8481429D01*
X99504762Y-8576667D01*
X99457143Y-8624286D01*
X99361905Y-8671905D01*
X99171429Y-8719524D01*
X98933333Y-8719524D01*
X98742857Y-8671905D01*
X98647619Y-8624286D01*
X98600000Y-8576667D01*
X98552381Y-8481429D01*
X77523334Y-38142381D02*
X77190000Y-37666190D01*
X76951905Y-38142381D02*
X76951905Y-37142381D01*
X77332858Y-37142381D01*
X77428096Y-37190000D01*
X77475715Y-37237619D01*
X77523334Y-37332857D01*
X77523334Y-37475714D01*
X77475715Y-37570952D01*
X77428096Y-37618571D01*
X77332858Y-37666190D01*
X76951905Y-37666190D01*
X78475715Y-38142381D02*
X77904286Y-38142381D01*
X78190000Y-38142381D02*
X78190000Y-37142381D01*
X78094762Y-37285238D01*
X77999524Y-37380476D01*
X77904286Y-37428095D01*
X77523334Y-46762381D02*
X77190000Y-46286190D01*
X76951905Y-46762381D02*
X76951905Y-45762381D01*
X77332858Y-45762381D01*
X77428096Y-45810000D01*
X77475715Y-45857619D01*
X77523334Y-45952857D01*
X77523334Y-46095714D01*
X77475715Y-46190952D01*
X77428096Y-46238571D01*
X77332858Y-46286190D01*
X76951905Y-46286190D01*
X77904286Y-45857619D02*
X77951905Y-45810000D01*
X78047143Y-45762381D01*
X78285239Y-45762381D01*
X78380477Y-45810000D01*
X78428096Y-45857619D01*
X78475715Y-45952857D01*
X78475715Y-46048095D01*
X78428096Y-46190952D01*
X77856667Y-46762381D01*
X78475715Y-46762381D01*
X77643334Y-60642381D02*
X77310000Y-60166190D01*
X77071905Y-60642381D02*
X77071905Y-59642381D01*
X77452858Y-59642381D01*
X77548096Y-59690000D01*
X77595715Y-59737619D01*
X77643334Y-59832857D01*
X77643334Y-59975714D01*
X77595715Y-60070952D01*
X77548096Y-60118571D01*
X77452858Y-60166190D01*
X77071905Y-60166190D01*
X77976667Y-59642381D02*
X78595715Y-59642381D01*
X78262381Y-60023333D01*
X78405239Y-60023333D01*
X78500477Y-60070952D01*
X78548096Y-60118571D01*
X78595715Y-60213810D01*
X78595715Y-60451905D01*
X78548096Y-60547143D01*
X78500477Y-60594762D01*
X78405239Y-60642381D01*
X78119524Y-60642381D01*
X78024286Y-60594762D01*
X77976667Y-60547143D01*
X77643334Y-69262381D02*
X77310000Y-68786190D01*
X77071905Y-69262381D02*
X77071905Y-68262381D01*
X77452858Y-68262381D01*
X77548096Y-68310000D01*
X77595715Y-68357619D01*
X77643334Y-68452857D01*
X77643334Y-68595714D01*
X77595715Y-68690952D01*
X77548096Y-68738571D01*
X77452858Y-68786190D01*
X77071905Y-68786190D01*
X78500477Y-68595714D02*
X78500477Y-69262381D01*
X78262381Y-68214762D02*
X78024286Y-68929048D01*
X78643334Y-68929048D01*
X77643334Y-49642381D02*
X77310000Y-49166190D01*
X77071905Y-49642381D02*
X77071905Y-48642381D01*
X77452858Y-48642381D01*
X77548096Y-48690000D01*
X77595715Y-48737619D01*
X77643334Y-48832857D01*
X77643334Y-48975714D01*
X77595715Y-49070952D01*
X77548096Y-49118571D01*
X77452858Y-49166190D01*
X77071905Y-49166190D01*
X78548096Y-48642381D02*
X78071905Y-48642381D01*
X78024286Y-49118571D01*
X78071905Y-49070952D01*
X78167143Y-49023333D01*
X78405239Y-49023333D01*
X78500477Y-49070952D01*
X78548096Y-49118571D01*
X78595715Y-49213810D01*
X78595715Y-49451905D01*
X78548096Y-49547143D01*
X78500477Y-49594762D01*
X78405239Y-49642381D01*
X78167143Y-49642381D01*
X78071905Y-49594762D01*
X78024286Y-49547143D01*
X77643334Y-58192381D02*
X77310000Y-57716190D01*
X77071905Y-58192381D02*
X77071905Y-57192381D01*
X77452858Y-57192381D01*
X77548096Y-57240000D01*
X77595715Y-57287619D01*
X77643334Y-57382857D01*
X77643334Y-57525714D01*
X77595715Y-57620952D01*
X77548096Y-57668571D01*
X77452858Y-57716190D01*
X77071905Y-57716190D01*
X78500477Y-57192381D02*
X78310000Y-57192381D01*
X78214762Y-57240000D01*
X78167143Y-57287619D01*
X78071905Y-57430476D01*
X78024286Y-57620952D01*
X78024286Y-58001905D01*
X78071905Y-58097143D01*
X78119524Y-58144762D01*
X78214762Y-58192381D01*
X78405239Y-58192381D01*
X78500477Y-58144762D01*
X78548096Y-58097143D01*
X78595715Y-58001905D01*
X78595715Y-57763810D01*
X78548096Y-57668571D01*
X78500477Y-57620952D01*
X78405239Y-57573333D01*
X78214762Y-57573333D01*
X78119524Y-57620952D01*
X78071905Y-57668571D01*
X78024286Y-57763810D01*
X77523334Y-27142381D02*
X77190000Y-26666190D01*
X76951905Y-27142381D02*
X76951905Y-26142381D01*
X77332858Y-26142381D01*
X77428096Y-26190000D01*
X77475715Y-26237619D01*
X77523334Y-26332857D01*
X77523334Y-26475714D01*
X77475715Y-26570952D01*
X77428096Y-26618571D01*
X77332858Y-26666190D01*
X76951905Y-26666190D01*
X77856667Y-26142381D02*
X78523334Y-26142381D01*
X78094762Y-27142381D01*
X77513334Y-35792381D02*
X77180000Y-35316190D01*
X76941905Y-35792381D02*
X76941905Y-34792381D01*
X77322858Y-34792381D01*
X77418096Y-34840000D01*
X77465715Y-34887619D01*
X77513334Y-34982857D01*
X77513334Y-35125714D01*
X77465715Y-35220952D01*
X77418096Y-35268571D01*
X77322858Y-35316190D01*
X76941905Y-35316190D01*
X78084762Y-35220952D02*
X77989524Y-35173333D01*
X77941905Y-35125714D01*
X77894286Y-35030476D01*
X77894286Y-34982857D01*
X77941905Y-34887619D01*
X77989524Y-34840000D01*
X78084762Y-34792381D01*
X78275239Y-34792381D01*
X78370477Y-34840000D01*
X78418096Y-34887619D01*
X78465715Y-34982857D01*
X78465715Y-35030476D01*
X78418096Y-35125714D01*
X78370477Y-35173333D01*
X78275239Y-35220952D01*
X78084762Y-35220952D01*
X77989524Y-35268571D01*
X77941905Y-35316190D01*
X77894286Y-35411429D01*
X77894286Y-35601905D01*
X77941905Y-35697143D01*
X77989524Y-35744762D01*
X78084762Y-35792381D01*
X78275239Y-35792381D01*
X78370477Y-35744762D01*
X78418096Y-35697143D01*
X78465715Y-35601905D01*
X78465715Y-35411429D01*
X78418096Y-35316190D01*
X78370477Y-35268571D01*
X78275239Y-35220952D01*
X90643334Y-67642381D02*
X90310000Y-67166190D01*
X90071905Y-67642381D02*
X90071905Y-66642381D01*
X90452858Y-66642381D01*
X90548096Y-66690000D01*
X90595715Y-66737619D01*
X90643334Y-66832857D01*
X90643334Y-66975714D01*
X90595715Y-67070952D01*
X90548096Y-67118571D01*
X90452858Y-67166190D01*
X90071905Y-67166190D01*
X91119524Y-67642381D02*
X91310000Y-67642381D01*
X91405239Y-67594762D01*
X91452858Y-67547143D01*
X91548096Y-67404286D01*
X91595715Y-67213810D01*
X91595715Y-66832857D01*
X91548096Y-66737619D01*
X91500477Y-66690000D01*
X91405239Y-66642381D01*
X91214762Y-66642381D01*
X91119524Y-66690000D01*
X91071905Y-66737619D01*
X91024286Y-66832857D01*
X91024286Y-67070952D01*
X91071905Y-67166190D01*
X91119524Y-67213810D01*
X91214762Y-67261429D01*
X91405239Y-67261429D01*
X91500477Y-67213810D01*
X91548096Y-67166190D01*
X91595715Y-67070952D01*
M02*
