G04 #@! TF.FileFunction,Copper,L2,Bot,Signal*
%FSLAX46Y46*%
G04 Gerber Fmt 4.6, Leading zero omitted, Abs format (unit mm)*
G04 Created by KiCad (PCBNEW 4.0.7) date 06/03/18 23:49:29*
%MOMM*%
%LPD*%
G01*
G04 APERTURE LIST*
%ADD10C,0.100000*%
%ADD11C,1.524000*%
%ADD12R,2.000000X2.000000*%
%ADD13O,2.000000X2.000000*%
%ADD14C,1.600000*%
%ADD15R,1.600000X1.600000*%
%ADD16C,1.900000*%
%ADD17R,1.070000X1.800000*%
%ADD18O,1.070000X1.800000*%
%ADD19C,1.530000*%
%ADD20R,2.000000X2.600000*%
%ADD21O,2.000000X2.600000*%
%ADD22O,1.600000X1.600000*%
%ADD23C,1.000000*%
%ADD24C,2.000000*%
%ADD25C,0.700000*%
%ADD26C,0.254000*%
G04 APERTURE END LIST*
D10*
D11*
X39420000Y-55450000D03*
X39420000Y-52910000D03*
X39420000Y-50370000D03*
X39420000Y-47830000D03*
X19420000Y-54180000D03*
X19420000Y-49100000D03*
D12*
X41770000Y-43030000D03*
D13*
X41770000Y-28030000D03*
D11*
X35691000Y-39704000D03*
X35691000Y-42244000D03*
X35691000Y-29036000D03*
X35691000Y-31576000D03*
X17149000Y-39704000D03*
X17149000Y-31576000D03*
X17149000Y-42244000D03*
X17149000Y-29036000D03*
D14*
X62340000Y-62500000D03*
X64880000Y-62500000D03*
X67420000Y-62500000D03*
X69960000Y-62500000D03*
X59800000Y-62500000D03*
X57260000Y-62500000D03*
X54720000Y-62500000D03*
X69960000Y-59960000D03*
X69960000Y-57420000D03*
X69960000Y-54880000D03*
X69960000Y-52340000D03*
X69960000Y-49800000D03*
X69960000Y-47260000D03*
X69960000Y-44720000D03*
X69960000Y-42180000D03*
X69960000Y-39640000D03*
X69960000Y-37100000D03*
X69960000Y-34560000D03*
X69960000Y-32020000D03*
X69960000Y-29480000D03*
X67420000Y-32020000D03*
X67420000Y-37100000D03*
X67420000Y-39640000D03*
X67420000Y-42180000D03*
X54720000Y-59960000D03*
X54720000Y-57420000D03*
X54720000Y-54880000D03*
X54720000Y-52340000D03*
X54720000Y-49800000D03*
X54720000Y-47260000D03*
X54720000Y-44720000D03*
X54720000Y-42180000D03*
X54720000Y-39640000D03*
X54720000Y-37100000D03*
X54720000Y-34560000D03*
X54720000Y-32020000D03*
D15*
X54720000Y-29480000D03*
D14*
X62340000Y-44720000D03*
X62340000Y-47260000D03*
X62340000Y-49800000D03*
X62340000Y-52340000D03*
X62340000Y-54880000D03*
X62340000Y-57420000D03*
X62340000Y-59960000D03*
X64880000Y-59960000D03*
X64880000Y-57420000D03*
X64880000Y-54880000D03*
X64880000Y-52340000D03*
X64880000Y-49800000D03*
X64880000Y-47260000D03*
X64880000Y-44720000D03*
D16*
X62340000Y-35830000D03*
D17*
X94850000Y-9710000D03*
D18*
X92950000Y-9710000D03*
X91050000Y-9710000D03*
X89150000Y-9710000D03*
D17*
X82850000Y-7870000D03*
D18*
X80950000Y-7870000D03*
X79050000Y-7870000D03*
X77150000Y-7870000D03*
D17*
X70840000Y-6670000D03*
D18*
X68940000Y-6670000D03*
X67040000Y-6670000D03*
X65140000Y-6670000D03*
D17*
X58850000Y-6060000D03*
D18*
X56950000Y-6060000D03*
X55050000Y-6060000D03*
X53150000Y-6060000D03*
D17*
X46850000Y-6070000D03*
D18*
X44950000Y-6070000D03*
X43050000Y-6070000D03*
X41150000Y-6070000D03*
D17*
X34780000Y-6690000D03*
D18*
X32880000Y-6690000D03*
X30980000Y-6690000D03*
X29080000Y-6690000D03*
D17*
X22850000Y-7870000D03*
D18*
X20950000Y-7870000D03*
X19050000Y-7870000D03*
X17150000Y-7870000D03*
D17*
X10850000Y-9670000D03*
D18*
X8950000Y-9670000D03*
X7050000Y-9670000D03*
X5150000Y-9670000D03*
D17*
X29060000Y-14500000D03*
D18*
X30960000Y-14500000D03*
X32860000Y-14500000D03*
X34760000Y-14500000D03*
D17*
X65170000Y-14510000D03*
D18*
X67070000Y-14510000D03*
X68970000Y-14510000D03*
D19*
X6000000Y-44500000D03*
X6000000Y-47500000D03*
X6000000Y-50500000D03*
X6000000Y-53500000D03*
X95000000Y-35500000D03*
X95000000Y-38500000D03*
X95000000Y-41500000D03*
X86000000Y-35500000D03*
X86000000Y-38500000D03*
X86000000Y-41500000D03*
X95000000Y-57500000D03*
X95000000Y-60500000D03*
X95000000Y-63500000D03*
X86000000Y-57500000D03*
X86000000Y-60500000D03*
X86000000Y-63500000D03*
D20*
X24340000Y-61640000D03*
D21*
X26880000Y-61640000D03*
X29420000Y-61640000D03*
D20*
X95989999Y-15710000D03*
D21*
X93449999Y-15710000D03*
X90909999Y-15710000D03*
D20*
X37800000Y-61640000D03*
D21*
X40340000Y-61640000D03*
X42880000Y-61640000D03*
X45420000Y-61640000D03*
D14*
X73880000Y-40000000D03*
D22*
X81500000Y-40000000D03*
D14*
X81500000Y-44000000D03*
D22*
X73880000Y-44000000D03*
D14*
X74000000Y-62500000D03*
D22*
X81620000Y-62500000D03*
D14*
X81620000Y-66500000D03*
D22*
X74000000Y-66500000D03*
D14*
X74000000Y-51500000D03*
D22*
X81620000Y-51500000D03*
D14*
X81620000Y-55430000D03*
D22*
X74000000Y-55430000D03*
D14*
X73880000Y-29000000D03*
D22*
X81500000Y-29000000D03*
D14*
X81490000Y-33030000D03*
D22*
X73870000Y-33030000D03*
D14*
X87000000Y-69500000D03*
D22*
X94620000Y-69500000D03*
D23*
X43050000Y-6070000D02*
X43050000Y-4725221D01*
X43050000Y-4725221D02*
X42284769Y-3959990D01*
X42284769Y-3959990D02*
X31000000Y-3959990D01*
X66000000Y-3959990D02*
X55278761Y-3959990D01*
X55278761Y-3959990D02*
X55053743Y-4185008D01*
X55053743Y-4185008D02*
X55053743Y-6019960D01*
X55053743Y-6019960D02*
X55100198Y-6066415D01*
D24*
X71792416Y-3959990D02*
X66000000Y-3959990D01*
D23*
X67040000Y-4770000D02*
X66229990Y-3959990D01*
D24*
X66000000Y-3959990D02*
X44500000Y-3959990D01*
D23*
X67040000Y-6670000D02*
X67040000Y-4770000D01*
X66229990Y-3959990D02*
X66000000Y-3959990D01*
X55050000Y-6060000D02*
X55050000Y-4160000D01*
X55050000Y-4160000D02*
X54849990Y-3959990D01*
X54849990Y-3959990D02*
X44500000Y-3959990D01*
D24*
X44500000Y-3959990D02*
X31000000Y-3959990D01*
D23*
X43050000Y-6070000D02*
X43050000Y-4170000D01*
X43050000Y-4170000D02*
X43260010Y-3959990D01*
X43260010Y-3959990D02*
X44500000Y-3959990D01*
D24*
X31000000Y-3959990D02*
X28603157Y-3959990D01*
D23*
X30980000Y-6690000D02*
X30980000Y-4790000D01*
X31000000Y-4770000D02*
X31000000Y-3959990D01*
X30980000Y-4790000D02*
X31000000Y-4770000D01*
D24*
X91050000Y-5550000D02*
X90637518Y-5137518D01*
X90637518Y-5137518D02*
X72969944Y-5137518D01*
X28603157Y-3959990D02*
X27223023Y-5340124D01*
X72969944Y-5137518D02*
X71792416Y-3959990D01*
X27223023Y-5340124D02*
X7659876Y-5340124D01*
X7659876Y-5340124D02*
X7000000Y-6000000D01*
D23*
X91050000Y-9710000D02*
X91050000Y-5550000D01*
X7000000Y-9255000D02*
X7000000Y-6000000D01*
X7050000Y-9670000D02*
X7050000Y-9305000D01*
X7050000Y-9305000D02*
X7000000Y-9255000D01*
D25*
X95989999Y-15710000D02*
X95989999Y-14134623D01*
X95989999Y-14134623D02*
X92950000Y-11094624D01*
X30960000Y-14135000D02*
X30960000Y-12376255D01*
X30960000Y-12376255D02*
X32206264Y-11129991D01*
X32206264Y-11129991D02*
X65629991Y-11129991D01*
X65629991Y-11129991D02*
X67070000Y-12570000D01*
X67070000Y-12570000D02*
X67070000Y-14510000D01*
X8950000Y-9670000D02*
X8950000Y-10947516D01*
X30960000Y-12170650D02*
X30960000Y-14135000D01*
X8950000Y-10947516D02*
X9197432Y-11194948D01*
X9197432Y-11194948D02*
X29984298Y-11194948D01*
X29984298Y-11194948D02*
X30960000Y-12170650D01*
X92950000Y-11094624D02*
X92950000Y-9710000D01*
X30960000Y-14135000D02*
X30960000Y-14500000D01*
D26*
G36*
X99165000Y-5685219D02*
X99165000Y-17165000D01*
X97606051Y-17165000D01*
X97637439Y-17010000D01*
X97637439Y-14410000D01*
X97593161Y-14174683D01*
X97454089Y-13958559D01*
X97241889Y-13813569D01*
X96989999Y-13762560D01*
X96900991Y-13762560D01*
X96900020Y-13757680D01*
X96686499Y-13438123D01*
X94505816Y-11257440D01*
X95385000Y-11257440D01*
X95620317Y-11213162D01*
X95836441Y-11074090D01*
X95981431Y-10861890D01*
X96032440Y-10610000D01*
X96032440Y-8810000D01*
X95988162Y-8574683D01*
X95849090Y-8358559D01*
X95636890Y-8213569D01*
X95385000Y-8162560D01*
X94315000Y-8162560D01*
X94079683Y-8206838D01*
X93863559Y-8345910D01*
X93770053Y-8482761D01*
X93397740Y-8233989D01*
X92950000Y-8144928D01*
X92502260Y-8233989D01*
X92122685Y-8487613D01*
X91995655Y-8677726D01*
X91730487Y-8394780D01*
X91492387Y-8261859D01*
X91317500Y-8369772D01*
X91317500Y-9337000D01*
X91443000Y-9337000D01*
X91443000Y-10083000D01*
X91317500Y-10083000D01*
X91317500Y-11050228D01*
X91492387Y-11158141D01*
X91730487Y-11025220D01*
X91965000Y-10774984D01*
X91965000Y-11094624D01*
X92039979Y-11471567D01*
X92253500Y-11791124D01*
X94485678Y-14023302D01*
X94433048Y-14100329D01*
X94075686Y-13861548D01*
X93449999Y-13737091D01*
X92824312Y-13861548D01*
X92293879Y-14215971D01*
X92166524Y-14406571D01*
X91807065Y-14051099D01*
X91527432Y-13896065D01*
X91282999Y-13981650D01*
X91282999Y-15337000D01*
X91302999Y-15337000D01*
X91302999Y-16083000D01*
X91282999Y-16083000D01*
X91282999Y-16103000D01*
X90536999Y-16103000D01*
X90536999Y-16083000D01*
X89442092Y-16083000D01*
X89314789Y-16336566D01*
X89561189Y-16922168D01*
X89806745Y-17165000D01*
X75500000Y-17165000D01*
X75419341Y-17181044D01*
X74954417Y-17257164D01*
X74684661Y-17368901D01*
X74653416Y-17381843D01*
X74328992Y-17598616D01*
X74098616Y-17828992D01*
X74069211Y-17873000D01*
X66430789Y-17873000D01*
X66401384Y-17828992D01*
X66171007Y-17598616D01*
X66171006Y-17598615D01*
X65846586Y-17381844D01*
X65696085Y-17319505D01*
X65545585Y-17257165D01*
X65162901Y-17181044D01*
X65080658Y-17181044D01*
X65000000Y-17165000D01*
X35000000Y-17165000D01*
X34919341Y-17181044D01*
X34454417Y-17257164D01*
X34184661Y-17368901D01*
X34153416Y-17381843D01*
X33828992Y-17598616D01*
X33598616Y-17828992D01*
X33569211Y-17873000D01*
X25930789Y-17873000D01*
X25901384Y-17828992D01*
X25671008Y-17598616D01*
X25346584Y-17381843D01*
X25045583Y-17257164D01*
X24662900Y-17181044D01*
X24580659Y-17181044D01*
X24500000Y-17165000D01*
X835000Y-17165000D01*
X835000Y-14942619D01*
X17764613Y-14942619D01*
X18104155Y-15764372D01*
X18732321Y-16393636D01*
X19553481Y-16734611D01*
X20442619Y-16735387D01*
X21264372Y-16395845D01*
X21893636Y-15767679D01*
X22234611Y-14946519D01*
X22235387Y-14057381D01*
X21895845Y-13235628D01*
X21267679Y-12606364D01*
X20446519Y-12265389D01*
X19557381Y-12264613D01*
X18735628Y-12604155D01*
X18106364Y-13232321D01*
X17765389Y-14053481D01*
X17764613Y-14942619D01*
X835000Y-14942619D01*
X835000Y-9274928D01*
X3980000Y-9274928D01*
X3980000Y-10065072D01*
X4069061Y-10512812D01*
X4322685Y-10892387D01*
X4702260Y-11146011D01*
X5150000Y-11235072D01*
X5597740Y-11146011D01*
X5977315Y-10892387D01*
X6104345Y-10702274D01*
X6369513Y-10985220D01*
X6607613Y-11118141D01*
X6782500Y-11010228D01*
X6782500Y-10043000D01*
X6657000Y-10043000D01*
X6657000Y-9297000D01*
X6782500Y-9297000D01*
X6782500Y-8329772D01*
X7317500Y-8329772D01*
X7317500Y-9297000D01*
X7443000Y-9297000D01*
X7443000Y-10043000D01*
X7317500Y-10043000D01*
X7317500Y-11010228D01*
X7492387Y-11118141D01*
X7730487Y-10985220D01*
X7965000Y-10734984D01*
X7965000Y-10947516D01*
X8039979Y-11324459D01*
X8253500Y-11644016D01*
X8500932Y-11891448D01*
X8820489Y-12104969D01*
X9197432Y-12179948D01*
X29576298Y-12179948D01*
X29975000Y-12578650D01*
X29975000Y-13091103D01*
X29846890Y-13003569D01*
X29595000Y-12952560D01*
X28525000Y-12952560D01*
X28289683Y-12996838D01*
X28073559Y-13135910D01*
X27928569Y-13348110D01*
X27877560Y-13600000D01*
X27877560Y-15400000D01*
X27921838Y-15635317D01*
X28060910Y-15851441D01*
X28273110Y-15996431D01*
X28525000Y-16047440D01*
X29595000Y-16047440D01*
X29830317Y-16003162D01*
X30046441Y-15864090D01*
X30139947Y-15727239D01*
X30512260Y-15976011D01*
X30960000Y-16065072D01*
X31407740Y-15976011D01*
X31787315Y-15722387D01*
X31914345Y-15532274D01*
X32179513Y-15815220D01*
X32417613Y-15948141D01*
X32592500Y-15840228D01*
X32592500Y-14873000D01*
X32467000Y-14873000D01*
X32467000Y-14127000D01*
X32592500Y-14127000D01*
X32592500Y-13159772D01*
X33127500Y-13159772D01*
X33127500Y-14127000D01*
X33253000Y-14127000D01*
X33253000Y-14873000D01*
X33127500Y-14873000D01*
X33127500Y-15840228D01*
X33302387Y-15948141D01*
X33540487Y-15815220D01*
X33805655Y-15532274D01*
X33932685Y-15722387D01*
X34312260Y-15976011D01*
X34760000Y-16065072D01*
X35207740Y-15976011D01*
X35587315Y-15722387D01*
X35840939Y-15342812D01*
X35930000Y-14895072D01*
X35930000Y-14104928D01*
X35840939Y-13657188D01*
X35587315Y-13277613D01*
X35207740Y-13023989D01*
X34760000Y-12934928D01*
X34312260Y-13023989D01*
X33932685Y-13277613D01*
X33805655Y-13467726D01*
X33540487Y-13184780D01*
X33302387Y-13051859D01*
X33127500Y-13159772D01*
X32592500Y-13159772D01*
X32417613Y-13051859D01*
X32179513Y-13184780D01*
X31945000Y-13435016D01*
X31945000Y-12784255D01*
X32614264Y-12114991D01*
X65221991Y-12114991D01*
X66085000Y-12978000D01*
X66085000Y-13101103D01*
X65956890Y-13013569D01*
X65705000Y-12962560D01*
X64635000Y-12962560D01*
X64399683Y-13006838D01*
X64183559Y-13145910D01*
X64038569Y-13358110D01*
X63987560Y-13610000D01*
X63987560Y-15410000D01*
X64031838Y-15645317D01*
X64170910Y-15861441D01*
X64383110Y-16006431D01*
X64635000Y-16057440D01*
X65705000Y-16057440D01*
X65940317Y-16013162D01*
X66156441Y-15874090D01*
X66249947Y-15737239D01*
X66622260Y-15986011D01*
X67070000Y-16075072D01*
X67517740Y-15986011D01*
X67897315Y-15732387D01*
X68024345Y-15542274D01*
X68289513Y-15825220D01*
X68527613Y-15958141D01*
X68702500Y-15850228D01*
X68702500Y-14883000D01*
X69237500Y-14883000D01*
X69237500Y-15850228D01*
X69412387Y-15958141D01*
X69650487Y-15825220D01*
X69962322Y-15492478D01*
X70123085Y-15065730D01*
X70026668Y-14942619D01*
X77764613Y-14942619D01*
X78104155Y-15764372D01*
X78732321Y-16393636D01*
X79553481Y-16734611D01*
X80442619Y-16735387D01*
X81264372Y-16395845D01*
X81893636Y-15767679D01*
X82177758Y-15083434D01*
X89314789Y-15083434D01*
X89442092Y-15337000D01*
X90536999Y-15337000D01*
X90536999Y-13981650D01*
X90292566Y-13896065D01*
X90012933Y-14051099D01*
X89561189Y-14497832D01*
X89314789Y-15083434D01*
X82177758Y-15083434D01*
X82234611Y-14946519D01*
X82235387Y-14057381D01*
X81895845Y-13235628D01*
X81267679Y-12606364D01*
X80446519Y-12265389D01*
X79557381Y-12264613D01*
X78735628Y-12604155D01*
X78106364Y-13232321D01*
X77765389Y-14053481D01*
X77764613Y-14942619D01*
X70026668Y-14942619D01*
X69979975Y-14883000D01*
X69237500Y-14883000D01*
X68702500Y-14883000D01*
X68577000Y-14883000D01*
X68577000Y-14137000D01*
X68702500Y-14137000D01*
X68702500Y-13169772D01*
X69237500Y-13169772D01*
X69237500Y-14137000D01*
X69979975Y-14137000D01*
X70123085Y-13954270D01*
X69962322Y-13527522D01*
X69650487Y-13194780D01*
X69412387Y-13061859D01*
X69237500Y-13169772D01*
X68702500Y-13169772D01*
X68527613Y-13061859D01*
X68289513Y-13194780D01*
X68055000Y-13445016D01*
X68055000Y-12570000D01*
X67980021Y-12193057D01*
X67766500Y-11873500D01*
X66326491Y-10433491D01*
X66006934Y-10219970D01*
X65629991Y-10144991D01*
X32206264Y-10144991D01*
X31879705Y-10209948D01*
X31829321Y-10219970D01*
X31509764Y-10433491D01*
X31062803Y-10880453D01*
X30680798Y-10498448D01*
X30361241Y-10284927D01*
X29984298Y-10209948D01*
X12032440Y-10209948D01*
X12032440Y-8770000D01*
X11988162Y-8534683D01*
X11849090Y-8318559D01*
X11636890Y-8173569D01*
X11385000Y-8122560D01*
X10315000Y-8122560D01*
X10079683Y-8166838D01*
X9863559Y-8305910D01*
X9770053Y-8442761D01*
X9397740Y-8193989D01*
X8950000Y-8104928D01*
X8502260Y-8193989D01*
X8122685Y-8447613D01*
X7995655Y-8637726D01*
X7730487Y-8354780D01*
X7492387Y-8221859D01*
X7317500Y-8329772D01*
X6782500Y-8329772D01*
X6607613Y-8221859D01*
X6369513Y-8354780D01*
X6104345Y-8637726D01*
X5977315Y-8447613D01*
X5597740Y-8193989D01*
X5150000Y-8104928D01*
X4702260Y-8193989D01*
X4322685Y-8447613D01*
X4069061Y-8827188D01*
X3980000Y-9274928D01*
X835000Y-9274928D01*
X835000Y-7474928D01*
X15980000Y-7474928D01*
X15980000Y-8265072D01*
X16069061Y-8712812D01*
X16322685Y-9092387D01*
X16702260Y-9346011D01*
X17150000Y-9435072D01*
X17597740Y-9346011D01*
X17977315Y-9092387D01*
X18104345Y-8902274D01*
X18369513Y-9185220D01*
X18607613Y-9318141D01*
X18782500Y-9210228D01*
X18782500Y-8243000D01*
X18657000Y-8243000D01*
X18657000Y-7497000D01*
X18782500Y-7497000D01*
X18782500Y-6529772D01*
X19317500Y-6529772D01*
X19317500Y-7497000D01*
X19443000Y-7497000D01*
X19443000Y-8243000D01*
X19317500Y-8243000D01*
X19317500Y-9210228D01*
X19492387Y-9318141D01*
X19730487Y-9185220D01*
X19995655Y-8902274D01*
X20122685Y-9092387D01*
X20502260Y-9346011D01*
X20950000Y-9435072D01*
X21397740Y-9346011D01*
X21770707Y-9096802D01*
X21850910Y-9221441D01*
X22063110Y-9366431D01*
X22315000Y-9417440D01*
X23385000Y-9417440D01*
X23620317Y-9373162D01*
X23836441Y-9234090D01*
X23981431Y-9021890D01*
X24032440Y-8770000D01*
X24032440Y-6970000D01*
X23988162Y-6734683D01*
X23849090Y-6518559D01*
X23636890Y-6373569D01*
X23385000Y-6322560D01*
X22315000Y-6322560D01*
X22079683Y-6366838D01*
X21863559Y-6505910D01*
X21770053Y-6642761D01*
X21397740Y-6393989D01*
X20950000Y-6304928D01*
X20502260Y-6393989D01*
X20122685Y-6647613D01*
X19995655Y-6837726D01*
X19730487Y-6554780D01*
X19492387Y-6421859D01*
X19317500Y-6529772D01*
X18782500Y-6529772D01*
X18607613Y-6421859D01*
X18369513Y-6554780D01*
X18104345Y-6837726D01*
X17977315Y-6647613D01*
X17597740Y-6393989D01*
X17150000Y-6304928D01*
X16702260Y-6393989D01*
X16322685Y-6647613D01*
X16069061Y-7027188D01*
X15980000Y-7474928D01*
X835000Y-7474928D01*
X835000Y-5828167D01*
X28161814Y-5603612D01*
X27999061Y-5847188D01*
X27910000Y-6294928D01*
X27910000Y-7085072D01*
X27999061Y-7532812D01*
X28252685Y-7912387D01*
X28632260Y-8166011D01*
X29080000Y-8255072D01*
X29527740Y-8166011D01*
X29907315Y-7912387D01*
X30034345Y-7722274D01*
X30299513Y-8005220D01*
X30537613Y-8138141D01*
X30712500Y-8030228D01*
X30712500Y-7063000D01*
X30587000Y-7063000D01*
X30587000Y-6317000D01*
X30712500Y-6317000D01*
X30712500Y-6297000D01*
X31247500Y-6297000D01*
X31247500Y-6317000D01*
X31373000Y-6317000D01*
X31373000Y-7063000D01*
X31247500Y-7063000D01*
X31247500Y-8030228D01*
X31422387Y-8138141D01*
X31660487Y-8005220D01*
X31925655Y-7722274D01*
X32052685Y-7912387D01*
X32432260Y-8166011D01*
X32880000Y-8255072D01*
X33327740Y-8166011D01*
X33700707Y-7916802D01*
X33780910Y-8041441D01*
X33993110Y-8186431D01*
X34245000Y-8237440D01*
X35315000Y-8237440D01*
X35550317Y-8193162D01*
X35766441Y-8054090D01*
X35911431Y-7841890D01*
X35962440Y-7590000D01*
X35962440Y-5790000D01*
X35918162Y-5554683D01*
X35908683Y-5539953D01*
X40013558Y-5506221D01*
X39980000Y-5674928D01*
X39980000Y-6465072D01*
X40069061Y-6912812D01*
X40322685Y-7292387D01*
X40702260Y-7546011D01*
X41150000Y-7635072D01*
X41597740Y-7546011D01*
X41977315Y-7292387D01*
X42104345Y-7102274D01*
X42369513Y-7385220D01*
X42607613Y-7518141D01*
X42782500Y-7410228D01*
X42782500Y-6443000D01*
X42657000Y-6443000D01*
X42657000Y-5697000D01*
X42782500Y-5697000D01*
X42782500Y-5677000D01*
X43317500Y-5677000D01*
X43317500Y-5697000D01*
X43443000Y-5697000D01*
X43443000Y-6443000D01*
X43317500Y-6443000D01*
X43317500Y-7410228D01*
X43492387Y-7518141D01*
X43730487Y-7385220D01*
X43995655Y-7102274D01*
X44122685Y-7292387D01*
X44502260Y-7546011D01*
X44950000Y-7635072D01*
X45397740Y-7546011D01*
X45770707Y-7296802D01*
X45850910Y-7421441D01*
X46063110Y-7566431D01*
X46315000Y-7617440D01*
X47385000Y-7617440D01*
X47620317Y-7573162D01*
X47836441Y-7434090D01*
X47981431Y-7221890D01*
X48032440Y-6970000D01*
X48032440Y-5440327D01*
X52031212Y-5407467D01*
X51980000Y-5664928D01*
X51980000Y-6455072D01*
X52069061Y-6902812D01*
X52322685Y-7282387D01*
X52702260Y-7536011D01*
X53150000Y-7625072D01*
X53597740Y-7536011D01*
X53977315Y-7282387D01*
X54104345Y-7092274D01*
X54369513Y-7375220D01*
X54607613Y-7508141D01*
X54782500Y-7400228D01*
X54782500Y-6433000D01*
X54657000Y-6433000D01*
X54657000Y-5687000D01*
X54782500Y-5687000D01*
X54782500Y-5667000D01*
X55317500Y-5667000D01*
X55317500Y-5687000D01*
X55443000Y-5687000D01*
X55443000Y-6433000D01*
X55317500Y-6433000D01*
X55317500Y-7400228D01*
X55492387Y-7508141D01*
X55730487Y-7375220D01*
X55995655Y-7092274D01*
X56122685Y-7282387D01*
X56502260Y-7536011D01*
X56950000Y-7625072D01*
X57397740Y-7536011D01*
X57770707Y-7286802D01*
X57850910Y-7411441D01*
X58063110Y-7556431D01*
X58315000Y-7607440D01*
X59385000Y-7607440D01*
X59620317Y-7563162D01*
X59836441Y-7424090D01*
X59981431Y-7211890D01*
X60032440Y-6960000D01*
X60032440Y-5341718D01*
X64526436Y-5304789D01*
X64312685Y-5447613D01*
X64059061Y-5827188D01*
X63970000Y-6274928D01*
X63970000Y-7065072D01*
X64059061Y-7512812D01*
X64312685Y-7892387D01*
X64692260Y-8146011D01*
X65140000Y-8235072D01*
X65587740Y-8146011D01*
X65967315Y-7892387D01*
X66094345Y-7702274D01*
X66359513Y-7985220D01*
X66597613Y-8118141D01*
X66772500Y-8010228D01*
X66772500Y-7043000D01*
X66647000Y-7043000D01*
X66647000Y-6297000D01*
X66772500Y-6297000D01*
X66772500Y-6277000D01*
X67307500Y-6277000D01*
X67307500Y-6297000D01*
X67433000Y-6297000D01*
X67433000Y-7043000D01*
X67307500Y-7043000D01*
X67307500Y-8010228D01*
X67482387Y-8118141D01*
X67720487Y-7985220D01*
X67985655Y-7702274D01*
X68112685Y-7892387D01*
X68492260Y-8146011D01*
X68940000Y-8235072D01*
X69387740Y-8146011D01*
X69760707Y-7896802D01*
X69840910Y-8021441D01*
X70053110Y-8166431D01*
X70305000Y-8217440D01*
X71375000Y-8217440D01*
X71610317Y-8173162D01*
X71826441Y-8034090D01*
X71971431Y-7821890D01*
X72022440Y-7570000D01*
X72022440Y-7474928D01*
X75980000Y-7474928D01*
X75980000Y-8265072D01*
X76069061Y-8712812D01*
X76322685Y-9092387D01*
X76702260Y-9346011D01*
X77150000Y-9435072D01*
X77597740Y-9346011D01*
X77977315Y-9092387D01*
X78104345Y-8902274D01*
X78369513Y-9185220D01*
X78607613Y-9318141D01*
X78782500Y-9210228D01*
X78782500Y-8243000D01*
X78657000Y-8243000D01*
X78657000Y-7497000D01*
X78782500Y-7497000D01*
X78782500Y-6529772D01*
X79317500Y-6529772D01*
X79317500Y-7497000D01*
X79443000Y-7497000D01*
X79443000Y-8243000D01*
X79317500Y-8243000D01*
X79317500Y-9210228D01*
X79492387Y-9318141D01*
X79730487Y-9185220D01*
X79995655Y-8902274D01*
X80122685Y-9092387D01*
X80502260Y-9346011D01*
X80950000Y-9435072D01*
X81397740Y-9346011D01*
X81770707Y-9096802D01*
X81850910Y-9221441D01*
X82063110Y-9366431D01*
X82315000Y-9417440D01*
X83385000Y-9417440D01*
X83620317Y-9373162D01*
X83710815Y-9314928D01*
X87980000Y-9314928D01*
X87980000Y-10105072D01*
X88069061Y-10552812D01*
X88322685Y-10932387D01*
X88702260Y-11186011D01*
X89150000Y-11275072D01*
X89597740Y-11186011D01*
X89977315Y-10932387D01*
X90104345Y-10742274D01*
X90369513Y-11025220D01*
X90607613Y-11158141D01*
X90782500Y-11050228D01*
X90782500Y-10083000D01*
X90657000Y-10083000D01*
X90657000Y-9337000D01*
X90782500Y-9337000D01*
X90782500Y-8369772D01*
X90607613Y-8261859D01*
X90369513Y-8394780D01*
X90104345Y-8677726D01*
X89977315Y-8487613D01*
X89597740Y-8233989D01*
X89150000Y-8144928D01*
X88702260Y-8233989D01*
X88322685Y-8487613D01*
X88069061Y-8867188D01*
X87980000Y-9314928D01*
X83710815Y-9314928D01*
X83836441Y-9234090D01*
X83981431Y-9021890D01*
X84032440Y-8770000D01*
X84032440Y-6970000D01*
X83988162Y-6734683D01*
X83849090Y-6518559D01*
X83636890Y-6373569D01*
X83385000Y-6322560D01*
X82315000Y-6322560D01*
X82079683Y-6366838D01*
X81863559Y-6505910D01*
X81770053Y-6642761D01*
X81397740Y-6393989D01*
X80950000Y-6304928D01*
X80502260Y-6393989D01*
X80122685Y-6647613D01*
X79995655Y-6837726D01*
X79730487Y-6554780D01*
X79492387Y-6421859D01*
X79317500Y-6529772D01*
X78782500Y-6529772D01*
X78607613Y-6421859D01*
X78369513Y-6554780D01*
X78104345Y-6837726D01*
X77977315Y-6647613D01*
X77597740Y-6393989D01*
X77150000Y-6304928D01*
X76702260Y-6393989D01*
X76322685Y-6647613D01*
X76069061Y-7027188D01*
X75980000Y-7474928D01*
X72022440Y-7474928D01*
X72022440Y-5770000D01*
X71978162Y-5534683D01*
X71839090Y-5318559D01*
X71732276Y-5245576D01*
X95953896Y-5046537D01*
X99165000Y-5685219D01*
X99165000Y-5685219D01*
G37*
X99165000Y-5685219D02*
X99165000Y-17165000D01*
X97606051Y-17165000D01*
X97637439Y-17010000D01*
X97637439Y-14410000D01*
X97593161Y-14174683D01*
X97454089Y-13958559D01*
X97241889Y-13813569D01*
X96989999Y-13762560D01*
X96900991Y-13762560D01*
X96900020Y-13757680D01*
X96686499Y-13438123D01*
X94505816Y-11257440D01*
X95385000Y-11257440D01*
X95620317Y-11213162D01*
X95836441Y-11074090D01*
X95981431Y-10861890D01*
X96032440Y-10610000D01*
X96032440Y-8810000D01*
X95988162Y-8574683D01*
X95849090Y-8358559D01*
X95636890Y-8213569D01*
X95385000Y-8162560D01*
X94315000Y-8162560D01*
X94079683Y-8206838D01*
X93863559Y-8345910D01*
X93770053Y-8482761D01*
X93397740Y-8233989D01*
X92950000Y-8144928D01*
X92502260Y-8233989D01*
X92122685Y-8487613D01*
X91995655Y-8677726D01*
X91730487Y-8394780D01*
X91492387Y-8261859D01*
X91317500Y-8369772D01*
X91317500Y-9337000D01*
X91443000Y-9337000D01*
X91443000Y-10083000D01*
X91317500Y-10083000D01*
X91317500Y-11050228D01*
X91492387Y-11158141D01*
X91730487Y-11025220D01*
X91965000Y-10774984D01*
X91965000Y-11094624D01*
X92039979Y-11471567D01*
X92253500Y-11791124D01*
X94485678Y-14023302D01*
X94433048Y-14100329D01*
X94075686Y-13861548D01*
X93449999Y-13737091D01*
X92824312Y-13861548D01*
X92293879Y-14215971D01*
X92166524Y-14406571D01*
X91807065Y-14051099D01*
X91527432Y-13896065D01*
X91282999Y-13981650D01*
X91282999Y-15337000D01*
X91302999Y-15337000D01*
X91302999Y-16083000D01*
X91282999Y-16083000D01*
X91282999Y-16103000D01*
X90536999Y-16103000D01*
X90536999Y-16083000D01*
X89442092Y-16083000D01*
X89314789Y-16336566D01*
X89561189Y-16922168D01*
X89806745Y-17165000D01*
X75500000Y-17165000D01*
X75419341Y-17181044D01*
X74954417Y-17257164D01*
X74684661Y-17368901D01*
X74653416Y-17381843D01*
X74328992Y-17598616D01*
X74098616Y-17828992D01*
X74069211Y-17873000D01*
X66430789Y-17873000D01*
X66401384Y-17828992D01*
X66171007Y-17598616D01*
X66171006Y-17598615D01*
X65846586Y-17381844D01*
X65696085Y-17319505D01*
X65545585Y-17257165D01*
X65162901Y-17181044D01*
X65080658Y-17181044D01*
X65000000Y-17165000D01*
X35000000Y-17165000D01*
X34919341Y-17181044D01*
X34454417Y-17257164D01*
X34184661Y-17368901D01*
X34153416Y-17381843D01*
X33828992Y-17598616D01*
X33598616Y-17828992D01*
X33569211Y-17873000D01*
X25930789Y-17873000D01*
X25901384Y-17828992D01*
X25671008Y-17598616D01*
X25346584Y-17381843D01*
X25045583Y-17257164D01*
X24662900Y-17181044D01*
X24580659Y-17181044D01*
X24500000Y-17165000D01*
X835000Y-17165000D01*
X835000Y-14942619D01*
X17764613Y-14942619D01*
X18104155Y-15764372D01*
X18732321Y-16393636D01*
X19553481Y-16734611D01*
X20442619Y-16735387D01*
X21264372Y-16395845D01*
X21893636Y-15767679D01*
X22234611Y-14946519D01*
X22235387Y-14057381D01*
X21895845Y-13235628D01*
X21267679Y-12606364D01*
X20446519Y-12265389D01*
X19557381Y-12264613D01*
X18735628Y-12604155D01*
X18106364Y-13232321D01*
X17765389Y-14053481D01*
X17764613Y-14942619D01*
X835000Y-14942619D01*
X835000Y-9274928D01*
X3980000Y-9274928D01*
X3980000Y-10065072D01*
X4069061Y-10512812D01*
X4322685Y-10892387D01*
X4702260Y-11146011D01*
X5150000Y-11235072D01*
X5597740Y-11146011D01*
X5977315Y-10892387D01*
X6104345Y-10702274D01*
X6369513Y-10985220D01*
X6607613Y-11118141D01*
X6782500Y-11010228D01*
X6782500Y-10043000D01*
X6657000Y-10043000D01*
X6657000Y-9297000D01*
X6782500Y-9297000D01*
X6782500Y-8329772D01*
X7317500Y-8329772D01*
X7317500Y-9297000D01*
X7443000Y-9297000D01*
X7443000Y-10043000D01*
X7317500Y-10043000D01*
X7317500Y-11010228D01*
X7492387Y-11118141D01*
X7730487Y-10985220D01*
X7965000Y-10734984D01*
X7965000Y-10947516D01*
X8039979Y-11324459D01*
X8253500Y-11644016D01*
X8500932Y-11891448D01*
X8820489Y-12104969D01*
X9197432Y-12179948D01*
X29576298Y-12179948D01*
X29975000Y-12578650D01*
X29975000Y-13091103D01*
X29846890Y-13003569D01*
X29595000Y-12952560D01*
X28525000Y-12952560D01*
X28289683Y-12996838D01*
X28073559Y-13135910D01*
X27928569Y-13348110D01*
X27877560Y-13600000D01*
X27877560Y-15400000D01*
X27921838Y-15635317D01*
X28060910Y-15851441D01*
X28273110Y-15996431D01*
X28525000Y-16047440D01*
X29595000Y-16047440D01*
X29830317Y-16003162D01*
X30046441Y-15864090D01*
X30139947Y-15727239D01*
X30512260Y-15976011D01*
X30960000Y-16065072D01*
X31407740Y-15976011D01*
X31787315Y-15722387D01*
X31914345Y-15532274D01*
X32179513Y-15815220D01*
X32417613Y-15948141D01*
X32592500Y-15840228D01*
X32592500Y-14873000D01*
X32467000Y-14873000D01*
X32467000Y-14127000D01*
X32592500Y-14127000D01*
X32592500Y-13159772D01*
X33127500Y-13159772D01*
X33127500Y-14127000D01*
X33253000Y-14127000D01*
X33253000Y-14873000D01*
X33127500Y-14873000D01*
X33127500Y-15840228D01*
X33302387Y-15948141D01*
X33540487Y-15815220D01*
X33805655Y-15532274D01*
X33932685Y-15722387D01*
X34312260Y-15976011D01*
X34760000Y-16065072D01*
X35207740Y-15976011D01*
X35587315Y-15722387D01*
X35840939Y-15342812D01*
X35930000Y-14895072D01*
X35930000Y-14104928D01*
X35840939Y-13657188D01*
X35587315Y-13277613D01*
X35207740Y-13023989D01*
X34760000Y-12934928D01*
X34312260Y-13023989D01*
X33932685Y-13277613D01*
X33805655Y-13467726D01*
X33540487Y-13184780D01*
X33302387Y-13051859D01*
X33127500Y-13159772D01*
X32592500Y-13159772D01*
X32417613Y-13051859D01*
X32179513Y-13184780D01*
X31945000Y-13435016D01*
X31945000Y-12784255D01*
X32614264Y-12114991D01*
X65221991Y-12114991D01*
X66085000Y-12978000D01*
X66085000Y-13101103D01*
X65956890Y-13013569D01*
X65705000Y-12962560D01*
X64635000Y-12962560D01*
X64399683Y-13006838D01*
X64183559Y-13145910D01*
X64038569Y-13358110D01*
X63987560Y-13610000D01*
X63987560Y-15410000D01*
X64031838Y-15645317D01*
X64170910Y-15861441D01*
X64383110Y-16006431D01*
X64635000Y-16057440D01*
X65705000Y-16057440D01*
X65940317Y-16013162D01*
X66156441Y-15874090D01*
X66249947Y-15737239D01*
X66622260Y-15986011D01*
X67070000Y-16075072D01*
X67517740Y-15986011D01*
X67897315Y-15732387D01*
X68024345Y-15542274D01*
X68289513Y-15825220D01*
X68527613Y-15958141D01*
X68702500Y-15850228D01*
X68702500Y-14883000D01*
X69237500Y-14883000D01*
X69237500Y-15850228D01*
X69412387Y-15958141D01*
X69650487Y-15825220D01*
X69962322Y-15492478D01*
X70123085Y-15065730D01*
X70026668Y-14942619D01*
X77764613Y-14942619D01*
X78104155Y-15764372D01*
X78732321Y-16393636D01*
X79553481Y-16734611D01*
X80442619Y-16735387D01*
X81264372Y-16395845D01*
X81893636Y-15767679D01*
X82177758Y-15083434D01*
X89314789Y-15083434D01*
X89442092Y-15337000D01*
X90536999Y-15337000D01*
X90536999Y-13981650D01*
X90292566Y-13896065D01*
X90012933Y-14051099D01*
X89561189Y-14497832D01*
X89314789Y-15083434D01*
X82177758Y-15083434D01*
X82234611Y-14946519D01*
X82235387Y-14057381D01*
X81895845Y-13235628D01*
X81267679Y-12606364D01*
X80446519Y-12265389D01*
X79557381Y-12264613D01*
X78735628Y-12604155D01*
X78106364Y-13232321D01*
X77765389Y-14053481D01*
X77764613Y-14942619D01*
X70026668Y-14942619D01*
X69979975Y-14883000D01*
X69237500Y-14883000D01*
X68702500Y-14883000D01*
X68577000Y-14883000D01*
X68577000Y-14137000D01*
X68702500Y-14137000D01*
X68702500Y-13169772D01*
X69237500Y-13169772D01*
X69237500Y-14137000D01*
X69979975Y-14137000D01*
X70123085Y-13954270D01*
X69962322Y-13527522D01*
X69650487Y-13194780D01*
X69412387Y-13061859D01*
X69237500Y-13169772D01*
X68702500Y-13169772D01*
X68527613Y-13061859D01*
X68289513Y-13194780D01*
X68055000Y-13445016D01*
X68055000Y-12570000D01*
X67980021Y-12193057D01*
X67766500Y-11873500D01*
X66326491Y-10433491D01*
X66006934Y-10219970D01*
X65629991Y-10144991D01*
X32206264Y-10144991D01*
X31879705Y-10209948D01*
X31829321Y-10219970D01*
X31509764Y-10433491D01*
X31062803Y-10880453D01*
X30680798Y-10498448D01*
X30361241Y-10284927D01*
X29984298Y-10209948D01*
X12032440Y-10209948D01*
X12032440Y-8770000D01*
X11988162Y-8534683D01*
X11849090Y-8318559D01*
X11636890Y-8173569D01*
X11385000Y-8122560D01*
X10315000Y-8122560D01*
X10079683Y-8166838D01*
X9863559Y-8305910D01*
X9770053Y-8442761D01*
X9397740Y-8193989D01*
X8950000Y-8104928D01*
X8502260Y-8193989D01*
X8122685Y-8447613D01*
X7995655Y-8637726D01*
X7730487Y-8354780D01*
X7492387Y-8221859D01*
X7317500Y-8329772D01*
X6782500Y-8329772D01*
X6607613Y-8221859D01*
X6369513Y-8354780D01*
X6104345Y-8637726D01*
X5977315Y-8447613D01*
X5597740Y-8193989D01*
X5150000Y-8104928D01*
X4702260Y-8193989D01*
X4322685Y-8447613D01*
X4069061Y-8827188D01*
X3980000Y-9274928D01*
X835000Y-9274928D01*
X835000Y-7474928D01*
X15980000Y-7474928D01*
X15980000Y-8265072D01*
X16069061Y-8712812D01*
X16322685Y-9092387D01*
X16702260Y-9346011D01*
X17150000Y-9435072D01*
X17597740Y-9346011D01*
X17977315Y-9092387D01*
X18104345Y-8902274D01*
X18369513Y-9185220D01*
X18607613Y-9318141D01*
X18782500Y-9210228D01*
X18782500Y-8243000D01*
X18657000Y-8243000D01*
X18657000Y-7497000D01*
X18782500Y-7497000D01*
X18782500Y-6529772D01*
X19317500Y-6529772D01*
X19317500Y-7497000D01*
X19443000Y-7497000D01*
X19443000Y-8243000D01*
X19317500Y-8243000D01*
X19317500Y-9210228D01*
X19492387Y-9318141D01*
X19730487Y-9185220D01*
X19995655Y-8902274D01*
X20122685Y-9092387D01*
X20502260Y-9346011D01*
X20950000Y-9435072D01*
X21397740Y-9346011D01*
X21770707Y-9096802D01*
X21850910Y-9221441D01*
X22063110Y-9366431D01*
X22315000Y-9417440D01*
X23385000Y-9417440D01*
X23620317Y-9373162D01*
X23836441Y-9234090D01*
X23981431Y-9021890D01*
X24032440Y-8770000D01*
X24032440Y-6970000D01*
X23988162Y-6734683D01*
X23849090Y-6518559D01*
X23636890Y-6373569D01*
X23385000Y-6322560D01*
X22315000Y-6322560D01*
X22079683Y-6366838D01*
X21863559Y-6505910D01*
X21770053Y-6642761D01*
X21397740Y-6393989D01*
X20950000Y-6304928D01*
X20502260Y-6393989D01*
X20122685Y-6647613D01*
X19995655Y-6837726D01*
X19730487Y-6554780D01*
X19492387Y-6421859D01*
X19317500Y-6529772D01*
X18782500Y-6529772D01*
X18607613Y-6421859D01*
X18369513Y-6554780D01*
X18104345Y-6837726D01*
X17977315Y-6647613D01*
X17597740Y-6393989D01*
X17150000Y-6304928D01*
X16702260Y-6393989D01*
X16322685Y-6647613D01*
X16069061Y-7027188D01*
X15980000Y-7474928D01*
X835000Y-7474928D01*
X835000Y-5828167D01*
X28161814Y-5603612D01*
X27999061Y-5847188D01*
X27910000Y-6294928D01*
X27910000Y-7085072D01*
X27999061Y-7532812D01*
X28252685Y-7912387D01*
X28632260Y-8166011D01*
X29080000Y-8255072D01*
X29527740Y-8166011D01*
X29907315Y-7912387D01*
X30034345Y-7722274D01*
X30299513Y-8005220D01*
X30537613Y-8138141D01*
X30712500Y-8030228D01*
X30712500Y-7063000D01*
X30587000Y-7063000D01*
X30587000Y-6317000D01*
X30712500Y-6317000D01*
X30712500Y-6297000D01*
X31247500Y-6297000D01*
X31247500Y-6317000D01*
X31373000Y-6317000D01*
X31373000Y-7063000D01*
X31247500Y-7063000D01*
X31247500Y-8030228D01*
X31422387Y-8138141D01*
X31660487Y-8005220D01*
X31925655Y-7722274D01*
X32052685Y-7912387D01*
X32432260Y-8166011D01*
X32880000Y-8255072D01*
X33327740Y-8166011D01*
X33700707Y-7916802D01*
X33780910Y-8041441D01*
X33993110Y-8186431D01*
X34245000Y-8237440D01*
X35315000Y-8237440D01*
X35550317Y-8193162D01*
X35766441Y-8054090D01*
X35911431Y-7841890D01*
X35962440Y-7590000D01*
X35962440Y-5790000D01*
X35918162Y-5554683D01*
X35908683Y-5539953D01*
X40013558Y-5506221D01*
X39980000Y-5674928D01*
X39980000Y-6465072D01*
X40069061Y-6912812D01*
X40322685Y-7292387D01*
X40702260Y-7546011D01*
X41150000Y-7635072D01*
X41597740Y-7546011D01*
X41977315Y-7292387D01*
X42104345Y-7102274D01*
X42369513Y-7385220D01*
X42607613Y-7518141D01*
X42782500Y-7410228D01*
X42782500Y-6443000D01*
X42657000Y-6443000D01*
X42657000Y-5697000D01*
X42782500Y-5697000D01*
X42782500Y-5677000D01*
X43317500Y-5677000D01*
X43317500Y-5697000D01*
X43443000Y-5697000D01*
X43443000Y-6443000D01*
X43317500Y-6443000D01*
X43317500Y-7410228D01*
X43492387Y-7518141D01*
X43730487Y-7385220D01*
X43995655Y-7102274D01*
X44122685Y-7292387D01*
X44502260Y-7546011D01*
X44950000Y-7635072D01*
X45397740Y-7546011D01*
X45770707Y-7296802D01*
X45850910Y-7421441D01*
X46063110Y-7566431D01*
X46315000Y-7617440D01*
X47385000Y-7617440D01*
X47620317Y-7573162D01*
X47836441Y-7434090D01*
X47981431Y-7221890D01*
X48032440Y-6970000D01*
X48032440Y-5440327D01*
X52031212Y-5407467D01*
X51980000Y-5664928D01*
X51980000Y-6455072D01*
X52069061Y-6902812D01*
X52322685Y-7282387D01*
X52702260Y-7536011D01*
X53150000Y-7625072D01*
X53597740Y-7536011D01*
X53977315Y-7282387D01*
X54104345Y-7092274D01*
X54369513Y-7375220D01*
X54607613Y-7508141D01*
X54782500Y-7400228D01*
X54782500Y-6433000D01*
X54657000Y-6433000D01*
X54657000Y-5687000D01*
X54782500Y-5687000D01*
X54782500Y-5667000D01*
X55317500Y-5667000D01*
X55317500Y-5687000D01*
X55443000Y-5687000D01*
X55443000Y-6433000D01*
X55317500Y-6433000D01*
X55317500Y-7400228D01*
X55492387Y-7508141D01*
X55730487Y-7375220D01*
X55995655Y-7092274D01*
X56122685Y-7282387D01*
X56502260Y-7536011D01*
X56950000Y-7625072D01*
X57397740Y-7536011D01*
X57770707Y-7286802D01*
X57850910Y-7411441D01*
X58063110Y-7556431D01*
X58315000Y-7607440D01*
X59385000Y-7607440D01*
X59620317Y-7563162D01*
X59836441Y-7424090D01*
X59981431Y-7211890D01*
X60032440Y-6960000D01*
X60032440Y-5341718D01*
X64526436Y-5304789D01*
X64312685Y-5447613D01*
X64059061Y-5827188D01*
X63970000Y-6274928D01*
X63970000Y-7065072D01*
X64059061Y-7512812D01*
X64312685Y-7892387D01*
X64692260Y-8146011D01*
X65140000Y-8235072D01*
X65587740Y-8146011D01*
X65967315Y-7892387D01*
X66094345Y-7702274D01*
X66359513Y-7985220D01*
X66597613Y-8118141D01*
X66772500Y-8010228D01*
X66772500Y-7043000D01*
X66647000Y-7043000D01*
X66647000Y-6297000D01*
X66772500Y-6297000D01*
X66772500Y-6277000D01*
X67307500Y-6277000D01*
X67307500Y-6297000D01*
X67433000Y-6297000D01*
X67433000Y-7043000D01*
X67307500Y-7043000D01*
X67307500Y-8010228D01*
X67482387Y-8118141D01*
X67720487Y-7985220D01*
X67985655Y-7702274D01*
X68112685Y-7892387D01*
X68492260Y-8146011D01*
X68940000Y-8235072D01*
X69387740Y-8146011D01*
X69760707Y-7896802D01*
X69840910Y-8021441D01*
X70053110Y-8166431D01*
X70305000Y-8217440D01*
X71375000Y-8217440D01*
X71610317Y-8173162D01*
X71826441Y-8034090D01*
X71971431Y-7821890D01*
X72022440Y-7570000D01*
X72022440Y-7474928D01*
X75980000Y-7474928D01*
X75980000Y-8265072D01*
X76069061Y-8712812D01*
X76322685Y-9092387D01*
X76702260Y-9346011D01*
X77150000Y-9435072D01*
X77597740Y-9346011D01*
X77977315Y-9092387D01*
X78104345Y-8902274D01*
X78369513Y-9185220D01*
X78607613Y-9318141D01*
X78782500Y-9210228D01*
X78782500Y-8243000D01*
X78657000Y-8243000D01*
X78657000Y-7497000D01*
X78782500Y-7497000D01*
X78782500Y-6529772D01*
X79317500Y-6529772D01*
X79317500Y-7497000D01*
X79443000Y-7497000D01*
X79443000Y-8243000D01*
X79317500Y-8243000D01*
X79317500Y-9210228D01*
X79492387Y-9318141D01*
X79730487Y-9185220D01*
X79995655Y-8902274D01*
X80122685Y-9092387D01*
X80502260Y-9346011D01*
X80950000Y-9435072D01*
X81397740Y-9346011D01*
X81770707Y-9096802D01*
X81850910Y-9221441D01*
X82063110Y-9366431D01*
X82315000Y-9417440D01*
X83385000Y-9417440D01*
X83620317Y-9373162D01*
X83710815Y-9314928D01*
X87980000Y-9314928D01*
X87980000Y-10105072D01*
X88069061Y-10552812D01*
X88322685Y-10932387D01*
X88702260Y-11186011D01*
X89150000Y-11275072D01*
X89597740Y-11186011D01*
X89977315Y-10932387D01*
X90104345Y-10742274D01*
X90369513Y-11025220D01*
X90607613Y-11158141D01*
X90782500Y-11050228D01*
X90782500Y-10083000D01*
X90657000Y-10083000D01*
X90657000Y-9337000D01*
X90782500Y-9337000D01*
X90782500Y-8369772D01*
X90607613Y-8261859D01*
X90369513Y-8394780D01*
X90104345Y-8677726D01*
X89977315Y-8487613D01*
X89597740Y-8233989D01*
X89150000Y-8144928D01*
X88702260Y-8233989D01*
X88322685Y-8487613D01*
X88069061Y-8867188D01*
X87980000Y-9314928D01*
X83710815Y-9314928D01*
X83836441Y-9234090D01*
X83981431Y-9021890D01*
X84032440Y-8770000D01*
X84032440Y-6970000D01*
X83988162Y-6734683D01*
X83849090Y-6518559D01*
X83636890Y-6373569D01*
X83385000Y-6322560D01*
X82315000Y-6322560D01*
X82079683Y-6366838D01*
X81863559Y-6505910D01*
X81770053Y-6642761D01*
X81397740Y-6393989D01*
X80950000Y-6304928D01*
X80502260Y-6393989D01*
X80122685Y-6647613D01*
X79995655Y-6837726D01*
X79730487Y-6554780D01*
X79492387Y-6421859D01*
X79317500Y-6529772D01*
X78782500Y-6529772D01*
X78607613Y-6421859D01*
X78369513Y-6554780D01*
X78104345Y-6837726D01*
X77977315Y-6647613D01*
X77597740Y-6393989D01*
X77150000Y-6304928D01*
X76702260Y-6393989D01*
X76322685Y-6647613D01*
X76069061Y-7027188D01*
X75980000Y-7474928D01*
X72022440Y-7474928D01*
X72022440Y-5770000D01*
X71978162Y-5534683D01*
X71839090Y-5318559D01*
X71732276Y-5245576D01*
X95953896Y-5046537D01*
X99165000Y-5685219D01*
G36*
X33598616Y-20171008D02*
X33828992Y-20401384D01*
X34153416Y-20618157D01*
X34454417Y-20742836D01*
X34837100Y-20818956D01*
X34919341Y-20818956D01*
X35000000Y-20835000D01*
X65000000Y-20835000D01*
X65080648Y-20818958D01*
X65162901Y-20818958D01*
X65545585Y-20742837D01*
X65696085Y-20680497D01*
X65846586Y-20618158D01*
X66171008Y-20401385D01*
X66252852Y-20319541D01*
X66401384Y-20171010D01*
X66430790Y-20127000D01*
X74069211Y-20127000D01*
X74098616Y-20171008D01*
X74328992Y-20401384D01*
X74653416Y-20618157D01*
X74954417Y-20742836D01*
X75337100Y-20818956D01*
X75419341Y-20818956D01*
X75500000Y-20835000D01*
X99165000Y-20835000D01*
X99165000Y-79665000D01*
X835000Y-79665000D01*
X835000Y-75942619D01*
X2764613Y-75942619D01*
X3104155Y-76764372D01*
X3732321Y-77393636D01*
X4553481Y-77734611D01*
X5442619Y-77735387D01*
X6264372Y-77395845D01*
X6893636Y-76767679D01*
X7234611Y-75946519D01*
X7234614Y-75942619D01*
X92764613Y-75942619D01*
X93104155Y-76764372D01*
X93732321Y-77393636D01*
X94553481Y-77734611D01*
X95442619Y-77735387D01*
X96264372Y-77395845D01*
X96893636Y-76767679D01*
X97234611Y-75946519D01*
X97235387Y-75057381D01*
X96895845Y-74235628D01*
X96267679Y-73606364D01*
X95446519Y-73265389D01*
X94557381Y-73264613D01*
X93735628Y-73604155D01*
X93106364Y-74232321D01*
X92765389Y-75053481D01*
X92764613Y-75942619D01*
X7234614Y-75942619D01*
X7235387Y-75057381D01*
X6895845Y-74235628D01*
X6267679Y-73606364D01*
X5446519Y-73265389D01*
X4557381Y-73264613D01*
X3735628Y-73604155D01*
X3106364Y-74232321D01*
X2765389Y-75053481D01*
X2764613Y-75942619D01*
X835000Y-75942619D01*
X835000Y-69942619D01*
X19264613Y-69942619D01*
X19604155Y-70764372D01*
X20232321Y-71393636D01*
X21053481Y-71734611D01*
X21942619Y-71735387D01*
X22764372Y-71395845D01*
X23393636Y-70767679D01*
X23734611Y-69946519D01*
X23734614Y-69942619D01*
X31764613Y-69942619D01*
X32104155Y-70764372D01*
X32732321Y-71393636D01*
X33553481Y-71734611D01*
X34442619Y-71735387D01*
X35264372Y-71395845D01*
X35893636Y-70767679D01*
X36234611Y-69946519D01*
X36234614Y-69942619D01*
X45764613Y-69942619D01*
X46104155Y-70764372D01*
X46732321Y-71393636D01*
X47553481Y-71734611D01*
X48442619Y-71735387D01*
X49264372Y-71395845D01*
X49893636Y-70767679D01*
X50234611Y-69946519D01*
X50234752Y-69784187D01*
X85564752Y-69784187D01*
X85782757Y-70311800D01*
X86186077Y-70715824D01*
X86713309Y-70934750D01*
X87284187Y-70935248D01*
X87811800Y-70717243D01*
X88215824Y-70313923D01*
X88434750Y-69786691D01*
X88435000Y-69500000D01*
X93156887Y-69500000D01*
X93266120Y-70049151D01*
X93577189Y-70514698D01*
X94042736Y-70825767D01*
X94591887Y-70935000D01*
X94648113Y-70935000D01*
X95197264Y-70825767D01*
X95662811Y-70514698D01*
X95973880Y-70049151D01*
X96083113Y-69500000D01*
X95973880Y-68950849D01*
X95662811Y-68485302D01*
X95197264Y-68174233D01*
X94648113Y-68065000D01*
X94591887Y-68065000D01*
X94042736Y-68174233D01*
X93577189Y-68485302D01*
X93266120Y-68950849D01*
X93156887Y-69500000D01*
X88435000Y-69500000D01*
X88435248Y-69215813D01*
X88217243Y-68688200D01*
X87813923Y-68284176D01*
X87286691Y-68065250D01*
X86715813Y-68064752D01*
X86188200Y-68282757D01*
X85784176Y-68686077D01*
X85565250Y-69213309D01*
X85564752Y-69784187D01*
X50234752Y-69784187D01*
X50235387Y-69057381D01*
X49895845Y-68235628D01*
X49267679Y-67606364D01*
X48446519Y-67265389D01*
X47557381Y-67264613D01*
X46735628Y-67604155D01*
X46106364Y-68232321D01*
X45765389Y-69053481D01*
X45764613Y-69942619D01*
X36234614Y-69942619D01*
X36235387Y-69057381D01*
X35895845Y-68235628D01*
X35267679Y-67606364D01*
X34446519Y-67265389D01*
X33557381Y-67264613D01*
X32735628Y-67604155D01*
X32106364Y-68232321D01*
X31765389Y-69053481D01*
X31764613Y-69942619D01*
X23734614Y-69942619D01*
X23735387Y-69057381D01*
X23395845Y-68235628D01*
X22767679Y-67606364D01*
X21946519Y-67265389D01*
X21057381Y-67264613D01*
X20235628Y-67604155D01*
X19606364Y-68232321D01*
X19265389Y-69053481D01*
X19264613Y-69942619D01*
X835000Y-69942619D01*
X835000Y-66500000D01*
X72536887Y-66500000D01*
X72646120Y-67049151D01*
X72957189Y-67514698D01*
X73422736Y-67825767D01*
X73971887Y-67935000D01*
X74028113Y-67935000D01*
X74577264Y-67825767D01*
X74965390Y-67566429D01*
X80868940Y-67566429D01*
X80950463Y-67800930D01*
X81499273Y-67958123D01*
X82066462Y-67893331D01*
X82289537Y-67800930D01*
X82371060Y-67566429D01*
X81620000Y-66815370D01*
X80868940Y-67566429D01*
X74965390Y-67566429D01*
X75042811Y-67514698D01*
X75353880Y-67049151D01*
X75463113Y-66500000D01*
X75439099Y-66379273D01*
X80161877Y-66379273D01*
X80226669Y-66946462D01*
X80319070Y-67169537D01*
X80553571Y-67251060D01*
X81304630Y-66500000D01*
X81935370Y-66500000D01*
X82686429Y-67251060D01*
X82920930Y-67169537D01*
X82929763Y-67138700D01*
X82962718Y-67218458D01*
X83319663Y-67576026D01*
X83786273Y-67769779D01*
X84291510Y-67770220D01*
X84758458Y-67577282D01*
X85116026Y-67220337D01*
X85309779Y-66753727D01*
X85309780Y-66751510D01*
X91769780Y-66751510D01*
X91962718Y-67218458D01*
X92319663Y-67576026D01*
X92786273Y-67769779D01*
X93291510Y-67770220D01*
X93758458Y-67577282D01*
X94116026Y-67220337D01*
X94309779Y-66753727D01*
X94310220Y-66248490D01*
X94117282Y-65781542D01*
X93760337Y-65423974D01*
X93293727Y-65230221D01*
X92788490Y-65229780D01*
X92321542Y-65422718D01*
X91963974Y-65779663D01*
X91770221Y-66246273D01*
X91769780Y-66751510D01*
X85309780Y-66751510D01*
X85310220Y-66248490D01*
X85117282Y-65781542D01*
X84760337Y-65423974D01*
X84293727Y-65230221D01*
X83788490Y-65229780D01*
X83321542Y-65422718D01*
X82963974Y-65779663D01*
X82931892Y-65856926D01*
X82920930Y-65830463D01*
X82686429Y-65748940D01*
X81935370Y-66500000D01*
X81304630Y-66500000D01*
X80553571Y-65748940D01*
X80319070Y-65830463D01*
X80161877Y-66379273D01*
X75439099Y-66379273D01*
X75353880Y-65950849D01*
X75042811Y-65485302D01*
X74965391Y-65433571D01*
X80868940Y-65433571D01*
X81620000Y-66184630D01*
X82371060Y-65433571D01*
X82289537Y-65199070D01*
X81740727Y-65041877D01*
X81173538Y-65106669D01*
X80950463Y-65199070D01*
X80868940Y-65433571D01*
X74965391Y-65433571D01*
X74577264Y-65174233D01*
X74028113Y-65065000D01*
X73971887Y-65065000D01*
X73422736Y-65174233D01*
X72957189Y-65485302D01*
X72646120Y-65950849D01*
X72536887Y-66500000D01*
X835000Y-66500000D01*
X835000Y-64540808D01*
X85274561Y-64540808D01*
X85351692Y-64771710D01*
X85887704Y-64923004D01*
X86440812Y-64857658D01*
X86648308Y-64771710D01*
X86725439Y-64540808D01*
X94274561Y-64540808D01*
X94351692Y-64771710D01*
X94887704Y-64923004D01*
X95440812Y-64857658D01*
X95648308Y-64771710D01*
X95725439Y-64540808D01*
X95000000Y-63815370D01*
X94274561Y-64540808D01*
X86725439Y-64540808D01*
X86000000Y-63815370D01*
X85274561Y-64540808D01*
X835000Y-64540808D01*
X835000Y-60340000D01*
X22692560Y-60340000D01*
X22692560Y-62940000D01*
X22736838Y-63175317D01*
X22875910Y-63391441D01*
X23088110Y-63536431D01*
X23340000Y-63587440D01*
X25340000Y-63587440D01*
X25575317Y-63543162D01*
X25791441Y-63404090D01*
X25896951Y-63249671D01*
X26254313Y-63488452D01*
X26880000Y-63612909D01*
X27505687Y-63488452D01*
X28036120Y-63134029D01*
X28161745Y-62946017D01*
X28393599Y-63221720D01*
X28946365Y-63504895D01*
X29197000Y-63399310D01*
X29197000Y-61863000D01*
X29643000Y-61863000D01*
X29643000Y-63399310D01*
X29893635Y-63504895D01*
X30446401Y-63221720D01*
X30858764Y-62731368D01*
X31052088Y-62120538D01*
X30901487Y-61863000D01*
X29643000Y-61863000D01*
X29197000Y-61863000D01*
X29177000Y-61863000D01*
X29177000Y-61417000D01*
X29197000Y-61417000D01*
X29197000Y-59880690D01*
X29643000Y-59880690D01*
X29643000Y-61417000D01*
X30901487Y-61417000D01*
X31052088Y-61159462D01*
X30858764Y-60548632D01*
X30683315Y-60340000D01*
X36152560Y-60340000D01*
X36152560Y-62940000D01*
X36196838Y-63175317D01*
X36335910Y-63391441D01*
X36548110Y-63536431D01*
X36800000Y-63587440D01*
X38800000Y-63587440D01*
X39035317Y-63543162D01*
X39251441Y-63404090D01*
X39356951Y-63249671D01*
X39714313Y-63488452D01*
X40340000Y-63612909D01*
X40965687Y-63488452D01*
X41496120Y-63134029D01*
X41610000Y-62963595D01*
X41723880Y-63134029D01*
X42254313Y-63488452D01*
X42880000Y-63612909D01*
X43505687Y-63488452D01*
X44036120Y-63134029D01*
X44161745Y-62946017D01*
X44393599Y-63221720D01*
X44946365Y-63504895D01*
X45197000Y-63399310D01*
X45197000Y-61863000D01*
X45643000Y-61863000D01*
X45643000Y-63399310D01*
X45893635Y-63504895D01*
X46446401Y-63221720D01*
X46858764Y-62731368D01*
X47052088Y-62120538D01*
X46901487Y-61863000D01*
X45643000Y-61863000D01*
X45197000Y-61863000D01*
X45177000Y-61863000D01*
X45177000Y-61417000D01*
X45197000Y-61417000D01*
X45197000Y-59880690D01*
X45643000Y-59880690D01*
X45643000Y-61417000D01*
X46901487Y-61417000D01*
X47052088Y-61159462D01*
X46858764Y-60548632D01*
X46446401Y-60058280D01*
X45893635Y-59775105D01*
X45643000Y-59880690D01*
X45197000Y-59880690D01*
X44946365Y-59775105D01*
X44393599Y-60058280D01*
X44161745Y-60333983D01*
X44036120Y-60145971D01*
X43505687Y-59791548D01*
X42880000Y-59667091D01*
X42254313Y-59791548D01*
X41723880Y-60145971D01*
X41610000Y-60316405D01*
X41496120Y-60145971D01*
X40965687Y-59791548D01*
X40340000Y-59667091D01*
X39714313Y-59791548D01*
X39355808Y-60031093D01*
X39264090Y-59888559D01*
X39051890Y-59743569D01*
X38800000Y-59692560D01*
X36800000Y-59692560D01*
X36564683Y-59736838D01*
X36348559Y-59875910D01*
X36203569Y-60088110D01*
X36152560Y-60340000D01*
X30683315Y-60340000D01*
X30446401Y-60058280D01*
X29893635Y-59775105D01*
X29643000Y-59880690D01*
X29197000Y-59880690D01*
X28946365Y-59775105D01*
X28393599Y-60058280D01*
X28161745Y-60333983D01*
X28036120Y-60145971D01*
X27505687Y-59791548D01*
X26880000Y-59667091D01*
X26254313Y-59791548D01*
X25895808Y-60031093D01*
X25804090Y-59888559D01*
X25591890Y-59743569D01*
X25340000Y-59692560D01*
X23340000Y-59692560D01*
X23104683Y-59736838D01*
X22888559Y-59875910D01*
X22743569Y-60088110D01*
X22692560Y-60340000D01*
X835000Y-60340000D01*
X835000Y-56751510D01*
X2769780Y-56751510D01*
X2962718Y-57218458D01*
X3319663Y-57576026D01*
X3786273Y-57769779D01*
X4291510Y-57770220D01*
X4758458Y-57577282D01*
X5116026Y-57220337D01*
X5309779Y-56753727D01*
X5310220Y-56248490D01*
X5117282Y-55781542D01*
X5062497Y-55726661D01*
X38022758Y-55726661D01*
X38234990Y-56240303D01*
X38627630Y-56633629D01*
X39140900Y-56846757D01*
X39696661Y-56847242D01*
X40210303Y-56635010D01*
X40603629Y-56242370D01*
X40816757Y-55729100D01*
X40817242Y-55173339D01*
X40605010Y-54659697D01*
X40212370Y-54266371D01*
X40034429Y-54192483D01*
X40066488Y-54179204D01*
X40143242Y-53948611D01*
X39420000Y-53225370D01*
X38696758Y-53948611D01*
X38773512Y-54179204D01*
X38811440Y-54189896D01*
X38629697Y-54264990D01*
X38236371Y-54657630D01*
X38023243Y-55170900D01*
X38022758Y-55726661D01*
X5062497Y-55726661D01*
X4760337Y-55423974D01*
X4293727Y-55230221D01*
X3788490Y-55229780D01*
X3321542Y-55422718D01*
X2963974Y-55779663D01*
X2770221Y-56246273D01*
X2769780Y-56751510D01*
X835000Y-56751510D01*
X835000Y-53777256D01*
X4599757Y-53777256D01*
X4812445Y-54292000D01*
X5205928Y-54686170D01*
X5720301Y-54899757D01*
X6277256Y-54900243D01*
X6792000Y-54687555D01*
X7023297Y-54456661D01*
X18022758Y-54456661D01*
X18234990Y-54970303D01*
X18627630Y-55363629D01*
X19140900Y-55576757D01*
X19696661Y-55577242D01*
X20210303Y-55365010D01*
X20603629Y-54972370D01*
X20816757Y-54459100D01*
X20817242Y-53903339D01*
X20605010Y-53389697D01*
X20212370Y-52996371D01*
X19735668Y-52798427D01*
X38000008Y-52798427D01*
X38065402Y-53350327D01*
X38150796Y-53556488D01*
X38381389Y-53633242D01*
X39104630Y-52910000D01*
X39735370Y-52910000D01*
X40458611Y-53633242D01*
X40689204Y-53556488D01*
X40839992Y-53021573D01*
X40774598Y-52469673D01*
X40689204Y-52263512D01*
X40458611Y-52186758D01*
X39735370Y-52910000D01*
X39104630Y-52910000D01*
X38381389Y-52186758D01*
X38150796Y-52263512D01*
X38000008Y-52798427D01*
X19735668Y-52798427D01*
X19699100Y-52783243D01*
X19143339Y-52782758D01*
X18629697Y-52994990D01*
X18236371Y-53387630D01*
X18023243Y-53900900D01*
X18022758Y-54456661D01*
X7023297Y-54456661D01*
X7186170Y-54294072D01*
X7399757Y-53779699D01*
X7400243Y-53222744D01*
X7187555Y-52708000D01*
X6794072Y-52313830D01*
X6279699Y-52100243D01*
X5722744Y-52099757D01*
X5208000Y-52312445D01*
X4813830Y-52705928D01*
X4600243Y-53220301D01*
X4599757Y-53777256D01*
X835000Y-53777256D01*
X835000Y-50777256D01*
X4599757Y-50777256D01*
X4812445Y-51292000D01*
X5205928Y-51686170D01*
X5720301Y-51899757D01*
X6277256Y-51900243D01*
X6792000Y-51687555D01*
X7186170Y-51294072D01*
X7399757Y-50779699D01*
X7400243Y-50222744D01*
X7187555Y-49708000D01*
X6856794Y-49376661D01*
X18022758Y-49376661D01*
X18234990Y-49890303D01*
X18627630Y-50283629D01*
X19140900Y-50496757D01*
X19696661Y-50497242D01*
X20210303Y-50285010D01*
X20603629Y-49892370D01*
X20816757Y-49379100D01*
X20817242Y-48823339D01*
X20605010Y-48309697D01*
X20402329Y-48106661D01*
X38022758Y-48106661D01*
X38234990Y-48620303D01*
X38627630Y-49013629D01*
X38835512Y-49099949D01*
X38629697Y-49184990D01*
X38236371Y-49577630D01*
X38023243Y-50090900D01*
X38022758Y-50646661D01*
X38234990Y-51160303D01*
X38627630Y-51553629D01*
X38805571Y-51627517D01*
X38773512Y-51640796D01*
X38696758Y-51871389D01*
X39420000Y-52594630D01*
X40143242Y-51871389D01*
X40066488Y-51640796D01*
X40028560Y-51630104D01*
X40210303Y-51555010D01*
X40603629Y-51162370D01*
X40816757Y-50649100D01*
X40817242Y-50093339D01*
X40605010Y-49579697D01*
X40212370Y-49186371D01*
X40004488Y-49100051D01*
X40210303Y-49015010D01*
X40603629Y-48622370D01*
X40816757Y-48109100D01*
X40817242Y-47553339D01*
X40605010Y-47039697D01*
X40212370Y-46646371D01*
X39699100Y-46433243D01*
X39143339Y-46432758D01*
X38629697Y-46644990D01*
X38236371Y-47037630D01*
X38023243Y-47550900D01*
X38022758Y-48106661D01*
X20402329Y-48106661D01*
X20212370Y-47916371D01*
X19699100Y-47703243D01*
X19143339Y-47702758D01*
X18629697Y-47914990D01*
X18236371Y-48307630D01*
X18023243Y-48820900D01*
X18022758Y-49376661D01*
X6856794Y-49376661D01*
X6794072Y-49313830D01*
X6279699Y-49100243D01*
X5722744Y-49099757D01*
X5208000Y-49312445D01*
X4813830Y-49705928D01*
X4600243Y-50220301D01*
X4599757Y-50777256D01*
X835000Y-50777256D01*
X835000Y-48540808D01*
X5274561Y-48540808D01*
X5351692Y-48771710D01*
X5887704Y-48923004D01*
X6440812Y-48857658D01*
X6648308Y-48771710D01*
X6725439Y-48540808D01*
X6000000Y-47815370D01*
X5274561Y-48540808D01*
X835000Y-48540808D01*
X835000Y-47387704D01*
X4576996Y-47387704D01*
X4642342Y-47940812D01*
X4728290Y-48148308D01*
X4959192Y-48225439D01*
X5684630Y-47500000D01*
X6315370Y-47500000D01*
X7040808Y-48225439D01*
X7271710Y-48148308D01*
X7423004Y-47612296D01*
X7357658Y-47059188D01*
X7271710Y-46851692D01*
X7040808Y-46774561D01*
X6315370Y-47500000D01*
X5684630Y-47500000D01*
X4959192Y-46774561D01*
X4728290Y-46851692D01*
X4576996Y-47387704D01*
X835000Y-47387704D01*
X835000Y-46459192D01*
X5274561Y-46459192D01*
X6000000Y-47184630D01*
X6725439Y-46459192D01*
X6648308Y-46228290D01*
X6112296Y-46076996D01*
X5559188Y-46142342D01*
X5351692Y-46228290D01*
X5274561Y-46459192D01*
X835000Y-46459192D01*
X835000Y-44777256D01*
X4599757Y-44777256D01*
X4812445Y-45292000D01*
X5205928Y-45686170D01*
X5720301Y-45899757D01*
X6277256Y-45900243D01*
X6792000Y-45687555D01*
X7186170Y-45294072D01*
X7399757Y-44779699D01*
X7400243Y-44222744D01*
X7187555Y-43708000D01*
X6794072Y-43313830D01*
X6279699Y-43100243D01*
X5722744Y-43099757D01*
X5208000Y-43312445D01*
X4813830Y-43705928D01*
X4600243Y-44220301D01*
X4599757Y-44777256D01*
X835000Y-44777256D01*
X835000Y-41751510D01*
X2769780Y-41751510D01*
X2962718Y-42218458D01*
X3319663Y-42576026D01*
X3786273Y-42769779D01*
X4291510Y-42770220D01*
X4758458Y-42577282D01*
X5116026Y-42220337D01*
X5309779Y-41753727D01*
X5310220Y-41248490D01*
X5117282Y-40781542D01*
X4760337Y-40423974D01*
X4293727Y-40230221D01*
X3788490Y-40229780D01*
X3321542Y-40422718D01*
X2963974Y-40779663D01*
X2770221Y-41246273D01*
X2769780Y-41751510D01*
X835000Y-41751510D01*
X835000Y-39980661D01*
X15751758Y-39980661D01*
X15963990Y-40494303D01*
X16356630Y-40887629D01*
X16564512Y-40973949D01*
X16358697Y-41058990D01*
X15965371Y-41451630D01*
X15752243Y-41964900D01*
X15751758Y-42520661D01*
X15963990Y-43034303D01*
X16356630Y-43427629D01*
X16869900Y-43640757D01*
X17425661Y-43641242D01*
X17939303Y-43429010D01*
X18332629Y-43036370D01*
X18545757Y-42523100D01*
X18546242Y-41967339D01*
X18334010Y-41453697D01*
X17941370Y-41060371D01*
X17733488Y-40974051D01*
X17939303Y-40889010D01*
X18332629Y-40496370D01*
X18545757Y-39983100D01*
X18545759Y-39980661D01*
X34293758Y-39980661D01*
X34505990Y-40494303D01*
X34898630Y-40887629D01*
X35106512Y-40973949D01*
X34900697Y-41058990D01*
X34507371Y-41451630D01*
X34294243Y-41964900D01*
X34293758Y-42520661D01*
X34505990Y-43034303D01*
X34898630Y-43427629D01*
X35411900Y-43640757D01*
X35967661Y-43641242D01*
X36481303Y-43429010D01*
X36874629Y-43036370D01*
X37087757Y-42523100D01*
X37088187Y-42030000D01*
X40122560Y-42030000D01*
X40122560Y-44030000D01*
X40166838Y-44265317D01*
X40305910Y-44481441D01*
X40518110Y-44626431D01*
X40770000Y-44677440D01*
X42770000Y-44677440D01*
X43005317Y-44633162D01*
X43221441Y-44494090D01*
X43366431Y-44281890D01*
X43417440Y-44030000D01*
X43417440Y-42030000D01*
X43373162Y-41794683D01*
X43234090Y-41578559D01*
X43021890Y-41433569D01*
X42770000Y-41382560D01*
X40770000Y-41382560D01*
X40534683Y-41426838D01*
X40318559Y-41565910D01*
X40173569Y-41778110D01*
X40122560Y-42030000D01*
X37088187Y-42030000D01*
X37088242Y-41967339D01*
X36876010Y-41453697D01*
X36483370Y-41060371D01*
X36275488Y-40974051D01*
X36481303Y-40889010D01*
X36874629Y-40496370D01*
X37087757Y-39983100D01*
X37088242Y-39427339D01*
X36876010Y-38913697D01*
X36483370Y-38520371D01*
X35970100Y-38307243D01*
X35414339Y-38306758D01*
X34900697Y-38518990D01*
X34507371Y-38911630D01*
X34294243Y-39424900D01*
X34293758Y-39980661D01*
X18545759Y-39980661D01*
X18546242Y-39427339D01*
X18334010Y-38913697D01*
X17941370Y-38520371D01*
X17428100Y-38307243D01*
X16872339Y-38306758D01*
X16358697Y-38518990D01*
X15965371Y-38911630D01*
X15752243Y-39424900D01*
X15751758Y-39980661D01*
X835000Y-39980661D01*
X835000Y-32614611D01*
X16425758Y-32614611D01*
X16502512Y-32845204D01*
X17037427Y-32995992D01*
X17589327Y-32930598D01*
X17795488Y-32845204D01*
X17872242Y-32614611D01*
X34967758Y-32614611D01*
X35044512Y-32845204D01*
X35579427Y-32995992D01*
X36131327Y-32930598D01*
X36337488Y-32845204D01*
X36414242Y-32614611D01*
X36103818Y-32304187D01*
X53284752Y-32304187D01*
X53502757Y-32831800D01*
X53906077Y-33235824D01*
X54036215Y-33289862D01*
X53908200Y-33342757D01*
X53504176Y-33746077D01*
X53285250Y-34273309D01*
X53284752Y-34844187D01*
X53502757Y-35371800D01*
X53906077Y-35775824D01*
X54036215Y-35829862D01*
X53908200Y-35882757D01*
X53504176Y-36286077D01*
X53285250Y-36813309D01*
X53284752Y-37384187D01*
X53502757Y-37911800D01*
X53906077Y-38315824D01*
X54036215Y-38369862D01*
X53908200Y-38422757D01*
X53504176Y-38826077D01*
X53285250Y-39353309D01*
X53284752Y-39924187D01*
X53502757Y-40451800D01*
X53906077Y-40855824D01*
X54036215Y-40909862D01*
X53908200Y-40962757D01*
X53504176Y-41366077D01*
X53285250Y-41893309D01*
X53284752Y-42464187D01*
X53502757Y-42991800D01*
X53906077Y-43395824D01*
X54036215Y-43449862D01*
X53908200Y-43502757D01*
X53504176Y-43906077D01*
X53285250Y-44433309D01*
X53284752Y-45004187D01*
X53502757Y-45531800D01*
X53906077Y-45935824D01*
X54036215Y-45989862D01*
X53908200Y-46042757D01*
X53504176Y-46446077D01*
X53285250Y-46973309D01*
X53284752Y-47544187D01*
X53502757Y-48071800D01*
X53906077Y-48475824D01*
X54036215Y-48529862D01*
X53908200Y-48582757D01*
X53504176Y-48986077D01*
X53285250Y-49513309D01*
X53284752Y-50084187D01*
X53502757Y-50611800D01*
X53906077Y-51015824D01*
X54036215Y-51069862D01*
X53908200Y-51122757D01*
X53504176Y-51526077D01*
X53285250Y-52053309D01*
X53284752Y-52624187D01*
X53502757Y-53151800D01*
X53906077Y-53555824D01*
X54036215Y-53609862D01*
X53908200Y-53662757D01*
X53504176Y-54066077D01*
X53285250Y-54593309D01*
X53284752Y-55164187D01*
X53502757Y-55691800D01*
X53906077Y-56095824D01*
X54036215Y-56149862D01*
X53908200Y-56202757D01*
X53504176Y-56606077D01*
X53285250Y-57133309D01*
X53284752Y-57704187D01*
X53502757Y-58231800D01*
X53906077Y-58635824D01*
X54036215Y-58689862D01*
X53908200Y-58742757D01*
X53504176Y-59146077D01*
X53285250Y-59673309D01*
X53284752Y-60244187D01*
X53502757Y-60771800D01*
X53906077Y-61175824D01*
X54036215Y-61229862D01*
X53908200Y-61282757D01*
X53504176Y-61686077D01*
X53285250Y-62213309D01*
X53284752Y-62784187D01*
X53502757Y-63311800D01*
X53906077Y-63715824D01*
X54433309Y-63934750D01*
X55004187Y-63935248D01*
X55531800Y-63717243D01*
X55935824Y-63313923D01*
X55989862Y-63183785D01*
X56042757Y-63311800D01*
X56446077Y-63715824D01*
X56973309Y-63934750D01*
X57544187Y-63935248D01*
X58071800Y-63717243D01*
X58475824Y-63313923D01*
X58529862Y-63183785D01*
X58582757Y-63311800D01*
X58986077Y-63715824D01*
X59513309Y-63934750D01*
X60084187Y-63935248D01*
X60611800Y-63717243D01*
X61015824Y-63313923D01*
X61069862Y-63183785D01*
X61122757Y-63311800D01*
X61526077Y-63715824D01*
X62053309Y-63934750D01*
X62624187Y-63935248D01*
X63151800Y-63717243D01*
X63555824Y-63313923D01*
X63609862Y-63183785D01*
X63662757Y-63311800D01*
X64066077Y-63715824D01*
X64593309Y-63934750D01*
X65164187Y-63935248D01*
X65691800Y-63717243D01*
X66095824Y-63313923D01*
X66149862Y-63183785D01*
X66202757Y-63311800D01*
X66606077Y-63715824D01*
X67133309Y-63934750D01*
X67704187Y-63935248D01*
X68231800Y-63717243D01*
X68635824Y-63313923D01*
X68689862Y-63183785D01*
X68742757Y-63311800D01*
X69146077Y-63715824D01*
X69673309Y-63934750D01*
X70244187Y-63935248D01*
X70771800Y-63717243D01*
X71175824Y-63313923D01*
X71394750Y-62786691D01*
X71394752Y-62784187D01*
X72564752Y-62784187D01*
X72782757Y-63311800D01*
X73186077Y-63715824D01*
X73713309Y-63934750D01*
X74284187Y-63935248D01*
X74811800Y-63717243D01*
X75215824Y-63313923D01*
X75434750Y-62786691D01*
X75435000Y-62500000D01*
X80156887Y-62500000D01*
X80266120Y-63049151D01*
X80577189Y-63514698D01*
X81042736Y-63825767D01*
X81591887Y-63935000D01*
X81648113Y-63935000D01*
X82197264Y-63825767D01*
X82662811Y-63514698D01*
X82747665Y-63387704D01*
X84576996Y-63387704D01*
X84642342Y-63940812D01*
X84728290Y-64148308D01*
X84959192Y-64225439D01*
X85684630Y-63500000D01*
X86315370Y-63500000D01*
X87040808Y-64225439D01*
X87271710Y-64148308D01*
X87423004Y-63612296D01*
X87396470Y-63387704D01*
X93576996Y-63387704D01*
X93642342Y-63940812D01*
X93728290Y-64148308D01*
X93959192Y-64225439D01*
X94684630Y-63500000D01*
X95315370Y-63500000D01*
X96040808Y-64225439D01*
X96271710Y-64148308D01*
X96423004Y-63612296D01*
X96357658Y-63059188D01*
X96271710Y-62851692D01*
X96040808Y-62774561D01*
X95315370Y-63500000D01*
X94684630Y-63500000D01*
X93959192Y-62774561D01*
X93728290Y-62851692D01*
X93576996Y-63387704D01*
X87396470Y-63387704D01*
X87357658Y-63059188D01*
X87271710Y-62851692D01*
X87040808Y-62774561D01*
X86315370Y-63500000D01*
X85684630Y-63500000D01*
X84959192Y-62774561D01*
X84728290Y-62851692D01*
X84576996Y-63387704D01*
X82747665Y-63387704D01*
X82973880Y-63049151D01*
X83083113Y-62500000D01*
X83074996Y-62459192D01*
X85274561Y-62459192D01*
X86000000Y-63184630D01*
X86725439Y-62459192D01*
X94274561Y-62459192D01*
X95000000Y-63184630D01*
X95725439Y-62459192D01*
X95648308Y-62228290D01*
X95112296Y-62076996D01*
X94559188Y-62142342D01*
X94351692Y-62228290D01*
X94274561Y-62459192D01*
X86725439Y-62459192D01*
X86648308Y-62228290D01*
X86112296Y-62076996D01*
X85559188Y-62142342D01*
X85351692Y-62228290D01*
X85274561Y-62459192D01*
X83074996Y-62459192D01*
X82973880Y-61950849D01*
X82662811Y-61485302D01*
X82197264Y-61174233D01*
X81648113Y-61065000D01*
X81591887Y-61065000D01*
X81042736Y-61174233D01*
X80577189Y-61485302D01*
X80266120Y-61950849D01*
X80156887Y-62500000D01*
X75435000Y-62500000D01*
X75435248Y-62215813D01*
X75217243Y-61688200D01*
X74813923Y-61284176D01*
X74286691Y-61065250D01*
X73715813Y-61064752D01*
X73188200Y-61282757D01*
X72784176Y-61686077D01*
X72565250Y-62213309D01*
X72564752Y-62784187D01*
X71394752Y-62784187D01*
X71395248Y-62215813D01*
X71177243Y-61688200D01*
X70773923Y-61284176D01*
X70643785Y-61230138D01*
X70771800Y-61177243D01*
X71172485Y-60777256D01*
X84599757Y-60777256D01*
X84812445Y-61292000D01*
X85205928Y-61686170D01*
X85720301Y-61899757D01*
X86277256Y-61900243D01*
X86792000Y-61687555D01*
X87186170Y-61294072D01*
X87399757Y-60779699D01*
X87399759Y-60777256D01*
X93599757Y-60777256D01*
X93812445Y-61292000D01*
X94205928Y-61686170D01*
X94720301Y-61899757D01*
X95277256Y-61900243D01*
X95792000Y-61687555D01*
X96186170Y-61294072D01*
X96399757Y-60779699D01*
X96400243Y-60222744D01*
X96187555Y-59708000D01*
X95794072Y-59313830D01*
X95279699Y-59100243D01*
X94722744Y-59099757D01*
X94208000Y-59312445D01*
X93813830Y-59705928D01*
X93600243Y-60220301D01*
X93599757Y-60777256D01*
X87399759Y-60777256D01*
X87400243Y-60222744D01*
X87187555Y-59708000D01*
X86794072Y-59313830D01*
X86279699Y-59100243D01*
X85722744Y-59099757D01*
X85208000Y-59312445D01*
X84813830Y-59705928D01*
X84600243Y-60220301D01*
X84599757Y-60777256D01*
X71172485Y-60777256D01*
X71175824Y-60773923D01*
X71394750Y-60246691D01*
X71395248Y-59675813D01*
X71177243Y-59148200D01*
X70773923Y-58744176D01*
X70643785Y-58690138D01*
X70771800Y-58637243D01*
X71175824Y-58233923D01*
X71365448Y-57777256D01*
X84599757Y-57777256D01*
X84812445Y-58292000D01*
X85205928Y-58686170D01*
X85720301Y-58899757D01*
X86277256Y-58900243D01*
X86792000Y-58687555D01*
X87186170Y-58294072D01*
X87399757Y-57779699D01*
X87399759Y-57777256D01*
X93599757Y-57777256D01*
X93812445Y-58292000D01*
X94205928Y-58686170D01*
X94720301Y-58899757D01*
X95277256Y-58900243D01*
X95792000Y-58687555D01*
X96186170Y-58294072D01*
X96399757Y-57779699D01*
X96400243Y-57222744D01*
X96187555Y-56708000D01*
X95794072Y-56313830D01*
X95279699Y-56100243D01*
X94722744Y-56099757D01*
X94208000Y-56312445D01*
X93813830Y-56705928D01*
X93600243Y-57220301D01*
X93599757Y-57777256D01*
X87399759Y-57777256D01*
X87400243Y-57222744D01*
X87187555Y-56708000D01*
X86794072Y-56313830D01*
X86279699Y-56100243D01*
X85722744Y-56099757D01*
X85208000Y-56312445D01*
X84813830Y-56705928D01*
X84600243Y-57220301D01*
X84599757Y-57777256D01*
X71365448Y-57777256D01*
X71394750Y-57706691D01*
X71395248Y-57135813D01*
X71177243Y-56608200D01*
X70773923Y-56204176D01*
X70643785Y-56150138D01*
X70771800Y-56097243D01*
X71175824Y-55693923D01*
X71285414Y-55430000D01*
X72536887Y-55430000D01*
X72646120Y-55979151D01*
X72957189Y-56444698D01*
X73422736Y-56755767D01*
X73971887Y-56865000D01*
X74028113Y-56865000D01*
X74577264Y-56755767D01*
X74965390Y-56496429D01*
X80868940Y-56496429D01*
X80950463Y-56730930D01*
X81499273Y-56888123D01*
X82066462Y-56823331D01*
X82289537Y-56730930D01*
X82371060Y-56496429D01*
X81620000Y-55745370D01*
X80868940Y-56496429D01*
X74965390Y-56496429D01*
X75042811Y-56444698D01*
X75353880Y-55979151D01*
X75463113Y-55430000D01*
X75439099Y-55309273D01*
X80161877Y-55309273D01*
X80226669Y-55876462D01*
X80319070Y-56099537D01*
X80553571Y-56181060D01*
X81304630Y-55430000D01*
X81935370Y-55430000D01*
X82686429Y-56181060D01*
X82920930Y-56099537D01*
X83078123Y-55550727D01*
X83050175Y-55306067D01*
X83319663Y-55576026D01*
X83786273Y-55769779D01*
X84291510Y-55770220D01*
X84758458Y-55577282D01*
X85116026Y-55220337D01*
X85309779Y-54753727D01*
X85309780Y-54751510D01*
X91769780Y-54751510D01*
X91962718Y-55218458D01*
X92319663Y-55576026D01*
X92786273Y-55769779D01*
X93291510Y-55770220D01*
X93758458Y-55577282D01*
X94116026Y-55220337D01*
X94309779Y-54753727D01*
X94310220Y-54248490D01*
X94117282Y-53781542D01*
X93760337Y-53423974D01*
X93293727Y-53230221D01*
X92788490Y-53229780D01*
X92321542Y-53422718D01*
X91963974Y-53779663D01*
X91770221Y-54246273D01*
X91769780Y-54751510D01*
X85309780Y-54751510D01*
X85310220Y-54248490D01*
X85117282Y-53781542D01*
X84760337Y-53423974D01*
X84293727Y-53230221D01*
X83788490Y-53229780D01*
X83321542Y-53422718D01*
X82963974Y-53779663D01*
X82770221Y-54246273D01*
X82769818Y-54707930D01*
X82686429Y-54678940D01*
X81935370Y-55430000D01*
X81304630Y-55430000D01*
X80553571Y-54678940D01*
X80319070Y-54760463D01*
X80161877Y-55309273D01*
X75439099Y-55309273D01*
X75353880Y-54880849D01*
X75042811Y-54415302D01*
X74965391Y-54363571D01*
X80868940Y-54363571D01*
X81620000Y-55114630D01*
X82371060Y-54363571D01*
X82289537Y-54129070D01*
X81740727Y-53971877D01*
X81173538Y-54036669D01*
X80950463Y-54129070D01*
X80868940Y-54363571D01*
X74965391Y-54363571D01*
X74577264Y-54104233D01*
X74028113Y-53995000D01*
X73971887Y-53995000D01*
X73422736Y-54104233D01*
X72957189Y-54415302D01*
X72646120Y-54880849D01*
X72536887Y-55430000D01*
X71285414Y-55430000D01*
X71394750Y-55166691D01*
X71395248Y-54595813D01*
X71177243Y-54068200D01*
X70773923Y-53664176D01*
X70643785Y-53610138D01*
X70771800Y-53557243D01*
X71175824Y-53153923D01*
X71394750Y-52626691D01*
X71395248Y-52055813D01*
X71283015Y-51784187D01*
X72564752Y-51784187D01*
X72782757Y-52311800D01*
X73186077Y-52715824D01*
X73713309Y-52934750D01*
X74284187Y-52935248D01*
X74811800Y-52717243D01*
X75215824Y-52313923D01*
X75434750Y-51786691D01*
X75435000Y-51500000D01*
X80156887Y-51500000D01*
X80266120Y-52049151D01*
X80577189Y-52514698D01*
X81042736Y-52825767D01*
X81591887Y-52935000D01*
X81648113Y-52935000D01*
X82197264Y-52825767D01*
X82662811Y-52514698D01*
X82973880Y-52049151D01*
X83083113Y-51500000D01*
X82973880Y-50950849D01*
X82662811Y-50485302D01*
X82197264Y-50174233D01*
X81648113Y-50065000D01*
X81591887Y-50065000D01*
X81042736Y-50174233D01*
X80577189Y-50485302D01*
X80266120Y-50950849D01*
X80156887Y-51500000D01*
X75435000Y-51500000D01*
X75435248Y-51215813D01*
X75217243Y-50688200D01*
X74813923Y-50284176D01*
X74286691Y-50065250D01*
X73715813Y-50064752D01*
X73188200Y-50282757D01*
X72784176Y-50686077D01*
X72565250Y-51213309D01*
X72564752Y-51784187D01*
X71283015Y-51784187D01*
X71177243Y-51528200D01*
X70773923Y-51124176D01*
X70643785Y-51070138D01*
X70771800Y-51017243D01*
X71175824Y-50613923D01*
X71394750Y-50086691D01*
X71395248Y-49515813D01*
X71177243Y-48988200D01*
X70773923Y-48584176D01*
X70643785Y-48530138D01*
X70771800Y-48477243D01*
X71175824Y-48073923D01*
X71394750Y-47546691D01*
X71395248Y-46975813D01*
X71177243Y-46448200D01*
X70773923Y-46044176D01*
X70643785Y-45990138D01*
X70771800Y-45937243D01*
X71175824Y-45533923D01*
X71394750Y-45006691D01*
X71395248Y-44435813D01*
X71215174Y-44000000D01*
X72416887Y-44000000D01*
X72526120Y-44549151D01*
X72837189Y-45014698D01*
X73302736Y-45325767D01*
X73851887Y-45435000D01*
X73908113Y-45435000D01*
X74457264Y-45325767D01*
X74845390Y-45066429D01*
X80748940Y-45066429D01*
X80830463Y-45300930D01*
X81379273Y-45458123D01*
X81946462Y-45393331D01*
X82169537Y-45300930D01*
X82251060Y-45066429D01*
X81500000Y-44315370D01*
X80748940Y-45066429D01*
X74845390Y-45066429D01*
X74922811Y-45014698D01*
X75233880Y-44549151D01*
X75343113Y-44000000D01*
X75319099Y-43879273D01*
X80041877Y-43879273D01*
X80106669Y-44446462D01*
X80199070Y-44669537D01*
X80433571Y-44751060D01*
X81184630Y-44000000D01*
X81815370Y-44000000D01*
X82566429Y-44751060D01*
X82769842Y-44680345D01*
X82769780Y-44751510D01*
X82962718Y-45218458D01*
X83319663Y-45576026D01*
X83786273Y-45769779D01*
X84291510Y-45770220D01*
X84758458Y-45577282D01*
X85116026Y-45220337D01*
X85309779Y-44753727D01*
X85309780Y-44751510D01*
X91769780Y-44751510D01*
X91962718Y-45218458D01*
X92319663Y-45576026D01*
X92786273Y-45769779D01*
X93291510Y-45770220D01*
X93758458Y-45577282D01*
X94116026Y-45220337D01*
X94309779Y-44753727D01*
X94310220Y-44248490D01*
X94117282Y-43781542D01*
X93760337Y-43423974D01*
X93293727Y-43230221D01*
X92788490Y-43229780D01*
X92321542Y-43422718D01*
X91963974Y-43779663D01*
X91770221Y-44246273D01*
X91769780Y-44751510D01*
X85309780Y-44751510D01*
X85310220Y-44248490D01*
X85117282Y-43781542D01*
X84760337Y-43423974D01*
X84293727Y-43230221D01*
X83788490Y-43229780D01*
X83321542Y-43422718D01*
X82963974Y-43779663D01*
X82928830Y-43864299D01*
X82893331Y-43553538D01*
X82800930Y-43330463D01*
X82566429Y-43248940D01*
X81815370Y-44000000D01*
X81184630Y-44000000D01*
X80433571Y-43248940D01*
X80199070Y-43330463D01*
X80041877Y-43879273D01*
X75319099Y-43879273D01*
X75233880Y-43450849D01*
X74922811Y-42985302D01*
X74845391Y-42933571D01*
X80748940Y-42933571D01*
X81500000Y-43684630D01*
X82251060Y-42933571D01*
X82169537Y-42699070D01*
X81620727Y-42541877D01*
X81053538Y-42606669D01*
X80830463Y-42699070D01*
X80748940Y-42933571D01*
X74845391Y-42933571D01*
X74457264Y-42674233D01*
X73908113Y-42565000D01*
X73851887Y-42565000D01*
X73302736Y-42674233D01*
X72837189Y-42985302D01*
X72526120Y-43450849D01*
X72416887Y-44000000D01*
X71215174Y-44000000D01*
X71177243Y-43908200D01*
X70773923Y-43504176D01*
X70643785Y-43450138D01*
X70771800Y-43397243D01*
X71175824Y-42993923D01*
X71363973Y-42540808D01*
X85274561Y-42540808D01*
X85351692Y-42771710D01*
X85887704Y-42923004D01*
X86440812Y-42857658D01*
X86648308Y-42771710D01*
X86725439Y-42540808D01*
X94274561Y-42540808D01*
X94351692Y-42771710D01*
X94887704Y-42923004D01*
X95440812Y-42857658D01*
X95648308Y-42771710D01*
X95725439Y-42540808D01*
X95000000Y-41815370D01*
X94274561Y-42540808D01*
X86725439Y-42540808D01*
X86000000Y-41815370D01*
X85274561Y-42540808D01*
X71363973Y-42540808D01*
X71394750Y-42466691D01*
X71395248Y-41895813D01*
X71177243Y-41368200D01*
X70773923Y-40964176D01*
X70643785Y-40910138D01*
X70771800Y-40857243D01*
X71175824Y-40453923D01*
X71246304Y-40284187D01*
X72444752Y-40284187D01*
X72662757Y-40811800D01*
X73066077Y-41215824D01*
X73593309Y-41434750D01*
X74164187Y-41435248D01*
X74691800Y-41217243D01*
X75095824Y-40813923D01*
X75314750Y-40286691D01*
X75315000Y-40000000D01*
X80036887Y-40000000D01*
X80146120Y-40549151D01*
X80457189Y-41014698D01*
X80922736Y-41325767D01*
X81471887Y-41435000D01*
X81528113Y-41435000D01*
X81765885Y-41387704D01*
X84576996Y-41387704D01*
X84642342Y-41940812D01*
X84728290Y-42148308D01*
X84959192Y-42225439D01*
X85684630Y-41500000D01*
X86315370Y-41500000D01*
X87040808Y-42225439D01*
X87271710Y-42148308D01*
X87423004Y-41612296D01*
X87396470Y-41387704D01*
X93576996Y-41387704D01*
X93642342Y-41940812D01*
X93728290Y-42148308D01*
X93959192Y-42225439D01*
X94684630Y-41500000D01*
X95315370Y-41500000D01*
X96040808Y-42225439D01*
X96271710Y-42148308D01*
X96423004Y-41612296D01*
X96357658Y-41059188D01*
X96271710Y-40851692D01*
X96040808Y-40774561D01*
X95315370Y-41500000D01*
X94684630Y-41500000D01*
X93959192Y-40774561D01*
X93728290Y-40851692D01*
X93576996Y-41387704D01*
X87396470Y-41387704D01*
X87357658Y-41059188D01*
X87271710Y-40851692D01*
X87040808Y-40774561D01*
X86315370Y-41500000D01*
X85684630Y-41500000D01*
X84959192Y-40774561D01*
X84728290Y-40851692D01*
X84576996Y-41387704D01*
X81765885Y-41387704D01*
X82077264Y-41325767D01*
X82542811Y-41014698D01*
X82853880Y-40549151D01*
X82871773Y-40459192D01*
X85274561Y-40459192D01*
X86000000Y-41184630D01*
X86725439Y-40459192D01*
X94274561Y-40459192D01*
X95000000Y-41184630D01*
X95725439Y-40459192D01*
X95648308Y-40228290D01*
X95112296Y-40076996D01*
X94559188Y-40142342D01*
X94351692Y-40228290D01*
X94274561Y-40459192D01*
X86725439Y-40459192D01*
X86648308Y-40228290D01*
X86112296Y-40076996D01*
X85559188Y-40142342D01*
X85351692Y-40228290D01*
X85274561Y-40459192D01*
X82871773Y-40459192D01*
X82963113Y-40000000D01*
X82853880Y-39450849D01*
X82542811Y-38985302D01*
X82231449Y-38777256D01*
X84599757Y-38777256D01*
X84812445Y-39292000D01*
X85205928Y-39686170D01*
X85720301Y-39899757D01*
X86277256Y-39900243D01*
X86792000Y-39687555D01*
X87186170Y-39294072D01*
X87399757Y-38779699D01*
X87399759Y-38777256D01*
X93599757Y-38777256D01*
X93812445Y-39292000D01*
X94205928Y-39686170D01*
X94720301Y-39899757D01*
X95277256Y-39900243D01*
X95792000Y-39687555D01*
X96186170Y-39294072D01*
X96399757Y-38779699D01*
X96400243Y-38222744D01*
X96187555Y-37708000D01*
X95794072Y-37313830D01*
X95279699Y-37100243D01*
X94722744Y-37099757D01*
X94208000Y-37312445D01*
X93813830Y-37705928D01*
X93600243Y-38220301D01*
X93599757Y-38777256D01*
X87399759Y-38777256D01*
X87400243Y-38222744D01*
X87187555Y-37708000D01*
X86794072Y-37313830D01*
X86279699Y-37100243D01*
X85722744Y-37099757D01*
X85208000Y-37312445D01*
X84813830Y-37705928D01*
X84600243Y-38220301D01*
X84599757Y-38777256D01*
X82231449Y-38777256D01*
X82077264Y-38674233D01*
X81528113Y-38565000D01*
X81471887Y-38565000D01*
X80922736Y-38674233D01*
X80457189Y-38985302D01*
X80146120Y-39450849D01*
X80036887Y-40000000D01*
X75315000Y-40000000D01*
X75315248Y-39715813D01*
X75097243Y-39188200D01*
X74693923Y-38784176D01*
X74166691Y-38565250D01*
X73595813Y-38564752D01*
X73068200Y-38782757D01*
X72664176Y-39186077D01*
X72445250Y-39713309D01*
X72444752Y-40284187D01*
X71246304Y-40284187D01*
X71394750Y-39926691D01*
X71395248Y-39355813D01*
X71177243Y-38828200D01*
X70773923Y-38424176D01*
X70643785Y-38370138D01*
X70771800Y-38317243D01*
X71175824Y-37913923D01*
X71394750Y-37386691D01*
X71395248Y-36815813D01*
X71177243Y-36288200D01*
X70773923Y-35884176D01*
X70643785Y-35830138D01*
X70771768Y-35777256D01*
X84599757Y-35777256D01*
X84812445Y-36292000D01*
X85205928Y-36686170D01*
X85720301Y-36899757D01*
X86277256Y-36900243D01*
X86792000Y-36687555D01*
X87186170Y-36294072D01*
X87399757Y-35779699D01*
X87399759Y-35777256D01*
X93599757Y-35777256D01*
X93812445Y-36292000D01*
X94205928Y-36686170D01*
X94720301Y-36899757D01*
X95277256Y-36900243D01*
X95792000Y-36687555D01*
X96186170Y-36294072D01*
X96399757Y-35779699D01*
X96400243Y-35222744D01*
X96187555Y-34708000D01*
X95794072Y-34313830D01*
X95279699Y-34100243D01*
X94722744Y-34099757D01*
X94208000Y-34312445D01*
X93813830Y-34705928D01*
X93600243Y-35220301D01*
X93599757Y-35777256D01*
X87399759Y-35777256D01*
X87400243Y-35222744D01*
X87187555Y-34708000D01*
X86794072Y-34313830D01*
X86279699Y-34100243D01*
X85722744Y-34099757D01*
X85208000Y-34312445D01*
X84813830Y-34705928D01*
X84600243Y-35220301D01*
X84599757Y-35777256D01*
X70771768Y-35777256D01*
X70771800Y-35777243D01*
X71175824Y-35373923D01*
X71394750Y-34846691D01*
X71395248Y-34275813D01*
X71177243Y-33748200D01*
X70773923Y-33344176D01*
X70643785Y-33290138D01*
X70771800Y-33237243D01*
X70979404Y-33030000D01*
X72406887Y-33030000D01*
X72516120Y-33579151D01*
X72827189Y-34044698D01*
X73292736Y-34355767D01*
X73841887Y-34465000D01*
X73898113Y-34465000D01*
X74447264Y-34355767D01*
X74835390Y-34096429D01*
X80738940Y-34096429D01*
X80820463Y-34330930D01*
X81369273Y-34488123D01*
X81936462Y-34423331D01*
X82159537Y-34330930D01*
X82241060Y-34096429D01*
X81490000Y-33345370D01*
X80738940Y-34096429D01*
X74835390Y-34096429D01*
X74912811Y-34044698D01*
X75223880Y-33579151D01*
X75333113Y-33030000D01*
X75309099Y-32909273D01*
X80031877Y-32909273D01*
X80096669Y-33476462D01*
X80189070Y-33699537D01*
X80423571Y-33781060D01*
X81174630Y-33030000D01*
X81805370Y-33030000D01*
X82556429Y-33781060D01*
X82790930Y-33699537D01*
X82942641Y-33169867D01*
X82962718Y-33218458D01*
X83319663Y-33576026D01*
X83786273Y-33769779D01*
X84291510Y-33770220D01*
X84758458Y-33577282D01*
X85116026Y-33220337D01*
X85309779Y-32753727D01*
X85309780Y-32751510D01*
X91769780Y-32751510D01*
X91962718Y-33218458D01*
X92319663Y-33576026D01*
X92786273Y-33769779D01*
X93291510Y-33770220D01*
X93758458Y-33577282D01*
X94116026Y-33220337D01*
X94309779Y-32753727D01*
X94310220Y-32248490D01*
X94117282Y-31781542D01*
X93760337Y-31423974D01*
X93293727Y-31230221D01*
X92788490Y-31229780D01*
X92321542Y-31422718D01*
X91963974Y-31779663D01*
X91770221Y-32246273D01*
X91769780Y-32751510D01*
X85309780Y-32751510D01*
X85310220Y-32248490D01*
X85117282Y-31781542D01*
X84760337Y-31423974D01*
X84293727Y-31230221D01*
X83788490Y-31229780D01*
X83321542Y-31422718D01*
X82963974Y-31779663D01*
X82770221Y-32246273D01*
X82770128Y-32353231D01*
X82556429Y-32278940D01*
X81805370Y-33030000D01*
X81174630Y-33030000D01*
X80423571Y-32278940D01*
X80189070Y-32360463D01*
X80031877Y-32909273D01*
X75309099Y-32909273D01*
X75223880Y-32480849D01*
X74912811Y-32015302D01*
X74835391Y-31963571D01*
X80738940Y-31963571D01*
X81490000Y-32714630D01*
X82241060Y-31963571D01*
X82159537Y-31729070D01*
X81610727Y-31571877D01*
X81043538Y-31636669D01*
X80820463Y-31729070D01*
X80738940Y-31963571D01*
X74835391Y-31963571D01*
X74447264Y-31704233D01*
X73898113Y-31595000D01*
X73841887Y-31595000D01*
X73292736Y-31704233D01*
X72827189Y-32015302D01*
X72516120Y-32480849D01*
X72406887Y-33030000D01*
X70979404Y-33030000D01*
X71175824Y-32833923D01*
X71394750Y-32306691D01*
X71395248Y-31735813D01*
X71177243Y-31208200D01*
X70773923Y-30804176D01*
X70643785Y-30750138D01*
X70771800Y-30697243D01*
X71175824Y-30293923D01*
X71394750Y-29766691D01*
X71395170Y-29284187D01*
X72444752Y-29284187D01*
X72662757Y-29811800D01*
X73066077Y-30215824D01*
X73593309Y-30434750D01*
X74164187Y-30435248D01*
X74691800Y-30217243D01*
X75095824Y-29813923D01*
X75314750Y-29286691D01*
X75315000Y-29000000D01*
X80036887Y-29000000D01*
X80146120Y-29549151D01*
X80457189Y-30014698D01*
X80922736Y-30325767D01*
X81471887Y-30435000D01*
X81528113Y-30435000D01*
X82077264Y-30325767D01*
X82542811Y-30014698D01*
X82853880Y-29549151D01*
X82963113Y-29000000D01*
X82853880Y-28450849D01*
X82542811Y-27985302D01*
X82077264Y-27674233D01*
X81528113Y-27565000D01*
X81471887Y-27565000D01*
X80922736Y-27674233D01*
X80457189Y-27985302D01*
X80146120Y-28450849D01*
X80036887Y-29000000D01*
X75315000Y-29000000D01*
X75315248Y-28715813D01*
X75097243Y-28188200D01*
X74693923Y-27784176D01*
X74166691Y-27565250D01*
X73595813Y-27564752D01*
X73068200Y-27782757D01*
X72664176Y-28186077D01*
X72445250Y-28713309D01*
X72444752Y-29284187D01*
X71395170Y-29284187D01*
X71395248Y-29195813D01*
X71177243Y-28668200D01*
X70773923Y-28264176D01*
X70246691Y-28045250D01*
X69675813Y-28044752D01*
X69148200Y-28262757D01*
X68744176Y-28666077D01*
X68525250Y-29193309D01*
X68524752Y-29764187D01*
X68742757Y-30291800D01*
X69146077Y-30695824D01*
X69276215Y-30749862D01*
X69148200Y-30802757D01*
X68744176Y-31206077D01*
X68690138Y-31336215D01*
X68637243Y-31208200D01*
X68233923Y-30804176D01*
X67706691Y-30585250D01*
X67135813Y-30584752D01*
X66608200Y-30802757D01*
X66204176Y-31206077D01*
X65985250Y-31733309D01*
X65984752Y-32304187D01*
X66202757Y-32831800D01*
X66606077Y-33235824D01*
X67133309Y-33454750D01*
X67704187Y-33455248D01*
X68231800Y-33237243D01*
X68635824Y-32833923D01*
X68689862Y-32703785D01*
X68742757Y-32831800D01*
X69146077Y-33235824D01*
X69276215Y-33289862D01*
X69148200Y-33342757D01*
X68744176Y-33746077D01*
X68525250Y-34273309D01*
X68524752Y-34844187D01*
X68742757Y-35371800D01*
X69146077Y-35775824D01*
X69276215Y-35829862D01*
X69148200Y-35882757D01*
X68744176Y-36286077D01*
X68690138Y-36416215D01*
X68637243Y-36288200D01*
X68233923Y-35884176D01*
X67706691Y-35665250D01*
X67135813Y-35664752D01*
X66608200Y-35882757D01*
X66204176Y-36286077D01*
X65985250Y-36813309D01*
X65984752Y-37384187D01*
X66202757Y-37911800D01*
X66606077Y-38315824D01*
X66736215Y-38369862D01*
X66608200Y-38422757D01*
X66204176Y-38826077D01*
X65985250Y-39353309D01*
X65984752Y-39924187D01*
X66202757Y-40451800D01*
X66606077Y-40855824D01*
X66736215Y-40909862D01*
X66608200Y-40962757D01*
X66204176Y-41366077D01*
X65985250Y-41893309D01*
X65984752Y-42464187D01*
X66202757Y-42991800D01*
X66606077Y-43395824D01*
X67133309Y-43614750D01*
X67704187Y-43615248D01*
X68231800Y-43397243D01*
X68635824Y-42993923D01*
X68689862Y-42863785D01*
X68742757Y-42991800D01*
X69146077Y-43395824D01*
X69276215Y-43449862D01*
X69148200Y-43502757D01*
X68744176Y-43906077D01*
X68525250Y-44433309D01*
X68524752Y-45004187D01*
X68742757Y-45531800D01*
X69146077Y-45935824D01*
X69276215Y-45989862D01*
X69148200Y-46042757D01*
X68744176Y-46446077D01*
X68525250Y-46973309D01*
X68524752Y-47544187D01*
X68742757Y-48071800D01*
X69146077Y-48475824D01*
X69276215Y-48529862D01*
X69148200Y-48582757D01*
X68744176Y-48986077D01*
X68525250Y-49513309D01*
X68524752Y-50084187D01*
X68742757Y-50611800D01*
X69146077Y-51015824D01*
X69276215Y-51069862D01*
X69148200Y-51122757D01*
X68744176Y-51526077D01*
X68525250Y-52053309D01*
X68524752Y-52624187D01*
X68742757Y-53151800D01*
X69146077Y-53555824D01*
X69276215Y-53609862D01*
X69148200Y-53662757D01*
X68744176Y-54066077D01*
X68525250Y-54593309D01*
X68524752Y-55164187D01*
X68742757Y-55691800D01*
X69146077Y-56095824D01*
X69276215Y-56149862D01*
X69148200Y-56202757D01*
X68744176Y-56606077D01*
X68525250Y-57133309D01*
X68524752Y-57704187D01*
X68742757Y-58231800D01*
X69146077Y-58635824D01*
X69276215Y-58689862D01*
X69148200Y-58742757D01*
X68744176Y-59146077D01*
X68525250Y-59673309D01*
X68524752Y-60244187D01*
X68742757Y-60771800D01*
X69146077Y-61175824D01*
X69276215Y-61229862D01*
X69148200Y-61282757D01*
X68744176Y-61686077D01*
X68690138Y-61816215D01*
X68637243Y-61688200D01*
X68233923Y-61284176D01*
X67706691Y-61065250D01*
X67135813Y-61064752D01*
X66608200Y-61282757D01*
X66204176Y-61686077D01*
X66150138Y-61816215D01*
X66097243Y-61688200D01*
X65693923Y-61284176D01*
X65563785Y-61230138D01*
X65691800Y-61177243D01*
X66095824Y-60773923D01*
X66314750Y-60246691D01*
X66315248Y-59675813D01*
X66097243Y-59148200D01*
X65693923Y-58744176D01*
X65563785Y-58690138D01*
X65691800Y-58637243D01*
X66095824Y-58233923D01*
X66314750Y-57706691D01*
X66315248Y-57135813D01*
X66097243Y-56608200D01*
X65693923Y-56204176D01*
X65563785Y-56150138D01*
X65691800Y-56097243D01*
X66095824Y-55693923D01*
X66314750Y-55166691D01*
X66315248Y-54595813D01*
X66097243Y-54068200D01*
X65693923Y-53664176D01*
X65563785Y-53610138D01*
X65691800Y-53557243D01*
X66095824Y-53153923D01*
X66314750Y-52626691D01*
X66315248Y-52055813D01*
X66097243Y-51528200D01*
X65693923Y-51124176D01*
X65563785Y-51070138D01*
X65691800Y-51017243D01*
X66095824Y-50613923D01*
X66314750Y-50086691D01*
X66315248Y-49515813D01*
X66097243Y-48988200D01*
X65693923Y-48584176D01*
X65563785Y-48530138D01*
X65691800Y-48477243D01*
X66095824Y-48073923D01*
X66314750Y-47546691D01*
X66315248Y-46975813D01*
X66097243Y-46448200D01*
X65693923Y-46044176D01*
X65563785Y-45990138D01*
X65691800Y-45937243D01*
X66095824Y-45533923D01*
X66314750Y-45006691D01*
X66315248Y-44435813D01*
X66097243Y-43908200D01*
X65693923Y-43504176D01*
X65166691Y-43285250D01*
X64595813Y-43284752D01*
X64068200Y-43502757D01*
X63664176Y-43906077D01*
X63610138Y-44036215D01*
X63557243Y-43908200D01*
X63153923Y-43504176D01*
X62626691Y-43285250D01*
X62055813Y-43284752D01*
X61528200Y-43502757D01*
X61124176Y-43906077D01*
X60905250Y-44433309D01*
X60904752Y-45004187D01*
X61122757Y-45531800D01*
X61526077Y-45935824D01*
X61656215Y-45989862D01*
X61528200Y-46042757D01*
X61124176Y-46446077D01*
X60905250Y-46973309D01*
X60904752Y-47544187D01*
X61122757Y-48071800D01*
X61526077Y-48475824D01*
X61656215Y-48529862D01*
X61528200Y-48582757D01*
X61124176Y-48986077D01*
X60905250Y-49513309D01*
X60904752Y-50084187D01*
X61122757Y-50611800D01*
X61526077Y-51015824D01*
X61656215Y-51069862D01*
X61528200Y-51122757D01*
X61124176Y-51526077D01*
X60905250Y-52053309D01*
X60904752Y-52624187D01*
X61122757Y-53151800D01*
X61526077Y-53555824D01*
X61656215Y-53609862D01*
X61528200Y-53662757D01*
X61124176Y-54066077D01*
X60905250Y-54593309D01*
X60904752Y-55164187D01*
X61122757Y-55691800D01*
X61526077Y-56095824D01*
X61656215Y-56149862D01*
X61528200Y-56202757D01*
X61124176Y-56606077D01*
X60905250Y-57133309D01*
X60904752Y-57704187D01*
X61122757Y-58231800D01*
X61526077Y-58635824D01*
X61656215Y-58689862D01*
X61528200Y-58742757D01*
X61124176Y-59146077D01*
X60905250Y-59673309D01*
X60904752Y-60244187D01*
X61122757Y-60771800D01*
X61526077Y-61175824D01*
X61656215Y-61229862D01*
X61528200Y-61282757D01*
X61124176Y-61686077D01*
X61070138Y-61816215D01*
X61017243Y-61688200D01*
X60613923Y-61284176D01*
X60086691Y-61065250D01*
X59515813Y-61064752D01*
X58988200Y-61282757D01*
X58584176Y-61686077D01*
X58530138Y-61816215D01*
X58477243Y-61688200D01*
X58073923Y-61284176D01*
X57546691Y-61065250D01*
X56975813Y-61064752D01*
X56448200Y-61282757D01*
X56044176Y-61686077D01*
X55990138Y-61816215D01*
X55937243Y-61688200D01*
X55533923Y-61284176D01*
X55403785Y-61230138D01*
X55531800Y-61177243D01*
X55935824Y-60773923D01*
X56154750Y-60246691D01*
X56155248Y-59675813D01*
X55937243Y-59148200D01*
X55533923Y-58744176D01*
X55403785Y-58690138D01*
X55531800Y-58637243D01*
X55935824Y-58233923D01*
X56154750Y-57706691D01*
X56155248Y-57135813D01*
X55937243Y-56608200D01*
X55533923Y-56204176D01*
X55403785Y-56150138D01*
X55531800Y-56097243D01*
X55935824Y-55693923D01*
X56154750Y-55166691D01*
X56155248Y-54595813D01*
X55937243Y-54068200D01*
X55533923Y-53664176D01*
X55403785Y-53610138D01*
X55531800Y-53557243D01*
X55935824Y-53153923D01*
X56154750Y-52626691D01*
X56155248Y-52055813D01*
X55937243Y-51528200D01*
X55533923Y-51124176D01*
X55403785Y-51070138D01*
X55531800Y-51017243D01*
X55935824Y-50613923D01*
X56154750Y-50086691D01*
X56155248Y-49515813D01*
X55937243Y-48988200D01*
X55533923Y-48584176D01*
X55403785Y-48530138D01*
X55531800Y-48477243D01*
X55935824Y-48073923D01*
X56154750Y-47546691D01*
X56155248Y-46975813D01*
X55937243Y-46448200D01*
X55533923Y-46044176D01*
X55403785Y-45990138D01*
X55531800Y-45937243D01*
X55935824Y-45533923D01*
X56154750Y-45006691D01*
X56155248Y-44435813D01*
X55937243Y-43908200D01*
X55533923Y-43504176D01*
X55403785Y-43450138D01*
X55531800Y-43397243D01*
X55935824Y-42993923D01*
X56154750Y-42466691D01*
X56155248Y-41895813D01*
X55937243Y-41368200D01*
X55533923Y-40964176D01*
X55403785Y-40910138D01*
X55531800Y-40857243D01*
X55935824Y-40453923D01*
X56154750Y-39926691D01*
X56155248Y-39355813D01*
X55937243Y-38828200D01*
X55533923Y-38424176D01*
X55403785Y-38370138D01*
X55531800Y-38317243D01*
X55935824Y-37913923D01*
X56154750Y-37386691D01*
X56155248Y-36815813D01*
X55937243Y-36288200D01*
X55793188Y-36143893D01*
X60754725Y-36143893D01*
X60995519Y-36726657D01*
X61440997Y-37172914D01*
X62023341Y-37414724D01*
X62653893Y-37415275D01*
X63236657Y-37174481D01*
X63682914Y-36729003D01*
X63924724Y-36146659D01*
X63925275Y-35516107D01*
X63684481Y-34933343D01*
X63239003Y-34487086D01*
X62656659Y-34245276D01*
X62026107Y-34244725D01*
X61443343Y-34485519D01*
X60997086Y-34930997D01*
X60755276Y-35513341D01*
X60754725Y-36143893D01*
X55793188Y-36143893D01*
X55533923Y-35884176D01*
X55403785Y-35830138D01*
X55531800Y-35777243D01*
X55935824Y-35373923D01*
X56154750Y-34846691D01*
X56155248Y-34275813D01*
X55937243Y-33748200D01*
X55533923Y-33344176D01*
X55403785Y-33290138D01*
X55531800Y-33237243D01*
X55935824Y-32833923D01*
X56154750Y-32306691D01*
X56155248Y-31735813D01*
X55937243Y-31208200D01*
X55644554Y-30915000D01*
X55646310Y-30915000D01*
X55879699Y-30818327D01*
X56058327Y-30639698D01*
X56155000Y-30406309D01*
X56155000Y-29861750D01*
X55996250Y-29703000D01*
X54943000Y-29703000D01*
X54943000Y-29723000D01*
X54497000Y-29723000D01*
X54497000Y-29703000D01*
X53443750Y-29703000D01*
X53285000Y-29861750D01*
X53285000Y-30406309D01*
X53381673Y-30639698D01*
X53560301Y-30818327D01*
X53793690Y-30915000D01*
X53795761Y-30915000D01*
X53504176Y-31206077D01*
X53285250Y-31733309D01*
X53284752Y-32304187D01*
X36103818Y-32304187D01*
X35691000Y-31891370D01*
X34967758Y-32614611D01*
X17872242Y-32614611D01*
X17149000Y-31891370D01*
X16425758Y-32614611D01*
X835000Y-32614611D01*
X835000Y-31464427D01*
X15729008Y-31464427D01*
X15794402Y-32016327D01*
X15879796Y-32222488D01*
X16110389Y-32299242D01*
X16833630Y-31576000D01*
X17464370Y-31576000D01*
X18187611Y-32299242D01*
X18418204Y-32222488D01*
X18568992Y-31687573D01*
X18542552Y-31464427D01*
X34271008Y-31464427D01*
X34336402Y-32016327D01*
X34421796Y-32222488D01*
X34652389Y-32299242D01*
X35375630Y-31576000D01*
X36006370Y-31576000D01*
X36729611Y-32299242D01*
X36960204Y-32222488D01*
X37110992Y-31687573D01*
X37045598Y-31135673D01*
X36960204Y-30929512D01*
X36729611Y-30852758D01*
X36006370Y-31576000D01*
X35375630Y-31576000D01*
X34652389Y-30852758D01*
X34421796Y-30929512D01*
X34271008Y-31464427D01*
X18542552Y-31464427D01*
X18503598Y-31135673D01*
X18418204Y-30929512D01*
X18187611Y-30852758D01*
X17464370Y-31576000D01*
X16833630Y-31576000D01*
X16110389Y-30852758D01*
X15879796Y-30929512D01*
X15729008Y-31464427D01*
X835000Y-31464427D01*
X835000Y-30074611D01*
X16425758Y-30074611D01*
X16502512Y-30305204D01*
X16504799Y-30305849D01*
X16502512Y-30306796D01*
X16425758Y-30537389D01*
X17149000Y-31260630D01*
X17872242Y-30537389D01*
X17795488Y-30306796D01*
X17793201Y-30306151D01*
X17795488Y-30305204D01*
X17872242Y-30074611D01*
X34967758Y-30074611D01*
X35044512Y-30305204D01*
X35046799Y-30305849D01*
X35044512Y-30306796D01*
X34967758Y-30537389D01*
X35691000Y-31260630D01*
X36414242Y-30537389D01*
X36337488Y-30306796D01*
X36335201Y-30306151D01*
X36337488Y-30305204D01*
X36414242Y-30074611D01*
X35691000Y-29351370D01*
X34967758Y-30074611D01*
X17872242Y-30074611D01*
X17149000Y-29351370D01*
X16425758Y-30074611D01*
X835000Y-30074611D01*
X835000Y-28924427D01*
X15729008Y-28924427D01*
X15794402Y-29476327D01*
X15879796Y-29682488D01*
X16110389Y-29759242D01*
X16833630Y-29036000D01*
X17464370Y-29036000D01*
X18187611Y-29759242D01*
X18418204Y-29682488D01*
X18568992Y-29147573D01*
X18542552Y-28924427D01*
X34271008Y-28924427D01*
X34336402Y-29476327D01*
X34421796Y-29682488D01*
X34652389Y-29759242D01*
X35375630Y-29036000D01*
X36006370Y-29036000D01*
X36729611Y-29759242D01*
X36960204Y-29682488D01*
X37110992Y-29147573D01*
X37045598Y-28595673D01*
X37007476Y-28503637D01*
X40205091Y-28503637D01*
X40505466Y-29066448D01*
X40998354Y-29471469D01*
X41296365Y-29594895D01*
X41547000Y-29489310D01*
X41547000Y-28253000D01*
X41993000Y-28253000D01*
X41993000Y-29489310D01*
X42243635Y-29594895D01*
X42541646Y-29471469D01*
X43034534Y-29066448D01*
X43308194Y-28553691D01*
X53285000Y-28553691D01*
X53285000Y-29098250D01*
X53443750Y-29257000D01*
X54497000Y-29257000D01*
X54497000Y-28203750D01*
X54943000Y-28203750D01*
X54943000Y-29257000D01*
X55996250Y-29257000D01*
X56155000Y-29098250D01*
X56155000Y-28553691D01*
X56058327Y-28320302D01*
X55879699Y-28141673D01*
X55646310Y-28045000D01*
X55101750Y-28045000D01*
X54943000Y-28203750D01*
X54497000Y-28203750D01*
X54338250Y-28045000D01*
X53793690Y-28045000D01*
X53560301Y-28141673D01*
X53381673Y-28320302D01*
X53285000Y-28553691D01*
X43308194Y-28553691D01*
X43334909Y-28503637D01*
X43230986Y-28253000D01*
X41993000Y-28253000D01*
X41547000Y-28253000D01*
X40309014Y-28253000D01*
X40205091Y-28503637D01*
X37007476Y-28503637D01*
X36960204Y-28389512D01*
X36729611Y-28312758D01*
X36006370Y-29036000D01*
X35375630Y-29036000D01*
X34652389Y-28312758D01*
X34421796Y-28389512D01*
X34271008Y-28924427D01*
X18542552Y-28924427D01*
X18503598Y-28595673D01*
X18418204Y-28389512D01*
X18187611Y-28312758D01*
X17464370Y-29036000D01*
X16833630Y-29036000D01*
X16110389Y-28312758D01*
X15879796Y-28389512D01*
X15729008Y-28924427D01*
X835000Y-28924427D01*
X835000Y-27997389D01*
X16425758Y-27997389D01*
X17149000Y-28720630D01*
X17872242Y-27997389D01*
X34967758Y-27997389D01*
X35691000Y-28720630D01*
X36414242Y-27997389D01*
X36337488Y-27766796D01*
X35802573Y-27616008D01*
X35250673Y-27681402D01*
X35044512Y-27766796D01*
X34967758Y-27997389D01*
X17872242Y-27997389D01*
X17795488Y-27766796D01*
X17260573Y-27616008D01*
X16708673Y-27681402D01*
X16502512Y-27766796D01*
X16425758Y-27997389D01*
X835000Y-27997389D01*
X835000Y-27556363D01*
X40205091Y-27556363D01*
X40309014Y-27807000D01*
X41547000Y-27807000D01*
X41547000Y-26570690D01*
X41993000Y-26570690D01*
X41993000Y-27807000D01*
X43230986Y-27807000D01*
X43334909Y-27556363D01*
X43034534Y-26993552D01*
X42541646Y-26588531D01*
X42243635Y-26465105D01*
X41993000Y-26570690D01*
X41547000Y-26570690D01*
X41296365Y-26465105D01*
X40998354Y-26588531D01*
X40505466Y-26993552D01*
X40205091Y-27556363D01*
X835000Y-27556363D01*
X835000Y-25442619D01*
X2764613Y-25442619D01*
X3104155Y-26264372D01*
X3732321Y-26893636D01*
X4553481Y-27234611D01*
X5442619Y-27235387D01*
X6264372Y-26895845D01*
X6893636Y-26267679D01*
X7234611Y-25446519D01*
X7234614Y-25442619D01*
X92264613Y-25442619D01*
X92604155Y-26264372D01*
X93232321Y-26893636D01*
X94053481Y-27234611D01*
X94942619Y-27235387D01*
X95764372Y-26895845D01*
X96393636Y-26267679D01*
X96734611Y-25446519D01*
X96735387Y-24557381D01*
X96395845Y-23735628D01*
X95767679Y-23106364D01*
X94946519Y-22765389D01*
X94057381Y-22764613D01*
X93235628Y-23104155D01*
X92606364Y-23732321D01*
X92265389Y-24553481D01*
X92264613Y-25442619D01*
X7234614Y-25442619D01*
X7235387Y-24557381D01*
X6895845Y-23735628D01*
X6267679Y-23106364D01*
X5446519Y-22765389D01*
X4557381Y-22764613D01*
X3735628Y-23104155D01*
X3106364Y-23732321D01*
X2765389Y-24553481D01*
X2764613Y-25442619D01*
X835000Y-25442619D01*
X835000Y-20835000D01*
X24500000Y-20835000D01*
X24580659Y-20818956D01*
X24662900Y-20818956D01*
X25045583Y-20742836D01*
X25346584Y-20618157D01*
X25671008Y-20401384D01*
X25901384Y-20171008D01*
X25930789Y-20127000D01*
X33569211Y-20127000D01*
X33598616Y-20171008D01*
X33598616Y-20171008D01*
G37*
X33598616Y-20171008D02*
X33828992Y-20401384D01*
X34153416Y-20618157D01*
X34454417Y-20742836D01*
X34837100Y-20818956D01*
X34919341Y-20818956D01*
X35000000Y-20835000D01*
X65000000Y-20835000D01*
X65080648Y-20818958D01*
X65162901Y-20818958D01*
X65545585Y-20742837D01*
X65696085Y-20680497D01*
X65846586Y-20618158D01*
X66171008Y-20401385D01*
X66252852Y-20319541D01*
X66401384Y-20171010D01*
X66430790Y-20127000D01*
X74069211Y-20127000D01*
X74098616Y-20171008D01*
X74328992Y-20401384D01*
X74653416Y-20618157D01*
X74954417Y-20742836D01*
X75337100Y-20818956D01*
X75419341Y-20818956D01*
X75500000Y-20835000D01*
X99165000Y-20835000D01*
X99165000Y-79665000D01*
X835000Y-79665000D01*
X835000Y-75942619D01*
X2764613Y-75942619D01*
X3104155Y-76764372D01*
X3732321Y-77393636D01*
X4553481Y-77734611D01*
X5442619Y-77735387D01*
X6264372Y-77395845D01*
X6893636Y-76767679D01*
X7234611Y-75946519D01*
X7234614Y-75942619D01*
X92764613Y-75942619D01*
X93104155Y-76764372D01*
X93732321Y-77393636D01*
X94553481Y-77734611D01*
X95442619Y-77735387D01*
X96264372Y-77395845D01*
X96893636Y-76767679D01*
X97234611Y-75946519D01*
X97235387Y-75057381D01*
X96895845Y-74235628D01*
X96267679Y-73606364D01*
X95446519Y-73265389D01*
X94557381Y-73264613D01*
X93735628Y-73604155D01*
X93106364Y-74232321D01*
X92765389Y-75053481D01*
X92764613Y-75942619D01*
X7234614Y-75942619D01*
X7235387Y-75057381D01*
X6895845Y-74235628D01*
X6267679Y-73606364D01*
X5446519Y-73265389D01*
X4557381Y-73264613D01*
X3735628Y-73604155D01*
X3106364Y-74232321D01*
X2765389Y-75053481D01*
X2764613Y-75942619D01*
X835000Y-75942619D01*
X835000Y-69942619D01*
X19264613Y-69942619D01*
X19604155Y-70764372D01*
X20232321Y-71393636D01*
X21053481Y-71734611D01*
X21942619Y-71735387D01*
X22764372Y-71395845D01*
X23393636Y-70767679D01*
X23734611Y-69946519D01*
X23734614Y-69942619D01*
X31764613Y-69942619D01*
X32104155Y-70764372D01*
X32732321Y-71393636D01*
X33553481Y-71734611D01*
X34442619Y-71735387D01*
X35264372Y-71395845D01*
X35893636Y-70767679D01*
X36234611Y-69946519D01*
X36234614Y-69942619D01*
X45764613Y-69942619D01*
X46104155Y-70764372D01*
X46732321Y-71393636D01*
X47553481Y-71734611D01*
X48442619Y-71735387D01*
X49264372Y-71395845D01*
X49893636Y-70767679D01*
X50234611Y-69946519D01*
X50234752Y-69784187D01*
X85564752Y-69784187D01*
X85782757Y-70311800D01*
X86186077Y-70715824D01*
X86713309Y-70934750D01*
X87284187Y-70935248D01*
X87811800Y-70717243D01*
X88215824Y-70313923D01*
X88434750Y-69786691D01*
X88435000Y-69500000D01*
X93156887Y-69500000D01*
X93266120Y-70049151D01*
X93577189Y-70514698D01*
X94042736Y-70825767D01*
X94591887Y-70935000D01*
X94648113Y-70935000D01*
X95197264Y-70825767D01*
X95662811Y-70514698D01*
X95973880Y-70049151D01*
X96083113Y-69500000D01*
X95973880Y-68950849D01*
X95662811Y-68485302D01*
X95197264Y-68174233D01*
X94648113Y-68065000D01*
X94591887Y-68065000D01*
X94042736Y-68174233D01*
X93577189Y-68485302D01*
X93266120Y-68950849D01*
X93156887Y-69500000D01*
X88435000Y-69500000D01*
X88435248Y-69215813D01*
X88217243Y-68688200D01*
X87813923Y-68284176D01*
X87286691Y-68065250D01*
X86715813Y-68064752D01*
X86188200Y-68282757D01*
X85784176Y-68686077D01*
X85565250Y-69213309D01*
X85564752Y-69784187D01*
X50234752Y-69784187D01*
X50235387Y-69057381D01*
X49895845Y-68235628D01*
X49267679Y-67606364D01*
X48446519Y-67265389D01*
X47557381Y-67264613D01*
X46735628Y-67604155D01*
X46106364Y-68232321D01*
X45765389Y-69053481D01*
X45764613Y-69942619D01*
X36234614Y-69942619D01*
X36235387Y-69057381D01*
X35895845Y-68235628D01*
X35267679Y-67606364D01*
X34446519Y-67265389D01*
X33557381Y-67264613D01*
X32735628Y-67604155D01*
X32106364Y-68232321D01*
X31765389Y-69053481D01*
X31764613Y-69942619D01*
X23734614Y-69942619D01*
X23735387Y-69057381D01*
X23395845Y-68235628D01*
X22767679Y-67606364D01*
X21946519Y-67265389D01*
X21057381Y-67264613D01*
X20235628Y-67604155D01*
X19606364Y-68232321D01*
X19265389Y-69053481D01*
X19264613Y-69942619D01*
X835000Y-69942619D01*
X835000Y-66500000D01*
X72536887Y-66500000D01*
X72646120Y-67049151D01*
X72957189Y-67514698D01*
X73422736Y-67825767D01*
X73971887Y-67935000D01*
X74028113Y-67935000D01*
X74577264Y-67825767D01*
X74965390Y-67566429D01*
X80868940Y-67566429D01*
X80950463Y-67800930D01*
X81499273Y-67958123D01*
X82066462Y-67893331D01*
X82289537Y-67800930D01*
X82371060Y-67566429D01*
X81620000Y-66815370D01*
X80868940Y-67566429D01*
X74965390Y-67566429D01*
X75042811Y-67514698D01*
X75353880Y-67049151D01*
X75463113Y-66500000D01*
X75439099Y-66379273D01*
X80161877Y-66379273D01*
X80226669Y-66946462D01*
X80319070Y-67169537D01*
X80553571Y-67251060D01*
X81304630Y-66500000D01*
X81935370Y-66500000D01*
X82686429Y-67251060D01*
X82920930Y-67169537D01*
X82929763Y-67138700D01*
X82962718Y-67218458D01*
X83319663Y-67576026D01*
X83786273Y-67769779D01*
X84291510Y-67770220D01*
X84758458Y-67577282D01*
X85116026Y-67220337D01*
X85309779Y-66753727D01*
X85309780Y-66751510D01*
X91769780Y-66751510D01*
X91962718Y-67218458D01*
X92319663Y-67576026D01*
X92786273Y-67769779D01*
X93291510Y-67770220D01*
X93758458Y-67577282D01*
X94116026Y-67220337D01*
X94309779Y-66753727D01*
X94310220Y-66248490D01*
X94117282Y-65781542D01*
X93760337Y-65423974D01*
X93293727Y-65230221D01*
X92788490Y-65229780D01*
X92321542Y-65422718D01*
X91963974Y-65779663D01*
X91770221Y-66246273D01*
X91769780Y-66751510D01*
X85309780Y-66751510D01*
X85310220Y-66248490D01*
X85117282Y-65781542D01*
X84760337Y-65423974D01*
X84293727Y-65230221D01*
X83788490Y-65229780D01*
X83321542Y-65422718D01*
X82963974Y-65779663D01*
X82931892Y-65856926D01*
X82920930Y-65830463D01*
X82686429Y-65748940D01*
X81935370Y-66500000D01*
X81304630Y-66500000D01*
X80553571Y-65748940D01*
X80319070Y-65830463D01*
X80161877Y-66379273D01*
X75439099Y-66379273D01*
X75353880Y-65950849D01*
X75042811Y-65485302D01*
X74965391Y-65433571D01*
X80868940Y-65433571D01*
X81620000Y-66184630D01*
X82371060Y-65433571D01*
X82289537Y-65199070D01*
X81740727Y-65041877D01*
X81173538Y-65106669D01*
X80950463Y-65199070D01*
X80868940Y-65433571D01*
X74965391Y-65433571D01*
X74577264Y-65174233D01*
X74028113Y-65065000D01*
X73971887Y-65065000D01*
X73422736Y-65174233D01*
X72957189Y-65485302D01*
X72646120Y-65950849D01*
X72536887Y-66500000D01*
X835000Y-66500000D01*
X835000Y-64540808D01*
X85274561Y-64540808D01*
X85351692Y-64771710D01*
X85887704Y-64923004D01*
X86440812Y-64857658D01*
X86648308Y-64771710D01*
X86725439Y-64540808D01*
X94274561Y-64540808D01*
X94351692Y-64771710D01*
X94887704Y-64923004D01*
X95440812Y-64857658D01*
X95648308Y-64771710D01*
X95725439Y-64540808D01*
X95000000Y-63815370D01*
X94274561Y-64540808D01*
X86725439Y-64540808D01*
X86000000Y-63815370D01*
X85274561Y-64540808D01*
X835000Y-64540808D01*
X835000Y-60340000D01*
X22692560Y-60340000D01*
X22692560Y-62940000D01*
X22736838Y-63175317D01*
X22875910Y-63391441D01*
X23088110Y-63536431D01*
X23340000Y-63587440D01*
X25340000Y-63587440D01*
X25575317Y-63543162D01*
X25791441Y-63404090D01*
X25896951Y-63249671D01*
X26254313Y-63488452D01*
X26880000Y-63612909D01*
X27505687Y-63488452D01*
X28036120Y-63134029D01*
X28161745Y-62946017D01*
X28393599Y-63221720D01*
X28946365Y-63504895D01*
X29197000Y-63399310D01*
X29197000Y-61863000D01*
X29643000Y-61863000D01*
X29643000Y-63399310D01*
X29893635Y-63504895D01*
X30446401Y-63221720D01*
X30858764Y-62731368D01*
X31052088Y-62120538D01*
X30901487Y-61863000D01*
X29643000Y-61863000D01*
X29197000Y-61863000D01*
X29177000Y-61863000D01*
X29177000Y-61417000D01*
X29197000Y-61417000D01*
X29197000Y-59880690D01*
X29643000Y-59880690D01*
X29643000Y-61417000D01*
X30901487Y-61417000D01*
X31052088Y-61159462D01*
X30858764Y-60548632D01*
X30683315Y-60340000D01*
X36152560Y-60340000D01*
X36152560Y-62940000D01*
X36196838Y-63175317D01*
X36335910Y-63391441D01*
X36548110Y-63536431D01*
X36800000Y-63587440D01*
X38800000Y-63587440D01*
X39035317Y-63543162D01*
X39251441Y-63404090D01*
X39356951Y-63249671D01*
X39714313Y-63488452D01*
X40340000Y-63612909D01*
X40965687Y-63488452D01*
X41496120Y-63134029D01*
X41610000Y-62963595D01*
X41723880Y-63134029D01*
X42254313Y-63488452D01*
X42880000Y-63612909D01*
X43505687Y-63488452D01*
X44036120Y-63134029D01*
X44161745Y-62946017D01*
X44393599Y-63221720D01*
X44946365Y-63504895D01*
X45197000Y-63399310D01*
X45197000Y-61863000D01*
X45643000Y-61863000D01*
X45643000Y-63399310D01*
X45893635Y-63504895D01*
X46446401Y-63221720D01*
X46858764Y-62731368D01*
X47052088Y-62120538D01*
X46901487Y-61863000D01*
X45643000Y-61863000D01*
X45197000Y-61863000D01*
X45177000Y-61863000D01*
X45177000Y-61417000D01*
X45197000Y-61417000D01*
X45197000Y-59880690D01*
X45643000Y-59880690D01*
X45643000Y-61417000D01*
X46901487Y-61417000D01*
X47052088Y-61159462D01*
X46858764Y-60548632D01*
X46446401Y-60058280D01*
X45893635Y-59775105D01*
X45643000Y-59880690D01*
X45197000Y-59880690D01*
X44946365Y-59775105D01*
X44393599Y-60058280D01*
X44161745Y-60333983D01*
X44036120Y-60145971D01*
X43505687Y-59791548D01*
X42880000Y-59667091D01*
X42254313Y-59791548D01*
X41723880Y-60145971D01*
X41610000Y-60316405D01*
X41496120Y-60145971D01*
X40965687Y-59791548D01*
X40340000Y-59667091D01*
X39714313Y-59791548D01*
X39355808Y-60031093D01*
X39264090Y-59888559D01*
X39051890Y-59743569D01*
X38800000Y-59692560D01*
X36800000Y-59692560D01*
X36564683Y-59736838D01*
X36348559Y-59875910D01*
X36203569Y-60088110D01*
X36152560Y-60340000D01*
X30683315Y-60340000D01*
X30446401Y-60058280D01*
X29893635Y-59775105D01*
X29643000Y-59880690D01*
X29197000Y-59880690D01*
X28946365Y-59775105D01*
X28393599Y-60058280D01*
X28161745Y-60333983D01*
X28036120Y-60145971D01*
X27505687Y-59791548D01*
X26880000Y-59667091D01*
X26254313Y-59791548D01*
X25895808Y-60031093D01*
X25804090Y-59888559D01*
X25591890Y-59743569D01*
X25340000Y-59692560D01*
X23340000Y-59692560D01*
X23104683Y-59736838D01*
X22888559Y-59875910D01*
X22743569Y-60088110D01*
X22692560Y-60340000D01*
X835000Y-60340000D01*
X835000Y-56751510D01*
X2769780Y-56751510D01*
X2962718Y-57218458D01*
X3319663Y-57576026D01*
X3786273Y-57769779D01*
X4291510Y-57770220D01*
X4758458Y-57577282D01*
X5116026Y-57220337D01*
X5309779Y-56753727D01*
X5310220Y-56248490D01*
X5117282Y-55781542D01*
X5062497Y-55726661D01*
X38022758Y-55726661D01*
X38234990Y-56240303D01*
X38627630Y-56633629D01*
X39140900Y-56846757D01*
X39696661Y-56847242D01*
X40210303Y-56635010D01*
X40603629Y-56242370D01*
X40816757Y-55729100D01*
X40817242Y-55173339D01*
X40605010Y-54659697D01*
X40212370Y-54266371D01*
X40034429Y-54192483D01*
X40066488Y-54179204D01*
X40143242Y-53948611D01*
X39420000Y-53225370D01*
X38696758Y-53948611D01*
X38773512Y-54179204D01*
X38811440Y-54189896D01*
X38629697Y-54264990D01*
X38236371Y-54657630D01*
X38023243Y-55170900D01*
X38022758Y-55726661D01*
X5062497Y-55726661D01*
X4760337Y-55423974D01*
X4293727Y-55230221D01*
X3788490Y-55229780D01*
X3321542Y-55422718D01*
X2963974Y-55779663D01*
X2770221Y-56246273D01*
X2769780Y-56751510D01*
X835000Y-56751510D01*
X835000Y-53777256D01*
X4599757Y-53777256D01*
X4812445Y-54292000D01*
X5205928Y-54686170D01*
X5720301Y-54899757D01*
X6277256Y-54900243D01*
X6792000Y-54687555D01*
X7023297Y-54456661D01*
X18022758Y-54456661D01*
X18234990Y-54970303D01*
X18627630Y-55363629D01*
X19140900Y-55576757D01*
X19696661Y-55577242D01*
X20210303Y-55365010D01*
X20603629Y-54972370D01*
X20816757Y-54459100D01*
X20817242Y-53903339D01*
X20605010Y-53389697D01*
X20212370Y-52996371D01*
X19735668Y-52798427D01*
X38000008Y-52798427D01*
X38065402Y-53350327D01*
X38150796Y-53556488D01*
X38381389Y-53633242D01*
X39104630Y-52910000D01*
X39735370Y-52910000D01*
X40458611Y-53633242D01*
X40689204Y-53556488D01*
X40839992Y-53021573D01*
X40774598Y-52469673D01*
X40689204Y-52263512D01*
X40458611Y-52186758D01*
X39735370Y-52910000D01*
X39104630Y-52910000D01*
X38381389Y-52186758D01*
X38150796Y-52263512D01*
X38000008Y-52798427D01*
X19735668Y-52798427D01*
X19699100Y-52783243D01*
X19143339Y-52782758D01*
X18629697Y-52994990D01*
X18236371Y-53387630D01*
X18023243Y-53900900D01*
X18022758Y-54456661D01*
X7023297Y-54456661D01*
X7186170Y-54294072D01*
X7399757Y-53779699D01*
X7400243Y-53222744D01*
X7187555Y-52708000D01*
X6794072Y-52313830D01*
X6279699Y-52100243D01*
X5722744Y-52099757D01*
X5208000Y-52312445D01*
X4813830Y-52705928D01*
X4600243Y-53220301D01*
X4599757Y-53777256D01*
X835000Y-53777256D01*
X835000Y-50777256D01*
X4599757Y-50777256D01*
X4812445Y-51292000D01*
X5205928Y-51686170D01*
X5720301Y-51899757D01*
X6277256Y-51900243D01*
X6792000Y-51687555D01*
X7186170Y-51294072D01*
X7399757Y-50779699D01*
X7400243Y-50222744D01*
X7187555Y-49708000D01*
X6856794Y-49376661D01*
X18022758Y-49376661D01*
X18234990Y-49890303D01*
X18627630Y-50283629D01*
X19140900Y-50496757D01*
X19696661Y-50497242D01*
X20210303Y-50285010D01*
X20603629Y-49892370D01*
X20816757Y-49379100D01*
X20817242Y-48823339D01*
X20605010Y-48309697D01*
X20402329Y-48106661D01*
X38022758Y-48106661D01*
X38234990Y-48620303D01*
X38627630Y-49013629D01*
X38835512Y-49099949D01*
X38629697Y-49184990D01*
X38236371Y-49577630D01*
X38023243Y-50090900D01*
X38022758Y-50646661D01*
X38234990Y-51160303D01*
X38627630Y-51553629D01*
X38805571Y-51627517D01*
X38773512Y-51640796D01*
X38696758Y-51871389D01*
X39420000Y-52594630D01*
X40143242Y-51871389D01*
X40066488Y-51640796D01*
X40028560Y-51630104D01*
X40210303Y-51555010D01*
X40603629Y-51162370D01*
X40816757Y-50649100D01*
X40817242Y-50093339D01*
X40605010Y-49579697D01*
X40212370Y-49186371D01*
X40004488Y-49100051D01*
X40210303Y-49015010D01*
X40603629Y-48622370D01*
X40816757Y-48109100D01*
X40817242Y-47553339D01*
X40605010Y-47039697D01*
X40212370Y-46646371D01*
X39699100Y-46433243D01*
X39143339Y-46432758D01*
X38629697Y-46644990D01*
X38236371Y-47037630D01*
X38023243Y-47550900D01*
X38022758Y-48106661D01*
X20402329Y-48106661D01*
X20212370Y-47916371D01*
X19699100Y-47703243D01*
X19143339Y-47702758D01*
X18629697Y-47914990D01*
X18236371Y-48307630D01*
X18023243Y-48820900D01*
X18022758Y-49376661D01*
X6856794Y-49376661D01*
X6794072Y-49313830D01*
X6279699Y-49100243D01*
X5722744Y-49099757D01*
X5208000Y-49312445D01*
X4813830Y-49705928D01*
X4600243Y-50220301D01*
X4599757Y-50777256D01*
X835000Y-50777256D01*
X835000Y-48540808D01*
X5274561Y-48540808D01*
X5351692Y-48771710D01*
X5887704Y-48923004D01*
X6440812Y-48857658D01*
X6648308Y-48771710D01*
X6725439Y-48540808D01*
X6000000Y-47815370D01*
X5274561Y-48540808D01*
X835000Y-48540808D01*
X835000Y-47387704D01*
X4576996Y-47387704D01*
X4642342Y-47940812D01*
X4728290Y-48148308D01*
X4959192Y-48225439D01*
X5684630Y-47500000D01*
X6315370Y-47500000D01*
X7040808Y-48225439D01*
X7271710Y-48148308D01*
X7423004Y-47612296D01*
X7357658Y-47059188D01*
X7271710Y-46851692D01*
X7040808Y-46774561D01*
X6315370Y-47500000D01*
X5684630Y-47500000D01*
X4959192Y-46774561D01*
X4728290Y-46851692D01*
X4576996Y-47387704D01*
X835000Y-47387704D01*
X835000Y-46459192D01*
X5274561Y-46459192D01*
X6000000Y-47184630D01*
X6725439Y-46459192D01*
X6648308Y-46228290D01*
X6112296Y-46076996D01*
X5559188Y-46142342D01*
X5351692Y-46228290D01*
X5274561Y-46459192D01*
X835000Y-46459192D01*
X835000Y-44777256D01*
X4599757Y-44777256D01*
X4812445Y-45292000D01*
X5205928Y-45686170D01*
X5720301Y-45899757D01*
X6277256Y-45900243D01*
X6792000Y-45687555D01*
X7186170Y-45294072D01*
X7399757Y-44779699D01*
X7400243Y-44222744D01*
X7187555Y-43708000D01*
X6794072Y-43313830D01*
X6279699Y-43100243D01*
X5722744Y-43099757D01*
X5208000Y-43312445D01*
X4813830Y-43705928D01*
X4600243Y-44220301D01*
X4599757Y-44777256D01*
X835000Y-44777256D01*
X835000Y-41751510D01*
X2769780Y-41751510D01*
X2962718Y-42218458D01*
X3319663Y-42576026D01*
X3786273Y-42769779D01*
X4291510Y-42770220D01*
X4758458Y-42577282D01*
X5116026Y-42220337D01*
X5309779Y-41753727D01*
X5310220Y-41248490D01*
X5117282Y-40781542D01*
X4760337Y-40423974D01*
X4293727Y-40230221D01*
X3788490Y-40229780D01*
X3321542Y-40422718D01*
X2963974Y-40779663D01*
X2770221Y-41246273D01*
X2769780Y-41751510D01*
X835000Y-41751510D01*
X835000Y-39980661D01*
X15751758Y-39980661D01*
X15963990Y-40494303D01*
X16356630Y-40887629D01*
X16564512Y-40973949D01*
X16358697Y-41058990D01*
X15965371Y-41451630D01*
X15752243Y-41964900D01*
X15751758Y-42520661D01*
X15963990Y-43034303D01*
X16356630Y-43427629D01*
X16869900Y-43640757D01*
X17425661Y-43641242D01*
X17939303Y-43429010D01*
X18332629Y-43036370D01*
X18545757Y-42523100D01*
X18546242Y-41967339D01*
X18334010Y-41453697D01*
X17941370Y-41060371D01*
X17733488Y-40974051D01*
X17939303Y-40889010D01*
X18332629Y-40496370D01*
X18545757Y-39983100D01*
X18545759Y-39980661D01*
X34293758Y-39980661D01*
X34505990Y-40494303D01*
X34898630Y-40887629D01*
X35106512Y-40973949D01*
X34900697Y-41058990D01*
X34507371Y-41451630D01*
X34294243Y-41964900D01*
X34293758Y-42520661D01*
X34505990Y-43034303D01*
X34898630Y-43427629D01*
X35411900Y-43640757D01*
X35967661Y-43641242D01*
X36481303Y-43429010D01*
X36874629Y-43036370D01*
X37087757Y-42523100D01*
X37088187Y-42030000D01*
X40122560Y-42030000D01*
X40122560Y-44030000D01*
X40166838Y-44265317D01*
X40305910Y-44481441D01*
X40518110Y-44626431D01*
X40770000Y-44677440D01*
X42770000Y-44677440D01*
X43005317Y-44633162D01*
X43221441Y-44494090D01*
X43366431Y-44281890D01*
X43417440Y-44030000D01*
X43417440Y-42030000D01*
X43373162Y-41794683D01*
X43234090Y-41578559D01*
X43021890Y-41433569D01*
X42770000Y-41382560D01*
X40770000Y-41382560D01*
X40534683Y-41426838D01*
X40318559Y-41565910D01*
X40173569Y-41778110D01*
X40122560Y-42030000D01*
X37088187Y-42030000D01*
X37088242Y-41967339D01*
X36876010Y-41453697D01*
X36483370Y-41060371D01*
X36275488Y-40974051D01*
X36481303Y-40889010D01*
X36874629Y-40496370D01*
X37087757Y-39983100D01*
X37088242Y-39427339D01*
X36876010Y-38913697D01*
X36483370Y-38520371D01*
X35970100Y-38307243D01*
X35414339Y-38306758D01*
X34900697Y-38518990D01*
X34507371Y-38911630D01*
X34294243Y-39424900D01*
X34293758Y-39980661D01*
X18545759Y-39980661D01*
X18546242Y-39427339D01*
X18334010Y-38913697D01*
X17941370Y-38520371D01*
X17428100Y-38307243D01*
X16872339Y-38306758D01*
X16358697Y-38518990D01*
X15965371Y-38911630D01*
X15752243Y-39424900D01*
X15751758Y-39980661D01*
X835000Y-39980661D01*
X835000Y-32614611D01*
X16425758Y-32614611D01*
X16502512Y-32845204D01*
X17037427Y-32995992D01*
X17589327Y-32930598D01*
X17795488Y-32845204D01*
X17872242Y-32614611D01*
X34967758Y-32614611D01*
X35044512Y-32845204D01*
X35579427Y-32995992D01*
X36131327Y-32930598D01*
X36337488Y-32845204D01*
X36414242Y-32614611D01*
X36103818Y-32304187D01*
X53284752Y-32304187D01*
X53502757Y-32831800D01*
X53906077Y-33235824D01*
X54036215Y-33289862D01*
X53908200Y-33342757D01*
X53504176Y-33746077D01*
X53285250Y-34273309D01*
X53284752Y-34844187D01*
X53502757Y-35371800D01*
X53906077Y-35775824D01*
X54036215Y-35829862D01*
X53908200Y-35882757D01*
X53504176Y-36286077D01*
X53285250Y-36813309D01*
X53284752Y-37384187D01*
X53502757Y-37911800D01*
X53906077Y-38315824D01*
X54036215Y-38369862D01*
X53908200Y-38422757D01*
X53504176Y-38826077D01*
X53285250Y-39353309D01*
X53284752Y-39924187D01*
X53502757Y-40451800D01*
X53906077Y-40855824D01*
X54036215Y-40909862D01*
X53908200Y-40962757D01*
X53504176Y-41366077D01*
X53285250Y-41893309D01*
X53284752Y-42464187D01*
X53502757Y-42991800D01*
X53906077Y-43395824D01*
X54036215Y-43449862D01*
X53908200Y-43502757D01*
X53504176Y-43906077D01*
X53285250Y-44433309D01*
X53284752Y-45004187D01*
X53502757Y-45531800D01*
X53906077Y-45935824D01*
X54036215Y-45989862D01*
X53908200Y-46042757D01*
X53504176Y-46446077D01*
X53285250Y-46973309D01*
X53284752Y-47544187D01*
X53502757Y-48071800D01*
X53906077Y-48475824D01*
X54036215Y-48529862D01*
X53908200Y-48582757D01*
X53504176Y-48986077D01*
X53285250Y-49513309D01*
X53284752Y-50084187D01*
X53502757Y-50611800D01*
X53906077Y-51015824D01*
X54036215Y-51069862D01*
X53908200Y-51122757D01*
X53504176Y-51526077D01*
X53285250Y-52053309D01*
X53284752Y-52624187D01*
X53502757Y-53151800D01*
X53906077Y-53555824D01*
X54036215Y-53609862D01*
X53908200Y-53662757D01*
X53504176Y-54066077D01*
X53285250Y-54593309D01*
X53284752Y-55164187D01*
X53502757Y-55691800D01*
X53906077Y-56095824D01*
X54036215Y-56149862D01*
X53908200Y-56202757D01*
X53504176Y-56606077D01*
X53285250Y-57133309D01*
X53284752Y-57704187D01*
X53502757Y-58231800D01*
X53906077Y-58635824D01*
X54036215Y-58689862D01*
X53908200Y-58742757D01*
X53504176Y-59146077D01*
X53285250Y-59673309D01*
X53284752Y-60244187D01*
X53502757Y-60771800D01*
X53906077Y-61175824D01*
X54036215Y-61229862D01*
X53908200Y-61282757D01*
X53504176Y-61686077D01*
X53285250Y-62213309D01*
X53284752Y-62784187D01*
X53502757Y-63311800D01*
X53906077Y-63715824D01*
X54433309Y-63934750D01*
X55004187Y-63935248D01*
X55531800Y-63717243D01*
X55935824Y-63313923D01*
X55989862Y-63183785D01*
X56042757Y-63311800D01*
X56446077Y-63715824D01*
X56973309Y-63934750D01*
X57544187Y-63935248D01*
X58071800Y-63717243D01*
X58475824Y-63313923D01*
X58529862Y-63183785D01*
X58582757Y-63311800D01*
X58986077Y-63715824D01*
X59513309Y-63934750D01*
X60084187Y-63935248D01*
X60611800Y-63717243D01*
X61015824Y-63313923D01*
X61069862Y-63183785D01*
X61122757Y-63311800D01*
X61526077Y-63715824D01*
X62053309Y-63934750D01*
X62624187Y-63935248D01*
X63151800Y-63717243D01*
X63555824Y-63313923D01*
X63609862Y-63183785D01*
X63662757Y-63311800D01*
X64066077Y-63715824D01*
X64593309Y-63934750D01*
X65164187Y-63935248D01*
X65691800Y-63717243D01*
X66095824Y-63313923D01*
X66149862Y-63183785D01*
X66202757Y-63311800D01*
X66606077Y-63715824D01*
X67133309Y-63934750D01*
X67704187Y-63935248D01*
X68231800Y-63717243D01*
X68635824Y-63313923D01*
X68689862Y-63183785D01*
X68742757Y-63311800D01*
X69146077Y-63715824D01*
X69673309Y-63934750D01*
X70244187Y-63935248D01*
X70771800Y-63717243D01*
X71175824Y-63313923D01*
X71394750Y-62786691D01*
X71394752Y-62784187D01*
X72564752Y-62784187D01*
X72782757Y-63311800D01*
X73186077Y-63715824D01*
X73713309Y-63934750D01*
X74284187Y-63935248D01*
X74811800Y-63717243D01*
X75215824Y-63313923D01*
X75434750Y-62786691D01*
X75435000Y-62500000D01*
X80156887Y-62500000D01*
X80266120Y-63049151D01*
X80577189Y-63514698D01*
X81042736Y-63825767D01*
X81591887Y-63935000D01*
X81648113Y-63935000D01*
X82197264Y-63825767D01*
X82662811Y-63514698D01*
X82747665Y-63387704D01*
X84576996Y-63387704D01*
X84642342Y-63940812D01*
X84728290Y-64148308D01*
X84959192Y-64225439D01*
X85684630Y-63500000D01*
X86315370Y-63500000D01*
X87040808Y-64225439D01*
X87271710Y-64148308D01*
X87423004Y-63612296D01*
X87396470Y-63387704D01*
X93576996Y-63387704D01*
X93642342Y-63940812D01*
X93728290Y-64148308D01*
X93959192Y-64225439D01*
X94684630Y-63500000D01*
X95315370Y-63500000D01*
X96040808Y-64225439D01*
X96271710Y-64148308D01*
X96423004Y-63612296D01*
X96357658Y-63059188D01*
X96271710Y-62851692D01*
X96040808Y-62774561D01*
X95315370Y-63500000D01*
X94684630Y-63500000D01*
X93959192Y-62774561D01*
X93728290Y-62851692D01*
X93576996Y-63387704D01*
X87396470Y-63387704D01*
X87357658Y-63059188D01*
X87271710Y-62851692D01*
X87040808Y-62774561D01*
X86315370Y-63500000D01*
X85684630Y-63500000D01*
X84959192Y-62774561D01*
X84728290Y-62851692D01*
X84576996Y-63387704D01*
X82747665Y-63387704D01*
X82973880Y-63049151D01*
X83083113Y-62500000D01*
X83074996Y-62459192D01*
X85274561Y-62459192D01*
X86000000Y-63184630D01*
X86725439Y-62459192D01*
X94274561Y-62459192D01*
X95000000Y-63184630D01*
X95725439Y-62459192D01*
X95648308Y-62228290D01*
X95112296Y-62076996D01*
X94559188Y-62142342D01*
X94351692Y-62228290D01*
X94274561Y-62459192D01*
X86725439Y-62459192D01*
X86648308Y-62228290D01*
X86112296Y-62076996D01*
X85559188Y-62142342D01*
X85351692Y-62228290D01*
X85274561Y-62459192D01*
X83074996Y-62459192D01*
X82973880Y-61950849D01*
X82662811Y-61485302D01*
X82197264Y-61174233D01*
X81648113Y-61065000D01*
X81591887Y-61065000D01*
X81042736Y-61174233D01*
X80577189Y-61485302D01*
X80266120Y-61950849D01*
X80156887Y-62500000D01*
X75435000Y-62500000D01*
X75435248Y-62215813D01*
X75217243Y-61688200D01*
X74813923Y-61284176D01*
X74286691Y-61065250D01*
X73715813Y-61064752D01*
X73188200Y-61282757D01*
X72784176Y-61686077D01*
X72565250Y-62213309D01*
X72564752Y-62784187D01*
X71394752Y-62784187D01*
X71395248Y-62215813D01*
X71177243Y-61688200D01*
X70773923Y-61284176D01*
X70643785Y-61230138D01*
X70771800Y-61177243D01*
X71172485Y-60777256D01*
X84599757Y-60777256D01*
X84812445Y-61292000D01*
X85205928Y-61686170D01*
X85720301Y-61899757D01*
X86277256Y-61900243D01*
X86792000Y-61687555D01*
X87186170Y-61294072D01*
X87399757Y-60779699D01*
X87399759Y-60777256D01*
X93599757Y-60777256D01*
X93812445Y-61292000D01*
X94205928Y-61686170D01*
X94720301Y-61899757D01*
X95277256Y-61900243D01*
X95792000Y-61687555D01*
X96186170Y-61294072D01*
X96399757Y-60779699D01*
X96400243Y-60222744D01*
X96187555Y-59708000D01*
X95794072Y-59313830D01*
X95279699Y-59100243D01*
X94722744Y-59099757D01*
X94208000Y-59312445D01*
X93813830Y-59705928D01*
X93600243Y-60220301D01*
X93599757Y-60777256D01*
X87399759Y-60777256D01*
X87400243Y-60222744D01*
X87187555Y-59708000D01*
X86794072Y-59313830D01*
X86279699Y-59100243D01*
X85722744Y-59099757D01*
X85208000Y-59312445D01*
X84813830Y-59705928D01*
X84600243Y-60220301D01*
X84599757Y-60777256D01*
X71172485Y-60777256D01*
X71175824Y-60773923D01*
X71394750Y-60246691D01*
X71395248Y-59675813D01*
X71177243Y-59148200D01*
X70773923Y-58744176D01*
X70643785Y-58690138D01*
X70771800Y-58637243D01*
X71175824Y-58233923D01*
X71365448Y-57777256D01*
X84599757Y-57777256D01*
X84812445Y-58292000D01*
X85205928Y-58686170D01*
X85720301Y-58899757D01*
X86277256Y-58900243D01*
X86792000Y-58687555D01*
X87186170Y-58294072D01*
X87399757Y-57779699D01*
X87399759Y-57777256D01*
X93599757Y-57777256D01*
X93812445Y-58292000D01*
X94205928Y-58686170D01*
X94720301Y-58899757D01*
X95277256Y-58900243D01*
X95792000Y-58687555D01*
X96186170Y-58294072D01*
X96399757Y-57779699D01*
X96400243Y-57222744D01*
X96187555Y-56708000D01*
X95794072Y-56313830D01*
X95279699Y-56100243D01*
X94722744Y-56099757D01*
X94208000Y-56312445D01*
X93813830Y-56705928D01*
X93600243Y-57220301D01*
X93599757Y-57777256D01*
X87399759Y-57777256D01*
X87400243Y-57222744D01*
X87187555Y-56708000D01*
X86794072Y-56313830D01*
X86279699Y-56100243D01*
X85722744Y-56099757D01*
X85208000Y-56312445D01*
X84813830Y-56705928D01*
X84600243Y-57220301D01*
X84599757Y-57777256D01*
X71365448Y-57777256D01*
X71394750Y-57706691D01*
X71395248Y-57135813D01*
X71177243Y-56608200D01*
X70773923Y-56204176D01*
X70643785Y-56150138D01*
X70771800Y-56097243D01*
X71175824Y-55693923D01*
X71285414Y-55430000D01*
X72536887Y-55430000D01*
X72646120Y-55979151D01*
X72957189Y-56444698D01*
X73422736Y-56755767D01*
X73971887Y-56865000D01*
X74028113Y-56865000D01*
X74577264Y-56755767D01*
X74965390Y-56496429D01*
X80868940Y-56496429D01*
X80950463Y-56730930D01*
X81499273Y-56888123D01*
X82066462Y-56823331D01*
X82289537Y-56730930D01*
X82371060Y-56496429D01*
X81620000Y-55745370D01*
X80868940Y-56496429D01*
X74965390Y-56496429D01*
X75042811Y-56444698D01*
X75353880Y-55979151D01*
X75463113Y-55430000D01*
X75439099Y-55309273D01*
X80161877Y-55309273D01*
X80226669Y-55876462D01*
X80319070Y-56099537D01*
X80553571Y-56181060D01*
X81304630Y-55430000D01*
X81935370Y-55430000D01*
X82686429Y-56181060D01*
X82920930Y-56099537D01*
X83078123Y-55550727D01*
X83050175Y-55306067D01*
X83319663Y-55576026D01*
X83786273Y-55769779D01*
X84291510Y-55770220D01*
X84758458Y-55577282D01*
X85116026Y-55220337D01*
X85309779Y-54753727D01*
X85309780Y-54751510D01*
X91769780Y-54751510D01*
X91962718Y-55218458D01*
X92319663Y-55576026D01*
X92786273Y-55769779D01*
X93291510Y-55770220D01*
X93758458Y-55577282D01*
X94116026Y-55220337D01*
X94309779Y-54753727D01*
X94310220Y-54248490D01*
X94117282Y-53781542D01*
X93760337Y-53423974D01*
X93293727Y-53230221D01*
X92788490Y-53229780D01*
X92321542Y-53422718D01*
X91963974Y-53779663D01*
X91770221Y-54246273D01*
X91769780Y-54751510D01*
X85309780Y-54751510D01*
X85310220Y-54248490D01*
X85117282Y-53781542D01*
X84760337Y-53423974D01*
X84293727Y-53230221D01*
X83788490Y-53229780D01*
X83321542Y-53422718D01*
X82963974Y-53779663D01*
X82770221Y-54246273D01*
X82769818Y-54707930D01*
X82686429Y-54678940D01*
X81935370Y-55430000D01*
X81304630Y-55430000D01*
X80553571Y-54678940D01*
X80319070Y-54760463D01*
X80161877Y-55309273D01*
X75439099Y-55309273D01*
X75353880Y-54880849D01*
X75042811Y-54415302D01*
X74965391Y-54363571D01*
X80868940Y-54363571D01*
X81620000Y-55114630D01*
X82371060Y-54363571D01*
X82289537Y-54129070D01*
X81740727Y-53971877D01*
X81173538Y-54036669D01*
X80950463Y-54129070D01*
X80868940Y-54363571D01*
X74965391Y-54363571D01*
X74577264Y-54104233D01*
X74028113Y-53995000D01*
X73971887Y-53995000D01*
X73422736Y-54104233D01*
X72957189Y-54415302D01*
X72646120Y-54880849D01*
X72536887Y-55430000D01*
X71285414Y-55430000D01*
X71394750Y-55166691D01*
X71395248Y-54595813D01*
X71177243Y-54068200D01*
X70773923Y-53664176D01*
X70643785Y-53610138D01*
X70771800Y-53557243D01*
X71175824Y-53153923D01*
X71394750Y-52626691D01*
X71395248Y-52055813D01*
X71283015Y-51784187D01*
X72564752Y-51784187D01*
X72782757Y-52311800D01*
X73186077Y-52715824D01*
X73713309Y-52934750D01*
X74284187Y-52935248D01*
X74811800Y-52717243D01*
X75215824Y-52313923D01*
X75434750Y-51786691D01*
X75435000Y-51500000D01*
X80156887Y-51500000D01*
X80266120Y-52049151D01*
X80577189Y-52514698D01*
X81042736Y-52825767D01*
X81591887Y-52935000D01*
X81648113Y-52935000D01*
X82197264Y-52825767D01*
X82662811Y-52514698D01*
X82973880Y-52049151D01*
X83083113Y-51500000D01*
X82973880Y-50950849D01*
X82662811Y-50485302D01*
X82197264Y-50174233D01*
X81648113Y-50065000D01*
X81591887Y-50065000D01*
X81042736Y-50174233D01*
X80577189Y-50485302D01*
X80266120Y-50950849D01*
X80156887Y-51500000D01*
X75435000Y-51500000D01*
X75435248Y-51215813D01*
X75217243Y-50688200D01*
X74813923Y-50284176D01*
X74286691Y-50065250D01*
X73715813Y-50064752D01*
X73188200Y-50282757D01*
X72784176Y-50686077D01*
X72565250Y-51213309D01*
X72564752Y-51784187D01*
X71283015Y-51784187D01*
X71177243Y-51528200D01*
X70773923Y-51124176D01*
X70643785Y-51070138D01*
X70771800Y-51017243D01*
X71175824Y-50613923D01*
X71394750Y-50086691D01*
X71395248Y-49515813D01*
X71177243Y-48988200D01*
X70773923Y-48584176D01*
X70643785Y-48530138D01*
X70771800Y-48477243D01*
X71175824Y-48073923D01*
X71394750Y-47546691D01*
X71395248Y-46975813D01*
X71177243Y-46448200D01*
X70773923Y-46044176D01*
X70643785Y-45990138D01*
X70771800Y-45937243D01*
X71175824Y-45533923D01*
X71394750Y-45006691D01*
X71395248Y-44435813D01*
X71215174Y-44000000D01*
X72416887Y-44000000D01*
X72526120Y-44549151D01*
X72837189Y-45014698D01*
X73302736Y-45325767D01*
X73851887Y-45435000D01*
X73908113Y-45435000D01*
X74457264Y-45325767D01*
X74845390Y-45066429D01*
X80748940Y-45066429D01*
X80830463Y-45300930D01*
X81379273Y-45458123D01*
X81946462Y-45393331D01*
X82169537Y-45300930D01*
X82251060Y-45066429D01*
X81500000Y-44315370D01*
X80748940Y-45066429D01*
X74845390Y-45066429D01*
X74922811Y-45014698D01*
X75233880Y-44549151D01*
X75343113Y-44000000D01*
X75319099Y-43879273D01*
X80041877Y-43879273D01*
X80106669Y-44446462D01*
X80199070Y-44669537D01*
X80433571Y-44751060D01*
X81184630Y-44000000D01*
X81815370Y-44000000D01*
X82566429Y-44751060D01*
X82769842Y-44680345D01*
X82769780Y-44751510D01*
X82962718Y-45218458D01*
X83319663Y-45576026D01*
X83786273Y-45769779D01*
X84291510Y-45770220D01*
X84758458Y-45577282D01*
X85116026Y-45220337D01*
X85309779Y-44753727D01*
X85309780Y-44751510D01*
X91769780Y-44751510D01*
X91962718Y-45218458D01*
X92319663Y-45576026D01*
X92786273Y-45769779D01*
X93291510Y-45770220D01*
X93758458Y-45577282D01*
X94116026Y-45220337D01*
X94309779Y-44753727D01*
X94310220Y-44248490D01*
X94117282Y-43781542D01*
X93760337Y-43423974D01*
X93293727Y-43230221D01*
X92788490Y-43229780D01*
X92321542Y-43422718D01*
X91963974Y-43779663D01*
X91770221Y-44246273D01*
X91769780Y-44751510D01*
X85309780Y-44751510D01*
X85310220Y-44248490D01*
X85117282Y-43781542D01*
X84760337Y-43423974D01*
X84293727Y-43230221D01*
X83788490Y-43229780D01*
X83321542Y-43422718D01*
X82963974Y-43779663D01*
X82928830Y-43864299D01*
X82893331Y-43553538D01*
X82800930Y-43330463D01*
X82566429Y-43248940D01*
X81815370Y-44000000D01*
X81184630Y-44000000D01*
X80433571Y-43248940D01*
X80199070Y-43330463D01*
X80041877Y-43879273D01*
X75319099Y-43879273D01*
X75233880Y-43450849D01*
X74922811Y-42985302D01*
X74845391Y-42933571D01*
X80748940Y-42933571D01*
X81500000Y-43684630D01*
X82251060Y-42933571D01*
X82169537Y-42699070D01*
X81620727Y-42541877D01*
X81053538Y-42606669D01*
X80830463Y-42699070D01*
X80748940Y-42933571D01*
X74845391Y-42933571D01*
X74457264Y-42674233D01*
X73908113Y-42565000D01*
X73851887Y-42565000D01*
X73302736Y-42674233D01*
X72837189Y-42985302D01*
X72526120Y-43450849D01*
X72416887Y-44000000D01*
X71215174Y-44000000D01*
X71177243Y-43908200D01*
X70773923Y-43504176D01*
X70643785Y-43450138D01*
X70771800Y-43397243D01*
X71175824Y-42993923D01*
X71363973Y-42540808D01*
X85274561Y-42540808D01*
X85351692Y-42771710D01*
X85887704Y-42923004D01*
X86440812Y-42857658D01*
X86648308Y-42771710D01*
X86725439Y-42540808D01*
X94274561Y-42540808D01*
X94351692Y-42771710D01*
X94887704Y-42923004D01*
X95440812Y-42857658D01*
X95648308Y-42771710D01*
X95725439Y-42540808D01*
X95000000Y-41815370D01*
X94274561Y-42540808D01*
X86725439Y-42540808D01*
X86000000Y-41815370D01*
X85274561Y-42540808D01*
X71363973Y-42540808D01*
X71394750Y-42466691D01*
X71395248Y-41895813D01*
X71177243Y-41368200D01*
X70773923Y-40964176D01*
X70643785Y-40910138D01*
X70771800Y-40857243D01*
X71175824Y-40453923D01*
X71246304Y-40284187D01*
X72444752Y-40284187D01*
X72662757Y-40811800D01*
X73066077Y-41215824D01*
X73593309Y-41434750D01*
X74164187Y-41435248D01*
X74691800Y-41217243D01*
X75095824Y-40813923D01*
X75314750Y-40286691D01*
X75315000Y-40000000D01*
X80036887Y-40000000D01*
X80146120Y-40549151D01*
X80457189Y-41014698D01*
X80922736Y-41325767D01*
X81471887Y-41435000D01*
X81528113Y-41435000D01*
X81765885Y-41387704D01*
X84576996Y-41387704D01*
X84642342Y-41940812D01*
X84728290Y-42148308D01*
X84959192Y-42225439D01*
X85684630Y-41500000D01*
X86315370Y-41500000D01*
X87040808Y-42225439D01*
X87271710Y-42148308D01*
X87423004Y-41612296D01*
X87396470Y-41387704D01*
X93576996Y-41387704D01*
X93642342Y-41940812D01*
X93728290Y-42148308D01*
X93959192Y-42225439D01*
X94684630Y-41500000D01*
X95315370Y-41500000D01*
X96040808Y-42225439D01*
X96271710Y-42148308D01*
X96423004Y-41612296D01*
X96357658Y-41059188D01*
X96271710Y-40851692D01*
X96040808Y-40774561D01*
X95315370Y-41500000D01*
X94684630Y-41500000D01*
X93959192Y-40774561D01*
X93728290Y-40851692D01*
X93576996Y-41387704D01*
X87396470Y-41387704D01*
X87357658Y-41059188D01*
X87271710Y-40851692D01*
X87040808Y-40774561D01*
X86315370Y-41500000D01*
X85684630Y-41500000D01*
X84959192Y-40774561D01*
X84728290Y-40851692D01*
X84576996Y-41387704D01*
X81765885Y-41387704D01*
X82077264Y-41325767D01*
X82542811Y-41014698D01*
X82853880Y-40549151D01*
X82871773Y-40459192D01*
X85274561Y-40459192D01*
X86000000Y-41184630D01*
X86725439Y-40459192D01*
X94274561Y-40459192D01*
X95000000Y-41184630D01*
X95725439Y-40459192D01*
X95648308Y-40228290D01*
X95112296Y-40076996D01*
X94559188Y-40142342D01*
X94351692Y-40228290D01*
X94274561Y-40459192D01*
X86725439Y-40459192D01*
X86648308Y-40228290D01*
X86112296Y-40076996D01*
X85559188Y-40142342D01*
X85351692Y-40228290D01*
X85274561Y-40459192D01*
X82871773Y-40459192D01*
X82963113Y-40000000D01*
X82853880Y-39450849D01*
X82542811Y-38985302D01*
X82231449Y-38777256D01*
X84599757Y-38777256D01*
X84812445Y-39292000D01*
X85205928Y-39686170D01*
X85720301Y-39899757D01*
X86277256Y-39900243D01*
X86792000Y-39687555D01*
X87186170Y-39294072D01*
X87399757Y-38779699D01*
X87399759Y-38777256D01*
X93599757Y-38777256D01*
X93812445Y-39292000D01*
X94205928Y-39686170D01*
X94720301Y-39899757D01*
X95277256Y-39900243D01*
X95792000Y-39687555D01*
X96186170Y-39294072D01*
X96399757Y-38779699D01*
X96400243Y-38222744D01*
X96187555Y-37708000D01*
X95794072Y-37313830D01*
X95279699Y-37100243D01*
X94722744Y-37099757D01*
X94208000Y-37312445D01*
X93813830Y-37705928D01*
X93600243Y-38220301D01*
X93599757Y-38777256D01*
X87399759Y-38777256D01*
X87400243Y-38222744D01*
X87187555Y-37708000D01*
X86794072Y-37313830D01*
X86279699Y-37100243D01*
X85722744Y-37099757D01*
X85208000Y-37312445D01*
X84813830Y-37705928D01*
X84600243Y-38220301D01*
X84599757Y-38777256D01*
X82231449Y-38777256D01*
X82077264Y-38674233D01*
X81528113Y-38565000D01*
X81471887Y-38565000D01*
X80922736Y-38674233D01*
X80457189Y-38985302D01*
X80146120Y-39450849D01*
X80036887Y-40000000D01*
X75315000Y-40000000D01*
X75315248Y-39715813D01*
X75097243Y-39188200D01*
X74693923Y-38784176D01*
X74166691Y-38565250D01*
X73595813Y-38564752D01*
X73068200Y-38782757D01*
X72664176Y-39186077D01*
X72445250Y-39713309D01*
X72444752Y-40284187D01*
X71246304Y-40284187D01*
X71394750Y-39926691D01*
X71395248Y-39355813D01*
X71177243Y-38828200D01*
X70773923Y-38424176D01*
X70643785Y-38370138D01*
X70771800Y-38317243D01*
X71175824Y-37913923D01*
X71394750Y-37386691D01*
X71395248Y-36815813D01*
X71177243Y-36288200D01*
X70773923Y-35884176D01*
X70643785Y-35830138D01*
X70771768Y-35777256D01*
X84599757Y-35777256D01*
X84812445Y-36292000D01*
X85205928Y-36686170D01*
X85720301Y-36899757D01*
X86277256Y-36900243D01*
X86792000Y-36687555D01*
X87186170Y-36294072D01*
X87399757Y-35779699D01*
X87399759Y-35777256D01*
X93599757Y-35777256D01*
X93812445Y-36292000D01*
X94205928Y-36686170D01*
X94720301Y-36899757D01*
X95277256Y-36900243D01*
X95792000Y-36687555D01*
X96186170Y-36294072D01*
X96399757Y-35779699D01*
X96400243Y-35222744D01*
X96187555Y-34708000D01*
X95794072Y-34313830D01*
X95279699Y-34100243D01*
X94722744Y-34099757D01*
X94208000Y-34312445D01*
X93813830Y-34705928D01*
X93600243Y-35220301D01*
X93599757Y-35777256D01*
X87399759Y-35777256D01*
X87400243Y-35222744D01*
X87187555Y-34708000D01*
X86794072Y-34313830D01*
X86279699Y-34100243D01*
X85722744Y-34099757D01*
X85208000Y-34312445D01*
X84813830Y-34705928D01*
X84600243Y-35220301D01*
X84599757Y-35777256D01*
X70771768Y-35777256D01*
X70771800Y-35777243D01*
X71175824Y-35373923D01*
X71394750Y-34846691D01*
X71395248Y-34275813D01*
X71177243Y-33748200D01*
X70773923Y-33344176D01*
X70643785Y-33290138D01*
X70771800Y-33237243D01*
X70979404Y-33030000D01*
X72406887Y-33030000D01*
X72516120Y-33579151D01*
X72827189Y-34044698D01*
X73292736Y-34355767D01*
X73841887Y-34465000D01*
X73898113Y-34465000D01*
X74447264Y-34355767D01*
X74835390Y-34096429D01*
X80738940Y-34096429D01*
X80820463Y-34330930D01*
X81369273Y-34488123D01*
X81936462Y-34423331D01*
X82159537Y-34330930D01*
X82241060Y-34096429D01*
X81490000Y-33345370D01*
X80738940Y-34096429D01*
X74835390Y-34096429D01*
X74912811Y-34044698D01*
X75223880Y-33579151D01*
X75333113Y-33030000D01*
X75309099Y-32909273D01*
X80031877Y-32909273D01*
X80096669Y-33476462D01*
X80189070Y-33699537D01*
X80423571Y-33781060D01*
X81174630Y-33030000D01*
X81805370Y-33030000D01*
X82556429Y-33781060D01*
X82790930Y-33699537D01*
X82942641Y-33169867D01*
X82962718Y-33218458D01*
X83319663Y-33576026D01*
X83786273Y-33769779D01*
X84291510Y-33770220D01*
X84758458Y-33577282D01*
X85116026Y-33220337D01*
X85309779Y-32753727D01*
X85309780Y-32751510D01*
X91769780Y-32751510D01*
X91962718Y-33218458D01*
X92319663Y-33576026D01*
X92786273Y-33769779D01*
X93291510Y-33770220D01*
X93758458Y-33577282D01*
X94116026Y-33220337D01*
X94309779Y-32753727D01*
X94310220Y-32248490D01*
X94117282Y-31781542D01*
X93760337Y-31423974D01*
X93293727Y-31230221D01*
X92788490Y-31229780D01*
X92321542Y-31422718D01*
X91963974Y-31779663D01*
X91770221Y-32246273D01*
X91769780Y-32751510D01*
X85309780Y-32751510D01*
X85310220Y-32248490D01*
X85117282Y-31781542D01*
X84760337Y-31423974D01*
X84293727Y-31230221D01*
X83788490Y-31229780D01*
X83321542Y-31422718D01*
X82963974Y-31779663D01*
X82770221Y-32246273D01*
X82770128Y-32353231D01*
X82556429Y-32278940D01*
X81805370Y-33030000D01*
X81174630Y-33030000D01*
X80423571Y-32278940D01*
X80189070Y-32360463D01*
X80031877Y-32909273D01*
X75309099Y-32909273D01*
X75223880Y-32480849D01*
X74912811Y-32015302D01*
X74835391Y-31963571D01*
X80738940Y-31963571D01*
X81490000Y-32714630D01*
X82241060Y-31963571D01*
X82159537Y-31729070D01*
X81610727Y-31571877D01*
X81043538Y-31636669D01*
X80820463Y-31729070D01*
X80738940Y-31963571D01*
X74835391Y-31963571D01*
X74447264Y-31704233D01*
X73898113Y-31595000D01*
X73841887Y-31595000D01*
X73292736Y-31704233D01*
X72827189Y-32015302D01*
X72516120Y-32480849D01*
X72406887Y-33030000D01*
X70979404Y-33030000D01*
X71175824Y-32833923D01*
X71394750Y-32306691D01*
X71395248Y-31735813D01*
X71177243Y-31208200D01*
X70773923Y-30804176D01*
X70643785Y-30750138D01*
X70771800Y-30697243D01*
X71175824Y-30293923D01*
X71394750Y-29766691D01*
X71395170Y-29284187D01*
X72444752Y-29284187D01*
X72662757Y-29811800D01*
X73066077Y-30215824D01*
X73593309Y-30434750D01*
X74164187Y-30435248D01*
X74691800Y-30217243D01*
X75095824Y-29813923D01*
X75314750Y-29286691D01*
X75315000Y-29000000D01*
X80036887Y-29000000D01*
X80146120Y-29549151D01*
X80457189Y-30014698D01*
X80922736Y-30325767D01*
X81471887Y-30435000D01*
X81528113Y-30435000D01*
X82077264Y-30325767D01*
X82542811Y-30014698D01*
X82853880Y-29549151D01*
X82963113Y-29000000D01*
X82853880Y-28450849D01*
X82542811Y-27985302D01*
X82077264Y-27674233D01*
X81528113Y-27565000D01*
X81471887Y-27565000D01*
X80922736Y-27674233D01*
X80457189Y-27985302D01*
X80146120Y-28450849D01*
X80036887Y-29000000D01*
X75315000Y-29000000D01*
X75315248Y-28715813D01*
X75097243Y-28188200D01*
X74693923Y-27784176D01*
X74166691Y-27565250D01*
X73595813Y-27564752D01*
X73068200Y-27782757D01*
X72664176Y-28186077D01*
X72445250Y-28713309D01*
X72444752Y-29284187D01*
X71395170Y-29284187D01*
X71395248Y-29195813D01*
X71177243Y-28668200D01*
X70773923Y-28264176D01*
X70246691Y-28045250D01*
X69675813Y-28044752D01*
X69148200Y-28262757D01*
X68744176Y-28666077D01*
X68525250Y-29193309D01*
X68524752Y-29764187D01*
X68742757Y-30291800D01*
X69146077Y-30695824D01*
X69276215Y-30749862D01*
X69148200Y-30802757D01*
X68744176Y-31206077D01*
X68690138Y-31336215D01*
X68637243Y-31208200D01*
X68233923Y-30804176D01*
X67706691Y-30585250D01*
X67135813Y-30584752D01*
X66608200Y-30802757D01*
X66204176Y-31206077D01*
X65985250Y-31733309D01*
X65984752Y-32304187D01*
X66202757Y-32831800D01*
X66606077Y-33235824D01*
X67133309Y-33454750D01*
X67704187Y-33455248D01*
X68231800Y-33237243D01*
X68635824Y-32833923D01*
X68689862Y-32703785D01*
X68742757Y-32831800D01*
X69146077Y-33235824D01*
X69276215Y-33289862D01*
X69148200Y-33342757D01*
X68744176Y-33746077D01*
X68525250Y-34273309D01*
X68524752Y-34844187D01*
X68742757Y-35371800D01*
X69146077Y-35775824D01*
X69276215Y-35829862D01*
X69148200Y-35882757D01*
X68744176Y-36286077D01*
X68690138Y-36416215D01*
X68637243Y-36288200D01*
X68233923Y-35884176D01*
X67706691Y-35665250D01*
X67135813Y-35664752D01*
X66608200Y-35882757D01*
X66204176Y-36286077D01*
X65985250Y-36813309D01*
X65984752Y-37384187D01*
X66202757Y-37911800D01*
X66606077Y-38315824D01*
X66736215Y-38369862D01*
X66608200Y-38422757D01*
X66204176Y-38826077D01*
X65985250Y-39353309D01*
X65984752Y-39924187D01*
X66202757Y-40451800D01*
X66606077Y-40855824D01*
X66736215Y-40909862D01*
X66608200Y-40962757D01*
X66204176Y-41366077D01*
X65985250Y-41893309D01*
X65984752Y-42464187D01*
X66202757Y-42991800D01*
X66606077Y-43395824D01*
X67133309Y-43614750D01*
X67704187Y-43615248D01*
X68231800Y-43397243D01*
X68635824Y-42993923D01*
X68689862Y-42863785D01*
X68742757Y-42991800D01*
X69146077Y-43395824D01*
X69276215Y-43449862D01*
X69148200Y-43502757D01*
X68744176Y-43906077D01*
X68525250Y-44433309D01*
X68524752Y-45004187D01*
X68742757Y-45531800D01*
X69146077Y-45935824D01*
X69276215Y-45989862D01*
X69148200Y-46042757D01*
X68744176Y-46446077D01*
X68525250Y-46973309D01*
X68524752Y-47544187D01*
X68742757Y-48071800D01*
X69146077Y-48475824D01*
X69276215Y-48529862D01*
X69148200Y-48582757D01*
X68744176Y-48986077D01*
X68525250Y-49513309D01*
X68524752Y-50084187D01*
X68742757Y-50611800D01*
X69146077Y-51015824D01*
X69276215Y-51069862D01*
X69148200Y-51122757D01*
X68744176Y-51526077D01*
X68525250Y-52053309D01*
X68524752Y-52624187D01*
X68742757Y-53151800D01*
X69146077Y-53555824D01*
X69276215Y-53609862D01*
X69148200Y-53662757D01*
X68744176Y-54066077D01*
X68525250Y-54593309D01*
X68524752Y-55164187D01*
X68742757Y-55691800D01*
X69146077Y-56095824D01*
X69276215Y-56149862D01*
X69148200Y-56202757D01*
X68744176Y-56606077D01*
X68525250Y-57133309D01*
X68524752Y-57704187D01*
X68742757Y-58231800D01*
X69146077Y-58635824D01*
X69276215Y-58689862D01*
X69148200Y-58742757D01*
X68744176Y-59146077D01*
X68525250Y-59673309D01*
X68524752Y-60244187D01*
X68742757Y-60771800D01*
X69146077Y-61175824D01*
X69276215Y-61229862D01*
X69148200Y-61282757D01*
X68744176Y-61686077D01*
X68690138Y-61816215D01*
X68637243Y-61688200D01*
X68233923Y-61284176D01*
X67706691Y-61065250D01*
X67135813Y-61064752D01*
X66608200Y-61282757D01*
X66204176Y-61686077D01*
X66150138Y-61816215D01*
X66097243Y-61688200D01*
X65693923Y-61284176D01*
X65563785Y-61230138D01*
X65691800Y-61177243D01*
X66095824Y-60773923D01*
X66314750Y-60246691D01*
X66315248Y-59675813D01*
X66097243Y-59148200D01*
X65693923Y-58744176D01*
X65563785Y-58690138D01*
X65691800Y-58637243D01*
X66095824Y-58233923D01*
X66314750Y-57706691D01*
X66315248Y-57135813D01*
X66097243Y-56608200D01*
X65693923Y-56204176D01*
X65563785Y-56150138D01*
X65691800Y-56097243D01*
X66095824Y-55693923D01*
X66314750Y-55166691D01*
X66315248Y-54595813D01*
X66097243Y-54068200D01*
X65693923Y-53664176D01*
X65563785Y-53610138D01*
X65691800Y-53557243D01*
X66095824Y-53153923D01*
X66314750Y-52626691D01*
X66315248Y-52055813D01*
X66097243Y-51528200D01*
X65693923Y-51124176D01*
X65563785Y-51070138D01*
X65691800Y-51017243D01*
X66095824Y-50613923D01*
X66314750Y-50086691D01*
X66315248Y-49515813D01*
X66097243Y-48988200D01*
X65693923Y-48584176D01*
X65563785Y-48530138D01*
X65691800Y-48477243D01*
X66095824Y-48073923D01*
X66314750Y-47546691D01*
X66315248Y-46975813D01*
X66097243Y-46448200D01*
X65693923Y-46044176D01*
X65563785Y-45990138D01*
X65691800Y-45937243D01*
X66095824Y-45533923D01*
X66314750Y-45006691D01*
X66315248Y-44435813D01*
X66097243Y-43908200D01*
X65693923Y-43504176D01*
X65166691Y-43285250D01*
X64595813Y-43284752D01*
X64068200Y-43502757D01*
X63664176Y-43906077D01*
X63610138Y-44036215D01*
X63557243Y-43908200D01*
X63153923Y-43504176D01*
X62626691Y-43285250D01*
X62055813Y-43284752D01*
X61528200Y-43502757D01*
X61124176Y-43906077D01*
X60905250Y-44433309D01*
X60904752Y-45004187D01*
X61122757Y-45531800D01*
X61526077Y-45935824D01*
X61656215Y-45989862D01*
X61528200Y-46042757D01*
X61124176Y-46446077D01*
X60905250Y-46973309D01*
X60904752Y-47544187D01*
X61122757Y-48071800D01*
X61526077Y-48475824D01*
X61656215Y-48529862D01*
X61528200Y-48582757D01*
X61124176Y-48986077D01*
X60905250Y-49513309D01*
X60904752Y-50084187D01*
X61122757Y-50611800D01*
X61526077Y-51015824D01*
X61656215Y-51069862D01*
X61528200Y-51122757D01*
X61124176Y-51526077D01*
X60905250Y-52053309D01*
X60904752Y-52624187D01*
X61122757Y-53151800D01*
X61526077Y-53555824D01*
X61656215Y-53609862D01*
X61528200Y-53662757D01*
X61124176Y-54066077D01*
X60905250Y-54593309D01*
X60904752Y-55164187D01*
X61122757Y-55691800D01*
X61526077Y-56095824D01*
X61656215Y-56149862D01*
X61528200Y-56202757D01*
X61124176Y-56606077D01*
X60905250Y-57133309D01*
X60904752Y-57704187D01*
X61122757Y-58231800D01*
X61526077Y-58635824D01*
X61656215Y-58689862D01*
X61528200Y-58742757D01*
X61124176Y-59146077D01*
X60905250Y-59673309D01*
X60904752Y-60244187D01*
X61122757Y-60771800D01*
X61526077Y-61175824D01*
X61656215Y-61229862D01*
X61528200Y-61282757D01*
X61124176Y-61686077D01*
X61070138Y-61816215D01*
X61017243Y-61688200D01*
X60613923Y-61284176D01*
X60086691Y-61065250D01*
X59515813Y-61064752D01*
X58988200Y-61282757D01*
X58584176Y-61686077D01*
X58530138Y-61816215D01*
X58477243Y-61688200D01*
X58073923Y-61284176D01*
X57546691Y-61065250D01*
X56975813Y-61064752D01*
X56448200Y-61282757D01*
X56044176Y-61686077D01*
X55990138Y-61816215D01*
X55937243Y-61688200D01*
X55533923Y-61284176D01*
X55403785Y-61230138D01*
X55531800Y-61177243D01*
X55935824Y-60773923D01*
X56154750Y-60246691D01*
X56155248Y-59675813D01*
X55937243Y-59148200D01*
X55533923Y-58744176D01*
X55403785Y-58690138D01*
X55531800Y-58637243D01*
X55935824Y-58233923D01*
X56154750Y-57706691D01*
X56155248Y-57135813D01*
X55937243Y-56608200D01*
X55533923Y-56204176D01*
X55403785Y-56150138D01*
X55531800Y-56097243D01*
X55935824Y-55693923D01*
X56154750Y-55166691D01*
X56155248Y-54595813D01*
X55937243Y-54068200D01*
X55533923Y-53664176D01*
X55403785Y-53610138D01*
X55531800Y-53557243D01*
X55935824Y-53153923D01*
X56154750Y-52626691D01*
X56155248Y-52055813D01*
X55937243Y-51528200D01*
X55533923Y-51124176D01*
X55403785Y-51070138D01*
X55531800Y-51017243D01*
X55935824Y-50613923D01*
X56154750Y-50086691D01*
X56155248Y-49515813D01*
X55937243Y-48988200D01*
X55533923Y-48584176D01*
X55403785Y-48530138D01*
X55531800Y-48477243D01*
X55935824Y-48073923D01*
X56154750Y-47546691D01*
X56155248Y-46975813D01*
X55937243Y-46448200D01*
X55533923Y-46044176D01*
X55403785Y-45990138D01*
X55531800Y-45937243D01*
X55935824Y-45533923D01*
X56154750Y-45006691D01*
X56155248Y-44435813D01*
X55937243Y-43908200D01*
X55533923Y-43504176D01*
X55403785Y-43450138D01*
X55531800Y-43397243D01*
X55935824Y-42993923D01*
X56154750Y-42466691D01*
X56155248Y-41895813D01*
X55937243Y-41368200D01*
X55533923Y-40964176D01*
X55403785Y-40910138D01*
X55531800Y-40857243D01*
X55935824Y-40453923D01*
X56154750Y-39926691D01*
X56155248Y-39355813D01*
X55937243Y-38828200D01*
X55533923Y-38424176D01*
X55403785Y-38370138D01*
X55531800Y-38317243D01*
X55935824Y-37913923D01*
X56154750Y-37386691D01*
X56155248Y-36815813D01*
X55937243Y-36288200D01*
X55793188Y-36143893D01*
X60754725Y-36143893D01*
X60995519Y-36726657D01*
X61440997Y-37172914D01*
X62023341Y-37414724D01*
X62653893Y-37415275D01*
X63236657Y-37174481D01*
X63682914Y-36729003D01*
X63924724Y-36146659D01*
X63925275Y-35516107D01*
X63684481Y-34933343D01*
X63239003Y-34487086D01*
X62656659Y-34245276D01*
X62026107Y-34244725D01*
X61443343Y-34485519D01*
X60997086Y-34930997D01*
X60755276Y-35513341D01*
X60754725Y-36143893D01*
X55793188Y-36143893D01*
X55533923Y-35884176D01*
X55403785Y-35830138D01*
X55531800Y-35777243D01*
X55935824Y-35373923D01*
X56154750Y-34846691D01*
X56155248Y-34275813D01*
X55937243Y-33748200D01*
X55533923Y-33344176D01*
X55403785Y-33290138D01*
X55531800Y-33237243D01*
X55935824Y-32833923D01*
X56154750Y-32306691D01*
X56155248Y-31735813D01*
X55937243Y-31208200D01*
X55644554Y-30915000D01*
X55646310Y-30915000D01*
X55879699Y-30818327D01*
X56058327Y-30639698D01*
X56155000Y-30406309D01*
X56155000Y-29861750D01*
X55996250Y-29703000D01*
X54943000Y-29703000D01*
X54943000Y-29723000D01*
X54497000Y-29723000D01*
X54497000Y-29703000D01*
X53443750Y-29703000D01*
X53285000Y-29861750D01*
X53285000Y-30406309D01*
X53381673Y-30639698D01*
X53560301Y-30818327D01*
X53793690Y-30915000D01*
X53795761Y-30915000D01*
X53504176Y-31206077D01*
X53285250Y-31733309D01*
X53284752Y-32304187D01*
X36103818Y-32304187D01*
X35691000Y-31891370D01*
X34967758Y-32614611D01*
X17872242Y-32614611D01*
X17149000Y-31891370D01*
X16425758Y-32614611D01*
X835000Y-32614611D01*
X835000Y-31464427D01*
X15729008Y-31464427D01*
X15794402Y-32016327D01*
X15879796Y-32222488D01*
X16110389Y-32299242D01*
X16833630Y-31576000D01*
X17464370Y-31576000D01*
X18187611Y-32299242D01*
X18418204Y-32222488D01*
X18568992Y-31687573D01*
X18542552Y-31464427D01*
X34271008Y-31464427D01*
X34336402Y-32016327D01*
X34421796Y-32222488D01*
X34652389Y-32299242D01*
X35375630Y-31576000D01*
X36006370Y-31576000D01*
X36729611Y-32299242D01*
X36960204Y-32222488D01*
X37110992Y-31687573D01*
X37045598Y-31135673D01*
X36960204Y-30929512D01*
X36729611Y-30852758D01*
X36006370Y-31576000D01*
X35375630Y-31576000D01*
X34652389Y-30852758D01*
X34421796Y-30929512D01*
X34271008Y-31464427D01*
X18542552Y-31464427D01*
X18503598Y-31135673D01*
X18418204Y-30929512D01*
X18187611Y-30852758D01*
X17464370Y-31576000D01*
X16833630Y-31576000D01*
X16110389Y-30852758D01*
X15879796Y-30929512D01*
X15729008Y-31464427D01*
X835000Y-31464427D01*
X835000Y-30074611D01*
X16425758Y-30074611D01*
X16502512Y-30305204D01*
X16504799Y-30305849D01*
X16502512Y-30306796D01*
X16425758Y-30537389D01*
X17149000Y-31260630D01*
X17872242Y-30537389D01*
X17795488Y-30306796D01*
X17793201Y-30306151D01*
X17795488Y-30305204D01*
X17872242Y-30074611D01*
X34967758Y-30074611D01*
X35044512Y-30305204D01*
X35046799Y-30305849D01*
X35044512Y-30306796D01*
X34967758Y-30537389D01*
X35691000Y-31260630D01*
X36414242Y-30537389D01*
X36337488Y-30306796D01*
X36335201Y-30306151D01*
X36337488Y-30305204D01*
X36414242Y-30074611D01*
X35691000Y-29351370D01*
X34967758Y-30074611D01*
X17872242Y-30074611D01*
X17149000Y-29351370D01*
X16425758Y-30074611D01*
X835000Y-30074611D01*
X835000Y-28924427D01*
X15729008Y-28924427D01*
X15794402Y-29476327D01*
X15879796Y-29682488D01*
X16110389Y-29759242D01*
X16833630Y-29036000D01*
X17464370Y-29036000D01*
X18187611Y-29759242D01*
X18418204Y-29682488D01*
X18568992Y-29147573D01*
X18542552Y-28924427D01*
X34271008Y-28924427D01*
X34336402Y-29476327D01*
X34421796Y-29682488D01*
X34652389Y-29759242D01*
X35375630Y-29036000D01*
X36006370Y-29036000D01*
X36729611Y-29759242D01*
X36960204Y-29682488D01*
X37110992Y-29147573D01*
X37045598Y-28595673D01*
X37007476Y-28503637D01*
X40205091Y-28503637D01*
X40505466Y-29066448D01*
X40998354Y-29471469D01*
X41296365Y-29594895D01*
X41547000Y-29489310D01*
X41547000Y-28253000D01*
X41993000Y-28253000D01*
X41993000Y-29489310D01*
X42243635Y-29594895D01*
X42541646Y-29471469D01*
X43034534Y-29066448D01*
X43308194Y-28553691D01*
X53285000Y-28553691D01*
X53285000Y-29098250D01*
X53443750Y-29257000D01*
X54497000Y-29257000D01*
X54497000Y-28203750D01*
X54943000Y-28203750D01*
X54943000Y-29257000D01*
X55996250Y-29257000D01*
X56155000Y-29098250D01*
X56155000Y-28553691D01*
X56058327Y-28320302D01*
X55879699Y-28141673D01*
X55646310Y-28045000D01*
X55101750Y-28045000D01*
X54943000Y-28203750D01*
X54497000Y-28203750D01*
X54338250Y-28045000D01*
X53793690Y-28045000D01*
X53560301Y-28141673D01*
X53381673Y-28320302D01*
X53285000Y-28553691D01*
X43308194Y-28553691D01*
X43334909Y-28503637D01*
X43230986Y-28253000D01*
X41993000Y-28253000D01*
X41547000Y-28253000D01*
X40309014Y-28253000D01*
X40205091Y-28503637D01*
X37007476Y-28503637D01*
X36960204Y-28389512D01*
X36729611Y-28312758D01*
X36006370Y-29036000D01*
X35375630Y-29036000D01*
X34652389Y-28312758D01*
X34421796Y-28389512D01*
X34271008Y-28924427D01*
X18542552Y-28924427D01*
X18503598Y-28595673D01*
X18418204Y-28389512D01*
X18187611Y-28312758D01*
X17464370Y-29036000D01*
X16833630Y-29036000D01*
X16110389Y-28312758D01*
X15879796Y-28389512D01*
X15729008Y-28924427D01*
X835000Y-28924427D01*
X835000Y-27997389D01*
X16425758Y-27997389D01*
X17149000Y-28720630D01*
X17872242Y-27997389D01*
X34967758Y-27997389D01*
X35691000Y-28720630D01*
X36414242Y-27997389D01*
X36337488Y-27766796D01*
X35802573Y-27616008D01*
X35250673Y-27681402D01*
X35044512Y-27766796D01*
X34967758Y-27997389D01*
X17872242Y-27997389D01*
X17795488Y-27766796D01*
X17260573Y-27616008D01*
X16708673Y-27681402D01*
X16502512Y-27766796D01*
X16425758Y-27997389D01*
X835000Y-27997389D01*
X835000Y-27556363D01*
X40205091Y-27556363D01*
X40309014Y-27807000D01*
X41547000Y-27807000D01*
X41547000Y-26570690D01*
X41993000Y-26570690D01*
X41993000Y-27807000D01*
X43230986Y-27807000D01*
X43334909Y-27556363D01*
X43034534Y-26993552D01*
X42541646Y-26588531D01*
X42243635Y-26465105D01*
X41993000Y-26570690D01*
X41547000Y-26570690D01*
X41296365Y-26465105D01*
X40998354Y-26588531D01*
X40505466Y-26993552D01*
X40205091Y-27556363D01*
X835000Y-27556363D01*
X835000Y-25442619D01*
X2764613Y-25442619D01*
X3104155Y-26264372D01*
X3732321Y-26893636D01*
X4553481Y-27234611D01*
X5442619Y-27235387D01*
X6264372Y-26895845D01*
X6893636Y-26267679D01*
X7234611Y-25446519D01*
X7234614Y-25442619D01*
X92264613Y-25442619D01*
X92604155Y-26264372D01*
X93232321Y-26893636D01*
X94053481Y-27234611D01*
X94942619Y-27235387D01*
X95764372Y-26895845D01*
X96393636Y-26267679D01*
X96734611Y-25446519D01*
X96735387Y-24557381D01*
X96395845Y-23735628D01*
X95767679Y-23106364D01*
X94946519Y-22765389D01*
X94057381Y-22764613D01*
X93235628Y-23104155D01*
X92606364Y-23732321D01*
X92265389Y-24553481D01*
X92264613Y-25442619D01*
X7234614Y-25442619D01*
X7235387Y-24557381D01*
X6895845Y-23735628D01*
X6267679Y-23106364D01*
X5446519Y-22765389D01*
X4557381Y-22764613D01*
X3735628Y-23104155D01*
X3106364Y-23732321D01*
X2765389Y-24553481D01*
X2764613Y-25442619D01*
X835000Y-25442619D01*
X835000Y-20835000D01*
X24500000Y-20835000D01*
X24580659Y-20818956D01*
X24662900Y-20818956D01*
X25045583Y-20742836D01*
X25346584Y-20618157D01*
X25671008Y-20401384D01*
X25901384Y-20171008D01*
X25930789Y-20127000D01*
X33569211Y-20127000D01*
X33598616Y-20171008D01*
M02*
